<?xml version="1.0" encoding="utf-8"?>
<!-- Generator: Adobe Illustrator 16.0.0, SVG Export Plug-In . SVG Version: 6.00 Build 0)  -->
<!DOCTYPE svg PUBLIC "-//W3C//DTD SVG 1.1//EN" "http://www.w3.org/Graphics/SVG/1.1/DTD/svg11.dtd">
<svg version="1.1" id="Layer_1" xmlns="http://www.w3.org/2000/svg" xmlns:xlink="http://www.w3.org/1999/xlink" x="0px" y="0px"
	 width="191.5px" height="191.5px" viewBox="0 108.5 191.5 191.5" enable-background="new 0 108.5 191.5 191.5"
	 xml:space="preserve">
<path fill="#009CDE" d="M68.462,154.76c6.516,3.58,14.721,1.189,18.298-5.323c0.232-0.428,0.445-0.87,0.635-1.323
	c1.343-2.788,4.05-4.522,7.09-4.572c4.408,0.072,7.94,3.417,8.251,7.782c0.117,3.584-2.059,6.744-5.408,7.907
	c-9.57,3.117-16.048,11.959-16.138,22.006v10.34c0,7.432,6.045,13.477,13.476,13.477c7.43,0,13.475-6.045,13.475-13.477v-7.688
	l0.596-0.26c13.127-5.783,21.337-18.785,20.914-33.123c-0.682-18.925-16.052-33.82-34.989-33.91
	c-13.478,0.103-25.753,7.883-31.498,19.823c-1.758,3.203-2.157,6.842-1.152,10.3C63.018,150.169,65.308,153.029,68.462,154.76z
	 M68.38,141.912c0.207-0.96,0.647-1.875,1.265-2.647c4.453-9.327,14.232-15.537,24.793-15.625
	c15.595,0.018,28.114,12.562,28.098,27.968c-0.013,10.345-5.702,19.675-14.56,24.499h0.649l-3.16,1.209
	c-0.575,0.242-1.159,0.467-1.757,0.672l-0.133,0.053c-0.26,0.1-0.513,0.219-0.75,0.361c-1.062,0.633-1.721,1.793-1.721,3.027v10.154
	c0,3.541-2.882,6.424-6.428,6.424c-3.545,0-6.425-2.883-6.425-6.424v-10.318c0.043-7.057,4.583-13.256,11.293-15.422
	c6.288-2.221,10.38-8.212,10.163-14.903c-0.488-8.047-7.205-14.442-15.296-14.535c-5.725,0-11.05,3.33-13.562,8.485
	c-0.683,3.235-4.12,5.42-7.575,4.678c-1.677-0.365-3.109-1.365-4.037-2.81C68.317,145.307,68.01,143.587,68.38,141.912z"/>
<path fill="#009CDE" d="M94.683,212.837c-7.431,0-13.476,6.045-13.476,13.477c0,7.43,6.045,13.477,13.476,13.477
	c7.43,0,13.475-6.047,13.475-13.477C108.157,218.882,102.112,212.837,94.683,212.837z M94.747,232.792l-1.008,0.01l-0.007-0.135
	c-3.095-0.461-5.476-3.135-5.476-6.355c0-3.543,2.883-6.426,6.426-6.426s6.428,2.883,6.428,6.426
	C101.146,229.847,98.29,232.757,94.747,232.792z"/>
<path fill="#009CDE" d="M152.372,167.845H140.58c-1.942,0-3.525,1.582-3.525,3.525c0,1.941,1.58,3.525,3.525,3.525h11.795
	c5.931,0.006,10.75,4.84,10.75,10.766v61.51c-0.032,5.898-4.854,10.703-10.75,10.713H112.16c-0.87,0-1.705,0.32-2.354,0.902
	l-29.908,26.822v-24.199c0-1.943-1.58-3.525-3.525-3.525H39.125c-5.918-0.01-10.74-4.832-10.75-10.748v-61.512
	c0-5.924,4.822-10.758,10.75-10.768h25.183c1.942,0,3.524-1.582,3.524-3.523c0-1.943-1.58-3.523-3.524-3.523H39.125
	c-9.812,0.02-17.798,8.018-17.798,17.832v61.51c0.027,9.785,8.013,17.76,17.8,17.779H72.85v19.219
	c-0.024,3.07,1.771,5.838,4.577,7.062l0.011,0.004c1.013,0.459,2.092,0.688,3.207,0.688c1.902-0.004,3.726-0.715,5.133-2
	l27.681-24.973h38.917c9.802-0.02,17.788-8.012,17.798-17.816v-61.508C170.135,175.833,162.149,167.862,152.372,167.845z"/>
</svg>
