<?xml version="1.0" encoding="utf-8"?>
<!-- Generator: Adobe Illustrator 16.0.0, SVG Export Plug-In . SVG Version: 6.00 Build 0)  -->
<!DOCTYPE svg PUBLIC "-//W3C//DTD SVG 1.1//EN" "http://www.w3.org/Graphics/SVG/1.1/DTD/svg11.dtd">
<svg version="1.1" id="Layer_1" xmlns="http://www.w3.org/2000/svg" xmlns:xlink="http://www.w3.org/1999/xlink" x="0px" y="0px"
	 width="296.5px" height="97.5px" viewBox="0 0 296.5 97.5" enable-background="new 0 0 296.5 97.5" xml:space="preserve">
<g>
	<polygon fill="#0071AE" points="259.68,26.886 225.168,61.399 259.68,61.399 	"/>
	<polygon fill="#99C7EC" points="259.68,96.502 259.68,61.396 225.168,61.396 224.867,61.691 	"/>
	<polygon fill="#99C7EC" points="294.642,61.396 259.9,26.662 259.677,26.881 259.677,61.396 	"/>
	<polygon fill="#019CDB" points="259.68,96.502 259.902,96.728 294.941,61.691 294.644,61.396 259.68,61.396 	"/>
	<polygon fill="#0071AE" points="224.869,35.79 235.091,46.01 259.68,21.116 259.68,0.975 	"/>
	<polygon fill="#99C7EC" points="284.618,46.11 294.937,35.786 259.902,0.752 259.68,0.975 259.68,21.113 259.902,20.888 	"/>
	<g>
		<path fill="#019CDB" d="M1.003,33.14h19.649c5.467,0,9.704,1.534,12.527,4.361c2.395,2.394,3.686,5.77,3.686,9.825v0.123
			c0,6.938-3.747,11.298-9.212,13.323l10.501,15.354H27.099l-9.208-13.757h-7.431v13.757H1.003V33.14z M20.04,54.018
			c4.605,0,7.245-2.454,7.245-6.081v-0.125c0-4.048-2.825-6.136-7.43-6.136h-9.395v12.341H20.04z"/>
		<path fill="#019CDB" d="M56.027,59.178L39.508,33.14h11.054l10.255,17.254L71.255,33.14h10.746L65.484,58.99v17.135h-9.458V59.178
			z"/>
		<path fill="#019CDB" d="M87.9,33.14h32.729v8.594H97.356v9.153h20.51v8.597h-20.51v16.642H87.9V33.14z"/>
		<path fill="#019CDB" d="M138.195,41.859h-13.08v-8.72h35.616v8.72h-13.08v34.266h-9.457V41.859z"/>
		<path fill="#019CDB" d="M164.175,69.861l5.587-6.694c3.867,3.193,7.92,5.219,12.834,5.219c3.868,0,6.201-1.536,6.201-4.053V64.21
			c0-2.394-1.476-3.621-8.657-5.464c-8.659-2.21-14.247-4.606-14.247-13.14v-0.123c0-7.799,6.263-12.957,15.042-12.957
			c6.266,0,11.609,1.965,15.968,5.466l-4.912,7.123c-3.808-2.642-7.554-4.238-11.176-4.238s-5.528,1.657-5.528,3.745v0.123
			c0,2.827,1.844,3.747,9.275,5.649c8.717,2.272,13.631,5.405,13.631,12.896v0.121c0,8.538-6.509,13.325-15.779,13.325
			C175.902,76.736,169.333,74.466,164.175,69.861z"/>
	</g>
</g>
</svg>
