<?xml version="1.0" encoding="utf-8"?>
<!-- Generator: Adobe Illustrator 16.0.0, SVG Export Plug-In . SVG Version: 6.00 Build 0)  -->
<!DOCTYPE svg PUBLIC "-//W3C//DTD SVG 1.1//EN" "http://www.w3.org/Graphics/SVG/1.1/DTD/svg11.dtd">
<svg version="1.1" xmlns="http://www.w3.org/2000/svg" xmlns:xlink="http://www.w3.org/1999/xlink" x="0px" y="0px" width="245px"
	 height="354.667px" viewBox="0 0 245 354.667" enable-background="new 0 0 245 354.667" xml:space="preserve">
<g id="Logo_for_white_background">
</g>
<g id="Logo_for_light_blue_background">
	<path fill="#0071AE" d="M120.266,249.646c-45.232,0-82.031-36.799-82.031-82.031c0.001-27.544,13.715-53.103,36.687-68.37
		l2.111,3.177c-21.905,14.558-34.982,38.929-34.983,65.193c0,43.129,35.088,78.217,78.217,78.217
		c43.134,0,78.226-35.088,78.226-78.217c0-26.292-13.099-50.676-35.04-65.229l2.107-3.179c23.01,15.262,36.747,40.834,36.747,68.408
		C202.306,212.847,165.502,249.646,120.266,249.646z M120.049,233.936c-36.569,0-66.32-29.752-66.32-66.321
		c0-22.472,11.245-43.238,30.08-55.549l2.088,3.192c-17.754,11.604-28.354,31.177-28.354,52.357
		c0,34.467,28.039,62.507,62.506,62.507c34.468,0,62.509-28.04,62.509-62.507c0-20.824-10.325-40.215-27.619-51.869l2.131-3.163
		c18.349,12.365,29.303,32.938,29.303,55.032C186.372,204.184,156.619,233.936,120.049,233.936z"/>
	<path fill="#FFFFFF" d="M121.154,266.023c-54.266,0-98.413-44.146-98.413-98.408c0-21.725,6.029-41.066,17.436-55.935
		c6.649-8.67,26.032-30.864,31.024-36.563L53.613,56.686c-0.715-0.75-0.701-1.933,0.031-2.665l31.861-31.86
		c0.718-0.72,1.875-0.748,2.629-0.064c0.024,0.021,2.441,2.214,5.963,5.518c0.769,0.721,0.807,1.927,0.086,2.695
		s-1.927,0.806-2.695,0.086c-1.934-1.814-3.529-3.289-4.574-4.25L57.658,55.401l17.507,18.346c0.683,0.715,0.705,1.833,0.053,2.575
		c-0.245,0.279-24.597,28.007-32.015,37.68c-10.892,14.197-16.648,32.736-16.648,53.614c0,52.159,42.438,94.593,94.6,94.593
		c52.164,0,94.603-42.435,94.603-94.593c0-20.146-5.313-38.024-15.365-51.704c-7.563-10.293-32.623-39.762-32.875-40.059
		c-0.627-0.737-0.603-1.827,0.057-2.535l16.667-17.901l-29.209-29.211l-5.312,5.311c-0.744,0.745-1.951,0.745-2.696,0
		c-0.745-0.745-0.744-1.952,0.001-2.697l6.659-6.658c0.717-0.716,1.98-0.716,2.697,0l31.858,31.86
		c0.726,0.726,0.746,1.896,0.047,2.647L171.52,74.676c4.997,5.89,25.126,29.698,31.944,38.979
		c10.537,14.338,16.107,32.998,16.107,53.961C219.571,221.878,175.422,266.023,121.154,266.023z"/>
	<path fill="#FFFFFF" d="M7,300.656h23.01c6.4,0,11.363,1.798,14.67,5.107c2.805,2.803,4.314,6.759,4.314,11.506v0.143
		c0,8.124-4.385,13.23-10.786,15.605l12.296,17.974H37.561l-10.787-16.104h-8.699v16.104H7V300.656z M29.293,325.105
		c5.391,0,8.484-2.877,8.484-7.116v-0.145c0-4.747-3.307-7.19-8.701-7.19H18.074v14.451H29.293z"/>
	<path fill="#FFFFFF" d="M71.43,331.147l-19.343-30.491h12.942l12.01,20.207l12.223-20.207h12.585L82.504,330.93v20.062H71.43
		V331.147z"/>
	<path fill="#FFFFFF" d="M108.748,300.656h38.331v10.068h-27.255v10.717h24.02v10.064h-24.02v19.485h-11.076V300.656z"/>
	<path fill="#FFFFFF" d="M167.646,310.868h-15.317v-10.212h41.707v10.212h-15.317v40.123h-11.072V310.868z"/>
	<path fill="#FFFFFF" d="M198.064,343.659l6.543-7.837c4.529,3.738,9.275,6.11,15.027,6.11c4.531,0,7.264-1.799,7.264-4.744v-0.145
		c0-2.804-1.726-4.244-10.138-6.401c-10.142-2.588-16.685-5.392-16.685-15.385v-0.146c0-9.132,7.335-15.175,17.617-15.175
		c7.335,0,13.592,2.303,18.695,6.402l-5.75,8.341c-4.461-3.093-8.847-4.962-13.089-4.962c-4.241,0-6.471,1.941-6.471,4.388v0.142
		c0,3.308,2.156,4.388,10.856,6.615c10.211,2.661,15.964,6.33,15.964,15.103v0.143c0,9.994-7.623,15.602-18.48,15.602
		C211.798,351.71,204.103,349.052,198.064,343.659z"/>
	<path fill="#FFFFFF" d="M123.478,215.322c0,1.996-1.618,3.613-3.612,3.613c-1.99,0-3.607-1.617-3.607-3.613
		c0-1.989,1.617-3.604,3.607-3.604C121.859,211.719,123.478,213.333,123.478,215.322"/>
	<path fill="#FFFFFF" d="M138.105,211.863c0.615,1.895-0.42,3.933-2.312,4.549c-1.898,0.617-3.934-0.421-4.552-2.317
		c-0.614-1.895,0.425-3.929,2.315-4.546C135.455,208.934,137.487,209.97,138.105,211.863"/>
	<path fill="#FFFFFF" d="M150.949,204.06c1.172,1.605,0.808,3.864-0.796,5.034c-1.614,1.174-3.871,0.815-5.043-0.797
		c-1.174-1.613-0.812-3.869,0.798-5.04C147.523,202.086,149.775,202.444,150.949,204.06"/>
	<path fill="#FFFFFF" d="M94.627,126.543c1.173,1.611,0.816,3.871-0.797,5.039c-1.615,1.168-3.869,0.816-5.036-0.795
		c-1.175-1.616-0.818-3.872,0.794-5.048C91.2,124.571,93.457,124.931,94.627,126.543"/>
	<path fill="#FFFFFF" d="M160.75,192.659c1.61,1.173,1.966,3.43,0.798,5.037c-1.171,1.614-3.427,1.972-5.042,0.802
		c-1.611-1.173-1.967-3.429-0.798-5.041C156.882,191.845,159.138,191.486,160.75,192.659"/>
	<path fill="#FFFFFF" d="M83.231,136.341c1.611,1.173,1.97,3.431,0.801,5.04c-1.172,1.615-3.432,1.972-5.041,0.798
		c-1.617-1.172-1.974-3.426-0.794-5.037C79.363,135.528,81.621,135.168,83.231,136.341"/>
	<path fill="#FFFFFF" d="M166.548,178.792c1.896,0.615,2.93,2.652,2.316,4.545c-0.615,1.895-2.649,2.933-4.542,2.317
		c-1.902-0.613-2.938-2.651-2.322-4.548C162.617,179.211,164.654,178.177,166.548,178.792"/>
	<path fill="#FFFFFF" d="M75.423,149.187c1.895,0.614,2.933,2.653,2.315,4.544c-0.615,1.896-2.655,2.933-4.545,2.312
		c-1.895-0.613-2.938-2.65-2.318-4.544C71.488,149.606,73.527,148.566,75.423,149.187"/>
	<path fill="#FFFFFF" d="M167.778,163.814c1.991-0.003,3.604,1.614,3.604,3.602c0,1.996-1.613,3.612-3.604,3.612
		c-1.993,0-3.609-1.616-3.609-3.61C164.169,165.424,165.785,163.811,167.778,163.814"/>
	<path fill="#FFFFFF" d="M71.963,163.809c1.99,0,3.604,1.615,3.604,3.608s-1.613,3.612-3.604,3.612c-1.993,0-3.611-1.617-3.611-3.61
		C68.352,165.424,69.97,163.813,71.963,163.809"/>
	<path fill="#FFFFFF" d="M164.322,149.187c1.89-0.62,3.93,0.419,4.542,2.313c0.617,1.894-0.421,3.931-2.316,4.544
		c-1.894,0.621-3.931-0.417-4.548-2.312C161.385,151.834,162.424,149.801,164.322,149.187"/>
	<path fill="#FFFFFF" d="M73.19,178.792c1.895-0.616,3.933,0.419,4.548,2.314c0.617,1.896-0.423,3.933-2.318,4.548
		s-3.933-0.423-4.545-2.314C70.258,181.444,71.296,179.407,73.19,178.792"/>
	<path fill="#FFFFFF" d="M156.509,136.341c1.607-1.168,3.868-0.81,5.039,0.794c1.173,1.617,0.812,3.872-0.797,5.043
		c-1.616,1.174-3.869,0.819-5.044-0.798C154.539,139.771,154.898,137.511,156.509,136.341"/>
	<path fill="#FFFFFF" d="M78.991,192.659c1.609-1.173,3.869-0.814,5.041,0.798c1.169,1.609,0.811,3.868-0.801,5.041
		c-1.614,1.173-3.87,0.812-5.041-0.798C77.023,196.089,77.379,193.832,78.991,192.659"/>
	<path fill="#FFFFFF" d="M145.111,126.543c1.166-1.613,3.432-1.97,5.04-0.805c1.612,1.174,1.97,3.432,0.798,5.045
		c-1.172,1.614-3.426,1.967-5.041,0.798C144.296,130.41,143.941,128.151,145.111,126.543"/>
	<path fill="#FFFFFF" d="M88.794,204.06c1.169-1.615,3.424-1.974,5.038-0.803c1.611,1.171,1.968,3.427,0.794,5.04
		c-1.169,1.612-3.426,1.971-5.04,0.797C87.979,207.924,87.619,205.665,88.794,204.06"/>
	<path fill="#FFFFFF" d="M101.631,211.863c0.617-1.894,2.652-2.93,4.546-2.314c1.896,0.616,2.935,2.651,2.317,4.546
		c-0.613,1.897-2.65,2.935-4.547,2.317C102.053,215.796,101.018,213.758,101.631,211.863"/>
	<path fill="#0071AE" d="M117.221,204.158c-0.221,1.51-1.629,2.557-3.142,2.331c-1.513-0.22-2.556-1.627-2.331-3.142
		c0.224-1.51,1.63-2.557,3.143-2.329C116.402,201.242,117.444,202.647,117.221,204.158"/>
	<path fill="#0071AE" d="M128.704,203.178c0.257,1.505-0.756,2.933-2.267,3.188c-1.508,0.256-2.933-0.76-3.188-2.268
		c-0.256-1.507,0.756-2.931,2.271-3.188C127.026,200.659,128.449,201.675,128.704,203.178"/>
	<path fill="#0071AE" d="M139.324,198.699c0.715,1.353,0.182,3.026-1.174,3.731c-1.349,0.709-3.021,0.182-3.732-1.172
		c-0.705-1.349-0.18-3.025,1.176-3.732C136.945,196.82,138.617,197.346,139.324,198.699"/>
	<path fill="#0071AE" d="M105.318,133.581c0.709,1.354,0.183,3.024-1.171,3.729c-1.356,0.708-3.024,0.184-3.733-1.167
		c-0.707-1.357-0.184-3.029,1.172-3.735C102.939,131.701,104.609,132.222,105.318,133.581"/>
	<path fill="#0071AE" d="M148.04,191.157c1.089,1.069,1.104,2.822,0.04,3.908c-1.07,1.091-2.826,1.111-3.913,0.043
		c-1.093-1.071-1.112-2.826-0.039-3.916C145.199,190.103,146.95,190.088,148.04,191.157"/>
	<path fill="#0071AE" d="M95.57,139.73c1.094,1.072,1.109,2.822,0.041,3.914c-1.068,1.093-2.822,1.108-3.91,0.038
		c-1.096-1.065-1.109-2.819-0.038-3.909C92.729,138.68,94.48,138.662,95.57,139.73"/>
	<path fill="#0071AE" d="M154.003,181.294c1.36,0.679,1.918,2.336,1.238,3.703c-0.679,1.372-2.34,1.925-3.708,1.245
		c-1.367-0.681-1.928-2.338-1.25-3.708C150.971,181.167,152.627,180.609,154.003,181.294"/>
	<path fill="#0071AE" d="M88.205,148.592c1.368,0.681,1.926,2.341,1.249,3.712c-0.683,1.364-2.343,1.925-3.712,1.246
		c-1.368-0.68-1.928-2.341-1.245-3.711C85.176,148.475,86.839,147.913,88.205,148.592"/>
	<path fill="#0071AE" d="M156.61,170.068c1.514,0.219,2.556,1.63,2.336,3.14c-0.228,1.512-1.634,2.555-3.146,2.329
		c-1.511-0.225-2.558-1.626-2.335-3.14C153.696,170.886,155.103,169.842,156.61,170.068"/>
	<path fill="#0071AE" d="M83.938,159.298c1.512,0.227,2.558,1.633,2.334,3.144c-0.225,1.51-1.634,2.555-3.147,2.333
		c-1.509-0.227-2.555-1.632-2.329-3.149C81.021,160.123,82.429,159.078,83.938,159.298"/>
	<path fill="#0071AE" d="M155.631,158.58c1.506-0.254,2.934,0.764,3.19,2.268c0.254,1.51-0.764,2.938-2.268,3.19
		c-1.507,0.255-2.935-0.759-3.191-2.267C153.106,160.261,154.124,158.836,155.631,158.58"/>
	<path fill="#0071AE" d="M83.186,170.801c1.51-0.253,2.934,0.759,3.195,2.268c0.251,1.503-0.764,2.933-2.273,3.187
		c-1.51,0.257-2.934-0.762-3.186-2.268C80.668,172.483,81.684,171.058,83.186,170.801"/>
	<path fill="#0071AE" d="M151.152,147.965c1.353-0.705,3.021-0.181,3.732,1.171c0.704,1.356,0.177,3.027-1.17,3.737
		c-1.356,0.705-3.027,0.181-3.736-1.174C149.273,150.344,149.795,148.67,151.152,147.965"/>
	<path fill="#0071AE" d="M86.025,181.973c1.358-0.709,3.027-0.185,3.734,1.166c0.709,1.358,0.183,3.027-1.172,3.735
		c-1.355,0.709-3.03,0.181-3.731-1.171C84.152,184.349,84.676,182.679,86.025,181.973"/>
	<path fill="#0071AE" d="M143.608,139.25c1.066-1.09,2.824-1.109,3.909-0.04c1.093,1.067,1.115,2.822,0.042,3.91
		c-1.067,1.093-2.82,1.11-3.913,0.041C142.555,142.095,142.539,140.343,143.608,139.25"/>
	<path fill="#0071AE" d="M92.182,191.713c1.066-1.091,2.818-1.105,3.908-0.038c1.093,1.069,1.109,2.821,0.043,3.911
		c-1.073,1.095-2.822,1.11-3.915,0.043C91.131,194.555,91.113,192.806,92.182,191.713"/>
	<path fill="#0071AE" d="M133.74,133.295c0.678-1.369,2.345-1.927,3.71-1.25c1.369,0.685,1.929,2.343,1.244,3.712
		c-0.675,1.369-2.337,1.924-3.706,1.248C133.613,136.324,133.061,134.661,133.74,133.295"/>
	<path fill="#0071AE" d="M101.039,199.085c0.685-1.373,2.342-1.929,3.712-1.25c1.366,0.68,1.926,2.339,1.247,3.707
		c-0.679,1.374-2.344,1.927-3.712,1.247C100.922,202.109,100.361,200.452,101.039,199.085"/>
	<polygon fill="#0071AE" points="120.066,41.219 65.624,95.665 120.066,95.665 	"/>
	<polygon fill="#99C7EC" points="120.072,151.036 120.072,95.655 65.633,95.647 65.162,96.115 	"/>
	<polygon fill="#99C7EC" points="175.224,95.665 120.42,40.864 120.066,41.219 120.066,95.665 	"/>
	<polygon fill="#019CDB" points="120.072,151.036 120.42,151.402 175.69,96.133 175.224,95.665 120.072,95.655 	"/>
	<polygon fill="#0071AE" points="65.151,55.266 81.278,71.39 120.066,32.119 120.066,0.351 	"/>
	<polygon fill="#99C7EC" points="159.412,71.55 175.69,55.266 120.42,0 120.066,0.353 120.066,32.119 120.42,31.763 	"/>
</g>
</svg>
