<?xml version="1.0" encoding="utf-8"?>
<!-- Generator: Adobe Illustrator 16.0.0, SVG Export Plug-In . SVG Version: 6.00 Build 0)  -->
<!DOCTYPE svg PUBLIC "-//W3C//DTD SVG 1.1//EN" "http://www.w3.org/Graphics/SVG/1.1/DTD/svg11.dtd">
<svg version="1.1" id="Layer_1" xmlns="http://www.w3.org/2000/svg" xmlns:xlink="http://www.w3.org/1999/xlink" x="0px" y="0px"
	 width="120px" height="120px" viewBox="0 0 120 120" enable-background="new 0 0 120 120" xml:space="preserve">
<path fill="#00A4E4" d="M59.999,119.497c-32.806,0-59.496-26.69-59.496-59.498c0-32.806,26.69-59.496,59.496-59.496
	c32.808,0,59.498,26.69,59.498,59.496C119.497,92.807,92.807,119.497,59.999,119.497z M59.999,4.753
	c-30.463,0-55.246,24.784-55.246,55.246c0,30.464,24.783,55.248,55.246,55.248c30.464,0,55.248-24.784,55.248-55.248
	C115.247,29.537,90.463,4.753,59.999,4.753z"/>
<path fill="#00A4E4" d="M83.075,74.893c-0.349,0-0.701-0.085-1.026-0.266L58.972,61.86c-0.676-0.375-1.096-1.088-1.096-1.859v-34.28
	c0-1.174,0.951-2.125,2.125-2.125s2.125,0.951,2.125,2.125v33.026l21.979,12.161c1.026,0.567,1.398,1.86,0.831,2.889
	C84.549,74.497,83.823,74.893,83.075,74.893z"/>
<circle fill="#00A4E4" cx="60" cy="11.212" r="2.159"/>
<circle fill="#00A4E4" cx="60" cy="110.271" r="2.159"/>
<circle fill="#00A4E4" cx="109.528" cy="60.742" r="2.159"/>
<circle fill="#00A4E4" cx="10.471" cy="60.742" r="2.159"/>
<circle fill="#00A4E4" cx="95.022" cy="95.764" r="2.159"/>
<circle fill="#00A4E4" cx="24.978" cy="25.72" r="2.159"/>
<circle fill="#00A4E4" cx="24.979" cy="95.764" r="2.16"/>
<circle fill="#00A4E4" cx="95.022" cy="25.72" r="2.159"/>
</svg>
