<?xml version="1.0" encoding="utf-8"?>
<!-- Generator: Adobe Illustrator 16.0.0, SVG Export Plug-In . SVG Version: 6.00 Build 0)  -->
<!DOCTYPE svg PUBLIC "-//W3C//DTD SVG 1.1//EN" "http://www.w3.org/Graphics/SVG/1.1/DTD/svg11.dtd">
<svg version="1.1" id="shield" xmlns="http://www.w3.org/2000/svg" xmlns:xlink="http://www.w3.org/1999/xlink" x="0px" y="0px"
	 width="120px" height="120px" viewBox="0 0 120 120" enable-background="new 0 0 120 120" xml:space="preserve">
<path id="outer" fill="none" stroke="#00A4E4" stroke-width="3" stroke-linecap="round" stroke-linejoin="round" stroke-miterlimit="10" d="
	M60.206,25.444v-0.005l-0.007,0.003l-0.007-0.003v0.005L33.619,36.408c0,0,0.875,22.273,3.811,31.421
	c7.995,24.914,22.758,26.515,22.758,26.515s14.785-1.601,22.78-26.515c2.937-9.148,3.812-31.421,3.812-31.421L60.206,25.444z"/>
<path id="inner" fill="none" stroke="#00A4E4" stroke-width="3" stroke-linecap="round" stroke-linejoin="round" stroke-miterlimit="10" d="
	M60.205,31.939v-0.005l-0.006,0.002l-0.005-0.002v0.005l-20.242,8.896c0,0,0.667,18.074,2.903,25.497
	C48.944,86.55,60.19,87.848,60.19,87.848s11.262-1.298,17.352-21.515c2.237-7.423,2.903-25.497,2.903-25.497L60.205,31.939z"/>
<path id="tick" fill="none" stroke="#00A4E4" stroke-width="3" stroke-linecap="round" stroke-linejoin="round" stroke-miterlimit="10" d="
	M52.833,61.667l3.084,3.083l11.917-10.083"/>
</svg>
