<?xml version="1.0" encoding="utf-8"?>
<!-- Generator: Adobe Illustrator 16.0.0, SVG Export Plug-In . SVG Version: 6.00 Build 0)  -->
<!DOCTYPE svg PUBLIC "-//W3C//DTD SVG 1.1//EN" "http://www.w3.org/Graphics/SVG/1.1/DTD/svg11.dtd">
<svg version="1.1" id="eye" xmlns="http://www.w3.org/2000/svg" xmlns:xlink="http://www.w3.org/1999/xlink" x="0px" y="0px"
	 width="120px" height="120px" viewBox="0 0 120 120" enable-background="new 0 0 120 120" xml:space="preserve">
<path id="outer_shape" fill="none" stroke="#00A4E4" stroke-width="4" stroke-miterlimit="10" d="M103.75,60c0,0-14.833,22-43.25,22
	c-22,0-43.25-22-43.25-22S36.083,37.625,60.5,37.625C84.916,37.625,103.75,60,103.75,60z"/>
<path id="iris" fill="none" stroke="#00A4E4" stroke-width="4" stroke-miterlimit="10" d="M60.344,38.593
	c11.718,0,21.218,9.5,21.218,21.219s-9.5,21.219-21.218,21.219c-11.719,0-21.219-9.5-21.219-21.219S48.625,38.593,60.344,38.593z"/>
<path id="pupile" fill="none" stroke="#00A4E4" stroke-width="4" stroke-miterlimit="10" d="M60.344,52.846
	c3.847,0,6.966,3.119,6.966,6.966s-3.119,6.965-6.966,6.965c-3.848,0-6.966-3.118-6.966-6.965S56.497,52.846,60.344,52.846z"/>
</svg>
