<?xml version="1.0" encoding="utf-8"?>
<!-- Generator: Adobe Illustrator 16.0.0, SVG Export Plug-In . SVG Version: 6.00 Build 0)  -->
<!DOCTYPE svg PUBLIC "-//W3C//DTD SVG 1.1//EN" "http://www.w3.org/Graphics/SVG/1.1/DTD/svg11.dtd">
<svg version="1.1" xmlns="http://www.w3.org/2000/svg" xmlns:xlink="http://www.w3.org/1999/xlink" x="0px" y="0px" width="245px"
	 height="354.667px" viewBox="0 0 245 354.667" enable-background="new 0 0 245 354.667" xml:space="preserve">
<g id="Logo_for_white_background">
	<path fill="#0071AE" d="M119.207,249.646c-45.231,0-82.03-36.799-82.03-82.031c0-27.544,13.715-53.103,36.686-68.37l2.111,3.177
		c-21.905,14.558-34.982,38.929-34.983,65.193c0,43.129,35.087,78.217,78.216,78.217c43.134,0,78.226-35.088,78.226-78.217
		c0-26.292-13.099-50.676-35.04-65.229l2.107-3.179c23.01,15.262,36.747,40.834,36.747,68.408
		C201.247,212.847,164.443,249.646,119.207,249.646z M118.99,233.936c-36.569,0-66.32-29.752-66.32-66.321
		c0-22.472,11.245-43.238,30.081-55.549l2.087,3.192c-17.754,11.604-28.353,31.177-28.353,52.357
		c0,34.467,28.04,62.507,62.505,62.507c34.468,0,62.509-28.04,62.509-62.507c0-20.824-10.325-40.215-27.619-51.869l2.131-3.163
		c18.349,12.365,29.303,32.938,29.303,55.032C185.313,204.184,155.561,233.936,118.99,233.936z"/>
	<path fill="#00A7E1" d="M120.096,266.023c-54.266,0-98.414-44.146-98.414-98.408c0-21.725,6.029-41.066,17.436-55.935
		c6.649-8.67,26.032-30.864,31.025-36.563L52.555,56.686c-0.715-0.75-0.701-1.933,0.031-2.665l31.862-31.86
		c0.717-0.72,1.875-0.748,2.628-0.064c0.024,0.021,2.442,2.214,5.963,5.518c0.768,0.721,0.806,1.927,0.086,2.695
		c-0.722,0.768-1.927,0.806-2.695,0.086c-1.934-1.814-3.53-3.289-4.575-4.25L56.6,55.401l17.507,18.346
		c0.682,0.715,0.705,1.833,0.053,2.575c-0.245,0.279-24.597,28.007-32.015,37.68c-10.891,14.197-16.648,32.736-16.648,53.614
		c0,52.159,42.438,94.593,94.6,94.593c52.164,0,94.602-42.435,94.602-94.593c0-20.146-5.313-38.024-15.365-51.704
		c-7.563-10.293-32.623-39.762-32.875-40.059c-0.627-0.737-0.603-1.827,0.057-2.535l16.667-17.901l-29.209-29.211l-5.312,5.311
		c-0.745,0.745-1.952,0.745-2.697,0c-0.745-0.745-0.744-1.952,0-2.697l6.66-6.658c0.717-0.716,1.98-0.716,2.697,0l31.858,31.86
		c0.726,0.726,0.746,1.896,0.047,2.647l-16.766,18.007c4.997,5.89,25.126,29.698,31.944,38.979
		c10.537,14.338,16.107,32.998,16.107,53.961C218.513,221.878,174.363,266.023,120.096,266.023z"/>
	<path fill="#00A7E1" d="M5.941,300.656h23.011c6.4,0,11.363,1.798,14.669,5.107c2.805,2.803,4.315,6.759,4.315,11.506v0.143
		c0,8.124-4.385,13.23-10.787,15.605l12.296,17.974H36.502l-10.787-16.104h-8.7v16.104H5.941V300.656z M28.234,325.105
		c5.392,0,8.484-2.877,8.484-7.116v-0.145c0-4.747-3.307-7.19-8.701-7.19H17.015v14.451H28.234z"/>
	<path fill="#00A7E1" d="M70.371,331.147l-19.342-30.491h12.942l12.01,20.207l12.223-20.207h12.584L81.446,330.93v20.062H70.371
		V331.147z"/>
	<path fill="#00A7E1" d="M107.69,300.656h38.331v10.068h-27.254v10.717h24.019v10.064h-24.019v19.485H107.69V300.656z"/>
	<path fill="#00A7E1" d="M166.588,310.868h-15.317v-10.212h41.707v10.212H177.66v40.123h-11.072V310.868z"/>
	<path fill="#00A7E1" d="M197.006,343.659l6.543-7.837c4.529,3.738,9.275,6.11,15.027,6.11c4.531,0,7.264-1.799,7.264-4.744v-0.145
		c0-2.804-1.726-4.244-10.138-6.401c-10.142-2.588-16.685-5.392-16.685-15.385v-0.146c0-9.132,7.335-15.175,17.617-15.175
		c7.335,0,13.592,2.303,18.695,6.402l-5.75,8.341c-4.461-3.093-8.847-4.962-13.089-4.962c-4.241,0-6.471,1.941-6.471,4.388v0.142
		c0,3.308,2.156,4.388,10.856,6.615c10.211,2.661,15.964,6.33,15.964,15.103v0.143c0,9.994-7.623,15.602-18.48,15.602
		C210.739,351.71,203.044,349.052,197.006,343.659z"/>
	<path fill="#00A7E1" d="M122.419,215.322c0,1.996-1.618,3.613-3.612,3.613c-1.991,0-3.607-1.617-3.607-3.613
		c0-1.989,1.616-3.604,3.607-3.604C120.801,211.719,122.419,213.333,122.419,215.322"/>
	<path fill="#00A7E1" d="M137.047,211.863c0.614,1.895-0.421,3.933-2.313,4.549c-1.898,0.617-3.934-0.421-4.551-2.317
		c-0.615-1.895,0.425-3.929,2.315-4.546C134.396,208.934,136.429,209.97,137.047,211.863"/>
	<path fill="#00A7E1" d="M149.891,204.06c1.171,1.605,0.807,3.864-0.796,5.034c-1.615,1.174-3.871,0.815-5.043-0.797
		c-1.174-1.613-0.811-3.869,0.798-5.04C146.464,202.086,148.716,202.444,149.891,204.06"/>
	<path fill="#00A7E1" d="M93.568,126.543c1.173,1.611,0.817,3.871-0.796,5.039c-1.616,1.168-3.869,0.816-5.037-0.795
		c-1.175-1.616-0.818-3.872,0.794-5.048C90.142,124.571,92.398,124.931,93.568,126.543"/>
	<path fill="#00A7E1" d="M159.691,192.659c1.61,1.173,1.966,3.43,0.798,5.037c-1.171,1.614-3.427,1.972-5.042,0.802
		c-1.611-1.173-1.967-3.429-0.798-5.041C155.823,191.845,158.079,191.486,159.691,192.659"/>
	<path fill="#00A7E1" d="M82.173,136.341c1.611,1.173,1.969,3.431,0.801,5.04c-1.172,1.615-3.432,1.972-5.041,0.798
		c-1.617-1.172-1.974-3.426-0.794-5.037C78.305,135.528,80.562,135.168,82.173,136.341"/>
	<path fill="#00A7E1" d="M165.489,178.792c1.896,0.615,2.93,2.652,2.316,4.545c-0.615,1.895-2.649,2.933-4.542,2.317
		c-1.902-0.613-2.938-2.651-2.322-4.548C161.559,179.211,163.596,178.177,165.489,178.792"/>
	<path fill="#00A7E1" d="M74.364,149.187c1.895,0.614,2.932,2.653,2.315,4.544c-0.615,1.896-2.655,2.933-4.545,2.312
		c-1.895-0.613-2.938-2.65-2.319-4.544C70.43,149.606,72.469,148.566,74.364,149.187"/>
	<path fill="#00A7E1" d="M166.72,163.814c1.991-0.003,3.604,1.614,3.604,3.602c0,1.996-1.613,3.612-3.604,3.612
		c-1.993,0-3.609-1.616-3.609-3.61C163.11,165.424,164.727,163.811,166.72,163.814"/>
	<path fill="#00A7E1" d="M70.904,163.809c1.99,0,3.604,1.615,3.604,3.608s-1.614,3.612-3.604,3.612c-1.993,0-3.611-1.617-3.611-3.61
		C67.293,165.424,68.911,163.813,70.904,163.809"/>
	<path fill="#00A7E1" d="M163.264,149.187c1.89-0.62,3.93,0.419,4.542,2.313c0.617,1.894-0.421,3.931-2.316,4.544
		c-1.894,0.621-3.931-0.417-4.548-2.312C160.326,151.834,161.365,149.801,163.264,149.187"/>
	<path fill="#00A7E1" d="M72.132,178.792c1.895-0.616,3.933,0.419,4.548,2.314c0.617,1.896-0.423,3.933-2.319,4.548
		c-1.895,0.615-3.932-0.423-4.545-2.314C69.2,181.444,70.237,179.407,72.132,178.792"/>
	<path fill="#00A7E1" d="M155.45,136.341c1.607-1.168,3.868-0.81,5.039,0.794c1.173,1.617,0.812,3.872-0.797,5.043
		c-1.616,1.174-3.869,0.819-5.044-0.798C153.48,139.771,153.84,137.511,155.45,136.341"/>
	<path fill="#00A7E1" d="M77.933,192.659c1.609-1.173,3.869-0.814,5.041,0.798c1.168,1.609,0.811,3.868-0.801,5.041
		c-1.614,1.173-3.87,0.812-5.041-0.798C75.965,196.089,76.321,193.832,77.933,192.659"/>
	<path fill="#00A7E1" d="M144.053,126.543c1.167-1.613,3.431-1.97,5.04-0.805c1.612,1.174,1.97,3.432,0.798,5.045
		c-1.172,1.614-3.427,1.967-5.041,0.798C143.237,130.41,142.883,128.151,144.053,126.543"/>
	<path fill="#00A7E1" d="M87.735,204.06c1.169-1.615,3.424-1.974,5.039-0.803c1.611,1.171,1.967,3.427,0.793,5.04
		c-1.169,1.612-3.426,1.971-5.04,0.797C86.92,207.924,86.561,205.665,87.735,204.06"/>
	<path fill="#00A7E1" d="M100.572,211.863c0.618-1.894,2.653-2.93,4.546-2.314c1.896,0.616,2.935,2.651,2.318,4.546
		c-0.614,1.897-2.65,2.935-4.547,2.317C100.994,215.796,99.958,213.758,100.572,211.863"/>
	<path fill="#0071AE" d="M116.162,204.158c-0.221,1.51-1.628,2.557-3.142,2.331c-1.513-0.22-2.555-1.627-2.331-3.142
		c0.224-1.51,1.63-2.557,3.143-2.329C115.344,201.242,116.386,202.647,116.162,204.158"/>
	<path fill="#0071AE" d="M127.646,203.178c0.257,1.505-0.756,2.933-2.267,3.188c-1.508,0.256-2.932-0.76-3.187-2.268
		c-0.255-1.507,0.756-2.931,2.271-3.188C125.968,200.659,127.39,201.675,127.646,203.178"/>
	<path fill="#0071AE" d="M138.266,198.699c0.714,1.353,0.181,3.026-1.174,3.731c-1.349,0.709-3.022,0.182-3.733-1.172
		c-0.705-1.349-0.18-3.025,1.176-3.732C135.886,196.82,137.559,197.346,138.266,198.699"/>
	<path fill="#0071AE" d="M104.26,133.581c0.708,1.354,0.183,3.024-1.171,3.729c-1.356,0.708-3.025,0.184-3.733-1.167
		c-0.708-1.357-0.184-3.029,1.171-3.735C101.88,131.701,103.551,132.222,104.26,133.581"/>
	<path fill="#0071AE" d="M146.981,191.157c1.089,1.069,1.105,2.822,0.04,3.908c-1.07,1.091-2.827,1.111-3.913,0.043
		c-1.093-1.071-1.112-2.826-0.039-3.916C144.14,190.103,145.892,190.088,146.981,191.157"/>
	<path fill="#0071AE" d="M94.512,139.73c1.094,1.072,1.109,2.822,0.041,3.914c-1.068,1.093-2.822,1.108-3.911,0.038
		c-1.096-1.065-1.109-2.819-0.038-3.909C91.669,138.68,93.422,138.662,94.512,139.73"/>
	<path fill="#0071AE" d="M152.944,181.294c1.36,0.679,1.918,2.336,1.238,3.703c-0.679,1.372-2.34,1.925-3.708,1.245
		c-1.367-0.681-1.927-2.338-1.249-3.708C149.912,181.167,151.568,180.609,152.944,181.294"/>
	<path fill="#0071AE" d="M87.146,148.592c1.368,0.681,1.926,2.341,1.249,3.712c-0.682,1.364-2.343,1.925-3.711,1.246
		c-1.369-0.68-1.928-2.341-1.246-3.711C84.117,148.475,85.78,147.913,87.146,148.592"/>
	<path fill="#0071AE" d="M155.552,170.068c1.514,0.219,2.556,1.63,2.336,3.14c-0.228,1.512-1.634,2.555-3.146,2.329
		c-1.511-0.225-2.558-1.626-2.335-3.14C152.638,170.886,154.044,169.842,155.552,170.068"/>
	<path fill="#0071AE" d="M82.879,159.298c1.511,0.227,2.557,1.633,2.334,3.144c-0.225,1.51-1.634,2.555-3.148,2.333
		c-1.509-0.227-2.555-1.632-2.329-3.149C79.962,160.123,81.37,159.078,82.879,159.298"/>
	<path fill="#0071AE" d="M154.572,158.58c1.506-0.254,2.934,0.764,3.19,2.268c0.254,1.51-0.764,2.938-2.268,3.19
		c-1.507,0.255-2.935-0.759-3.191-2.267C152.048,160.261,153.065,158.836,154.572,158.58"/>
	<path fill="#0071AE" d="M82.127,170.801c1.509-0.253,2.934,0.759,3.195,2.268c0.251,1.503-0.764,2.933-2.274,3.187
		c-1.509,0.257-2.934-0.762-3.185-2.268C79.61,172.483,80.625,171.058,82.127,170.801"/>
	<path fill="#0071AE" d="M150.093,147.965c1.353-0.705,3.021-0.181,3.733,1.171c0.704,1.356,0.177,3.027-1.17,3.737
		c-1.356,0.705-3.028,0.181-3.737-1.174C148.215,150.344,148.736,148.67,150.093,147.965"/>
	<path fill="#0071AE" d="M84.967,181.973c1.358-0.709,3.026-0.185,3.733,1.166c0.709,1.358,0.183,3.027-1.171,3.735
		c-1.355,0.709-3.03,0.181-3.731-1.171C83.093,184.349,83.617,182.679,84.967,181.973"/>
	<path fill="#0071AE" d="M142.55,139.25c1.066-1.09,2.824-1.109,3.909-0.04c1.093,1.067,1.116,2.822,0.042,3.91
		c-1.068,1.093-2.82,1.11-3.913,0.041C141.496,142.095,141.48,140.343,142.55,139.25"/>
	<path fill="#0071AE" d="M91.123,191.713c1.067-1.091,2.819-1.105,3.909-0.038c1.092,1.069,1.109,2.821,0.043,3.911
		c-1.074,1.095-2.823,1.11-3.916,0.043C90.072,194.555,90.054,192.806,91.123,191.713"/>
	<path fill="#0071AE" d="M132.682,133.295c0.677-1.369,2.345-1.927,3.71-1.25c1.369,0.685,1.929,2.343,1.244,3.712
		c-0.675,1.369-2.337,1.924-3.706,1.248C132.555,136.324,132.002,134.661,132.682,133.295"/>
	<path fill="#0071AE" d="M99.98,199.085c0.685-1.373,2.342-1.929,3.712-1.25c1.366,0.68,1.926,2.339,1.247,3.707
		c-0.678,1.374-2.343,1.927-3.711,1.247C99.864,202.109,99.303,200.452,99.98,199.085"/>
	<polygon fill="#0071AE" points="119.008,41.219 64.565,95.665 119.008,95.665 	"/>
	<polygon fill="#99C7EC" points="119.014,151.036 119.014,95.655 64.575,95.647 64.104,96.115 	"/>
	<polygon fill="#99C7EC" points="174.165,95.665 119.361,40.864 119.008,41.219 119.008,95.665 	"/>
	<polygon fill="#019CDB" points="119.014,151.036 119.361,151.402 174.632,96.133 174.165,95.665 119.014,95.655 	"/>
	<polygon fill="#0071AE" points="64.093,55.266 80.22,71.39 119.008,32.119 119.008,0.351 	"/>
	<polygon fill="#99C7EC" points="158.354,71.55 174.632,55.266 119.361,0 119.008,0.353 119.008,32.119 119.361,31.763 	"/>
</g>
<g id="Logo_for_light_blue_background">
</g>
</svg>
