<?xml version="1.0" encoding="utf-8"?>
<!-- Generator: Adobe Illustrator 18.0.0, SVG Export Plug-In . SVG Version: 6.00 Build 0)  -->
<!DOCTYPE svg PUBLIC "-//W3C//DTD SVG 1.1//EN" "http://www.w3.org/Graphics/SVG/1.1/DTD/svg11.dtd">
<svg version="1.1" id="Layer_1" xmlns="http://www.w3.org/2000/svg" xmlns:xlink="http://www.w3.org/1999/xlink" x="0px" y="0px"
	 viewBox="0 0 512 512" enable-background="new 0 0 512 512" xml:space="preserve">
<g>
	<g>
		<text transform="matrix(1 0 0 1 150.1763 406.3435)" fill="#616363" font-family="'AvertaDemo-Regular'" font-size="53.0116">ABACUS</text>
	</g>
	<g>
		<g>
			<g>
				<g>
					<g>
						<rect x="161.2" y="95.2" fill="#FCB856" width="30.7" height="221.4"/>
					</g>
				</g>
			</g>
		</g>
		<g>
			<g>
				<g>
					<g>
						<rect x="318.2" y="95.2" fill="#FCB856" width="30.7" height="221.4"/>
					</g>
				</g>
			</g>
		</g>
		<g>
			<g>
				<g>
					<g>
						<path fill="#616363" d="M195.1,319.7h-37V92h37V319.7z M164.4,313.5h24.5V98.3h-24.5V313.5z"/>
					</g>
				</g>
			</g>
		</g>
		<g>
			<g>
				<g>
					<g>
						<path fill="#616363" d="M352.1,319.7h-37V92h37V319.7z M321.3,313.5h24.5V98.3h-24.5V313.5z"/>
					</g>
				</g>
			</g>
		</g>
		<g>
			<g>
				<g>
					<g>
						<rect x="190.7" y="179.7" fill="#616363" width="127.5" height="6.3"/>
					</g>
				</g>
			</g>
		</g>
		<g>
			<g>
				<g>
					<g>
						<rect x="190.7" y="228" fill="#616363" width="127.5" height="6.3"/>
					</g>
				</g>
			</g>
		</g>
		<g>
			<g>
				<g>
					<g>
						<rect x="190.7" y="276.3" fill="#616363" width="127.5" height="6.3"/>
					</g>
				</g>
			</g>
		</g>
		<g>
			<g>
				<g>
					<g>
						<rect x="142.3" y="313.5" fill="#616363" width="72.2" height="6.3"/>
					</g>
				</g>
			</g>
		</g>
		<g>
			<g>
				<g>
					<g>
						<rect x="297.5" y="313.5" fill="#616363" width="72.2" height="6.3"/>
					</g>
				</g>
			</g>
		</g>
		<g>
			<g>
				<g>
					<g>
						<g>
							<path fill="#84D1DA" d="M219.5,197h-2.1c-5,0-9-4-9-9v-10.4c0-5,4-9,9-9h2.1c5,0,9,4,9,9V188C228.5,193,224.4,197,219.5,197z
								"/>
						</g>
					</g>
				</g>
			</g>
			<g>
				<g>
					<g>
						<g>
							<path fill="#616363" d="M219.5,200.2h-2.1c-6.7,0-12.1-5.4-12.1-12.1v-10.4c0-6.7,5.4-12.1,12.1-12.1h2.1
								c6.7,0,12.1,5.4,12.1,12.1V188C231.6,194.7,226.2,200.2,219.5,200.2z M217.4,171.8c-3.2,0-5.8,2.6-5.8,5.8V188
								c0,3.2,2.6,5.8,5.8,5.8h2.1c3.2,0,5.8-2.6,5.8-5.8v-10.4c0-3.2-2.6-5.8-5.8-5.8H217.4z"/>
						</g>
					</g>
				</g>
			</g>
		</g>
		<g>
			<g>
				<g>
					<g>
						<g>
							<path fill="#84D1DA" d="M268.5,197h-2.1c-5,0-9-4-9-9v-10.4c0-5,4-9,9-9h2.1c5,0,9,4,9,9V188C277.5,193,273.5,197,268.5,197z
								"/>
						</g>
					</g>
				</g>
			</g>
			<g>
				<g>
					<g>
						<g>
							<path fill="#616363" d="M268.5,200.2h-2.1c-6.7,0-12.1-5.4-12.1-12.1v-10.4c0-6.7,5.4-12.1,12.1-12.1h2.1
								c6.7,0,12.1,5.4,12.1,12.1V188C280.6,194.7,275.2,200.2,268.5,200.2z M266.4,171.8c-3.2,0-5.8,2.6-5.8,5.8V188
								c0,3.2,2.6,5.8,5.8,5.8h2.1c3.2,0,5.8-2.6,5.8-5.8v-10.4c0-3.2-2.6-5.8-5.8-5.8H266.4z"/>
						</g>
					</g>
				</g>
			</g>
		</g>
		<g>
			<g>
				<g>
					<g>
						<g>
							<path fill="#84D1DA" d="M296.3,197h-2.1c-5,0-9-4-9-9v-10.4c0-5,4-9,9-9h2.1c5,0,9,4,9,9V188C305.3,193,301.3,197,296.3,197z
								"/>
						</g>
					</g>
				</g>
			</g>
			<g>
				<g>
					<g>
						<g>
							<path fill="#616363" d="M296.3,200.2h-2.1c-6.7,0-12.1-5.4-12.1-12.1v-10.4c0-6.7,5.4-12.1,12.1-12.1h2.1
								c6.7,0,12.1,5.4,12.1,12.1V188C308.5,194.7,303,200.2,296.3,200.2z M294.2,171.8c-3.2,0-5.8,2.6-5.8,5.8V188
								c0,3.2,2.6,5.8,5.8,5.8h2.1c3.2,0,5.8-2.6,5.8-5.8v-10.4c0-3.2-2.6-5.8-5.8-5.8H294.2z"/>
						</g>
					</g>
				</g>
			</g>
		</g>
		<g>
			<g>
				<g>
					<g>
						<g>
							<path fill="#84D1DA" d="M243.7,245.3h-2.1c-5,0-9-4-9-9V226c0-5,4-9,9-9h2.1c5,0,9,4,9,9v10.4
								C252.7,241.3,248.7,245.3,243.7,245.3z"/>
						</g>
					</g>
				</g>
			</g>
			<g>
				<g>
					<g>
						<g>
							<path fill="#616363" d="M243.7,248.5h-2.1c-6.7,0-12.1-5.4-12.1-12.1V226c0-6.7,5.4-12.1,12.1-12.1h2.1
								c6.7,0,12.1,5.4,12.1,12.1v10.4C255.8,243,250.4,248.5,243.7,248.5z M241.6,220.1c-3.2,0-5.8,2.6-5.8,5.8v10.4
								c0,3.2,2.6,5.8,5.8,5.8h2.1c3.2,0,5.8-2.6,5.8-5.8V226c0-3.2-2.6-5.8-5.8-5.8H241.6z"/>
						</g>
					</g>
				</g>
			</g>
		</g>
		<g>
			<g>
				<g>
					<g>
						<g>
							<path fill="#84D1DA" d="M276.3,245.3h-2.1c-5,0-9-4-9-9V226c0-5,4-9,9-9h2.1c5,0,9,4,9,9v10.4
								C285.3,241.3,281.2,245.3,276.3,245.3z"/>
						</g>
					</g>
				</g>
			</g>
			<g>
				<g>
					<g>
						<g>
							<path fill="#616363" d="M276.3,248.5h-2.1c-6.7,0-12.1-5.4-12.1-12.1V226c0-6.7,5.4-12.1,12.1-12.1h2.1
								c6.7,0,12.1,5.4,12.1,12.1v10.4C288.4,243,283,248.5,276.3,248.5z M274.2,220.1c-3.2,0-5.8,2.6-5.8,5.8v10.4
								c0,3.2,2.6,5.8,5.8,5.8h2.1c3.2,0,5.8-2.6,5.8-5.8V226c0-3.2-2.6-5.8-5.8-5.8H274.2z"/>
						</g>
					</g>
				</g>
			</g>
		</g>
		<g>
			<g>
				<g>
					<g>
						<rect x="190.7" y="131.4" fill="#616363" width="127.5" height="6.3"/>
					</g>
				</g>
			</g>
		</g>
		<g>
			<g>
				<g>
					<g>
						<g>
							<path fill="#84D1DA" d="M222.6,148.7h-2.1c-5,0-9-4-9-9v-10.4c0-5,4-9,9-9h2.1c5,0,9,4,9,9v10.4
								C231.6,144.7,227.6,148.7,222.6,148.7z"/>
						</g>
					</g>
				</g>
			</g>
			<g>
				<g>
					<g>
						<g>
							<path fill="#616363" d="M222.6,151.8h-2.1c-6.7,0-12.1-5.4-12.1-12.1v-10.4c0-6.7,5.4-12.1,12.1-12.1h2.1
								c6.7,0,12.1,5.4,12.1,12.1v10.4C234.7,146.4,229.3,151.8,222.6,151.8z M220.5,123.5c-3.2,0-5.8,2.6-5.8,5.8v10.4
								c0,3.2,2.6,5.8,5.8,5.8h2.1c3.2,0,5.8-2.6,5.8-5.8v-10.4c0-3.2-2.6-5.8-5.8-5.8H220.5z"/>
						</g>
					</g>
				</g>
			</g>
		</g>
		<g>
			<g>
				<g>
					<g>
						<g>
							<path fill="#84D1DA" d="M276.3,148.7h-2.1c-5,0-9-4-9-9v-10.4c0-5,4-9,9-9h2.1c5,0,9,4,9,9v10.4
								C285.3,144.7,281.2,148.7,276.3,148.7z"/>
						</g>
					</g>
				</g>
			</g>
			<g>
				<g>
					<g>
						<g>
							<path fill="#616363" d="M276.3,151.8h-2.1c-6.7,0-12.1-5.4-12.1-12.1v-10.4c0-6.7,5.4-12.1,12.1-12.1h2.1
								c6.7,0,12.1,5.4,12.1,12.1v10.4C288.4,146.4,283,151.8,276.3,151.8z M274.2,123.5c-3.2,0-5.8,2.6-5.8,5.8v10.4
								c0,3.2,2.6,5.8,5.8,5.8h2.1c3.2,0,5.8-2.6,5.8-5.8v-10.4c0-3.2-2.6-5.8-5.8-5.8H274.2z"/>
						</g>
					</g>
				</g>
			</g>
		</g>
		<g>
			<g>
				<g>
					<g>
						<g>
							<path fill="#84D1DA" d="M219.5,293.7h-2.1c-5,0-9-4-9-9v-10.4c0-5,4-9,9-9h2.1c5,0,9,4,9,9v10.4
								C228.5,289.6,224.4,293.7,219.5,293.7z"/>
						</g>
					</g>
				</g>
			</g>
			<g>
				<g>
					<g>
						<g>
							<path fill="#616363" d="M219.5,296.8h-2.1c-6.7,0-12.1-5.4-12.1-12.1v-10.4c0-6.7,5.4-12.1,12.1-12.1h2.1
								c6.7,0,12.1,5.4,12.1,12.1v10.4C231.6,291.4,226.2,296.8,219.5,296.8z M217.4,268.4c-3.2,0-5.8,2.6-5.8,5.8v10.4
								c0,3.2,2.6,5.8,5.8,5.8h2.1c3.2,0,5.8-2.6,5.8-5.8v-10.4c0-3.2-2.6-5.8-5.8-5.8H217.4z"/>
						</g>
					</g>
				</g>
			</g>
		</g>
		<g>
			<g>
				<g>
					<g>
						<g>
							<path fill="#84D1DA" d="M248.4,293.7h-2.1c-5,0-9-4-9-9v-10.4c0-5,4-9,9-9h2.1c5,0,9,4,9,9v10.4
								C257.4,289.6,253.4,293.7,248.4,293.7z"/>
						</g>
					</g>
				</g>
			</g>
			<g>
				<g>
					<g>
						<g>
							<path fill="#616363" d="M248.4,296.8h-2.1c-6.7,0-12.1-5.4-12.1-12.1v-10.4c0-6.7,5.4-12.1,12.1-12.1h2.1
								c6.7,0,12.1,5.4,12.1,12.1v10.4C260.6,291.4,255.1,296.8,248.4,296.8z M246.3,268.4c-3.2,0-5.8,2.6-5.8,5.8v10.4
								c0,3.2,2.6,5.8,5.8,5.8h2.1c3.2,0,5.8-2.6,5.8-5.8v-10.4c0-3.2-2.6-5.8-5.8-5.8H246.3z"/>
						</g>
					</g>
				</g>
			</g>
		</g>
		<g>
			<g>
				<g>
					<g>
						<g>
							<path fill="#84D1DA" d="M296.3,293.7h-2.1c-5,0-9-4-9-9v-10.4c0-5,4-9,9-9h2.1c5,0,9,4,9,9v10.4
								C305.3,289.6,301.3,293.7,296.3,293.7z"/>
						</g>
					</g>
				</g>
			</g>
			<g>
				<g>
					<g>
						<g>
							<path fill="#616363" d="M296.3,296.8h-2.1c-6.7,0-12.1-5.4-12.1-12.1v-10.4c0-6.7,5.4-12.1,12.1-12.1h2.1
								c6.7,0,12.1,5.4,12.1,12.1v10.4C308.5,291.4,303,296.8,296.3,296.8z M294.2,268.4c-3.2,0-5.8,2.6-5.8,5.8v10.4
								c0,3.2,2.6,5.8,5.8,5.8h2.1c3.2,0,5.8-2.6,5.8-5.8v-10.4c0-3.2-2.6-5.8-5.8-5.8H294.2z"/>
						</g>
					</g>
				</g>
			</g>
		</g>
	</g>
</g>
</svg>
