<?xml version="1.0" encoding="utf-8"?>
<!-- Generator: Adobe Illustrator 18.0.0, SVG Export Plug-In . SVG Version: 6.00 Build 0)  -->
<!DOCTYPE svg PUBLIC "-//W3C//DTD SVG 1.1//EN" "http://www.w3.org/Graphics/SVG/1.1/DTD/svg11.dtd">
<svg version="1.1" id="Layer_1" xmlns="http://www.w3.org/2000/svg" xmlns:xlink="http://www.w3.org/1999/xlink" x="0px" y="0px"
	 viewBox="0 0 512 512" enable-background="new 0 0 512 512" xml:space="preserve">
<g>
	<g>
		<text transform="matrix(1 0 0 1 196.2339 428.3848)" fill="#616363" font-family="'AvertaDemo-Regular'" font-size="53.0111">API</text>
	</g>
	<g>
		<g>
			<g>
				<g>
					<rect x="119.8" y="73.1" fill="#FFFFFF" width="180.5" height="231.3"/>
				</g>
			</g>
		</g>
		<g>
			<g>
				<g>
					<rect x="119.8" y="73.1" fill="#85D1D8" width="180.5" height="51.3"/>
				</g>
			</g>
		</g>
		<g>
			<g>
				<g>
					<path fill="#616363" d="M303.4,307.6H116.7V70h186.7V307.6z M122.9,301.3h174.2v-225H122.9V301.3z"/>
				</g>
			</g>
		</g>
		<g>
			<g>
				<g>
					<rect x="148.6" y="182.8" fill="#616363" width="125.4" height="6.3"/>
				</g>
			</g>
		</g>
		<g>
			<g>
				<g>
					<rect x="148.6" y="151.8" fill="#616363" width="125.4" height="6.3"/>
				</g>
			</g>
		</g>
		<g>
			<g>
				<g>
					<rect x="148.6" y="213.3" fill="#616363" width="62.7" height="6.3"/>
				</g>
			</g>
		</g>
		<g>
			<g>
				<g>
					<rect x="148.2" y="243.8" fill="#616363" width="42.6" height="6.3"/>
				</g>
			</g>
		</g>
		<g>
			<g>
				<g>
					<rect x="148.2" y="274.3" fill="#616363" width="33.2" height="6.3"/>
				</g>
			</g>
		</g>
		<g>
			<g>
				<g>
					<g>
						<g>
							<g>
								<g>
									<path fill="#FCB856" d="M303.5,297.6c1-1.3,1.9-2.7,2.7-4.2c1-1.8,1.9-3.6,2.6-5.4l16.4-4.2l-0.4-14.4l-0.4-14.4l-16.6-3.4
										c-1.3-2.7-2.8-5.3-4.6-7.7l4.9-16.2l-25-14.3l-11.5,12.4c-3.4-0.4-6.8-0.3-10.1,0.1l-11.6-12.3l-12.4,7.3l-12.4,7.3
										l5.1,16.2c-1,1.3-1.9,2.7-2.7,4.2c-1,1.8-1.9,3.6-2.6,5.4l-16.4,4.2l0.4,14.4l0.4,14.4l16.6,3.4c1.3,2.7,2.8,5.3,4.6,7.8
										l-4.9,16.2l25,14.3l11.5-12.4c3.4,0.4,6.8,0.3,10.1-0.1l11.6,12.3l12.4-7.3l12.4-7.3L303.5,297.6z M254.2,293.1
										c-12.2-7-16.5-22.6-9.5-34.8c7-12.2,22.6-16.5,34.8-9.5c12.2,7,16.5,22.6,9.5,34.8C282,295.9,266.4,300.1,254.2,293.1z"/>
								</g>
							</g>
						</g>
					</g>
				</g>
			</g>
			<g>
				<g>
					<g>
						<g>
							<g>
								<g>
									<g>
										<path fill="#616363" d="M251.1,332.5l-29.3-16.7l5.2-17.1c-1.2-1.8-2.3-3.6-3.3-5.6l-17.5-3.5l-0.9-33.7l17.3-4.5
											c0.7-1.5,1.4-2.9,2.2-4.3c0.6-1.1,1.3-2.1,2-3.2l-5.3-17.1l29.1-17l12.3,13c2.5-0.2,5.1-0.2,7.6,0l12.1-13.1l29.3,16.7
											l-5.2,17.1c1.2,1.8,2.3,3.6,3.3,5.6l17.5,3.6l0.9,33.7l-17.3,4.5c-0.7,1.5-1.4,2.9-2.2,4.3c-0.6,1.1-1.3,2.1-2,3.1
											l5.3,17.1l-29.1,17.1l-12.3-13c-2.5,0.2-5.1,0.2-7.6,0L251.1,332.5z M229.3,312.8l20.7,11.8l10.9-11.8l1.6,0.2
											c3.1,0.3,6.3,0.3,9.4-0.1l1.6-0.2l11,11.7l20.5-12l-4.8-15.3l0.9-1.3c0.9-1.3,1.8-2.6,2.5-3.9c0.9-1.6,1.7-3.3,2.4-5
											l0.6-1.5l15.5-4l-0.6-23.8l-15.7-3.2L305,253c-1.2-2.6-2.6-5-4.3-7.2l-0.9-1.3l4.6-15.3l-20.7-11.8l-10.9,11.8l-1.6-0.2
											c-3.1-0.3-6.3-0.3-9.4,0.1l-1.6,0.2l-11-11.7l-20.5,12l4.8,15.3l-0.9,1.3c-0.9,1.3-1.8,2.6-2.5,3.9
											c-0.9,1.6-1.7,3.2-2.4,5l-0.6,1.5l-15.5,4l0.6,23.8l15.7,3.2l0.7,1.4c1.2,2.5,2.6,5,4.3,7.2l0.9,1.3L229.3,312.8z
											 M266.8,299.6c-5,0-9.9-1.3-14.2-3.8c-13.7-7.8-18.5-25.3-10.7-39.1c5.1-8.9,14.6-14.4,24.9-14.4c5,0,9.9,1.3,14.2,3.8
											c6.6,3.8,11.4,9.9,13.4,17.3c2,7.4,1,15.1-2.8,21.7C286.6,294.1,277,299.6,266.8,299.6z M266.8,248.6
											c-8,0-15.5,4.3-19.5,11.3c-6.1,10.7-2.4,24.4,8.3,30.5c3.4,1.9,7.2,2.9,11.1,2.9c8,0,15.5-4.3,19.4-11.3
											c3-5.2,3.7-11.2,2.2-17c-1.6-5.8-5.3-10.6-10.5-13.5C274.5,249.6,270.7,248.6,266.8,248.6z"/>
									</g>
								</g>
							</g>
						</g>
					</g>
				</g>
			</g>
			<g>
				<g>
					<g>
						<g>
							<g>
								<g>
									<path fill="#FCB856" d="M377,220.4c0.7-0.9,1.3-1.9,1.9-2.9c0.7-1.2,1.3-2.5,1.8-3.8l11.4-2.9l-0.3-10l-0.3-10l-11.5-2.3
										c-0.9-1.9-2-3.7-3.2-5.4l3.4-11.3l-17.4-9.9l-8,8.6c-2.3-0.3-4.7-0.2-7,0l-8.1-8.6l-8.6,5.1l-8.6,5l3.5,11.2
										c-0.7,0.9-1.3,1.9-1.9,2.9c-0.7,1.2-1.3,2.5-1.8,3.8l-11.4,2.9l0.3,10l0.3,10l11.5,2.3c0.9,1.9,2,3.7,3.2,5.4l-3.4,11.3
										l17.4,9.9l8-8.6c2.3,0.2,4.7,0.2,7,0l8.1,8.6l8.6-5l8.6-5.1L377,220.4z M342.8,217.2c-8.5-4.9-11.5-15.7-6.6-24.2
										c4.9-8.5,15.7-11.5,24.2-6.6c8.5,4.8,11.5,15.7,6.6,24.2C362.1,219.1,351.3,222.1,342.8,217.2z"/>
								</g>
							</g>
						</g>
					</g>
				</g>
			</g>
			<g>
				<g>
					<g>
						<g>
							<g>
								<g>
									<g>
										<path fill="#616363" d="M340.9,245.8l-21.7-12.4l3.7-12.2c-0.7-1-1.3-2.1-1.9-3.2l-12.5-2.5l-0.7-25l12.3-3.2
											c0.4-0.9,0.9-1.8,1.4-2.7c0.4-0.6,0.7-1.3,1.1-1.9l-3.8-12.2l21.6-12.6l8.7,9.3c1.5-0.1,3-0.1,4.5,0l8.6-9.4l21.7,12.4
											l-3.7,12.2c0.7,1,1.3,2.1,1.9,3.2l12.5,2.5l0.7,25l-12.3,3.2c-0.4,0.9-0.9,1.8-1.4,2.7c-0.4,0.6-0.7,1.3-1.1,1.9l3.8,12.1
											l-21.5,12.6l-8.7-9.3c-1.5,0.1-3,0.1-4.5,0L340.9,245.8z M326.6,230.4l13,7.4l7.3-8l1.6,0.2c2.1,0.2,4.2,0.2,6.3,0
											l1.6-0.2l7.4,7.9l12.9-7.6l-3.2-10.3l0.9-1.3c0.6-0.8,1.2-1.7,1.7-2.6c0.6-1.1,1.2-2.2,1.6-3.4l0.6-1.5l10.5-2.7l-0.4-15
											l-10.6-2.2l-0.7-1.4c-0.8-1.7-1.8-3.3-2.9-4.8l-0.9-1.3l3.1-10.4l-13-7.4l-7.4,8l-1.6-0.2c-2.1-0.2-4.2-0.2-6.3,0
											l-1.6,0.2l-7.4-7.9l-13,7.6l3.2,10.3l-0.9,1.3c-0.6,0.8-1.2,1.7-1.7,2.6c-0.6,1.1-1.1,2.2-1.6,3.4l-0.6,1.5l-10.5,2.7
											l0.4,15l10.6,2.1l0.7,1.4c0.8,1.7,1.8,3.3,2.9,4.9l0.9,1.3L326.6,230.4z M351.6,222.7c-3.6,0-7.2-0.9-10.3-2.7
											c-10-5.7-13.5-18.5-7.8-28.4c3.7-6.5,10.6-10.5,18.1-10.5c3.6,0,7.2,1,10.3,2.7c10,5.7,13.5,18.5,7.8,28.4
											C366,218.7,359,222.7,351.6,222.7z M351.6,187.3c-5.2,0-10.1,2.8-12.7,7.4c-4,7-1.5,15.9,5.4,19.9
											c2.2,1.3,4.7,1.9,7.2,1.9c5.2,0,10.1-2.8,12.7-7.4c4-7,1.6-15.9-5.4-19.9C356.6,187.9,354.1,187.3,351.6,187.3z"/>
									</g>
								</g>
							</g>
						</g>
					</g>
				</g>
			</g>
		</g>
	</g>
</g>
</svg>
