<?xml version="1.0" encoding="utf-8"?>
<!-- Generator: Adobe Illustrator 18.0.0, SVG Export Plug-In . SVG Version: 6.00 Build 0)  -->
<!DOCTYPE svg PUBLIC "-//W3C//DTD SVG 1.1//EN" "http://www.w3.org/Graphics/SVG/1.1/DTD/svg11.dtd">
<svg version="1.1" id="Layer_1" xmlns="http://www.w3.org/2000/svg" xmlns:xlink="http://www.w3.org/1999/xlink" x="0px" y="0px"
	 viewBox="0 0 512 512" enable-background="new 0 0 512 512" xml:space="preserve">
<g>
	<g>
		<text transform="matrix(1 0 0 1 165.3823 426.4023)" fill="#616363" font-family="'AvertaDemo-Regular'" font-size="53.0116">ASSETS </text>
	</g>
	<g>
		<g>
			<g>
				<g>
					<g>
						<rect x="232.1" y="83.4" fill="#84D1DA" width="157.3" height="207.1"/>
					</g>
				</g>
			</g>
		</g>
		<g>
			<g>
				<g>
					<g>
						<path fill="#616363" d="M392.6,293.6H229V80.3h163.6V293.6z M235.3,287.4h151.1V86.6H235.3V287.4z"/>
					</g>
				</g>
			</g>
		</g>
		<g>
			<g>
				<g>
					<g>
						<rect x="222" y="75.1" fill="#FFFFFF" width="177.6" height="19.8"/>
					</g>
				</g>
			</g>
		</g>
		<g>
			<g>
				<g>
					<g>
						<path fill="#616363" d="M402.7,98.1H218.9V72h183.9V98.1z M225.1,91.8h171.3V78.3H225.1V91.8z"/>
					</g>
				</g>
			</g>
		</g>
		<g>
			<g>
				<g>
					<g>
						<g>
							<rect x="259.8" y="120.4" fill="#FFFFFF" width="105.2" height="24.9"/>
						</g>
					</g>
				</g>
			</g>
			<g>
				<g>
					<g>
						<g>
							<path fill="#616363" d="M368.1,148.4H256.7v-31.2h111.5V148.4z M262.9,142.2h98.9v-18.6h-98.9V142.2z"/>
						</g>
					</g>
				</g>
			</g>
			<g>
				<g>
					<g>
						<g>
							<rect x="282.7" y="120.4" fill="#616363" width="6.3" height="24.9"/>
						</g>
					</g>
				</g>
			</g>
			<g>
				<g>
					<g>
						<g>
							<rect x="309.4" y="120.4" fill="#616363" width="6.3" height="24.9"/>
						</g>
					</g>
				</g>
			</g>
			<g>
				<g>
					<g>
						<g>
							<rect x="336" y="120.4" fill="#616363" width="6.3" height="24.9"/>
						</g>
					</g>
				</g>
			</g>
		</g>
		<g>
			<g>
				<g>
					<g>
						<g>
							<rect x="259.8" y="171.2" fill="#FFFFFF" width="105.2" height="24.9"/>
						</g>
					</g>
				</g>
			</g>
			<g>
				<g>
					<g>
						<g>
							<path fill="#616363" d="M368.1,199.2H256.7v-31.2h111.5V199.2z M262.9,192.9h98.9v-18.6h-98.9V192.9z"/>
						</g>
					</g>
				</g>
			</g>
			<g>
				<g>
					<g>
						<g>
							<rect x="282.7" y="171.2" fill="#616363" width="6.3" height="24.9"/>
						</g>
					</g>
				</g>
			</g>
			<g>
				<g>
					<g>
						<g>
							<rect x="309.4" y="171.2" fill="#616363" width="6.3" height="24.9"/>
						</g>
					</g>
				</g>
			</g>
			<g>
				<g>
					<g>
						<g>
							<rect x="336" y="171.2" fill="#616363" width="6.3" height="24.9"/>
						</g>
					</g>
				</g>
			</g>
		</g>
		<g>
			<g>
				<g>
					<g>
						<g>
							<path fill="#FCB856" d="M193.7,140.9c0,9.3-6.5,15.8-17.6,16.7v11H170v-11.1c-6.8-0.8-13.3-3.7-18.6-8.9l4.8-5.7
								c5.1,5,11.7,7.6,17.6,7.6c6.7,0,11.7-3.3,11.7-9.1c0-6.5-5.2-8.7-13.7-11.3c-10-3.2-19-6.3-19-17.2c0-8.9,6.2-15.6,17.3-16.1
								V85.2h6.1v11.9c5.5,1,11.5,3.5,15.5,6.6l-4.6,5.7c-4.8-3.5-10.9-5.4-15.4-5.4c-6.4,0-10.8,3-10.8,8.3
								c0,5.7,5.5,7.8,13.1,10.3C185.2,126.2,193.7,129.2,193.7,140.9L193.7,140.9z"/>
						</g>
					</g>
				</g>
			</g>
		</g>
		<g>
			<g>
				<g>
					<g>
						<g>
							<path fill="#FCB856" d="M131.9,181.2c0,5-3.5,8.5-9.4,8.9v5.9h-3.3v-5.9c-3.6-0.4-7.1-2-10-4.8l2.5-3c2.7,2.7,6.3,4,9.4,4
								c3.6,0,6.3-1.8,6.3-4.9c0-3.5-2.8-4.7-7.3-6.1c-5.3-1.7-10.2-3.4-10.2-9.2c0-4.7,3.3-8.3,9.3-8.6v-6.2h3.3v6.4
								c3,0.5,6.1,1.9,8.3,3.5l-2.4,3c-2.6-1.9-5.8-2.9-8.2-2.9c-3.4,0-5.8,1.6-5.8,4.4c0,3,3,4.2,7,5.5
								C127.4,173.4,131.9,175,131.9,181.2L131.9,181.2z"/>
						</g>
					</g>
				</g>
			</g>
		</g>
		<g>
			<g>
				<g>
					<g>
						<g>
							<g>
								<path fill="#FFFFFF" d="M169.4,235.5l21-45.8c4.7-10.2,14.9-16.7,26.1-16.7h0c30.4-4.8,61.4-4.9,91.9-0.1l0.8,0.1
									c11.2,0,21.4,6.5,26.1,16.7l21,45.8H169.4z"/>
							</g>
						</g>
					</g>
				</g>
				<g>
					<g>
						<g>
							<g>
								<g>
									<path fill="#FCB856" d="M181.5,341.4H150c-3.9,0-7-3.1-7-7v-51.8c0-3.9,3.1-7,7-7h31.5c3.9,0,7,3.1,7,7v51.8
										C188.5,338.3,185.4,341.4,181.5,341.4z"/>
								</g>
							</g>
						</g>
					</g>
					<g>
						<g>
							<g>
								<g>
									<path fill="#FCB856" d="M375.6,341.4h-31.5c-3.9,0-7-3.1-7-7v-51.8c0-3.9,3.1-7,7-7h31.5c3.9,0,7,3.1,7,7v51.8
										C382.6,338.3,379.5,341.4,375.6,341.4z"/>
								</g>
							</g>
						</g>
					</g>
				</g>
				<g>
					<g>
						<g>
							<g>
								<g>
									<path fill="#616363" d="M177.6,344.5H154c-7.8,0-14.1-6.3-14.1-14.1v-43.9c0-7.8,6.3-14.1,14.1-14.1h23.5
										c7.8,0,14.1,6.3,14.1,14.1v43.9C191.7,338.2,185.3,344.5,177.6,344.5z M154,278.7c-4.3,0-7.8,3.5-7.8,7.8v43.9
										c0,4.3,3.5,7.8,7.8,7.8h23.5c4.3,0,7.8-3.5,7.8-7.8v-43.9c0-4.3-3.5-7.8-7.8-7.8H154z"/>
								</g>
							</g>
						</g>
					</g>
					<g>
						<g>
							<g>
								<g>
									<path fill="#616363" d="M371.6,344.5h-23.5c-7.8,0-14.1-6.3-14.1-14.1v-43.9c0-7.8,6.3-14.1,14.1-14.1h23.5
										c7.8,0,14.1,6.3,14.1,14.1v43.9C385.7,338.2,379.4,344.5,371.6,344.5z M348.1,278.7c-4.3,0-7.8,3.5-7.8,7.8v43.9
										c0,4.3,3.5,7.8,7.8,7.8h23.5c4.3,0,7.8-3.5,7.8-7.8v-43.9c0-4.3-3.5-7.8-7.8-7.8H348.1z"/>
								</g>
							</g>
						</g>
					</g>
				</g>
				<g>
					<g>
						<g>
							<g>
								<path fill="#616363" d="M361.1,238.7H164.5l23-50.2c5.1-11.2,16.4-18.5,28.7-18.6c30.5-4.8,62.1-4.8,92.6-0.1l0.6,0.1
									c12.3,0.1,23.5,7.4,28.7,18.6L361.1,238.7z M174.3,232.4h177.1l-19-41.4c-4.1-9-13.3-14.9-23.2-14.9l-0.5,0l-0.8-0.1
									c-30-4.7-60.9-4.6-90.9,0.1l-0.5,0c-10,0-19.1,5.8-23.2,14.9L174.3,232.4z"/>
							</g>
						</g>
					</g>
				</g>
				<g>
					<g>
						<g>
							<g>
								<path fill="#FCB856" d="M146.5,210.6h15c6.9,0,12.5,5.6,12.5,12.5v0c0,6.9-5.6,12.5-12.5,12.5h-15
									c-6.9,0-12.5-5.6-12.5-12.5v0C134.1,216.2,139.6,210.6,146.5,210.6z"/>
							</g>
						</g>
					</g>
				</g>
				<g>
					<g>
						<g>
							<g>
								<path fill="#FCB856" d="M364.5,210.6h15c6.9,0,12.5,5.6,12.5,12.5v0c0,6.9-5.6,12.5-12.5,12.5h-15
									c-6.9,0-12.5-5.6-12.5-12.5v0C352.1,216.2,357.7,210.6,364.5,210.6z"/>
							</g>
						</g>
					</g>
				</g>
				<g>
					<g>
						<g>
							<g>
								<path fill="#616363" d="M161.6,238.7h-15c-8.6,0-15.6-7-15.6-15.6s7-15.6,15.6-15.6h15c8.6,0,15.6,7,15.6,15.6
									S170.2,238.7,161.6,238.7z M146.5,213.8c-5.1,0-9.3,4.2-9.3,9.3c0,5.1,4.2,9.3,9.3,9.3h15c5.1,0,9.3-4.2,9.3-9.3
									c0-5.1-4.2-9.3-9.3-9.3H146.5z"/>
							</g>
						</g>
					</g>
				</g>
				<g>
					<g>
						<g>
							<g>
								<path fill="#616363" d="M379.6,238.7h-15c-8.6,0-15.6-7-15.6-15.6s7-15.6,15.6-15.6h15c8.6,0,15.6,7,15.6,15.6
									S388.2,238.7,379.6,238.7z M364.5,213.8c-5.1,0-9.3,4.2-9.3,9.3c0,5.1,4.2,9.3,9.3,9.3h15c5.1,0,9.3-4.2,9.3-9.3
									c0-5.1-4.2-9.3-9.3-9.3H364.5z"/>
							</g>
						</g>
					</g>
				</g>
				<g>
					<g>
						<g>
							<g>
								<path fill="#84D1DA" d="M361.8,318.6H163.9c-15.5,0-28.1-12.6-28.1-28.1v-17.1c0-20.9,17-37.9,37.9-37.9H352
									c20.9,0,37.9,17,37.9,37.9v17.1C389.9,306,377.3,318.6,361.8,318.6z"/>
							</g>
						</g>
					</g>
				</g>
				<g>
					<g>
						<g>
							<g>
								<path fill="#616363" d="M361.8,321.7H163.9c-17.2,0-31.2-14-31.2-31.2v-17.1c0-22.6,18.4-41,41-41H352c22.6,0,41,18.4,41,41
									v17.1C393,307.7,379,321.7,361.8,321.7z M173.7,238.7c-19.2,0-34.8,15.6-34.8,34.8v17.1c0,13.8,11.2,24.9,24.9,24.9h197.9
									c13.8,0,24.9-11.2,24.9-24.9v-17.1c0-19.2-15.6-34.8-34.8-34.8H173.7z"/>
							</g>
						</g>
					</g>
				</g>
			</g>
			<g>
				<g>
					<g>
						<g>
							<path fill="#616363" d="M350.4,306.1H175.3c-35.4,0-42.2-23.6-42.5-24.6l6.1-1.7c0.2,0.8,6,20,36.5,20h175.1
								c30.4,0,36.2-19.2,36.5-20l6,1.7C392.6,282.5,385.8,306.1,350.4,306.1z"/>
						</g>
					</g>
				</g>
			</g>
			<g>
				<g>
					<g>
						<g>
							<circle fill="#FFFFFF" cx="172.6" cy="271.8" r="15.7"/>
						</g>
					</g>
				</g>
			</g>
			<g>
				<g>
					<g>
						<g>
							<path fill="#616363" d="M172.6,290.6c-10.4,0-18.8-8.4-18.8-18.8c0-10.4,8.4-18.8,18.8-18.8s18.8,8.4,18.8,18.8
								C191.4,282.2,183,290.6,172.6,290.6z M172.6,259.3c-6.9,0-12.5,5.6-12.5,12.5c0,6.9,5.6,12.5,12.5,12.5
								c6.9,0,12.5-5.6,12.5-12.5C185.1,264.9,179.5,259.3,172.6,259.3z"/>
						</g>
					</g>
				</g>
			</g>
			<g>
				<g>
					<g>
						<g>
							<circle fill="#FFFFFF" cx="352.9" cy="271.8" r="15.7"/>
						</g>
					</g>
				</g>
			</g>
			<g>
				<g>
					<g>
						<g>
							<path fill="#616363" d="M352.9,290.6c-10.4,0-18.8-8.4-18.8-18.8c0-10.4,8.4-18.8,18.8-18.8c10.4,0,18.8,8.4,18.8,18.8
								C371.8,282.2,363.3,290.6,352.9,290.6z M352.9,259.3c-6.9,0-12.5,5.6-12.5,12.5c0,6.9,5.6,12.5,12.5,12.5
								c6.9,0,12.5-5.6,12.5-12.5C365.5,264.9,359.9,259.3,352.9,259.3z"/>
						</g>
					</g>
				</g>
			</g>
			<g>
				<g>
					<g>
						<g>
							<rect x="188.5" y="274" fill="#616363" width="149.7" height="6.3"/>
						</g>
					</g>
				</g>
			</g>
			<g>
				<g>
					<g>
						<g>
							<path fill="#616363" d="M356.7,258c-0.1-0.5-1.4-13.5-14.9-19.6l2.6-5.7c16.9,7.7,18.5,24.1,18.5,24.8L356.7,258z"/>
						</g>
					</g>
				</g>
			</g>
			<g>
				<g>
					<g>
						<g>
							<path fill="#616363" d="M170.9,258l-6.3-0.5c0.1-0.7,1.6-17.1,18.5-24.8l2.6,5.7C172.3,244.5,170.9,257.5,170.9,258z"/>
						</g>
					</g>
				</g>
			</g>
		</g>
	</g>
</g>
</svg>
