<?xml version="1.0" encoding="utf-8"?>
<!-- Generator: Adobe Illustrator 18.0.0, SVG Export Plug-In . SVG Version: 6.00 Build 0)  -->
<!DOCTYPE svg PUBLIC "-//W3C//DTD SVG 1.1//EN" "http://www.w3.org/Graphics/SVG/1.1/DTD/svg11.dtd">
<svg version="1.1" id="Layer_1" xmlns="http://www.w3.org/2000/svg" xmlns:xlink="http://www.w3.org/1999/xlink" x="0px" y="0px"
	 viewBox="0 0 512 512" enable-background="new 0 0 512 512" xml:space="preserve">
<g>
	<g>
		<text transform="matrix(1.0667 0 0 1 13.9268 422.9355)" fill="#616363" font-family="'AvertaDemo-Regular'" font-size="49.6984">ASYMMETRIC KEYS</text>
	</g>
	<g>
		<g>
			<g>
				<g>
					<g>
						<g>
							<rect x="132.5" y="79.4" fill="#FFFFFF" width="181" height="232"/>
						</g>
					</g>
				</g>
			</g>
			<g>
				<g>
					<g>
						<g>
							<path fill="#616363" d="M316.7,314.6H129.4V76.3h187.3V314.6z M135.7,308.3h174.7V82.6H135.7V308.3z"/>
						</g>
					</g>
				</g>
			</g>
			<g>
				<g>
					<g>
						<g>
							<rect x="161.4" y="175.5" fill="#616363" width="125.8" height="6.3"/>
						</g>
					</g>
				</g>
			</g>
			<g>
				<g>
					<g>
						<g>
							<rect x="161.4" y="143.3" fill="#616363" width="125.8" height="6.3"/>
						</g>
					</g>
				</g>
			</g>
			<g>
				<g>
					<g>
						<g>
							<rect x="161.4" y="111.1" fill="#616363" width="125.8" height="6.3"/>
						</g>
					</g>
				</g>
			</g>
			<g>
				<g>
					<g>
						<g>
							<rect x="161.4" y="207.7" fill="#616363" width="125.8" height="6.3"/>
						</g>
					</g>
				</g>
			</g>
			<g>
				<g>
					<g>
						<g>
							<rect x="161" y="239.9" fill="#616363" width="63.3" height="6.3"/>
						</g>
					</g>
				</g>
			</g>
			<g>
				<g>
					<g>
						<g>
							<rect x="161" y="272.2" fill="#616363" width="33.3" height="6.3"/>
						</g>
					</g>
				</g>
			</g>
			<g>
				<g>
					<g>
						<g>
							<path fill="#84D1DA" d="M335.5,233.7c-13.7,0-25.5,8.2-30.9,19.9h-53.2l-20.7,12.5v9l19.2,11.9l10.3-9.5h7.2l9.7,9.5l7.2-6.9
								l4.8,4.4h17c5.9,10.2,16.8,17.1,29.4,17.1c18.7,0,33.9-15.2,33.9-33.9C369.4,248.9,354.2,233.7,335.5,233.7z"/>
						</g>
					</g>
				</g>
			</g>
			<g>
				<g>
					<g>
						<g>
							<path fill="#616363" d="M335.5,304.7c-12.6,0-24.4-6.5-31.2-17.1h-16.4l-3.5-3.2l-7.2,7l-11-10.8h-4.7L250.4,291l-22.7-14.1
								v-12.6l22.9-13.9h52.1c6.4-12.2,19-19.9,32.8-19.9c20.4,0,37.1,16.6,37.1,37.1S355.9,304.7,335.5,304.7z M290.3,281.4h17.6
								l0.9,1.6c5.5,9.6,15.7,15.5,26.7,15.5c17,0,30.8-13.8,30.8-30.8c0-17-13.8-30.8-30.8-30.8c-12,0-23,7.1-28,18.1l-0.8,1.8
								h-54.3l-18.4,11.1v5.5l15.7,9.7l9.4-8.7h9.7l8.4,8.3l7.1-6.8L290.3,281.4z"/>
						</g>
					</g>
				</g>
			</g>
			<g>
				<g>
					<g>
						<g>
							<circle fill="#616363" cx="345.5" cy="267.6" r="7.7"/>
						</g>
					</g>
				</g>
			</g>
			<g>
				<g>
					<g>
						<g>
							<rect x="230.8" y="263" fill="#616363" width="73.4" height="6.3"/>
						</g>
					</g>
				</g>
			</g>
		</g>
		<path fill="none" stroke="#616363" stroke-width="4" stroke-miterlimit="10" d="M388.2,269h18.8H388.2z"/>
		<path fill="none" stroke="#616363" stroke-width="4" stroke-miterlimit="10" d="M378.8,229.8l14-14L378.8,229.8z"/>
		<path fill="none" stroke="#616363" stroke-width="4" stroke-miterlimit="10" d="M337.8,214.3v-18.9V214.3z"/>
		<path fill="none" stroke="#616363" stroke-width="4" stroke-miterlimit="10" d="M378.8,307.1l14,14L378.8,307.1z"/>
		<path fill="none" stroke="#616363" stroke-width="4" stroke-miterlimit="10" d="M337.8,322.7v18.9V322.7z"/>
	</g>
</g>
</svg>
