<?xml version="1.0" encoding="utf-8"?>
<!-- Generator: Adobe Illustrator 18.0.0, SVG Export Plug-In . SVG Version: 6.00 Build 0)  -->
<!DOCTYPE svg PUBLIC "-//W3C//DTD SVG 1.1//EN" "http://www.w3.org/Graphics/SVG/1.1/DTD/svg11.dtd">
<svg version="1.1" id="Layer_1" xmlns="http://www.w3.org/2000/svg" xmlns:xlink="http://www.w3.org/1999/xlink" x="0px" y="0px"
	 viewBox="0 0 512 512" enable-background="new 0 0 512 512" xml:space="preserve">
<g>
	<g>
		<text transform="matrix(1 0 0 1 199.4443 424.3413)" fill="#616363" font-family="'AvertaDemo-Regular'" font-size="53.0116">ATM</text>
	</g>
	<g>
		<g>
			<g>
				<g>
					<rect x="150.1" y="77.2" fill="#CEECF3" width="211.8" height="211.8"/>
				</g>
			</g>
		</g>
		<g>
			<g>
				<g>
					<path fill="#616363" d="M365.1,292.2H146.9V74h218.1V292.2z M153.2,285.9h205.6V80.3H153.2V285.9z"/>
				</g>
			</g>
		</g>
		<g>
			<g>
				<g>
					<rect x="163.4" y="90.5" fill="#85D1D8" width="185.1" height="185.1"/>
				</g>
			</g>
		</g>
		<g>
			<g>
				<g>
					<path fill="#616363" d="M351.7,278.8H160.3V87.4h191.4V278.8z M166.6,272.5h178.9V93.7H166.6V272.5z"/>
				</g>
			</g>
		</g>
		<g>
			<g>
				<g>
					<rect x="209" y="124.9" fill="#FFFFFF" width="94.2" height="72.3"/>
				</g>
			</g>
		</g>
		<g>
			<g>
				<g>
					<path fill="#616363" d="M306.4,200.3H205.9v-78.6h100.5V200.3z M212.1,194h88v-66h-88V194z"/>
				</g>
			</g>
		</g>
		<g>
			<g>
				<g>
					<polygon fill="#FCB856" points="176.6,190 195.3,188.1 195.3,173.3 176.6,171.4 					"/>
				</g>
			</g>
		</g>
		<g>
			<g>
				<g>
					<polygon fill="#FCB856" points="176.6,152 195.3,150 195.3,135.3 176.6,133.3 					"/>
				</g>
			</g>
		</g>
		<g>
			<g>
				<g>
					<path fill="#616363" d="M173.5,193.5v-25.7l25,2.6v20.4L173.5,193.5z M179.7,174.8v11.7l12.4-1.3v-9.1L179.7,174.8z"/>
				</g>
			</g>
		</g>
		<g>
			<g>
				<g>
					<path fill="#616363" d="M173.5,155.4v-25.7l25,2.6v20.4L173.5,155.4z M179.7,136.8v11.7l12.4-1.3v-9.1L179.7,136.8z"/>
				</g>
			</g>
		</g>
		<g>
			<g>
				<g>
					<polygon fill="#FCB856" points="335,190 316.3,188.1 316.3,173.3 335,171.4 					"/>
				</g>
			</g>
		</g>
		<g>
			<g>
				<g>
					<polygon fill="#FCB856" points="335,152 316.3,150 316.3,135.3 335,133.3 					"/>
				</g>
			</g>
		</g>
		<g>
			<g>
				<g>
					<path fill="#616363" d="M338.2,193.5l-25-2.6v-20.4l25-2.6V193.5z M319.5,185.2l12.4,1.3v-11.7l-12.4,1.3V185.2z"/>
				</g>
			</g>
		</g>
		<g>
			<g>
				<g>
					<path fill="#616363" d="M338.2,155.4l-25-2.6v-20.4l25-2.6V155.4z M319.5,147.2l12.4,1.3v-11.7l-12.4,1.3V147.2z"/>
				</g>
			</g>
		</g>
		<g>
			<g>
				<g>
					<path fill="#616363" d="M316.7,250.1H194.8v-21.5h121.9V250.1z M201.1,243.8h109.3v-8.9H201.1V243.8z"/>
				</g>
			</g>
		</g>
		<g>
			<g>
				<g>
					<g>
						<g>
							<rect x="226.5" y="251.7" fill="#CEECF3" width="58.6" height="63"/>
						</g>
					</g>
				</g>
				<g>
					<g>
						<g>
							<path fill="#FCB856" d="M270.8,314.7c0-6.4,6.4-11.6,14.2-11.6v11.6L270.8,314.7z"/>
						</g>
					</g>
				</g>
				<g>
					<g>
						<g>
							<path fill="#FCB856" d="M241,314.7c0-6.4-6.4-11.6-14.2-11.6v11.6L241,314.7z"/>
						</g>
					</g>
				</g>
				<g>
					<g>
						<g>
							<path fill="#616363" d="M288.1,317.9h-20.5v-3.1c0-8.1,7.8-14.8,17.4-14.8h3.1V317.9z M274.7,311.6h7.2v-5
								C278.6,307.3,275.9,309.2,274.7,311.6z"/>
						</g>
					</g>
				</g>
				<g>
					<g>
						<g>
							<path fill="#616363" d="M244.1,317.9l-20.5,0V300h3.1c9.6,0,17.4,6.6,17.4,14.8V317.9z M229.9,311.6l7.2,0
								c-1.3-2.4-3.9-4.3-7.2-5V311.6z"/>
						</g>
					</g>
				</g>
				<g>
					<g>
						<g>
							<path fill="#616363" d="M288.1,317.8h-64.8v-69.3h64.8V317.8z M229.6,311.6h52.3v-56.8h-52.3V311.6z"/>
						</g>
					</g>
				</g>
				<g>
					<g>
						<g>
							<ellipse fill="#FCB856" cx="255.7" cy="266.9" rx="17" ry="13.9"/>
						</g>
					</g>
				</g>
				<g>
					<g>
						<g>
							<path fill="#616363" d="M255.7,284c-11.1,0-20.2-7.6-20.2-17s9-17,20.2-17s20.2,7.6,20.2,17S266.9,284,255.7,284z
								 M255.7,256.2c-7.7,0-13.9,4.8-13.9,10.8c0,5.9,6.2,10.8,13.9,10.8c7.7,0,13.9-4.8,13.9-10.8
								C269.6,261,263.4,256.2,255.7,256.2z"/>
						</g>
					</g>
				</g>
			</g>
		</g>
		<g>
			<g>
				<g>
					<g>
						<g>
							<rect x="226.5" y="231.8" fill="#CEECF3" width="58.6" height="63"/>
						</g>
					</g>
				</g>
				<g>
					<g>
						<g>
							<path fill="#FCB856" d="M270.8,294.8c0-6.4,6.4-11.6,14.2-11.6v11.6L270.8,294.8z"/>
						</g>
					</g>
				</g>
				<g>
					<g>
						<g>
							<path fill="#FCB856" d="M241,294.8c0-6.4-6.4-11.6-14.2-11.6v11.6L241,294.8z"/>
						</g>
					</g>
				</g>
				<g>
					<g>
						<g>
							<path fill="#616363" d="M288.1,298h-20.5v-3.1c0-8.1,7.8-14.8,17.4-14.8h3.1V298z M274.7,291.7h7.2v-5
								C278.6,287.4,276,289.3,274.7,291.7z"/>
						</g>
					</g>
				</g>
				<g>
					<g>
						<g>
							<path fill="#616363" d="M244.1,298h-20.5v-17.9h3.1c9.6,0,17.4,6.6,17.4,14.8V298z M229.9,291.7h7.2c-1.3-2.4-3.9-4.3-7.2-5
								V291.7z"/>
						</g>
					</g>
				</g>
				<g>
					<g>
						<g>
							<path fill="#616363" d="M288.1,297.9h-64.8v-69.3h64.8V297.9z M229.6,291.7h52.3v-56.8h-52.3V291.7z"/>
						</g>
					</g>
				</g>
				<g>
					<g>
						<g>
							<ellipse fill="#FCB856" cx="255.7" cy="247" rx="17" ry="13.9"/>
						</g>
					</g>
				</g>
				<g>
					<g>
						<g>
							<path fill="#616363" d="M255.7,264c-11.1,0-20.2-7.6-20.2-17c0-9.4,9-17,20.2-17s20.2,7.6,20.2,17
								C275.9,256.4,266.9,264,255.7,264z M255.7,236.3c-7.7,0-13.9,4.8-13.9,10.8c0,5.9,6.2,10.8,13.9,10.8
								c7.7,0,13.9-4.8,13.9-10.8C269.6,241.1,263.4,236.3,255.7,236.3z"/>
						</g>
					</g>
				</g>
			</g>
		</g>
	</g>
</g>
</svg>
