<?xml version="1.0" encoding="utf-8"?>
<!-- Generator: Adobe Illustrator 18.0.0, SVG Export Plug-In . SVG Version: 6.00 Build 0)  -->
<!DOCTYPE svg PUBLIC "-//W3C//DTD SVG 1.1//EN" "http://www.w3.org/Graphics/SVG/1.1/DTD/svg11.dtd">
<svg version="1.1" id="Layer_1" xmlns="http://www.w3.org/2000/svg" xmlns:xlink="http://www.w3.org/1999/xlink" x="0px" y="0px"
	 viewBox="0 0 512 512" enable-background="new 0 0 512 512" xml:space="preserve">
<g>
	<g>
		<text transform="matrix(1 0 0 1 117.248 415.4006)" fill="#616363" font-family="'AvertaDemo-Regular'" font-size="53.0116">ATTORNEY</text>
	</g>
	<g>
		<g>
			<g>
				<g>
					<g>
						<g>
							<rect x="238" y="297.7" fill="#FFFFFF" width="136.1" height="26.1"/>
						</g>
					</g>
				</g>
			</g>
			<g>
				<g>
					<g>
						<g>
							<g>
								<path fill="#FFFFFF" d="M120.5,168.3l0-12.3c0-6,4.9-10.8,10.8-10.8l142.2,0l0,34l-142.2,0
									C125.4,179.2,120.5,174.3,120.5,168.3z"/>
							</g>
						</g>
					</g>
				</g>
				<g>
					<g>
						<g>
							<g>
								<rect x="273.6" y="117.8" fill="#FFFFFF" width="64.3" height="88.7"/>
							</g>
						</g>
					</g>
				</g>
				<g>
					<g>
						<g>
							<g>
								<path fill="#84D1DA" d="M340.1,238.2h-71.4c-8.8,0-15.9-7.1-15.9-15.9v0c0-8.8,7.1-15.9,15.9-15.9h71.4
									c8.8,0,15.9,7.1,15.9,15.9v0C356,231.1,348.9,238.2,340.1,238.2z"/>
							</g>
						</g>
					</g>
				</g>
				<g>
					<g>
						<g>
							<g>
								<path fill="#84D1DA" d="M340.1,117.8h-71.4c-8.8,0-15.9-7.1-15.9-15.9v0c0-8.8,7.1-15.9,15.9-15.9h71.4
									c8.8,0,15.9,7.1,15.9,15.9v0C356,110.7,348.9,117.8,340.1,117.8z"/>
							</g>
						</g>
					</g>
				</g>
				<g>
					<g>
						<g>
							<g>
								<path fill="#616363" d="M276.7,182.3H137.6c-11.1,0-20.2-9-20.2-20.2c0-11.1,9-20.2,20.2-20.2h139.2V182.3z M137.6,148.3
									c-7.7,0-13.9,6.2-13.9,13.9s6.2,13.9,13.9,13.9h132.9v-27.8H137.6z"/>
							</g>
						</g>
					</g>
				</g>
				<g>
					<g>
						<g>
							<g>
								<rect x="334.7" y="117.8" fill="#616363" width="6.3" height="88.7"/>
							</g>
						</g>
					</g>
				</g>
				<g>
					<g>
						<g>
							<g>
								<rect x="270.4" y="117.8" fill="#616363" width="6.3" height="88.7"/>
							</g>
						</g>
					</g>
				</g>
				<g>
					<g>
						<g>
							<g>
								<path fill="#616363" d="M340.1,241.4h-71.4c-10.5,0-19-8.5-19-19c0-10.5,8.5-19,19-19h71.4c10.5,0,19,8.5,19,19
									C359.1,232.8,350.6,241.4,340.1,241.4z M268.7,209.6c-7,0-12.7,5.7-12.7,12.7c0,7,5.7,12.7,12.7,12.7h71.4
									c7,0,12.7-5.7,12.7-12.7c0-7-5.7-12.7-12.7-12.7H268.7z"/>
							</g>
						</g>
					</g>
				</g>
				<g>
					<g>
						<g>
							<g>
								<path fill="#616363" d="M340.1,121h-71.4c-10.5,0-19-8.5-19-19s8.5-19,19-19h71.4c10.5,0,19,8.5,19,19S350.6,121,340.1,121z
									 M268.7,89.3c-7,0-12.7,5.7-12.7,12.7s5.7,12.7,12.7,12.7h71.4c7,0,12.7-5.7,12.7-12.7s-5.7-12.7-12.7-12.7H268.7z"/>
							</g>
						</g>
					</g>
				</g>
			</g>
			<g>
				<g>
					<g>
						<g>
							<path fill="#616363" d="M377.2,326.9H234.8v-32.3h142.3V326.9z M241.1,320.6h129.8v-19.8H241.1V320.6z"/>
						</g>
					</g>
				</g>
			</g>
			<g>
				<g>
					<g>
						<g>
							<rect x="273.6" y="219.2" fill="#616363" width="81" height="6.3"/>
						</g>
					</g>
				</g>
			</g>
			<g>
				<g>
					<g>
						<g>
							<rect x="273.6" y="98.8" fill="#616363" width="81" height="6.3"/>
						</g>
					</g>
				</g>
			</g>
			<g>
				<g>
					<g>
						<g>
							<g>
								
									<rect x="372.9" y="244.4" transform="matrix(0.7125 0.7017 -0.7017 0.7125 296.1131 -186.8507)" fill="#616363" width="6.3" height="46.9"/>
							</g>
						</g>
					</g>
				</g>
				<g>
					<g>
						<g>
							<g>
								
									<rect x="214.5" y="264.8" transform="matrix(0.7124 0.7018 -0.7018 0.7124 256.4373 -89.9627)" fill="#616363" width="46.9" height="6.3"/>
							</g>
						</g>
					</g>
				</g>
				<g>
					<g>
						<g>
							<g>
								<rect x="303.9" y="261.6" fill="#616363" width="6.3" height="23"/>
							</g>
						</g>
					</g>
				</g>
			</g>
		</g>
		<g>
			<rect x="125.5" y="320.6" fill="#616363" width="112.5" height="6.3"/>
		</g>
	</g>
</g>
</svg>
