<?xml version="1.0" encoding="utf-8"?>
<!-- Generator: Adobe Illustrator 18.0.0, SVG Export Plug-In . SVG Version: 6.00 Build 0)  -->
<!DOCTYPE svg PUBLIC "-//W3C//DTD SVG 1.1//EN" "http://www.w3.org/Graphics/SVG/1.1/DTD/svg11.dtd">
<svg version="1.1" id="Layer_1" xmlns="http://www.w3.org/2000/svg" xmlns:xlink="http://www.w3.org/1999/xlink" x="0px" y="0px"
	 viewBox="0 0 512 512" enable-background="new 0 0 512 512" xml:space="preserve">
<g>
	<g>
		<text transform="matrix(1 0 0 1 209.5742 438.3179)" fill="#616363" font-family="'AvertaDemo-Regular'" font-size="53.0116">B2C</text>
	</g>
	<g>
		<g>
			<g>
				<g>
					<g>
						<circle fill="#FCB856" cx="263.4" cy="198" r="116.9"/>
					</g>
				</g>
			</g>
		</g>
		<g>
			<g>
				<g>
					<g>
						<g>
							<g>
								<g>
									<g>
										<path fill="#84D1DA" d="M196,128.5h-26.2h0h-26.2h-0.2v0c-18.2,0.1-32.9,14.9-32.9,33v14.9v51.3v3.4v3.5
											c0,7.3,5.9,13.3,13.3,13.3c0,0,0,0,0,0c0,0,0,0,0,0c7,0,12.8-5.5,13.2-12.4v12.4h0h65.3h0v-12.4
											c0.5,6.9,6.2,12.4,13.2,12.4c0,0,0,0,0,0s0,0,0,0c7.3,0,13.3-5.9,13.3-13.3v-3.5v-3.4v-51.3v-14.9
											C229.1,143.3,214.3,128.5,196,128.5z"/>
									</g>
								</g>
							</g>
						</g>
					</g>
					<g>
						<g>
							<g>
								<g>
									<g>
										<path fill="#FFFFFF" d="M168.6,116.1L168.6,116.1c-14.6,0-26.5-11.9-26.5-26.5v0c0-14.6,11.9-26.5,26.5-26.5h0
											c14.6,0,26.5,11.9,26.5,26.5v0C195,104.3,183.2,116.1,168.6,116.1z"/>
									</g>
								</g>
							</g>
						</g>
						<g>
							<g>
								<g>
									<g>
										<path fill="#616363" d="M168.6,119.3c-16.3,0-29.6-13.3-29.6-29.6c0-16.3,13.3-29.6,29.6-29.6s29.6,13.3,29.6,29.6
											C198.2,106,184.9,119.3,168.6,119.3z M168.6,66.3c-12.9,0-23.3,10.5-23.3,23.3s10.5,23.3,23.3,23.3s23.3-10.5,23.3-23.3
											S181.4,66.3,168.6,66.3z"/>
									</g>
								</g>
							</g>
						</g>
						<g>
							<g>
								<g>
									<g>
										<polygon fill="#616363" points="205.6,251 134,251 134,174.2 140.3,174.2 140.3,244.7 199.4,244.7 199.4,174.2 
											205.6,174.2 										"/>
									</g>
								</g>
							</g>
						</g>
						<g>
							<g>
								<g>
									<g>
										<g>
											<path fill="#616363" d="M232.2,231.1H226v-69.6c0-16.5-13.4-29.9-29.9-29.9h-52.4c-16.5,0-29.9,13.4-29.9,29.9v69.6h-6.3
												v-69.6c0-20,16.2-36.2,36.2-36.2H196c20,0,36.2,16.2,36.2,36.2V231.1z"/>
										</g>
									</g>
								</g>
							</g>
						</g>
						<g>
							<g>
								<g>
									<g>
										<path fill="#616363" d="M123.9,251c-9.1,0-16.4-7.4-16.4-16.4v-58.2h6.3v58.2c0,5.6,4.5,10.1,10.1,10.1
											s10.1-4.5,10.1-10.1v-58.2h6.3v58.2C140.3,243.6,132.9,251,123.9,251z"/>
									</g>
								</g>
							</g>
						</g>
						<g>
							<g>
								<g>
									<g>
										<path fill="#616363" d="M215.8,251c-9.1,0-16.4-7.4-16.4-16.4v-58.2h6.3v58.2c0,5.6,4.5,10.1,10.1,10.1
											s10.1-4.5,10.1-10.1v-58.2h6.3v58.2C232.2,243.6,224.8,251,215.8,251z"/>
									</g>
								</g>
							</g>
						</g>
					</g>
					<g>
						<g>
							<g>
								<g>
									<polygon fill="#FCB856" points="153.5,128.5 164.6,141.4 171.7,141.4 183.6,128.5 									"/>
								</g>
							</g>
						</g>
					</g>
					<g>
						<g>
							<g>
								<g>
									<polygon fill="#FCB856" points="171.7,141.4 168.1,141.4 164.6,141.4 159.2,188.2 168.1,195.4 177.1,188.2 									"/>
								</g>
							</g>
						</g>
					</g>
					<g>
						<g>
							<g>
								<g>
									<path fill="#616363" d="M173.1,144.5h-10l-16.4-19.2h44L173.1,144.5z M166,138.3h4.3l6.1-6.6h-16.1L166,138.3z"/>
								</g>
							</g>
						</g>
					</g>
					<g>
						<g>
							<g>
								<g>
									<path fill="#616363" d="M168.1,199.4l-12.3-9.9l5.9-51.3h12.8l5.9,51.3L168.1,199.4z M162.5,186.8l5.6,4.6l5.6-4.6
										l-4.9-42.3h-1.6L162.5,186.8z"/>
								</g>
							</g>
						</g>
					</g>
					<g>
						<g>
							<g>
								<g>
									<g>
										<path fill="#FFFFFF" d="M110.6,221h26.6v13.5c0,7.3-5.9,13.3-13.3,13.3h0c-7.3,0-13.3-6-13.3-13.3L110.6,221z"/>
									</g>
								</g>
							</g>
						</g>
						<g>
							<g>
								<g>
									<g>
										<path fill="#616363" d="M123.9,251c-4.4,0-8.5-1.7-11.6-4.8c-3.1-3.1-4.8-7.2-4.8-11.6l0-16.6h32.8v16.7
											C140.3,243.6,132.9,251,123.9,251z M113.7,224.2l0,10.4c0,2.7,1,5.3,3,7.2c1.9,1.9,4.5,3,7.2,3c5.6,0,10.2-4.6,10.2-10.2
											v-10.4H113.7z"/>
									</g>
								</g>
							</g>
						</g>
					</g>
					<g>
						<g>
							<g>
								<g>
									<g>
										<path fill="#FFFFFF" d="M202.5,221h26.6v13.5c0,7.3-5.9,13.3-13.3,13.3h0c-7.3,0-13.3-6-13.3-13.3L202.5,221z"/>
									</g>
								</g>
							</g>
						</g>
						<g>
							<g>
								<g>
									<g>
										<path fill="#616363" d="M215.8,251c-4.4,0-8.5-1.7-11.6-4.8c-3.1-3.1-4.8-7.2-4.8-11.6l0-16.6h32.8v16.7
											C232.2,243.6,224.8,251,215.8,251z M205.6,224.2l0,10.4c0,2.7,1,5.3,3,7.2c1.9,1.9,4.5,3,7.2,3c5.6,0,10.2-4.6,10.2-10.2
											v-10.4H205.6z"/>
									</g>
								</g>
							</g>
						</g>
					</g>
				</g>
				<g>
					<g>
						<g>
							<g>
								<g>
									<g>
										<path fill="#84D1DA" d="M368.4,214.6h-26.2h0H316h-0.2v0c-18.2,0.1-32.9,14.9-32.9,33v14.9v51.3v3.4v3.5
											c0,7.3,5.9,13.3,13.3,13.3c0,0,0,0,0,0c0,0,0,0,0,0c7,0,12.8-5.5,13.2-12.4v12.4h0h65.3h0v-12.4
											c0.5,6.9,6.2,12.4,13.2,12.4c0,0,0,0,0,0c0,0,0,0,0,0c7.3,0,13.3-5.9,13.3-13.3v-3.5v-3.4v-51.3v-14.9
											C401.4,229.4,386.6,214.6,368.4,214.6z"/>
									</g>
								</g>
							</g>
						</g>
					</g>
					<g>
						<g>
							<g>
								<g>
									<g>
										<path fill="#FFFFFF" d="M340.9,202.2L340.9,202.2c-14.6,0-26.5-11.9-26.5-26.5v0c0-14.6,11.9-26.5,26.5-26.5h0
											c14.6,0,26.5,11.9,26.5,26.5v0C367.4,190.4,355.5,202.2,340.9,202.2z"/>
									</g>
								</g>
							</g>
						</g>
						<g>
							<g>
								<g>
									<g>
										<path fill="#616363" d="M340.9,205.4c-16.3,0-29.6-13.3-29.6-29.6s13.3-29.6,29.6-29.6c16.3,0,29.6,13.3,29.6,29.6
											S357.2,205.4,340.9,205.4z M340.9,152.4c-12.9,0-23.3,10.5-23.3,23.3s10.5,23.3,23.3,23.3c12.9,0,23.3-10.5,23.3-23.3
											S353.8,152.4,340.9,152.4z"/>
									</g>
								</g>
							</g>
						</g>
						<g>
							<g>
								<g>
									<g>
										<polygon fill="#616363" points="378,337.1 306.4,337.1 306.4,260.3 312.6,260.3 312.6,330.8 371.7,330.8 371.7,260.3 
											378,260.3 										"/>
									</g>
								</g>
							</g>
						</g>
						<g>
							<g>
								<g>
									<g>
										<g>
											<path fill="#616363" d="M404.6,317.2h-6.3v-69.6c0-16.5-13.4-29.9-29.9-29.9H316c-16.5,0-29.9,13.4-29.9,29.9v69.6h-6.3
												v-69.6c0-20,16.2-36.2,36.2-36.2h52.4c20,0,36.2,16.2,36.2,36.2V317.2z"/>
										</g>
									</g>
								</g>
							</g>
						</g>
						<g>
							<g>
								<g>
									<g>
										<path fill="#616363" d="M296.2,337.1c-9.1,0-16.4-7.4-16.4-16.4v-58.2h6.3v58.2c0,5.6,4.5,10.1,10.1,10.1
											c5.6,0,10.1-4.5,10.1-10.1v-58.2h6.3v58.2C312.6,329.7,305.3,337.1,296.2,337.1z"/>
									</g>
								</g>
							</g>
						</g>
						<g>
							<g>
								<g>
									<g>
										<path fill="#616363" d="M388.1,337.1c-9.1,0-16.4-7.4-16.4-16.4v-58.2h6.3v58.2c0,5.6,4.5,10.1,10.1,10.1
											s10.1-4.5,10.1-10.1v-58.2h6.3v58.2C404.5,329.7,397.2,337.1,388.1,337.1z"/>
									</g>
								</g>
							</g>
						</g>
					</g>
					<g>
						<g>
							<g>
								<g>
									<g>
										<path fill="#FFFFFF" d="M283,307.1h26.6v13.5c0,7.3-5.9,13.3-13.3,13.3h0c-7.3,0-13.3-6-13.3-13.3L283,307.1z"/>
									</g>
								</g>
							</g>
						</g>
						<g>
							<g>
								<g>
									<g>
										<path fill="#616363" d="M296.2,337.1c-4.4,0-8.5-1.7-11.6-4.8c-3.1-3.1-4.8-7.2-4.8-11.6l0-16.6h32.8v16.7
											C312.7,329.7,305.3,337.1,296.2,337.1z M286.1,310.3l0,10.4c0,2.7,1,5.3,3,7.2c1.9,1.9,4.5,3,7.2,3
											c5.6,0,10.2-4.6,10.2-10.2v-10.4H286.1z"/>
									</g>
								</g>
							</g>
						</g>
					</g>
					<g>
						<g>
							<g>
								<g>
									<g>
										<path fill="#FFFFFF" d="M374.9,307.1h26.6v13.5c0,7.3-5.9,13.3-13.3,13.3h0c-7.3,0-13.3-6-13.3-13.3L374.9,307.1z"/>
									</g>
								</g>
							</g>
						</g>
						<g>
							<g>
								<g>
									<g>
										<path fill="#616363" d="M388.1,337.1c-4.4,0-8.5-1.7-11.6-4.8c-3.1-3.1-4.8-7.2-4.8-11.6l0-16.6h32.8v16.7
											C404.5,329.7,397.2,337.1,388.1,337.1z M378,310.3l0,10.4c0,2.7,1,5.3,3,7.2c1.9,1.9,4.5,3,7.2,3
											c5.6,0,10.2-4.6,10.2-10.2v-10.4H378z"/>
									</g>
								</g>
							</g>
						</g>
					</g>
				</g>
				<g>
					<g>
						<g>
							<g>
								<g>
									<path fill="#616363" d="M344.2,131.2h-6.3v-22.7c0-21.3-17.3-38.7-38.7-38.7h-66.2v-6.3h66.2c24.8,0,44.9,20.2,44.9,44.9
										V131.2z"/>
								</g>
							</g>
						</g>
					</g>
				</g>
				<g>
					<g>
						<g>
							<g>
								<polygon fill="#616363" points="341.3,135.6 319.1,113.4 323.5,109 341.3,126.7 358.6,109.4 363,113.8 								"/>
							</g>
						</g>
					</g>
				</g>
				<g>
					<g>
						<g>
							<g>
								<g>
									<path fill="#616363" d="M252.4,333.6h-40.7c-24.8,0-44.9-20.2-44.9-44.9V266h6.3v22.7c0,21.3,17.3,38.7,38.7,38.7h40.7
										V333.6z"/>
								</g>
							</g>
						</g>
					</g>
				</g>
				<g>
					<g>
						<g>
							<g>
								<polygon fill="#616363" points="187.4,288.2 169.6,270.4 152.3,287.7 147.8,283.3 169.6,261.5 191.8,283.7 								"/>
							</g>
						</g>
					</g>
				</g>
			</g>
			<g>
				<g>
					<g>
						<g>
							<path fill="#FFFFFF" d="M360.4,214.5c0,9.7-7.8,17.5-17.5,17.5s-17.5-7.8-17.5-17.5H360.4z"/>
						</g>
					</g>
				</g>
			</g>
			<g>
				<g>
					<g>
						<g>
							<path fill="#616363" d="M342.9,235.1c-11.4,0-20.6-9.3-20.6-20.6v-3.1h41.3v3.1C363.6,225.9,354.3,235.1,342.9,235.1z
								 M328.9,217.6c1.4,6.4,7.2,11.2,14,11.2s12.6-4.8,14-11.2H328.9z"/>
						</g>
					</g>
				</g>
			</g>
			<g>
				<g>
					<g>
						<g>
							<circle fill="#616363" cx="342.9" cy="253" r="3.7"/>
						</g>
					</g>
				</g>
			</g>
			<g>
				<g>
					<g>
						<g>
							<circle fill="#616363" cx="342.9" cy="277.7" r="3.7"/>
						</g>
					</g>
				</g>
			</g>
			<g>
				<g>
					<g>
						<g>
							<circle fill="#616363" cx="342.9" cy="302.4" r="3.7"/>
						</g>
					</g>
				</g>
			</g>
		</g>
	</g>
</g>
</svg>
