<?xml version="1.0" encoding="utf-8"?>
<!-- Generator: Adobe Illustrator 18.0.0, SVG Export Plug-In . SVG Version: 6.00 Build 0)  -->
<!DOCTYPE svg PUBLIC "-//W3C//DTD SVG 1.1//EN" "http://www.w3.org/Graphics/SVG/1.1/DTD/svg11.dtd">
<svg version="1.1" id="Layer_1" xmlns="http://www.w3.org/2000/svg" xmlns:xlink="http://www.w3.org/1999/xlink" x="0px" y="0px"
	 viewBox="0 0 512 512" enable-background="new 0 0 512 512" xml:space="preserve">
<g>
	<g>
		<text transform="matrix(1 0 0 1 126.4141 418.3291)" fill="#616363" font-family="'AvertaDemo-Regular'" font-size="53.0116">BALANCE</text>
	</g>
	<g>
		<g>
			<g>
				<g>
					<g>
						<rect x="165.2" y="305.8" fill="#FFFFFF" width="181.6" height="26.5"/>
					</g>
				</g>
			</g>
		</g>
		<g>
			<g>
				<g>
					<g>
						<path fill="#FCB856" d="M174.8,234c0,21.2-17.2,38.4-38.4,38.4c-17.1,0-31.6-11.2-36.6-26.7c-1.2-3.7-1.8-7.7-1.8-11.8h13.7
							H174.8z"/>
					</g>
				</g>
			</g>
		</g>
		<g>
			<g>
				<g>
					<g>
						<rect x="241" y="83.2" fill="#FFFFFF" width="28.5" height="222.6"/>
					</g>
				</g>
			</g>
		</g>
		<g>
			<g>
				<g>
					<g>
						<polygon fill="#616363" points="272.7,150.8 266.4,150.8 266.4,86.3 244.1,86.3 244.1,150.8 237.9,150.8 237.9,80.1 
							272.7,80.1 						"/>
					</g>
				</g>
			</g>
		</g>
		<g>
			<g>
				<g>
					<g>
						<polygon fill="#616363" points="272.7,309 237.9,309 237.9,150.8 244.1,150.8 244.1,302.7 266.4,302.7 266.4,150.8 
							272.7,150.8 						"/>
					</g>
				</g>
			</g>
		</g>
		<g>
			<g>
				<g>
					<g>
						<path fill="#84D1DA" d="M131.7,167.7c0,4.1,3.8,6.5,6.6,4.1c19.3-16.7,56.6-36.6,117-36.6s97.7,20,117,36.6
							c2.8,2.4,6.6,0,6.6-4.1v0c0-1.1-0.3-2.2-0.8-3c-17-26.5-55.6-52.5-122.7-52.5s-105.7,26-122.7,52.5
							C132,165.5,131.7,166.6,131.7,167.7L131.7,167.7z"/>
					</g>
				</g>
			</g>
		</g>
		<g>
			<g>
				<g>
					<g>
						<path fill="#616363" d="M374.7,175.8c-1.6,0-3.2-0.6-4.5-1.7c-15.5-13.4-51-35.9-114.9-35.9c-63.9,0-99.5,22.5-114.9,35.9
							c-1.3,1.1-2.8,1.7-4.5,1.7c-4,0-7.3-3.7-7.3-8.2c0-1.7,0.5-3.4,1.3-4.7c10.4-16.2,43.5-53.9,125.4-53.9
							c81.9,0,114.9,37.7,125.4,53.9c0.9,1.4,1.3,3,1.3,4.7C382,172.2,378.7,175.8,374.7,175.8z M255.3,132
							c66,0,102.9,23.4,119,37.4c0.1,0.1,0.2,0.2,0.4,0.2c0.3,0,1-0.6,1-1.9c0-0.5-0.1-1-0.3-1.4c-9.9-15.4-41.3-51.1-120.1-51.1
							c-78.8,0-110.2,35.7-120.1,51.1c-0.2,0.3-0.4,0.8-0.4,1.4c0,1.3,0.7,1.9,1,1.9c0.1,0,0.3-0.1,0.4-0.2
							C152.4,155.4,189.3,132,255.3,132z"/>
					</g>
				</g>
			</g>
		</g>
		<g>
			<g>
				<g>
					<g>
						<g>
							<path fill="#616363" d="M136.4,275.6c-14.8,0-28.5-7.9-36-20.7c-0.7-1-5.4-8.7-5.6-20.8l3.2-3.2l36.1-62.5l5.4,3.1
								l-34.3,59.3h69.6l3.1,3.1C178,256.9,159.3,275.6,136.4,275.6z M101.3,237.2c0.9,9,4.4,14.3,4.4,14.3l0.1,0.2
								c6.3,10.9,18,17.7,30.6,17.7c18.4,0,33.6-14.2,35.2-32.2H101.3z"/>
						</g>
					</g>
				</g>
			</g>
			<g>
				<g>
					<g>
						<g>
							
								<rect x="119.8" y="200.2" transform="matrix(0.5009 0.8655 -0.8655 0.5009 253.481 -32.8572)" fill="#616363" width="70.8" height="6.3"/>
						</g>
					</g>
				</g>
			</g>
		</g>
		<g>
			<g>
				<g>
					<g>
						<path fill="#FCB856" d="M414.1,234c0,21.2-17.2,38.4-38.4,38.4c-17.1,0-31.6-11.2-36.6-26.7c-1.2-3.7-1.8-7.7-1.8-11.8h13.7
							H414.1z"/>
					</g>
				</g>
			</g>
		</g>
		<g>
			<g>
				<g>
					<g>
						<g>
							<path fill="#616363" d="M375.6,275.6c-14.8,0-28.6-8-36-20.8c-0.2-0.2-5.6-8.8-5.6-20.8l3.2-3.1l36.2-62.5l5.4,3.1
								l-34.3,59.3h69.6l3.1,3.1C417.2,256.9,398.6,275.6,375.6,275.6z M340.5,237.2c0.8,8.5,4.5,14.3,4.5,14.4
								c6.4,11,18.1,17.8,30.7,17.8c18.4,0,33.6-14.2,35.2-32.2H340.5z"/>
						</g>
					</g>
				</g>
			</g>
			<g>
				<g>
					<g>
						<g>
							
								<rect x="359.1" y="200.2" transform="matrix(0.5009 0.8655 -0.8655 0.5009 372.8988 -239.9303)" fill="#616363" width="70.8" height="6.3"/>
						</g>
					</g>
				</g>
			</g>
		</g>
		<g>
			<g>
				<g>
					<g>
						<circle fill="#FFFFFF" cx="255.3" cy="124.8" r="18.2"/>
					</g>
				</g>
			</g>
		</g>
		<g>
			<g>
				<g>
					<g>
						<path fill="#616363" d="M255.3,146.2c-11.8,0-21.4-9.6-21.4-21.4s9.6-21.4,21.4-21.4c11.8,0,21.4,9.6,21.4,21.4
							S267.1,146.2,255.3,146.2z M255.3,109.7c-8.3,0-15.1,6.8-15.1,15.1s6.8,15.1,15.1,15.1c8.3,0,15.1-6.8,15.1-15.1
							S263.6,109.7,255.3,109.7z"/>
					</g>
				</g>
			</g>
		</g>
		<g>
			<g>
				<g>
					<g>
						<polygon fill="#616363" points="349.9,335.4 162.1,335.4 162.1,302.7 241,302.7 241,309 168.3,309 168.3,329.2 343.7,329.2 
							343.7,309 269.5,309 269.5,302.7 349.9,302.7 						"/>
					</g>
				</g>
			</g>
		</g>
	</g>
</g>
</svg>
