<?xml version="1.0" encoding="utf-8"?>
<!-- Generator: Adobe Illustrator 18.0.0, SVG Export Plug-In . SVG Version: 6.00 Build 0)  -->
<!DOCTYPE svg PUBLIC "-//W3C//DTD SVG 1.1//EN" "http://www.w3.org/Graphics/SVG/1.1/DTD/svg11.dtd">
<svg version="1.1" id="Layer_1" xmlns="http://www.w3.org/2000/svg" xmlns:xlink="http://www.w3.org/1999/xlink" x="0px" y="0px"
	 viewBox="0 0 512 512" enable-background="new 0 0 512 512" xml:space="preserve">
<g>
	<g>
		<text transform="matrix(1 0 0 1 182.9893 421.895)" fill="#616363" font-family="'AvertaDemo-Regular'" font-size="53.0116">BANK</text>
	</g>
	<g>
		<g>
			<g>
				<g>
					<g>
						<g>
							<path fill="#CEECF3" d="M182.9,288.1h-1.3l0,0v-59.8h1.3c8.4,0,15.2-6.8,15.2-15.2s-6.8-15.2-15.2-15.2h-35.5
								c-8.4,0-15.2,6.8-15.2,15.2s6.8,15.2,15.2,15.2h1.6v59.8l0,0h-1.6c-8.4,0-15.2,6.8-15.2,15.2s6.8,15.2,15.2,15.2h35.5
								c8.4,0,15.2-6.8,15.2-15.2S191.3,288.1,182.9,288.1z"/>
						</g>
					</g>
				</g>
			</g>
			<g>
				<g>
					<g>
						<g>
							<path fill="#616363" d="M159.6,231.5h-12.2c-10.1,0-18.3-8.2-18.3-18.3s8.2-18.3,18.3-18.3v6.3c-6.6,0-12,5.4-12,12
								s5.4,12,12,12h12.2V231.5z"/>
						</g>
					</g>
				</g>
			</g>
			<g>
				<g>
					<g>
						<g>
							<path fill="#616363" d="M182.9,231.5h-12.2v-6.3h12.2c6.6,0,12-5.4,12-12s-5.4-12-12-12v-6.3c10.1,0,18.3,8.2,18.3,18.3
								S193,231.5,182.9,231.5z"/>
						</g>
					</g>
				</g>
			</g>
			<g>
				<g>
					<g>
						<g>
							<path fill="#616363" d="M182.9,321.6h-35.5c-10.1,0-18.3-8.2-18.3-18.3s8.2-18.3,18.3-18.3h12.2v6.3h-12.2
								c-6.6,0-12,5.4-12,12c0,6.6,5.4,12,12,12h35.5c6.6,0,12-5.4,12-12c0-6.6-5.4-12-12-12h-12.2V285h12.2
								c10.1,0,18.3,8.2,18.3,18.3S193,321.6,182.9,321.6z"/>
						</g>
					</g>
				</g>
			</g>
			<g>
				<g>
					<g>
						<g>
							<rect x="145.9" y="228.4" fill="#616363" width="6.3" height="59.8"/>
						</g>
					</g>
				</g>
			</g>
			<g>
				<g>
					<g>
						<g>
							<rect x="178.5" y="228.4" fill="#616363" width="6.3" height="59.8"/>
						</g>
					</g>
				</g>
			</g>
		</g>
		<g>
			<g>
				<g>
					<g>
						<g>
							<path fill="#CEECF3" d="M274.4,288.1h-1.3l0,0v-59.8h1.3c8.4,0,15.2-6.8,15.2-15.2s-6.8-15.2-15.2-15.2h-35.5
								c-8.4,0-15.2,6.8-15.2,15.2s6.8,15.2,15.2,15.2h1.6v59.8l0,0h-1.6c-8.4,0-15.2,6.8-15.2,15.2s6.8,15.2,15.2,15.2h35.5
								c8.4,0,15.2-6.8,15.2-15.2S282.8,288.1,274.4,288.1z"/>
						</g>
					</g>
				</g>
			</g>
			<g>
				<g>
					<g>
						<g>
							<path fill="#616363" d="M251.1,231.5h-12.2c-10.1,0-18.3-8.2-18.3-18.3s8.2-18.3,18.3-18.3v6.3c-6.6,0-12,5.4-12,12
								s5.4,12,12,12h12.2V231.5z"/>
						</g>
					</g>
				</g>
			</g>
			<g>
				<g>
					<g>
						<g>
							<path fill="#616363" d="M274.4,231.5h-12.2v-6.3h12.2c6.6,0,12-5.4,12-12s-5.4-12-12-12v-6.3c10.1,0,18.3,8.2,18.3,18.3
								S284.5,231.5,274.4,231.5z"/>
						</g>
					</g>
				</g>
			</g>
			<g>
				<g>
					<g>
						<g>
							<path fill="#616363" d="M274.4,321.6h-35.5c-10.1,0-18.3-8.2-18.3-18.3s8.2-18.3,18.3-18.3h12.2v6.3h-12.2
								c-6.6,0-12,5.4-12,12c0,6.6,5.4,12,12,12h35.5c6.6,0,12-5.4,12-12c0-6.6-5.4-12-12-12h-12.2V285h12.2
								c10.1,0,18.3,8.2,18.3,18.3S284.5,321.6,274.4,321.6z"/>
						</g>
					</g>
				</g>
			</g>
			<g>
				<g>
					<g>
						<g>
							<rect x="237.4" y="228.4" fill="#616363" width="6.3" height="59.8"/>
						</g>
					</g>
				</g>
			</g>
			<g>
				<g>
					<g>
						<g>
							<rect x="270" y="228.4" fill="#616363" width="6.3" height="59.8"/>
						</g>
					</g>
				</g>
			</g>
		</g>
		<g>
			<g>
				<g>
					<g>
						<g>
							<path fill="#CEECF3" d="M366,288.1h-1.3l0,0v-59.8h1.3c8.4,0,15.2-6.8,15.2-15.2S374.3,198,366,198h-35.5
								c-8.4,0-15.2,6.8-15.2,15.2s6.8,15.2,15.2,15.2h1.6v59.8l0,0h-1.6c-8.4,0-15.2,6.8-15.2,15.2s6.8,15.2,15.2,15.2H366
								c8.4,0,15.2-6.8,15.2-15.2S374.3,288.1,366,288.1z"/>
						</g>
					</g>
				</g>
			</g>
			<g>
				<g>
					<g>
						<g>
							<path fill="#616363" d="M342.6,231.5h-12.2c-10.1,0-18.3-8.2-18.3-18.3s8.2-18.3,18.3-18.3v6.3c-6.6,0-12,5.4-12,12
								s5.4,12,12,12h12.2V231.5z"/>
						</g>
					</g>
				</g>
			</g>
			<g>
				<g>
					<g>
						<g>
							<path fill="#616363" d="M366,231.5h-12.2v-6.3H366c6.6,0,12-5.4,12-12s-5.4-12-12-12v-6.3c10.1,0,18.3,8.2,18.3,18.3
								S376.1,231.5,366,231.5z"/>
						</g>
					</g>
				</g>
			</g>
			<g>
				<g>
					<g>
						<g>
							<path fill="#616363" d="M366,321.6h-35.5c-10.1,0-18.3-8.2-18.3-18.3s8.2-18.3,18.3-18.3h12.2v6.3h-12.2c-6.6,0-12,5.4-12,12
								c0,6.6,5.4,12,12,12H366c6.6,0,12-5.4,12-12c0-6.6-5.4-12-12-12h-12.2V285H366c10.1,0,18.3,8.2,18.3,18.3
								S376.1,321.6,366,321.6z"/>
						</g>
					</g>
				</g>
			</g>
			<g>
				<g>
					<g>
						<g>
							<rect x="328.9" y="228.4" fill="#616363" width="6.3" height="59.8"/>
						</g>
					</g>
				</g>
			</g>
			<g>
				<g>
					<g>
						<g>
							<rect x="361.5" y="228.4" fill="#616363" width="6.3" height="59.8"/>
						</g>
					</g>
				</g>
			</g>
		</g>
		<g>
			<g>
				<g>
					<g>
						<polygon fill="#84D1DA" points="256,80.1 132,150.7 132,186.6 256,186.6 380,186.6 380,150.7 						"/>
					</g>
				</g>
			</g>
		</g>
		<g>
			<g>
				<g>
					<g>
						<path fill="#616363" d="M383.1,189.8H128.9v-40.9l1.6-0.9L256,76.5l127.1,72.4V189.8z M135.1,183.5h241.7v-30.9L256,83.7
							l-120.9,68.8V183.5z"/>
					</g>
				</g>
			</g>
		</g>
		<g>
			<g>
				<g>
					<g>
						<circle fill="#FCB856" cx="256" cy="147.9" r="21.4"/>
					</g>
				</g>
			</g>
		</g>
		<g>
			<g>
				<g>
					<g>
						<path fill="#616363" d="M256,172.4c-13.5,0-24.5-11-24.5-24.5c0-13.5,11-24.5,24.5-24.5c13.5,0,24.5,11,24.5,24.5
							C280.5,161.4,269.5,172.4,256,172.4z M256,129.6c-10.1,0-18.2,8.2-18.2,18.2c0,10.1,8.2,18.2,18.2,18.2
							c10.1,0,18.2-8.2,18.2-18.2C274.2,137.8,266.1,129.6,256,129.6z"/>
					</g>
				</g>
			</g>
		</g>
		<g>
			<g>
				<g>
					<g>
						<rect x="118.2" y="186.6" fill="#FFFFFF" width="275.7" height="19.8"/>
					</g>
				</g>
			</g>
		</g>
		<g>
			<g>
				<g>
					<g>
						<path fill="#616363" d="M397,209.6H115v-26.1h282V209.6z M121.3,203.3h269.4v-13.6H121.3V203.3z"/>
					</g>
				</g>
			</g>
		</g>
		<g>
			<g>
				<g>
					<g>
						<rect x="118.2" y="315.4" fill="#616363" width="275.7" height="6.3"/>
					</g>
				</g>
			</g>
		</g>
		<g>
			<g>
				<g>
					<g>
						<polygon fill="#616363" points="367.8,186.6 361.5,186.6 361.5,162.3 256,102.4 150.6,162.3 150.6,186.6 144.4,186.6 
							144.4,158.7 256,95.2 367.8,158.7 						"/>
					</g>
				</g>
			</g>
		</g>
	</g>
</g>
</svg>
