<?xml version="1.0" encoding="utf-8"?>
<!-- Generator: Adobe Illustrator 18.0.0, SVG Export Plug-In . SVG Version: 6.00 Build 0)  -->
<!DOCTYPE svg PUBLIC "-//W3C//DTD SVG 1.1//EN" "http://www.w3.org/Graphics/SVG/1.1/DTD/svg11.dtd">
<svg version="1.1" id="Layer_1" xmlns="http://www.w3.org/2000/svg" xmlns:xlink="http://www.w3.org/1999/xlink" x="0px" y="0px"
	 viewBox="0 0 512 512" enable-background="new 0 0 512 512" xml:space="preserve">
<g>
	<g>
		<text transform="matrix(1 0 0 1 145.9829 423.126)" fill="#616363" font-family="'AvertaDemo-Regular'" font-size="53.0116">BIG DATA</text>
	</g>
	<g>
		<g>
			<g>
				<g>
					<g>
						<rect x="128.6" y="270.6" fill="#FFFFFF" width="134.9" height="51.1"/>
					</g>
				</g>
			</g>
			<g>
				<g>
					<g>
						<path fill="#616363" d="M266.6,324.8H125.4v-57.4h141.1V324.8z M131.7,318.6h128.6v-44.8H131.7V318.6z"/>
					</g>
				</g>
			</g>
			<g>
				<g>
					<g>
						<g>
							<g>
								<circle fill="#FCB856" cx="173.8" cy="296.1" r="6.5"/>
							</g>
						</g>
					</g>
				</g>
				<g>
					<g>
						<g>
							<circle fill="#84D1DA" cx="196" cy="296.1" r="6.5"/>
						</g>
					</g>
				</g>
				<g>
					<g>
						<g>
							<circle fill="#84D1DA" cx="218.1" cy="296.1" r="6.5"/>
						</g>
					</g>
				</g>
			</g>
			<g>
				<g>
					<g>
						<rect x="128.6" y="219.5" fill="#FFFFFF" width="134.9" height="51.1"/>
					</g>
				</g>
			</g>
			<g>
				<g>
					<g>
						<path fill="#616363" d="M266.6,273.7H125.4v-57.4h141.1V273.7z M131.7,267.4h128.6v-44.8H131.7V267.4z"/>
					</g>
				</g>
			</g>
			<g>
				<g>
					<g>
						<g>
							<g>
								<circle fill="#FCB856" cx="173.8" cy="245" r="6.5"/>
							</g>
						</g>
					</g>
				</g>
				<g>
					<g>
						<g>
							<circle fill="#84D1DA" cx="196" cy="245" r="6.5"/>
						</g>
					</g>
				</g>
				<g>
					<g>
						<g>
							<circle fill="#84D1DA" cx="218.1" cy="245" r="6.5"/>
						</g>
					</g>
				</g>
			</g>
			<g>
				<g>
					<g>
						<rect x="128.6" y="168.3" fill="#FFFFFF" width="134.9" height="51.1"/>
					</g>
				</g>
			</g>
			<g>
				<g>
					<g>
						<path fill="#616363" d="M266.6,222.6H125.4v-57.4h141.1V222.6z M131.7,216.3h128.6v-44.8H131.7V216.3z"/>
					</g>
				</g>
			</g>
			<g>
				<g>
					<g>
						<g>
							<g>
								<circle fill="#FCB856" cx="173.8" cy="193.9" r="6.5"/>
							</g>
						</g>
					</g>
				</g>
				<g>
					<g>
						<g>
							<circle fill="#84D1DA" cx="196" cy="193.9" r="6.5"/>
						</g>
					</g>
				</g>
				<g>
					<g>
						<g>
							<circle fill="#84D1DA" cx="218.1" cy="193.9" r="6.5"/>
						</g>
					</g>
				</g>
			</g>
		</g>
		<g>
			<g>
				<g>
					<rect x="244.5" y="78.4" fill="#84D1DA" width="139" height="229.4"/>
				</g>
			</g>
		</g>
		<g>
			<g>
				<g>
					<rect x="256.8" y="307.8" fill="#84D1DA" width="114.4" height="13.9"/>
				</g>
			</g>
		</g>
		<g>
			<g>
				<g>
					<path fill="#616363" d="M374.3,324.8H253.6v-20.2h120.6V324.8z M259.9,318.6H368v-7.7H259.9V318.6z"/>
				</g>
			</g>
		</g>
		<g>
			<g>
				<g>
					<path fill="#FFFFFF" d="M354.4,140.6h-82.1c-2.4,0-4.3-1.9-4.3-4.3v0c0-2.4,1.9-4.3,4.3-4.3h82.1c2.4,0,4.3,1.9,4.3,4.3v0
						C358.7,138.7,356.8,140.6,354.4,140.6z"/>
				</g>
			</g>
		</g>
		<g>
			<g>
				<g>
					<path fill="#FFFFFF" d="M354.4,108.7h-82.1c-2.4,0-4.3-1.9-4.3-4.3v0c0-2.4,1.9-4.3,4.3-4.3h82.1c2.4,0,4.3,1.9,4.3,4.3v0
						C358.7,106.7,356.8,108.7,354.4,108.7z"/>
				</g>
			</g>
		</g>
		<g>
			<g>
				<g>
					<path fill="#FFFFFF" d="M354.4,172.6h-82.1c-2.4,0-4.3-1.9-4.3-4.3v0c0-2.4,1.9-4.3,4.3-4.3h82.1c2.4,0,4.3,1.9,4.3,4.3v0
						C358.7,170.7,356.8,172.6,354.4,172.6z"/>
				</g>
			</g>
		</g>
		<g>
			<g>
				<g>
					<path fill="#FFFFFF" d="M354.4,204.6h-82.1c-2.4,0-4.3-1.9-4.3-4.3l0,0c0-2.4,1.9-4.3,4.3-4.3h82.1c2.4,0,4.3,1.9,4.3,4.3l0,0
						C358.7,202.7,356.8,204.6,354.4,204.6z"/>
				</g>
			</g>
		</g>
		<g>
			<g>
				<g>
					<path fill="#FFFFFF" d="M354.4,236.5h-82.1c-2.4,0-4.3-1.9-4.3-4.3v0c0-2.4,1.9-4.3,4.3-4.3h82.1c2.4,0,4.3,1.9,4.3,4.3v0
						C358.7,234.6,356.8,236.5,354.4,236.5z"/>
				</g>
			</g>
		</g>
		<g>
			<g>
				<g>
					<path fill="#616363" d="M386.6,310.9H241.4V75.3h145.2V310.9z M247.6,304.6h132.7V81.5H247.6V304.6z"/>
				</g>
			</g>
		</g>
		<g>
			<g>
				<g>
					<circle fill="#FFFFFF" cx="314" cy="272.5" r="14.4"/>
				</g>
			</g>
		</g>
		<g>
			<g>
				<g>
					<circle fill="#FCB856" cx="314" cy="272.5" r="14.4"/>
				</g>
			</g>
		</g>
		<g>
			<g>
				<g>
					<path fill="#616363" d="M314,290c-9.7,0-17.5-7.9-17.5-17.5S304.3,255,314,255s17.5,7.9,17.5,17.5S323.6,290,314,290z
						 M314,261.2c-6.2,0-11.3,5.1-11.3,11.3s5.1,11.3,11.3,11.3c6.2,0,11.3-5.1,11.3-11.3S320.2,261.2,314,261.2z"/>
				</g>
			</g>
		</g>
	</g>
</g>
</svg>
