<?xml version="1.0" encoding="utf-8"?>
<!-- Generator: Adobe Illustrator 18.0.0, SVG Export Plug-In . SVG Version: 6.00 Build 0)  -->
<!DOCTYPE svg PUBLIC "-//W3C//DTD SVG 1.1//EN" "http://www.w3.org/Graphics/SVG/1.1/DTD/svg11.dtd">
<svg version="1.1" id="Layer_1" xmlns="http://www.w3.org/2000/svg" xmlns:xlink="http://www.w3.org/1999/xlink" x="0px" y="0px"
	 viewBox="0 0 512 512" enable-background="new 0 0 512 512" xml:space="preserve">
<g>
	<g>
		<text transform="matrix(1 0 0 1 186.4097 426.4456)" fill="#616363" font-family="'AvertaDemo-Regular'" font-size="53.0116">BILLS</text>
	</g>
	<g>
		<g>
			<g>
				<g>
					<g>
						<g>
							<path fill="#84D1DA" d="M342.2,109.5v216.6h-20.3c0-6.2-5-11.3-11.3-11.3c-6.2,0-11.3,5-11.3,11.3h-24.6
								c0-6.2-5.1-11.3-11.3-11.3c-6.2,0-11.3,5-11.3,11.3h-24.6c0-6.2-5-11.3-11.3-11.3c-6.2,0-11.3,5-11.3,11.3h-24.6
								c0-6.2-5-11.3-11.3-11.3c-6.2,0-11.3,5-11.3,11.3h-20.3V109.5h20.3c0,6.2,5,11.3,11.3,11.3c6.2,0,11.3-5,11.3-11.3H205
								c0,6.2,5.1,11.3,11.3,11.3c6.2,0,11.3-5,11.3-11.3h24.6c0,6.2,5,11.3,11.3,11.3c6.2,0,11.3-5,11.3-11.3h24.6
								c0,6.2,5.1,11.3,11.3,11.3c6.2,0,11.3-5,11.3-11.3H342.2z"/>
						</g>
					</g>
				</g>
			</g>
			<g>
				<g>
					<g>
						<g>
							<path fill="#616363" d="M345.4,329.2h-26.6v-3.1c0-4.5-3.7-8.1-8.1-8.1c-4.5,0-8.2,3.7-8.2,8.1v3.1h-30.8v-3.1
								c0-4.5-3.7-8.1-8.2-8.1c-4.5,0-8.1,3.7-8.1,8.1v3.1h-30.8v-3.1c0-4.5-3.7-8.1-8.1-8.1c-4.5,0-8.2,3.7-8.2,8.1v3.1h-30.8v-3.1
								c0-4.5-3.7-8.1-8.2-8.1c-4.5,0-8.1,3.7-8.1,8.1v3.1h-26.6V106.3H161v3.1c0,4.5,3.7,8.1,8.1,8.1c4.5,0,8.2-3.7,8.2-8.1v-3.1
								h30.8v3.1c0,4.5,3.7,8.1,8.2,8.1c4.5,0,8.1-3.7,8.1-8.1v-3.1h30.8v3.1c0,4.5,3.7,8.1,8.1,8.1c4.5,0,8.2-3.7,8.2-8.1v-3.1
								h30.8v3.1c0,4.5,3.7,8.1,8.2,8.1c4.5,0,8.1-3.7,8.1-8.1v-3.1h26.6V329.2z M324.7,323h14.4V112.6h-14.4
								c-1.4,6.4-7.2,11.3-14.1,11.3c-6.9,0-12.7-4.8-14.1-11.3h-19c-1.4,6.4-7.2,11.3-14.1,11.3c-6.9,0-12.6-4.8-14.1-11.3h-19
								c-1.4,6.4-7.2,11.3-14.1,11.3c-6.9,0-12.7-4.8-14.1-11.3h-19c-1.4,6.4-7.2,11.3-14.1,11.3c-6.9,0-12.6-4.8-14.1-11.3h-14.4
								V323h14.4c1.4-6.4,7.2-11.3,14.1-11.3c6.9,0,12.7,4.8,14.1,11.3h19c1.4-6.4,7.2-11.3,14.1-11.3c6.9,0,12.6,4.8,14.1,11.3h19
								c1.4-6.4,7.2-11.3,14.1-11.3c6.9,0,12.7,4.8,14.1,11.3h19c1.4-6.4,7.2-11.3,14.1-11.3C317.5,311.7,323.3,316.5,324.7,323z"/>
						</g>
					</g>
				</g>
			</g>
		</g>
		<g>
			<g>
				<g>
					<g>
						<g>
							<path fill="#FFFFFF" d="M374.4,75.1v216.6h-20.3c0-6.2-5-11.3-11.3-11.3c-6.2,0-11.3,5-11.3,11.3H307
								c0-6.2-5.1-11.3-11.3-11.3c-6.2,0-11.3,5-11.3,11.3h-24.6c0-6.2-5-11.3-11.3-11.3c-6.2,0-11.3,5-11.3,11.3h-24.6
								c0-6.2-5-11.3-11.3-11.3c-6.2,0-11.3,5-11.3,11.3h-20.3V75.1h20.3c0,6.2,5,11.3,11.3,11.3c6.2,0,11.3-5,11.3-11.3h24.6
								c0,6.2,5.1,11.3,11.3,11.3c6.2,0,11.3-5,11.3-11.3h24.6c0,6.2,5,11.3,11.3,11.3c6.2,0,11.3-5,11.3-11.3h24.6
								c0,6.2,5.1,11.3,11.3,11.3c6.2,0,11.3-5,11.3-11.3H374.4z"/>
						</g>
					</g>
				</g>
			</g>
			<g>
				<g>
					<g>
						<g>
							<path fill="#616363" d="M377.6,294.9H351v-3.1c0-4.5-3.7-8.1-8.1-8.1c-4.5,0-8.2,3.7-8.2,8.1v3.1h-30.8v-3.1
								c0-4.5-3.7-8.1-8.2-8.1c-4.5,0-8.1,3.7-8.1,8.1v3.1h-30.8v-3.1c0-4.5-3.7-8.1-8.1-8.1c-4.5,0-8.2,3.7-8.2,8.1v3.1h-30.8v-3.1
								c0-4.5-3.7-8.1-8.2-8.1c-4.5,0-8.1,3.7-8.1,8.1v3.1h-26.6V71.9h26.6v3.1c0,4.5,3.7,8.1,8.1,8.1c4.5,0,8.2-3.7,8.2-8.1v-3.1
								h30.8v3.1c0,4.5,3.7,8.1,8.2,8.1c4.5,0,8.1-3.7,8.1-8.1v-3.1h30.8v3.1c0,4.5,3.7,8.1,8.1,8.1c4.5,0,8.2-3.7,8.2-8.1v-3.1
								h30.8v3.1c0,4.5,3.7,8.1,8.2,8.1c4.5,0,8.1-3.7,8.1-8.1v-3.1h26.6V294.9z M356.9,288.6h14.4V78.2h-14.4
								c-1.4,6.4-7.2,11.3-14.1,11.3c-6.9,0-12.7-4.8-14.1-11.3h-19c-1.4,6.4-7.2,11.3-14.1,11.3c-6.9,0-12.6-4.8-14.1-11.3h-19
								c-1.4,6.4-7.2,11.3-14.1,11.3c-6.9,0-12.7-4.8-14.1-11.3h-19c-1.4,6.4-7.2,11.3-14.1,11.3c-6.9,0-12.6-4.8-14.1-11.3h-14.4
								v210.4h14.4c1.4-6.4,7.2-11.3,14.1-11.3c6.9,0,12.7,4.8,14.1,11.3h19c1.4-6.4,7.2-11.3,14.1-11.3c6.9,0,12.6,4.8,14.1,11.3
								h19c1.4-6.4,7.2-11.3,14.1-11.3c6.9,0,12.7,4.8,14.1,11.3h19c1.4-6.4,7.2-11.3,14.1-11.3
								C349.7,277.3,355.5,282.1,356.9,288.6z"/>
						</g>
					</g>
				</g>
			</g>
			<g>
				<g>
					<g>
						<g>
							<g>
								<path fill="#FCB856" d="M228.6,235.6c0,5.9-4.2,10.1-11.2,10.7v7h-3.9v-7.1c-4.3-0.5-8.5-2.4-11.9-5.7l3-3.6
									c3.3,3.2,7.5,4.8,11.2,4.8c4.3,0,7.5-2.1,7.5-5.8c0-4.2-3.3-5.6-8.7-7.2c-6.4-2-12.1-4-12.1-10.9c0-5.6,3.9-9.9,11-10.3
									v-7.3h3.9v7.6c3.5,0.6,7.3,2.2,9.9,4.2l-2.9,3.6c-3.1-2.2-6.9-3.4-9.8-3.4c-4.1,0-6.9,1.9-6.9,5.3c0,3.6,3.5,5,8.4,6.6
									C223.2,226.3,228.6,228.2,228.6,235.6L228.6,235.6z"/>
							</g>
						</g>
					</g>
				</g>
			</g>
			<g>
				<g>
					<g>
						<g>
							<rect x="201.6" y="115.4" fill="#616363" width="140.2" height="6.3"/>
						</g>
					</g>
				</g>
			</g>
			<g>
				<g>
					<g>
						<g>
							<rect x="201.6" y="143.9" fill="#616363" width="140.2" height="6.3"/>
						</g>
					</g>
				</g>
			</g>
			<g>
				<g>
					<g>
						<g>
							<rect x="201.6" y="172.5" fill="#616363" width="140.2" height="6.3"/>
						</g>
					</g>
				</g>
			</g>
			<g>
				<g>
					<g>
						<g>
							<rect x="248.2" y="223.6" fill="#616363" width="93.6" height="6.3"/>
						</g>
					</g>
				</g>
			</g>
		</g>
	</g>
</g>
</svg>
