<?xml version="1.0" encoding="utf-8"?>
<!-- Generator: Adobe Illustrator 18.0.0, SVG Export Plug-In . SVG Version: 6.00 Build 0)  -->
<!DOCTYPE svg PUBLIC "-//W3C//DTD SVG 1.1//EN" "http://www.w3.org/Graphics/SVG/1.1/DTD/svg11.dtd">
<svg version="1.1" id="Layer_1" xmlns="http://www.w3.org/2000/svg" xmlns:xlink="http://www.w3.org/1999/xlink" x="0px" y="0px"
	 viewBox="0 0 512 512" enable-background="new 0 0 512 512" xml:space="preserve">
<g>
	<g>
		<text transform="matrix(1 0 0 1 94.8828 425.0708)" fill="#616363" font-family="'AvertaDemo-Regular'" font-size="53.0116">BILLIONAIRE</text>
	</g>
	<g>
		<g>
			<g>
				<g>
					<g>
						<path fill="#84D1DA" d="M403.7,241.5l-44.4,0L335,194.9l0,0c-7.6-15.5-23.5-26.1-42-26.1h-74.4v0
							c-18.5,0.1-34.4,10.9-41.9,26.5l-24.1,46.1l-44.4,0l0.2,37.6h69.7l28.2-50.4l0,0l3.3-5.9v97.8c0-0.1,0-0.2,0-0.4v17.5h92.5
							v-115l3.2,5.7l-0.2,0.2l28.5,50.4h69.7L403.7,241.5z"/>
					</g>
				</g>
			</g>
		</g>
		<g>
			<g>
				<g>
					<g>
						<path fill="#616363" d="M305.4,340.8h-98.8v-20.4c0-0.1,0-0.2,0-0.4v-85.3l-26.4,47.4h-74.7l-0.3-43.8l45.6-0.1l23.2-44.4
							c7.8-16.3,23.6-26.9,41.6-28.1v-0.1l3.1,0H293c17.6,0,33.6,9.1,42.6,23.9l0.1-0.1l2.1,3.9l23.4,44.8l45.6,0.1l-0.3,43.8h-74.7
							l-26.5-46.9V340.8z M212.8,334.6h86.3V210.7l10.1,18.1L309,229l26.5,46.9h64.8l0.2-31.3l-43.1,0l-23.2-44.3l-0.1,0.1l-2-4
							c-7.4-15-22.4-24.4-39.1-24.4l-74.4,0c-16.8,0.1-31.8,9.6-39.1,24.7l-25,47.8l-43.1,0l0.2,31.3h64.8l26.2-46.9l0,0l4.3-7.8
							l5.9-10.5v109.6c0,0.1,0,0.2,0,0.4V334.6z"/>
					</g>
				</g>
			</g>
		</g>
		<g>
			<g>
				<g>
					<g>
						<g>
							<path fill="#FFFFFF" d="M254.2,151.4L254.2,151.4c-20.7,0-37.5-16.8-37.5-37.5v0c0-20.7,16.8-37.5,37.5-37.5h0
								c20.7,0,37.5,16.8,37.5,37.5v0C291.7,134.6,274.9,151.4,254.2,151.4z"/>
						</g>
					</g>
				</g>
			</g>
			<g>
				<g>
					<g>
						<g>
							<path fill="#616363" d="M254.2,154.5c-22.4,0-40.6-18.2-40.6-40.6s18.2-40.6,40.6-40.6s40.6,18.2,40.6,40.6
								S276.6,154.5,254.2,154.5z M254.2,79.6c-18.9,0-34.3,15.4-34.3,34.3s15.4,34.3,34.3,34.3c18.9,0,34.3-15.4,34.3-34.3
								S273.1,79.6,254.2,79.6z"/>
						</g>
					</g>
				</g>
			</g>
		</g>
		<g>
			<g>
				<g>
					<g>
						<polygon fill="#FCB856" points="235.7,168.8 251.3,187.1 261.5,187.1 278.3,168.8 						"/>
					</g>
				</g>
			</g>
		</g>
		<g>
			<g>
				<g>
					<g>
						<polygon fill="#FCB856" points="261.5,187.1 256.4,187.1 251.3,187.1 243.7,253.3 256.4,263.5 269.1,253.3 						"/>
					</g>
				</g>
			</g>
		</g>
		<g>
			<g>
				<g>
					<g>
						<path fill="#616363" d="M262.9,190.2h-13L229,165.7h56.5L262.9,190.2z M252.8,183.9h7.3l11-12h-28.6L252.8,183.9z"/>
					</g>
				</g>
			</g>
		</g>
		<g>
			<g>
				<g>
					<g>
						<path fill="#616363" d="M256.4,267.5l-16-12.9l8.1-70.7h15.7l8.1,70.7L256.4,267.5z M247,251.9l9.4,7.6l9.4-7.6l-7.1-61.7
							h-4.6L247,251.9z"/>
					</g>
				</g>
			</g>
		</g>
		<g>
			<g>
				<g>
					<g>
						<g>
							<path fill="#FFFFFF" d="M388,279l0-37.6l19.1,0c10.4,0,18.8,8.4,18.8,18.8v0c0,10.4-8.4,18.8-18.8,18.8L388,279z"/>
						</g>
					</g>
				</g>
			</g>
			<g>
				<g>
					<g>
						<g>
							<path fill="#616363" d="M407.1,282.2l-22.3,0v-43.8l22.3,0c12.1,0,21.9,9.8,21.9,21.9C429.1,272.3,419.2,282.2,407.1,282.2z
								 M391.2,275.9l16,0l0,3.1v-3.1c8.6,0,15.7-7,15.7-15.7c0-8.6-7-15.7-15.7-15.7l-16,0V275.9z"/>
						</g>
					</g>
				</g>
			</g>
		</g>
		<g>
			<g>
				<g>
					<g>
						<g>
							<path fill="#FFFFFF" d="M124,279l0-37.6l-19.1,0c-10.4,0-18.8,8.4-18.8,18.8v0c0,10.4,8.4,18.8,18.8,18.8L124,279z"/>
						</g>
					</g>
				</g>
			</g>
			<g>
				<g>
					<g>
						<g>
							<path fill="#616363" d="M104.9,282.2c-12.1,0-21.9-9.8-21.9-21.9c0-12.1,9.8-21.9,21.9-21.9l22.3,0v43.8L104.9,282.2z
								 M120.8,244.5l-16,0c-8.6,0-15.7,7-15.7,15.7c0,8.6,7,15.7,15.7,15.7v3.1l0-3.1l16,0V244.5z"/>
						</g>
					</g>
				</g>
			</g>
		</g>
		<g>
			<g>
				<g>
					<g>
						<g>
							<path fill="#FCB856" d="M135.2,198.7c0,7.7-5.4,13.2-14.7,13.9v9.2l-5.1,0l0-9.3c-5.6-0.6-11-3.1-15.5-7.4l4-4.7
								c4.3,4.1,9.7,6.3,14.6,6.3c5.6,0,9.7-2.8,9.7-7.6c0-5.4-4.4-7.3-11.4-9.4c-8.3-2.7-15.9-5.3-15.9-14.3
								c0-7.4,5.2-13,14.4-13.4v-9.6l5.1,0v9.9c4.6,0.8,9.6,2.9,12.9,5.5l-3.8,4.7c-4-2.9-9-4.5-12.8-4.5c-5.3,0-9,2.5-9,6.9
								c0,4.7,4.6,6.5,10.9,8.6C128.1,186.5,135.2,189,135.2,198.7L135.2,198.7z"/>
						</g>
					</g>
				</g>
			</g>
		</g>
		<g>
			<g>
				<g>
					<g>
						<g>
							<path fill="#FCB856" d="M407,198.7c0,7.7-5.4,13.2-14.7,13.9v9.2l-5.1,0v-9.3c-5.6-0.6-11-3.1-15.5-7.4l4-4.7
								c4.3,4.1,9.7,6.3,14.6,6.3c5.6,0,9.7-2.8,9.7-7.6c0-5.4-4.4-7.3-11.4-9.4c-8.3-2.7-15.9-5.3-15.9-14.3
								c0-7.4,5.2-13,14.4-13.4v-9.6l5.1,0v9.9c4.6,0.8,9.6,2.9,12.9,5.5l-3.8,4.7c-4-2.9-9-4.5-12.8-4.5c-5.3,0-9,2.5-9,6.9
								c0,4.7,4.6,6.5,10.9,8.6C399.9,186.5,407,189,407,198.7L407,198.7z"/>
						</g>
					</g>
				</g>
			</g>
		</g>
	</g>
</g>
</svg>
