<?xml version="1.0" encoding="utf-8"?>
<!-- Generator: Adobe Illustrator 18.0.0, SVG Export Plug-In . SVG Version: 6.00 Build 0)  -->
<!DOCTYPE svg PUBLIC "-//W3C//DTD SVG 1.1//EN" "http://www.w3.org/Graphics/SVG/1.1/DTD/svg11.dtd">
<svg version="1.1" id="Layer_1" xmlns="http://www.w3.org/2000/svg" xmlns:xlink="http://www.w3.org/1999/xlink" x="0px" y="0px"
	 viewBox="0 0 512 512" enable-background="new 0 0 512 512" xml:space="preserve">
<g>
	<g>
		<text transform="matrix(1 0 0 1 149.0342 419.2022)" fill="#616363" font-family="'AvertaDemo-Regular'" font-size="53.0116">BITCOIN</text>
	</g>
	<g>
		<g>
			<g>
				<g>
					<g>
						<g>
							<g>
								<rect x="72.7" y="82.3" fill="#CEECF3" width="272.9" height="136.5"/>
							</g>
						</g>
					</g>
				</g>
				<g>
					<g>
						<g>
							<g>
								<path fill="#FCB856" d="M72.7,115.5c18.3,0,33.2-14.9,33.2-33.2H72.7L72.7,115.5z"/>
							</g>
						</g>
					</g>
				</g>
				<g>
					<g>
						<g>
							<g>
								<path fill="#FCB856" d="M345.6,115.5c-18.3,0-33.2-14.9-33.2-33.2h33.2V115.5z"/>
							</g>
						</g>
					</g>
				</g>
				<g>
					<g>
						<g>
							<g>
								<path fill="#FCB856" d="M345.6,185c-18.3,0-33.2,14.9-33.2,33.2l33.2,0V185z"/>
							</g>
						</g>
					</g>
				</g>
				<g>
					<g>
						<g>
							<g>
								<path fill="#FCB856" d="M72.7,185c18.3,0,33.2,14.9,33.2,33.2l-33.2,0L72.7,185z"/>
							</g>
						</g>
					</g>
				</g>
				<g>
					<g>
						<g>
							<g>
								<path fill="#616363" d="M72.7,118.6h-3.1V79.2H109v3.1C109,102.3,92.7,118.6,72.7,118.6z M75.8,85.5v26.7
									c14.1-1.5,25.3-12.7,26.7-26.7H75.8z"/>
							</g>
						</g>
					</g>
				</g>
				<g>
					<g>
						<g>
							<g>
								<path fill="#616363" d="M348.8,118.6h-3.1c-20,0-36.3-16.3-36.3-36.3v-3.1h39.5V118.6z M315.8,85.5
									c1.5,14.1,12.7,25.3,26.7,26.7V85.5H315.8z"/>
							</g>
						</g>
					</g>
				</g>
				<g>
					<g>
						<g>
							<g>
								<path fill="#616363" d="M348.8,221.3h-39.5v-3.1c0-20,16.3-36.3,36.3-36.3h3.1V221.3z M315.8,215h26.7v-26.7
									C328.4,189.7,317.2,200.9,315.8,215z"/>
							</g>
						</g>
					</g>
				</g>
				<g>
					<g>
						<g>
							<g>
								<path fill="#616363" d="M109,221.3H69.5v-39.5h3.1c20,0,36.3,16.3,36.3,36.3V221.3z M75.8,215h26.7
									c-1.5-14.1-12.7-25.3-26.7-26.7V215z"/>
							</g>
						</g>
					</g>
				</g>
				<g>
					<g>
						<g>
							<g>
								<path fill="#616363" d="M348.7,221.9H69.5V79.2h279.2V221.9z M75.8,215.6h266.6V85.5H75.8V215.6z"/>
							</g>
						</g>
					</g>
				</g>
				<g>
					<g>
						<g>
							<g>
								<circle fill="#FCB856" cx="209.1" cy="150.5" r="39.7"/>
							</g>
						</g>
					</g>
				</g>
				<g>
					<g>
						<g>
							<g>
								<path fill="#616363" d="M209.1,193.4c-23.6,0-42.8-19.2-42.8-42.8c0-23.6,19.2-42.8,42.8-42.8c23.6,0,42.8,19.2,42.8,42.8
									C251.9,174.2,232.7,193.4,209.1,193.4z M209.1,114c-20.1,0-36.5,16.4-36.5,36.5s16.4,36.5,36.5,36.5s36.5-16.4,36.5-36.5
									S229.3,114,209.1,114z"/>
							</g>
						</g>
					</g>
				</g>
			</g>
		</g>
		<g>
			<g>
				<g>
					<g>
						<g>
							<g>
								<rect x="98" y="107.3" fill="#CEECF3" width="272.9" height="136.5"/>
							</g>
						</g>
					</g>
				</g>
				<g>
					<g>
						<g>
							<g>
								<path fill="#FCB856" d="M98,140.5c18.3,0,33.2-14.9,33.2-33.2H98V140.5z"/>
							</g>
						</g>
					</g>
				</g>
				<g>
					<g>
						<g>
							<g>
								<path fill="#FCB856" d="M371,140.5c-18.3,0-33.2-14.9-33.2-33.2H371V140.5z"/>
							</g>
						</g>
					</g>
				</g>
				<g>
					<g>
						<g>
							<g>
								<path fill="#FCB856" d="M371,210c-18.3,0-33.2,14.9-33.2,33.2l33.2,0V210z"/>
							</g>
						</g>
					</g>
				</g>
				<g>
					<g>
						<g>
							<g>
								<path fill="#FCB856" d="M98,210c18.3,0,33.2,14.9,33.2,33.2H98V210z"/>
							</g>
						</g>
					</g>
				</g>
				<g>
					<g>
						<g>
							<g>
								<path fill="#616363" d="M98,143.7h-3.1v-39.5h39.5v3.1C134.4,127.4,118.1,143.7,98,143.7z M101.2,110.5v26.7
									c14.1-1.5,25.3-12.7,26.7-26.7H101.2z"/>
							</g>
						</g>
					</g>
				</g>
				<g>
					<g>
						<g>
							<g>
								<path fill="#616363" d="M374.2,143.7H371c-20,0-36.3-16.3-36.3-36.3v-3.1h39.5V143.7z M341.1,110.5
									c1.5,14.1,12.7,25.3,26.7,26.7v-26.7H341.1z"/>
							</g>
						</g>
					</g>
				</g>
				<g>
					<g>
						<g>
							<g>
								<path fill="#616363" d="M374.2,246.3h-39.5v-3.1c0-20,16.3-36.3,36.3-36.3h3.1V246.3z M341.1,240h26.7v-26.7
									C353.8,214.7,342.6,226,341.1,240z"/>
							</g>
						</g>
					</g>
				</g>
				<g>
					<g>
						<g>
							<g>
								<path fill="#616363" d="M134.4,246.3H94.9v-39.5H98c20,0,36.3,16.3,36.3,36.3V246.3z M101.2,240h26.7
									c-1.5-14.1-12.7-25.3-26.7-26.7V240z"/>
							</g>
						</g>
					</g>
				</g>
				<g>
					<g>
						<g>
							<g>
								<path fill="#616363" d="M374.1,246.9H94.9V104.2h279.2V246.9z M101.2,240.7h266.6V110.5H101.2V240.7z"/>
							</g>
						</g>
					</g>
				</g>
				<g>
					<g>
						<g>
							<g>
								<circle fill="#FCB856" cx="234.5" cy="175.6" r="39.7"/>
							</g>
						</g>
					</g>
				</g>
				<g>
					<g>
						<g>
							<g>
								<path fill="#616363" d="M234.5,218.4c-23.6,0-42.8-19.2-42.8-42.8c0-23.6,19.2-42.8,42.8-42.8c23.6,0,42.8,19.2,42.8,42.8
									C277.3,199.2,258.1,218.4,234.5,218.4z M234.5,139c-20.1,0-36.5,16.4-36.5,36.5s16.4,36.5,36.5,36.5s36.5-16.4,36.5-36.5
									S254.6,139,234.5,139z"/>
							</g>
						</g>
					</g>
				</g>
			</g>
		</g>
		<g>
			<g>
				<g>
					<g>
						<g>
							<g>
								<rect x="123" y="132.4" fill="#CEECF3" width="272.9" height="136.5"/>
							</g>
						</g>
					</g>
				</g>
				<g>
					<g>
						<g>
							<g>
								<path fill="#FCB856" d="M123,165.6c18.3,0,33.2-14.9,33.2-33.2H123V165.6z"/>
							</g>
						</g>
					</g>
				</g>
				<g>
					<g>
						<g>
							<g>
								<path fill="#FCB856" d="M396,165.6c-18.3,0-33.2-14.9-33.2-33.2H396V165.6z"/>
							</g>
						</g>
					</g>
				</g>
				<g>
					<g>
						<g>
							<g>
								<path fill="#FCB856" d="M396,235c-18.3,0-33.2,14.9-33.2,33.2H396V235z"/>
							</g>
						</g>
					</g>
				</g>
				<g>
					<g>
						<g>
							<g>
								<path fill="#FCB856" d="M123,235c18.3,0,33.2,14.9,33.2,33.2H123V235z"/>
							</g>
						</g>
					</g>
				</g>
				<g>
					<g>
						<g>
							<g>
								<path fill="#616363" d="M123,168.7h-3.1v-39.5h39.5v3.1C159.3,152.4,143,168.7,123,168.7z M126.2,135.5v26.7
									c14.1-1.5,25.3-12.7,26.7-26.7H126.2z"/>
							</g>
						</g>
					</g>
				</g>
				<g>
					<g>
						<g>
							<g>
								<path fill="#616363" d="M399.1,168.7H396c-20,0-36.3-16.3-36.3-36.3v-3.1h39.5V168.7z M366.1,135.5
									c1.5,14.1,12.7,25.3,26.7,26.7v-26.7H366.1z"/>
							</g>
						</g>
					</g>
				</g>
				<g>
					<g>
						<g>
							<g>
								<path fill="#616363" d="M399.1,271.4h-39.5v-3.1c0-20,16.3-36.3,36.3-36.3h3.1V271.4z M366.1,265.1h26.7v-26.7
									C378.8,239.8,367.6,251,366.1,265.1z"/>
							</g>
						</g>
					</g>
				</g>
				<g>
					<g>
						<g>
							<g>
								<path fill="#616363" d="M159.3,271.4h-39.5v-39.5h3.1c20,0,36.3,16.3,36.3,36.3V271.4z M126.2,265.1h26.7
									c-1.5-14.1-12.7-25.3-26.7-26.7V265.1z"/>
							</g>
						</g>
					</g>
				</g>
				<g>
					<g>
						<g>
							<g>
								<path fill="#616363" d="M399.1,272H119.9V129.3h279.2V272z M126.2,265.7h266.6V135.5H126.2V265.7z"/>
							</g>
						</g>
					</g>
				</g>
				<g>
					<g>
						<g>
							<g>
								<circle fill="#FCB856" cx="259.5" cy="200.6" r="39.7"/>
							</g>
						</g>
					</g>
				</g>
				<g>
					<g>
						<g>
							<g>
								<path fill="#616363" d="M259.5,243.4c-23.6,0-42.8-19.2-42.8-42.8c0-23.6,19.2-42.8,42.8-42.8c23.6,0,42.8,19.2,42.8,42.8
									C302.3,224.2,283.1,243.4,259.5,243.4z M259.5,164.1c-20.1,0-36.5,16.4-36.5,36.5s16.4,36.5,36.5,36.5s36.5-16.4,36.5-36.5
									S279.6,164.1,259.5,164.1z"/>
							</g>
						</g>
					</g>
				</g>
			</g>
			<path fill="#FFFFFF" d="M275.3,197.8c1.6-1.6,2.5-3.8,2.5-6.2v-0.7c0-5-4.1-9-9-9v0.6l0,0v-0.6h-3.1c0,0,0,0,0,0v0h-0.5v-7.1
				l-3.4,0v7.1h-6.3v-7.1l-3.4,0v7.1h-13.3v3.4l0,0c3.1,0,5.6,2.5,5.6,5.6v6.3v3.4V211c0,3.1-2.5,5.6-5.6,5.6l0,0v3.4H252v7.1l3.4,0
				v-7.1h6.3v7.1l3.4,0v-7.1h0.2v0h6.4c6.1,0,11-4.9,11-11v-0.8C282.7,203.3,279.6,199.3,275.3,197.8z M251.6,185.3h14v0
				c3.1,0,5.6,2.5,5.6,5.6v0.7c0,3.1-2.5,5.6-5.6,5.6h-2.2h-2.9v0h-8.9V185.3z M265.3,216.5L265.3,216.5l-13.7,0v-16h8.9v0h2.9h5.3
				c4.2,0,7.6,3.4,7.6,7.6v0.8c0,4.2-3.4,7.6-7.6,7.6H265.3z"/>
		</g>
		<g>
			<g>
				<g>
					<g>
						<g>
							<circle fill="#84D1DA" cx="388.6" cy="266.2" r="50.7"/>
						</g>
					</g>
				</g>
			</g>
			<g>
				<g>
					<g>
						<g>
							<path fill="#616363" d="M388.6,320.1c-29.7,0-53.9-24.2-53.9-53.9s24.2-53.9,53.9-53.9c29.7,0,53.9,24.2,53.9,53.9
								S418.3,320.1,388.6,320.1z M388.6,218.6c-26.3,0-47.6,21.4-47.6,47.6s21.4,47.6,47.6,47.6c26.2,0,47.6-21.4,47.6-47.6
								S414.8,218.6,388.6,218.6z"/>
						</g>
					</g>
				</g>
			</g>
			<g>
				<g>
					<g>
						<g>
							<path fill="#FFFFFF" d="M407.3,261.4c1.9-1.9,3-4.6,3-7.4v-0.8c0-5.9-4.8-10.8-10.8-10.8v0.7l0,0v-0.7h-3.7c0,0,0,0,0,0v0
								h-0.6v-8.5l-5.6,0v8.5h-4.4v-8.5l-5.6,0v8.5h-15.9v4.1l0,0c3.7,0,6.7,3,6.7,6.7v7.6v4.1v12.4c0,3.7-3,6.7-6.7,6.7l0,0v4.1
								h15.9v8.5l5.6,0v-8.5h4.4v8.5l5.6,0v-8.5h0.2v0h7.6c7.2,0,13.1-5.9,13.1-13.1v-1C416.1,268.1,412.4,263.2,407.3,261.4z
								 M379.1,246.5h16.7v0c3.7,0,6.7,3,6.7,6.7v0.8c0,3.7-3,6.7-6.7,6.7h-2.6h-3.5v0h-10.7V246.5z M395.4,283.8L395.4,283.8
								l-16.3,0v-19.1h10.7v0h3.5h6.4c5,0,9,4.1,9,9v1c0,5-4.1,9-9,9H395.4z"/>
						</g>
					</g>
				</g>
			</g>
		</g>
	</g>
</g>
</svg>
