<?xml version="1.0" encoding="utf-8"?>
<!-- Generator: Adobe Illustrator 18.0.0, SVG Export Plug-In . SVG Version: 6.00 Build 0)  -->
<!DOCTYPE svg PUBLIC "-//W3C//DTD SVG 1.1//EN" "http://www.w3.org/Graphics/SVG/1.1/DTD/svg11.dtd">
<svg version="1.1" id="Layer_1" xmlns="http://www.w3.org/2000/svg" xmlns:xlink="http://www.w3.org/1999/xlink" x="0px" y="0px"
	 viewBox="0 0 512 512" enable-background="new 0 0 512 512" xml:space="preserve">
<g>
	<g>
		<text transform="matrix(1 0 0 1 83.751 425.3252)" fill="#616363" font-family="'AvertaDemo-Regular'" font-size="53.0111">BLOCKCHAIN</text>
	</g>
	<g>
		<g>
			<g>
				<g>
					<g>
						<path fill="#CEECF3" d="M224.9,174l-36.7-16.7l-5.7-2.6l-19.5-8.9L101.1,174l-2.8,1.3v3.6v78.3l61.9,28.2l2.8,1.3l2.8-1.3
							l61.9-28.2v-78.3v-3.6L224.9,174z"/>
					</g>
				</g>
			</g>
		</g>
		<g>
			<g>
				<g>
					<g>
						<path fill="#85D1D8" d="M399.9,174l-36.7-16.7l-5.7-2.6l-19.5-8.9L276.2,174l-2.8,1.3v3.6v78.3l61.9,28.2l2.8,1.3l2.8-1.3
							l61.9-28.2v-78.3v-3.6L399.9,174z"/>
					</g>
				</g>
			</g>
		</g>
		<g>
			<g>
				<g>
					<g>
						<path fill="#FFFFFF" d="M312.4,103.6l-36.7-16.7l-5.7-2.6l-19.5-8.9l-61.9,28.2l-2.8,1.3v3.6v78.3l61.9,28.2l2.8,1.3l2.8-1.3
							l61.9-28.2v-78.3v-3.6L312.4,103.6z"/>
					</g>
				</g>
			</g>
		</g>
		<g>
			<g>
				<g>
					<g>
						<polygon fill="none" points="195.8,278.2 131.5,248.9 131.5,167.5 195.8,196.8 						"/>
					</g>
				</g>
			</g>
			<g>
				<g>
					<g>
						<polygon fill="none" points="195.8,278.2 260.1,248.9 260.1,167.5 195.8,196.8 						"/>
					</g>
				</g>
			</g>
			<g>
				<g>
					<g>
						<polygon fill="none" points="195.8,138.3 131.5,167.5 131.5,167.5 195.8,196.8 260.1,167.5 260.1,167.5 						"/>
					</g>
				</g>
			</g>
		</g>
		<g>
			<g>
				<g>
					<g>
						<g>
							<path fill="#616363" d="M163,201.6l-57.2-26l-7.1-3.2l-3,1.4v85.2l64.3,29.3l2.9,1.3l2.9-1.3v-85.2L163,201.6z M160.1,281.7
								l-58.4-26.6v-74.9l58.4,26.6V281.7z"/>
						</g>
					</g>
				</g>
			</g>
			<g>
				<g>
					<g>
						<g>
							<path fill="#616363" d="M227.3,172.3l-7.1,3.2l-57.2,26l-2.9,1.3v85.2l2.9,1.3l2.9-1.3l64.3-29.3v-85.2L227.3,172.3z
								 M224.4,255.1l-58.4,26.6v-74.9l58.4-26.6V255.1z"/>
						</g>
					</g>
				</g>
			</g>
			<g>
				<g>
					<g>
						<g>
							<path fill="#616363" d="M227.3,172.3L189.1,155l-5.9-2.7L163,143l-64.3,29.3l-3,1.4v3.8l5.9,2.7l58.4,26.6l2.9,1.3l2.9-1.3
								l58.4-26.6l5.9-2.7v-3.8L227.3,172.3z M163,201.6l-57.2-26l57.2-26l20.3,9.2l5.9,2.7l31.1,14.1L163,201.6z"/>
						</g>
					</g>
				</g>
			</g>
		</g>
		<g>
			<g>
				<g>
					<g>
						<g>
							<path fill="#616363" d="M338,201.6l-57.2-26h0l-7.1-3.2l-2.9,1.3v85.2l64.3,29.3l2.9,1.3l2.9-1.3v-85.2L338,201.6z
								 M335.1,281.7l-58.4-26.6v-74.9l58.4,26.6V281.7z"/>
						</g>
					</g>
				</g>
			</g>
			<g>
				<g>
					<g>
						<g>
							<path fill="#616363" d="M402.3,172.3l-7.1,3.2h0l-57.2,26l-2.9,1.3v85.2l2.9,1.3l2.9-1.3l64.3-29.3v-85.2L402.3,172.3z
								 M399.4,255.1L341,281.7v-74.9l58.4-26.6V255.1z"/>
						</g>
					</g>
				</g>
			</g>
			<g>
				<g>
					<g>
						<g>
							<path fill="#616363" d="M273.7,172.3l7.1,3.2h0l31.1-14.1V155L273.7,172.3z M273.7,172.3l7.1,3.2h0l31.1-14.1V155
								L273.7,172.3z M273.7,172.3l7.1,3.2h0l31.1-14.1V155L273.7,172.3z M273.7,172.3l7.1,3.2h0l31.1-14.1V155L273.7,172.3z
								 M273.7,172.3l7.1,3.2h0l31.1-14.1V155L273.7,172.3z M273.7,172.3l7.1,3.2h0l31.1-14.1V155L273.7,172.3z M273.7,172.3
								l7.1,3.2h0l31.1-14.1V155L273.7,172.3z M402.3,172.3L338,143l-20.3,9.2l-5.9,2.7l-38.2,17.4l-2.9,1.3v3.8l5.9,2.7l58.4,26.6
								l2.9,1.3l2.9-1.3l58.4-26.6l5.9-2.7v-3.8L402.3,172.3z M338,201.6l-57.2-26l31.1-14.1l5.9-2.7l20.3-9.2l57.2,26L338,201.6z
								 M273.7,172.3l7.1,3.2h0l31.1-14.1V155L273.7,172.3z M273.7,172.3l7.1,3.2h0l31.1-14.1V155L273.7,172.3z M273.7,172.3
								l7.1,3.2h0l31.1-14.1V155L273.7,172.3z M273.7,172.3l7.1,3.2h0l31.1-14.1V155L273.7,172.3z M273.7,172.3l7.1,3.2h0l31.1-14.1
								V155L273.7,172.3z M273.7,172.3l7.1,3.2h0l31.1-14.1V155L273.7,172.3z M273.7,172.3l7.1,3.2h0l31.1-14.1V155L273.7,172.3z"/>
						</g>
					</g>
				</g>
			</g>
		</g>
		<g>
			<g>
				<g>
					<g>
						<g>
							<polygon fill="#616363" points="253.5,133 253.5,218.2 250.5,219.5 247.6,218.2 230.2,210.3 224.4,207.6 202.6,197.7 
								205.1,192.3 224.4,201.1 230.2,203.8 247.6,211.7 247.6,136.8 189.1,110.1 189.1,183.8 183.3,183.8 183.3,103.7 186.2,102.3 
								193.3,105.6 250.5,131.6 							"/>
						</g>
					</g>
				</g>
			</g>
			<g>
				<g>
					<g>
						<g>
							<polygon fill="#616363" points="317.8,103.7 317.8,183.8 311.9,183.8 311.9,110.1 253.5,136.8 253.5,211.7 270.8,203.8 
								276.7,201.1 294.7,192.9 297.1,198.3 276.7,207.6 270.8,210.3 253.5,218.2 250.5,219.5 247.6,218.2 247.6,133 250.5,131.6 
								307.7,105.6 314.8,102.3 							"/>
						</g>
					</g>
				</g>
			</g>
			<g>
				<g>
					<g>
						<g>
							<path fill="#616363" d="M314.8,102.3l-64.3-29.3l-64.3,29.3l-2.9,1.3v3.8l5.9,2.7l58.4,26.6l2.9,1.3l2.9-1.3l58.4-26.6
								l5.9-2.7v-3.8L314.8,102.3z M250.5,131.6l-57.2-26.1l57.2-26l57.2,26L250.5,131.6z"/>
						</g>
					</g>
				</g>
			</g>
		</g>
	</g>
</g>
</svg>
