<?xml version="1.0" encoding="utf-8"?>
<!-- Generator: Adobe Illustrator 18.0.0, SVG Export Plug-In . SVG Version: 6.00 Build 0)  -->
<!DOCTYPE svg PUBLIC "-//W3C//DTD SVG 1.1//EN" "http://www.w3.org/Graphics/SVG/1.1/DTD/svg11.dtd">
<svg version="1.1" id="Layer_1" xmlns="http://www.w3.org/2000/svg" xmlns:xlink="http://www.w3.org/1999/xlink" x="0px" y="0px"
	 viewBox="0 0 512 512" enable-background="new 0 0 512 512" xml:space="preserve">
<g>
	<g>
		<text transform="matrix(1 0 0 1 53.376 420.4167)" fill="#616363" font-family="'AvertaDemo-Regular'" font-size="53.0116">BRITISH POUND</text>
	</g>
	<g>
		<g>
			<g>
				<g>
					<g>
						<g>
							<g>
								<rect x="62" y="81.1" fill="#CEECF3" width="272.9" height="136.5"/>
							</g>
						</g>
					</g>
				</g>
				<g>
					<g>
						<g>
							<g>
								<path fill="#FCB856" d="M62,114.3c18.3,0,33.2-14.9,33.2-33.2H62V114.3z"/>
							</g>
						</g>
					</g>
				</g>
				<g>
					<g>
						<g>
							<g>
								<path fill="#FCB856" d="M335,114.3c-18.3,0-33.2-14.9-33.2-33.2H335V114.3z"/>
							</g>
						</g>
					</g>
				</g>
				<g>
					<g>
						<g>
							<g>
								<path fill="#FCB856" d="M335,183.7c-18.3,0-33.2,14.9-33.2,33.2l33.2,0V183.7z"/>
							</g>
						</g>
					</g>
				</g>
				<g>
					<g>
						<g>
							<g>
								<path fill="#FCB856" d="M62,183.7c18.3,0,33.2,14.9,33.2,33.2l-33.2,0V183.7z"/>
							</g>
						</g>
					</g>
				</g>
				<g>
					<g>
						<g>
							<g>
								<path fill="#616363" d="M62,117.4h-3.1V78h39.5v3.1C98.3,101.1,82.1,117.4,62,117.4z M65.2,84.2V111
									c14.1-1.5,25.3-12.7,26.7-26.7H65.2z"/>
							</g>
						</g>
					</g>
				</g>
				<g>
					<g>
						<g>
							<g>
								<path fill="#616363" d="M338.1,117.4H335c-20,0-36.3-16.3-36.3-36.3V78h39.5V117.4z M305.1,84.2
									c1.5,14.1,12.7,25.3,26.7,26.7V84.2H305.1z"/>
							</g>
						</g>
					</g>
				</g>
				<g>
					<g>
						<g>
							<g>
								<path fill="#616363" d="M338.1,220.1h-39.5v-3.1c0-20,16.3-36.3,36.3-36.3h3.1V220.1z M305.1,213.8h26.7V187
									C317.8,188.5,306.6,199.7,305.1,213.8z"/>
							</g>
						</g>
					</g>
				</g>
				<g>
					<g>
						<g>
							<g>
								<path fill="#616363" d="M98.3,220.1H58.9v-39.5H62c20,0,36.3,16.3,36.3,36.3V220.1z M65.2,213.8h26.7
									c-1.5-14.1-12.7-25.3-26.7-26.7V213.8z"/>
							</g>
						</g>
					</g>
				</g>
				<g>
					<g>
						<g>
							<g>
								<path fill="#616363" d="M338.1,220.7H58.9V78h279.2V220.7z M65.2,214.4h266.6V84.2H65.2V214.4z"/>
							</g>
						</g>
					</g>
				</g>
				<g>
					<g>
						<g>
							<g>
								<circle fill="#FCB856" cx="198.5" cy="149.3" r="39.7"/>
							</g>
						</g>
					</g>
				</g>
				<g>
					<g>
						<g>
							<g>
								<path fill="#616363" d="M198.5,192.1c-23.6,0-42.8-19.2-42.8-42.8s19.2-42.8,42.8-42.8c23.6,0,42.8,19.2,42.8,42.8
									S222.1,192.1,198.5,192.1z M198.5,112.8c-20.1,0-36.5,16.4-36.5,36.5s16.4,36.5,36.5,36.5s36.5-16.4,36.5-36.5
									S218.6,112.8,198.5,112.8z"/>
							</g>
						</g>
					</g>
				</g>
			</g>
			<g>
				<g>
					<g>
						<g>
							<g>
								<rect x="89.6" y="105.4" fill="#CEECF3" width="272.9" height="136.5"/>
							</g>
						</g>
					</g>
				</g>
				<g>
					<g>
						<g>
							<g>
								<path fill="#FCB856" d="M89.6,138.5c18.3,0,33.2-14.9,33.2-33.2H89.6V138.5z"/>
							</g>
						</g>
					</g>
				</g>
				<g>
					<g>
						<g>
							<g>
								<path fill="#FCB856" d="M362.6,138.5c-18.3,0-33.2-14.9-33.2-33.2h33.2V138.5z"/>
							</g>
						</g>
					</g>
				</g>
				<g>
					<g>
						<g>
							<g>
								<path fill="#FCB856" d="M362.6,208c-18.3,0-33.2,14.9-33.2,33.2h33.2V208z"/>
							</g>
						</g>
					</g>
				</g>
				<g>
					<g>
						<g>
							<g>
								<path fill="#FCB856" d="M89.6,208c18.3,0,33.2,14.9,33.2,33.2H89.6V208z"/>
							</g>
						</g>
					</g>
				</g>
				<g>
					<g>
						<g>
							<g>
								<path fill="#616363" d="M89.6,141.7h-3.1v-39.5h39.5v3.1C125.9,125.4,109.6,141.7,89.6,141.7z M92.7,108.5v26.7
									c14.1-1.5,25.3-12.7,26.7-26.7H92.7z"/>
							</g>
						</g>
					</g>
				</g>
				<g>
					<g>
						<g>
							<g>
								<path fill="#616363" d="M365.7,141.7h-3.1c-20,0-36.3-16.3-36.3-36.3v-3.1h39.5V141.7z M332.7,108.5
									c1.5,14.1,12.7,25.3,26.7,26.7v-26.7H332.7z"/>
							</g>
						</g>
					</g>
				</g>
				<g>
					<g>
						<g>
							<g>
								<path fill="#616363" d="M365.7,244.3h-39.5v-3.1c0-20,16.3-36.3,36.3-36.3h3.1V244.3z M332.7,238h26.7v-26.7
									C345.4,212.8,334.1,224,332.7,238z"/>
							</g>
						</g>
					</g>
				</g>
				<g>
					<g>
						<g>
							<g>
								<path fill="#616363" d="M125.9,244.3H86.4v-39.5h3.1c20,0,36.3,16.3,36.3,36.3V244.3z M92.7,238h26.7
									c-1.5-14.1-12.7-25.3-26.7-26.7V238z"/>
							</g>
						</g>
					</g>
				</g>
				<g>
					<g>
						<g>
							<g>
								<path fill="#616363" d="M365.6,244.9H86.4V102.2h279.2V244.9z M92.7,238.7h266.6V108.5H92.7V238.7z"/>
							</g>
						</g>
					</g>
				</g>
				<g>
					<g>
						<g>
							<g>
								<circle fill="#FCB856" cx="226" cy="173.6" r="39.7"/>
							</g>
						</g>
					</g>
				</g>
				<g>
					<g>
						<g>
							<g>
								<path fill="#616363" d="M226,216.4c-23.6,0-42.8-19.2-42.8-42.8c0-23.6,19.2-42.8,42.8-42.8c23.6,0,42.8,19.2,42.8,42.8
									C268.8,197.2,249.6,216.4,226,216.4z M226,137c-20.1,0-36.5,16.4-36.5,36.5s16.4,36.5,36.5,36.5s36.5-16.4,36.5-36.5
									S246.2,137,226,137z"/>
							</g>
						</g>
					</g>
				</g>
			</g>
			<g>
				<g>
					<g>
						<g>
							<rect x="117.1" y="129.6" fill="#CEECF3" width="272.9" height="136.5"/>
						</g>
					</g>
				</g>
			</g>
			<g>
				<g>
					<g>
						<g>
							<path fill="#FCB856" d="M117.1,162.8c18.3,0,33.2-14.9,33.2-33.2h-33.2V162.8z"/>
						</g>
					</g>
				</g>
			</g>
			<g>
				<g>
					<g>
						<g>
							<path fill="#FCB856" d="M390.1,162.8c-18.3,0-33.2-14.9-33.2-33.2h33.2V162.8z"/>
						</g>
					</g>
				</g>
			</g>
			<g>
				<g>
					<g>
						<g>
							<path fill="#FCB856" d="M390.1,232.2c-18.3,0-33.2,14.9-33.2,33.2h33.2V232.2z"/>
						</g>
					</g>
				</g>
			</g>
			<g>
				<g>
					<g>
						<g>
							<path fill="#FCB856" d="M117.1,232.2c18.3,0,33.2,14.9,33.2,33.2h-33.2V232.2z"/>
						</g>
					</g>
				</g>
			</g>
			<g>
				<g>
					<g>
						<g>
							<path fill="#616363" d="M117.1,165.9H114v-39.5h39.5v3.1C153.4,149.6,137.2,165.9,117.1,165.9z M120.3,132.7v26.7
								c14.1-1.5,25.3-12.7,26.7-26.7H120.3z"/>
						</g>
					</g>
				</g>
			</g>
			<g>
				<g>
					<g>
						<g>
							<path fill="#616363" d="M393.2,165.9h-3.1c-20,0-36.3-16.3-36.3-36.3v-3.1h39.5V165.9z M360.2,132.7
								c1.5,14.1,12.7,25.3,26.7,26.7v-26.7H360.2z"/>
						</g>
					</g>
				</g>
			</g>
			<g>
				<g>
					<g>
						<g>
							<path fill="#616363" d="M393.2,268.6h-39.5v-3.1c0-20,16.3-36.3,36.3-36.3h3.1V268.6z M360.2,262.3H387v-26.7
								C372.9,237,361.7,248.2,360.2,262.3z"/>
						</g>
					</g>
				</g>
			</g>
			<g>
				<g>
					<g>
						<g>
							<path fill="#616363" d="M153.4,268.6H114v-39.5h3.1c20,0,36.3,16.3,36.3,36.3V268.6z M120.3,262.3H147
								c-1.5-14.1-12.7-25.3-26.7-26.7V262.3z"/>
						</g>
					</g>
				</g>
			</g>
			<g>
				<g>
					<g>
						<g>
							<path fill="#616363" d="M393.2,269.2H114V126.5h279.2V269.2z M120.3,262.9h266.6V132.7H120.3V262.9z"/>
						</g>
					</g>
				</g>
			</g>
			<g>
				<g>
					<g>
						<g>
							<circle fill="#FCB856" cx="253.6" cy="197.8" r="39.7"/>
						</g>
					</g>
				</g>
			</g>
			<g>
				<g>
					<g>
						<g>
							<path fill="#616363" d="M253.6,240.6c-23.6,0-42.8-19.2-42.8-42.8c0-23.6,19.2-42.8,42.8-42.8s42.8,19.2,42.8,42.8
								C296.4,221.4,277.2,240.6,253.6,240.6z M253.6,161.3c-20.1,0-36.5,16.4-36.5,36.5s16.4,36.5,36.5,36.5
								c20.1,0,36.5-16.4,36.5-36.5S273.7,161.3,253.6,161.3z"/>
						</g>
					</g>
				</g>
			</g>
			<g>
				<g>
					<g>
						<g>
							<g>
								<circle fill="#FFFFFF" cx="378.9" cy="263.4" r="51.2"/>
							</g>
						</g>
					</g>
				</g>
				<g>
					<g>
						<g>
							<g>
								<path fill="#616363" d="M378.9,317.8c-30,0-54.4-24.4-54.4-54.4s24.4-54.4,54.4-54.4s54.4,24.4,54.4,54.4
									S408.9,317.8,378.9,317.8z M378.9,215.3c-26.5,0-48.1,21.6-48.1,48.1c0,26.5,21.6,48.1,48.1,48.1
									c26.5,0,48.1-21.6,48.1-48.1C427,236.9,405.4,215.3,378.9,215.3z"/>
							</g>
						</g>
					</g>
				</g>
			</g>
		</g>
		<g>
			<g>
				<g>
					<g>
						<g>
							<g>
								<path fill="#FFFFFF" d="M269.7,217.5h-27.1l-1.6-4.1l3.9-3.5c2.4-2.5,3.5-5.6,2.6-8.2c-0.6-2-1.9-3.8-3.3-5.7l-0.4-0.6
									c-1.9-2.6-4.2-5.8-3.7-9.7c0.4-3.3,2.3-6.3,5.2-8.1c4.2-2.7,10.3-3.1,15.2-1.1c3.9,1.6,6.5,4.6,7.3,8.5l0.5,2.3l-4.6,1
									l-0.5-2.3c-0.6-2.9-2.8-4.4-4.5-5.1c-3.4-1.4-7.9-1.2-10.8,0.7c-1.7,1.1-2.8,2.8-3,4.7c-0.2,2.1,1.4,4.4,2.9,6.4l0.4,0.6
									c1.5,2.1,3.1,4.4,4,7.1c1.3,4.1,0,8.7-3.4,12.5h21.1V217.5z"/>
							</g>
						</g>
					</g>
				</g>
			</g>
			<g>
				<g>
					<g>
						<g>
							<g>
								<rect x="241" y="196.7" fill="#FFFFFF" width="18.6" height="4.7"/>
							</g>
						</g>
					</g>
				</g>
			</g>
		</g>
		<g>
			<g>
				<g>
					<g>
						<g>
							<g>
								<path fill="#FCB856" d="M397.6,289.5h-34.8l-2-5.3l5-4.5c3.1-3.2,4.4-7.2,3.4-10.5c-0.8-2.6-2.5-4.9-4.2-7.4l-0.6-0.8
									c-2.4-3.3-5.3-7.5-4.8-12.5c0.5-4.3,2.9-8.1,6.7-10.4c5.4-3.4,13.2-4,19.5-1.4c5,2.1,8.3,6,9.4,10.9l0.6,3l-5.9,1.3l-0.6-3
									c-0.8-3.7-3.6-5.6-5.8-6.6c-4.4-1.8-10.1-1.5-13.9,0.9c-2.2,1.4-3.6,3.6-3.9,6c-0.3,2.7,1.8,5.7,3.7,8.3l0.6,0.8
									c2,2.7,4,5.6,5.1,9.1c1.7,5.3,0,11.2-4.4,16h27V289.5z"/>
							</g>
						</g>
					</g>
				</g>
			</g>
			<g>
				<g>
					<g>
						<g>
							<g>
								<rect x="360.7" y="262.8" fill="#FCB856" width="23.9" height="6"/>
							</g>
						</g>
					</g>
				</g>
			</g>
		</g>
	</g>
</g>
</svg>
