<?xml version="1.0" encoding="utf-8"?>
<!-- Generator: Adobe Illustrator 18.0.0, SVG Export Plug-In . SVG Version: 6.00 Build 0)  -->
<!DOCTYPE svg PUBLIC "-//W3C//DTD SVG 1.1//EN" "http://www.w3.org/Graphics/SVG/1.1/DTD/svg11.dtd">
<svg version="1.1" id="Layer_1" xmlns="http://www.w3.org/2000/svg" xmlns:xlink="http://www.w3.org/1999/xlink" x="0px" y="0px"
	 viewBox="0 0 512 512" enable-background="new 0 0 512 512" xml:space="preserve">
<g>
	<g>
		<text transform="matrix(1 0 0 1 101.8706 428.153)" fill="#616363" font-family="'AvertaDemo-Regular'" font-size="53.0116">BUDGETING</text>
	</g>
	<g>
		<g>
			<g>
				<g>
					<g>
						<rect x="152.3" y="73.4" fill="#FFFFFF" width="198.5" height="254.4"/>
					</g>
				</g>
			</g>
		</g>
		<g>
			<g>
				<g>
					<g>
						<path fill="#616363" d="M354,331H149.2V70.2H354V331z M155.5,324.7h192.3V76.5H155.5V324.7z"/>
					</g>
				</g>
			</g>
		</g>
		<g>
			<g>
				<g>
					<g>
						<g>
							<path fill="#FCB856" d="M220.2,139.9c0,4.6-3.2,7.8-8.7,8.2v5.4h-3v-5.5c-3.3-0.4-6.5-1.8-9.2-4.4l2.3-2.8
								c2.5,2.5,5.8,3.7,8.7,3.7c3.3,0,5.8-1.6,5.8-4.5c0-3.2-2.6-4.3-6.7-5.6c-4.9-1.6-9.4-3.1-9.4-8.5c0-4.4,3-7.7,8.5-7.9v-5.7h3
								v5.9c2.7,0.5,5.7,1.7,7.6,3.3l-2.3,2.8c-2.4-1.7-5.3-2.7-7.6-2.7c-3.1,0-5.3,1.5-5.3,4.1c0,2.8,2.7,3.8,6.5,5.1
								C216,132.7,220.2,134.1,220.2,139.9L220.2,139.9z"/>
						</g>
					</g>
				</g>
			</g>
		</g>
		<g>
			<g>
				<g>
					<g>
						<path fill="#616363" d="M325.1,166.1L180.9,166V99.9l144.1,0.1V166.1z M187.2,159.7l131.6,0.1v-53.6l-131.6-0.1V159.7z"/>
					</g>
				</g>
			</g>
		</g>
		<g>
			<g>
				<g>
					<g>
						<g>
							<path fill="#84D1DA" d="M263.8,274.8c0,0-16.6,15.4-31.1,16c-3.6-14,6.4-34.4,6.4-34.4l5.1-6.8l24.7,18.4L263.8,274.8z"/>
						</g>
					</g>
				</g>
			</g>
			<g>
				<g>
					<g>
						<g>
							
								<rect x="294.6" y="97.2" transform="matrix(0.8026 0.5965 -0.5965 0.8026 172.6624 -148.0121)" fill="#CEECF3" width="30.8" height="179.3"/>
						</g>
					</g>
				</g>
			</g>
			<g>
				<g>
					<g>
						<g>
							<path fill="#616363" d="M269.5,272.4l-29.8-22.1l110.7-149l29.8,22.1L269.5,272.4z M248.5,249l19.7,14.6l103.2-138.9
								l-19.7-14.6L248.5,249z"/>
						</g>
					</g>
				</g>
			</g>
			<g>
				<g>
					<g>
						<g>
							<polygon fill="#616363" points="352.4,185.2 347.4,181.4 391.9,121.6 370.3,105.6 374.1,100.6 400.6,120.3 							"/>
						</g>
					</g>
				</g>
			</g>
			<g>
				<g>
					<g>
						<g>
							<path fill="#616363" d="M230.3,294.1l-0.6-2.5c-3.8-15,6.1-35.7,6.6-36.5l0.3-0.5l6.9-9.3l29.8,22.1l-7.3,9.8
								c-0.7,0.7-17.6,16.2-33.1,16.8L230.3,294.1z M241.7,258.1c-1,2.1-8,17.6-6.5,29.3c11.7-2,24.5-13.1,26.2-14.7l3-4.1
								L244.8,254L241.7,258.1z"/>
						</g>
					</g>
				</g>
			</g>
			<g>
				<g>
					<g>
						<g>
							
								<rect x="226.9" y="289.9" transform="matrix(0.8026 0.5966 -0.5966 0.8026 221.0681 -79.0688)" fill="#616363" width="6.3" height="9"/>
						</g>
					</g>
				</g>
			</g>
		</g>
		<g>
			<g>
				<g>
					<g>
						<rect x="232.2" y="129.9" fill="#616363" width="74.1" height="6.3"/>
					</g>
				</g>
			</g>
		</g>
		<g>
			<g>
				<g>
					<g>
						<rect x="184" y="194.3" fill="#616363" width="99.5" height="6.3"/>
					</g>
				</g>
			</g>
		</g>
		<g>
			<g>
				<g>
					<g>
						<rect x="184" y="227.8" fill="#616363" width="74" height="6.3"/>
					</g>
				</g>
			</g>
		</g>
		<g>
			<g>
				<g>
					<g>
						<rect x="183.5" y="261.4" fill="#616363" width="52.2" height="6.3"/>
					</g>
				</g>
			</g>
		</g>
		<g>
			<g>
				<g>
					<g>
						<rect x="183.5" y="294.9" fill="#616363" width="43.3" height="6.3"/>
					</g>
				</g>
			</g>
		</g>
		<g>
			<g>
				<g>
					<g>
						<rect x="271.4" y="261.4" fill="#616363" width="50.5" height="6.3"/>
					</g>
				</g>
			</g>
		</g>
		<g>
			<g>
				<g>
					<g>
						<rect x="296.4" y="227.8" fill="#616363" width="25.5" height="6.3"/>
					</g>
				</g>
			</g>
		</g>
	</g>
</g>
</svg>
