<?xml version="1.0" encoding="utf-8"?>
<!-- Generator: Adobe Illustrator 18.0.0, SVG Export Plug-In . SVG Version: 6.00 Build 0)  -->
<!DOCTYPE svg PUBLIC "-//W3C//DTD SVG 1.1//EN" "http://www.w3.org/Graphics/SVG/1.1/DTD/svg11.dtd">
<svg version="1.1" id="Layer_1" xmlns="http://www.w3.org/2000/svg" xmlns:xlink="http://www.w3.org/1999/xlink" x="0px" y="0px"
	 viewBox="0 0 512 512" enable-background="new 0 0 512 512" xml:space="preserve">
<g>
	<g>
		<text transform="matrix(1 0 0 1 81.9004 418.6099)" fill="#616363" font-family="'AvertaDemo-Regular'" font-size="53.0116">CALCULATOR</text>
	</g>
	<g>
		<g>
			<g>
				<g>
					<path fill="#FCB856" d="M321.5,308.3H190.8c-14.3,0-25.8-11.6-25.8-25.8V108.7c0-14.3,11.6-25.8,25.8-25.8h130.7
						c14.3,0,25.8,11.6,25.8,25.8v173.7C347.4,296.7,335.8,308.3,321.5,308.3z"/>
				</g>
			</g>
		</g>
		<g>
			<g>
				<g>
					<g>
						<path fill="#84D1DA" d="M213.4,223.9h-11.3c-5.5,0-10-4.5-10-10v-11.3c0-5.5,4.5-10,10-10h11.3c5.5,0,10,4.5,10,10V214
							C223.4,219.5,218.9,223.9,213.4,223.9z"/>
					</g>
				</g>
			</g>
			<g>
				<g>
					<g>
						<path fill="#84D1DA" d="M263.2,223.9h-11.3c-5.5,0-10-4.5-10-10v-11.3c0-5.5,4.5-10,10-10h11.3c5.5,0,10,4.5,10,10V214
							C273.1,219.5,268.7,223.9,263.2,223.9z"/>
					</g>
				</g>
			</g>
			<g>
				<g>
					<g>
						<path fill="#84D1DA" d="M213.4,276.1h-11.3c-5.5,0-10-4.5-10-10v-11.3c0-5.5,4.5-10,10-10h11.3c5.5,0,10,4.5,10,10v11.3
							C223.4,271.6,218.9,276.1,213.4,276.1z"/>
					</g>
				</g>
			</g>
			<g>
				<g>
					<g>
						<path fill="#84D1DA" d="M263.2,276.1h-11.3c-5.5,0-10-4.5-10-10v-11.3c0-5.5,4.5-10,10-10h11.3c5.5,0,10,4.5,10,10v11.3
							C273.1,271.6,268.7,276.1,263.2,276.1z"/>
					</g>
				</g>
			</g>
			<g>
				<g>
					<g>
						<path fill="#84D1DA" d="M312.9,223.9h-11.3c-5.5,0-10-4.5-10-10v-11.3c0-5.5,4.5-10,10-10h11.3c5.5,0,10,4.5,10,10V214
							C322.9,219.5,318.4,223.9,312.9,223.9z"/>
					</g>
				</g>
			</g>
			<g>
				<g>
					<g>
						<path fill="#84D1DA" d="M312.9,276.1h-11.3c-5.5,0-10-4.5-10-10v-11.3c0-5.5,4.5-10,10-10h11.3c5.5,0,10,4.5,10,10v11.3
							C322.9,271.6,318.4,276.1,312.9,276.1z"/>
					</g>
				</g>
			</g>
		</g>
		<g>
			<g>
				<g>
					<path fill="#616363" d="M321.5,311.4H190.8c-16,0-29-13-29-29V108.7c0-16,13-29,29-29h130.7c16,0,29,13,29,29v173.7
						C350.5,298.4,337.5,311.4,321.5,311.4z M190.8,86c-12.5,0-22.7,10.2-22.7,22.7v173.7c0,12.5,10.2,22.7,22.7,22.7h130.7
						c12.5,0,22.7-10.2,22.7-22.7V108.7c0-12.5-10.2-22.7-22.7-22.7H190.8z"/>
				</g>
			</g>
		</g>
		<g>
			<g>
				<g>
					<g>
						<path fill="#616363" d="M207.8,227.1c-10.3,0-18.8-8.4-18.8-18.8c0-10.3,8.4-18.8,18.8-18.8c10.3,0,18.8,8.4,18.8,18.8
							C226.5,218.7,218.1,227.1,207.8,227.1z M207.8,195.8c-6.9,0-12.5,5.6-12.5,12.5c0,6.9,5.6,12.5,12.5,12.5s12.5-5.6,12.5-12.5
							C220.3,201.4,214.7,195.8,207.8,195.8z"/>
					</g>
				</g>
			</g>
			<g>
				<g>
					<g>
						<path fill="#616363" d="M257.5,227.1c-10.3,0-18.8-8.4-18.8-18.8c0-10.3,8.4-18.8,18.8-18.8c10.3,0,18.8,8.4,18.8,18.8
							C276.3,218.7,267.9,227.1,257.5,227.1z M257.5,195.8c-6.9,0-12.5,5.6-12.5,12.5c0,6.9,5.6,12.5,12.5,12.5s12.5-5.6,12.5-12.5
							C270,201.4,264.4,195.8,257.5,195.8z"/>
					</g>
				</g>
			</g>
			<g>
				<g>
					<g>
						<path fill="#616363" d="M207.8,279.2c-10.3,0-18.8-8.4-18.8-18.8c0-10.3,8.4-18.8,18.8-18.8c10.3,0,18.8,8.4,18.8,18.8
							C226.5,270.8,218.1,279.2,207.8,279.2z M207.8,248c-6.9,0-12.5,5.6-12.5,12.5s5.6,12.5,12.5,12.5s12.5-5.6,12.5-12.5
							S214.7,248,207.8,248z"/>
					</g>
				</g>
			</g>
			<g>
				<g>
					<g>
						<path fill="#616363" d="M257.5,279.2c-10.3,0-18.8-8.4-18.8-18.8c0-10.3,8.4-18.8,18.8-18.8c10.3,0,18.8,8.4,18.8,18.8
							C276.3,270.8,267.9,279.2,257.5,279.2z M257.5,248c-6.9,0-12.5,5.6-12.5,12.5s5.6,12.5,12.5,12.5s12.5-5.6,12.5-12.5
							S264.4,248,257.5,248z"/>
					</g>
				</g>
			</g>
			<g>
				<g>
					<g>
						<path fill="#616363" d="M307.3,227.1c-10.3,0-18.8-8.4-18.8-18.8c0-10.3,8.4-18.8,18.8-18.8c10.3,0,18.8,8.4,18.8,18.8
							C326,218.7,317.6,227.1,307.3,227.1z M307.3,195.8c-6.9,0-12.5,5.6-12.5,12.5c0,6.9,5.6,12.5,12.5,12.5s12.5-5.6,12.5-12.5
							C319.7,201.4,314.1,195.8,307.3,195.8z"/>
					</g>
				</g>
			</g>
			<g>
				<g>
					<g>
						<path fill="#616363" d="M307.3,279.2c-10.3,0-18.8-8.4-18.8-18.8c0-10.3,8.4-18.8,18.8-18.8c10.3,0,18.8,8.4,18.8,18.8
							C326,270.8,317.6,279.2,307.3,279.2z M307.3,248c-6.9,0-12.5,5.6-12.5,12.5s5.6,12.5,12.5,12.5s12.5-5.6,12.5-12.5
							S314.1,248,307.3,248z"/>
					</g>
				</g>
			</g>
		</g>
		<g>
			<g>
				<g>
					<rect x="192.2" y="113" fill="#FFFFFF" width="130.7" height="44.8"/>
				</g>
			</g>
		</g>
		<g>
			<g>
				<g>
					<path fill="#616363" d="M326,160.9H189v-51.1h137V160.9z M195.3,154.6h124.4v-38.5H195.3V154.6z"/>
				</g>
			</g>
		</g>
	</g>
</g>
</svg>
