<?xml version="1.0" encoding="utf-8"?>
<!-- Generator: Adobe Illustrator 18.0.0, SVG Export Plug-In . SVG Version: 6.00 Build 0)  -->
<!DOCTYPE svg PUBLIC "-//W3C//DTD SVG 1.1//EN" "http://www.w3.org/Graphics/SVG/1.1/DTD/svg11.dtd">
<svg version="1.1" id="Layer_1" xmlns="http://www.w3.org/2000/svg" xmlns:xlink="http://www.w3.org/1999/xlink" x="0px" y="0px"
	 viewBox="0 0 512 512" enable-background="new 0 0 512 512" xml:space="preserve">
<g>
	<g>
		<text transform="matrix(1 0 0 1 76.4775 423.1396)" fill="#616363" font-family="'AvertaDemo-Regular'" font-size="53.0116">CHARGEBACK</text>
	</g>
	<g>
		<g>
			<g>
				<g>
					<circle fill="#FCB856" cx="256" cy="198.5" r="57"/>
				</g>
			</g>
		</g>
		<g>
			<g>
				<g>
					<path fill="#616363" d="M256,258.7c-33.2,0-60.2-27-60.2-60.2s27-60.2,60.2-60.2c33.2,0,60.2,27,60.2,60.2
						S289.2,258.7,256,258.7z M256,144.6c-29.7,0-53.9,24.2-53.9,53.9s24.2,53.9,53.9,53.9c29.7,0,53.9-24.2,53.9-53.9
						S285.7,144.6,256,144.6z"/>
				</g>
			</g>
		</g>
		<g>
			<g>
				<g>
					<g>
						<path fill="#FFFFFF" d="M274.9,210.9c0,8.3-5.8,14.1-15.7,14.9v9.8h-5.4v-9.9c-6-0.7-11.8-3.3-16.6-8l4.2-5.1
							c4.6,4.4,10.4,6.7,15.7,6.7c6,0,10.4-3,10.4-8.1c0-5.8-4.7-7.8-12.2-10.1c-8.9-2.9-17-5.6-17-15.3c0-7.9,5.5-13.9,15.4-14.4
							v-10.3h5.4V172c4.9,0.9,10.2,3.1,13.8,5.9l-4.1,5c-4.3-3.1-9.7-4.8-13.7-4.8c-5.7,0-9.6,2.7-9.6,7.4c0,5.1,4.9,6.9,11.7,9.2
							C267.3,197.8,274.9,200.5,274.9,210.9L274.9,210.9z"/>
					</g>
				</g>
			</g>
		</g>
		<g>
			<g>
				<g>
					<path fill="#616363" d="M254.9,291.8c-29.5,0-56.6-13.5-74.4-37l5-3.8c16.6,22,41.9,34.5,69.4,34.5c48,0,87-39,87-87
						s-39-87-87-87c-48,0-87,39-87,87h-6.3c0-51.4,41.9-93.3,93.3-93.3s93.3,41.9,93.3,93.3S306.4,291.8,254.9,291.8z"/>
				</g>
			</g>
		</g>
		<g>
			<g>
				<g>
					<polygon fill="#616363" points="164.9,202.9 147.6,185.6 152.1,181.2 164.9,194.1 177.4,181.5 181.9,186 					"/>
				</g>
			</g>
		</g>
		<g>
			<g>
				<g>
					<path fill="#616363" d="M256,321.7c-31.6,0-63.1-12-87.1-36c-48-48-48-126.2,0-174.3c27.5-27.5,65.5-40.3,104.1-34.9l-0.9,6.2
						c-36.7-5.1-72.7,7-98.8,33.1c-45.6,45.6-45.6,119.8,0,165.4c45.6,45.6,119.8,45.6,165.4,0c45.6-45.6,45.6-119.8,0-165.4
						l4.4-4.4c48,48,48,126.2,0,174.3C319.1,309.7,287.6,321.7,256,321.7z"/>
				</g>
			</g>
		</g>
		<g>
			<g>
				<g>
					<polygon fill="#616363" points="343.9,141.5 337.6,141.5 337.6,110.6 369.2,110.6 369.2,116.9 343.9,116.9 					"/>
				</g>
			</g>
		</g>
	</g>
</g>
</svg>
