<?xml version="1.0" encoding="utf-8"?>
<!-- Generator: Adobe Illustrator 18.0.0, SVG Export Plug-In . SVG Version: 6.00 Build 0)  -->
<!DOCTYPE svg PUBLIC "-//W3C//DTD SVG 1.1//EN" "http://www.w3.org/Graphics/SVG/1.1/DTD/svg11.dtd">
<svg version="1.1" id="Layer_1" xmlns="http://www.w3.org/2000/svg" xmlns:xlink="http://www.w3.org/1999/xlink" x="0px" y="0px"
	 viewBox="0 0 512 512" enable-background="new 0 0 512 512" xml:space="preserve">
<g>
	<g>
		<text transform="matrix(1 0 0 1 152.272 419.3376)" fill="#616363" font-family="'AvertaDemo-Regular'" font-size="53.0116">CHECK</text>
	</g>
	<g>
		<g>
			<g>
				<g>
					<g>
						<path fill="#84D1DA" d="M410.1,297.9c0,0-4.4,23.7-16.4,33.4c-12-9.7-16.4-33.4-16.4-33.4v-9h32.8V297.9z"/>
					</g>
				</g>
			</g>
		</g>
		<g>
			<g>
				<g>
					<g>
						<rect x="86.5" y="110.2" fill="#FFFCFD" width="302.7" height="178.7"/>
					</g>
				</g>
			</g>
		</g>
		<g>
			<g>
				<g>
					<g>
						<rect x="116" y="138.2" fill="#84D1DA" width="236.2" height="28.4"/>
					</g>
				</g>
			</g>
		</g>
		<g>
			<g>
				<g>
					<g>
						<polygon fill="#616363" points="377.2,292 83.3,292 83.3,107 377.2,107 377.2,113.3 89.6,113.3 89.6,285.7 377.2,285.7 						
							"/>
					</g>
				</g>
			</g>
		</g>
		<g>
			<g>
				<g>
					<g>
						<rect x="377.2" y="97.9" fill="#CEECF3" width="32.8" height="191"/>
					</g>
				</g>
			</g>
		</g>
		<g>
			<g>
				<g>
					<g>
						<path fill="#616363" d="M413.2,292h-39.1V94.7h39.1V292z M380.4,285.7h26.6V101h-26.6V285.7z"/>
					</g>
				</g>
			</g>
		</g>
		<g>
			<g>
				<g>
					<g>
						<path fill="#616363" d="M355.3,169.7H112.8V135h242.5V169.7z M119.1,163.5H349v-22.1H119.1V163.5z"/>
					</g>
				</g>
			</g>
		</g>
		<g>
			<g>
				<g>
					<g>
						<rect x="254.8" y="216.4" fill="#616363" width="97.4" height="6.3"/>
					</g>
				</g>
			</g>
		</g>
		<g>
			<g>
				<g>
					<g>
						<rect x="254.8" y="250.5" fill="#616363" width="97.4" height="6.3"/>
					</g>
				</g>
			</g>
		</g>
		<g>
			<g>
				<g>
					<g>
						<polygon fill="#616363" points="428.7,164.9 422.4,164.9 422.4,85.3 393.7,85.3 393.7,79 428.7,79 						"/>
					</g>
				</g>
			</g>
		</g>
		<g>
			<g>
				<g>
					<g>
						<path fill="#616363" d="M393.7,335.4l-2-1.6c-12.8-10.3-17.3-34.3-17.5-35.3l-0.1-0.6v-12.2h39.1l-0.1,12.8
							c-0.2,1-4.8,25-17.5,35.3L393.7,335.4z M380.4,297.6c0.5,2.4,4.4,20.3,13.3,29.5c8.9-9.2,12.8-27.1,13.3-29.5V292h-26.6V297.6
							z"/>
					</g>
				</g>
			</g>
		</g>
		<g>
			<g>
				<g>
					<g>
						<rect x="390.5" y="331.3" fill="#616363" width="6.3" height="9.6"/>
					</g>
				</g>
			</g>
		</g>
		<g>
			<g>
				<g>
					<g>
						<g>
							<path fill="#FCB856" d="M156,243.5c0,6.5-4.6,11.1-12.4,11.8v7.8h-4.3v-7.8c-4.8-0.5-9.3-2.6-13.1-6.3l3.3-4
								c3.6,3.5,8.2,5.3,12.4,5.3c4.7,0,8.2-2.3,8.2-6.4c0-4.6-3.7-6.1-9.6-8c-7-2.3-13.4-4.4-13.4-12.1c0-6.2,4.3-10.9,12.2-11.3
								v-8.1h4.3v8.4c3.9,0.7,8.1,2.4,10.9,4.7l-3.2,4c-3.4-2.4-7.6-3.8-10.8-3.8c-4.5,0-7.6,2.1-7.6,5.8c0,4,3.9,5.5,9.2,7.2
								C150,233.2,156,235.3,156,243.5L156,243.5z"/>
						</g>
					</g>
				</g>
			</g>
		</g>
	</g>
</g>
</svg>
