<?xml version="1.0" encoding="utf-8"?>
<!-- Generator: Adobe Illustrator 18.0.0, SVG Export Plug-In . SVG Version: 6.00 Build 0)  -->
<!DOCTYPE svg PUBLIC "-//W3C//DTD SVG 1.1//EN" "http://www.w3.org/Graphics/SVG/1.1/DTD/svg11.dtd">
<svg version="1.1" id="Layer_1" xmlns="http://www.w3.org/2000/svg" xmlns:xlink="http://www.w3.org/1999/xlink" x="0px" y="0px"
	 viewBox="0 0 512 512" enable-background="new 0 0 512 512" xml:space="preserve">
<g>
	<g>
		<text transform="matrix(1 0 0 1 63.4316 421.1345)" fill="#616363" font-family="'AvertaDemo-Regular'" font-size="53.0116">CHINESE YUAN</text>
	</g>
	<g>
		<g>
			<g>
				<g>
					<g>
						<g>
							<g>
								<rect x="72.3" y="80.4" fill="#CEECF3" width="272.9" height="136.5"/>
							</g>
						</g>
					</g>
				</g>
				<g>
					<g>
						<g>
							<g>
								<path fill="#FCB856" d="M72.3,113.6c18.3,0,33.2-14.9,33.2-33.2H72.3V113.6z"/>
							</g>
						</g>
					</g>
				</g>
				<g>
					<g>
						<g>
							<g>
								<path fill="#FCB856" d="M345.3,113.6c-18.3,0-33.2-14.9-33.2-33.2h33.2V113.6z"/>
							</g>
						</g>
					</g>
				</g>
				<g>
					<g>
						<g>
							<g>
								<path fill="#FCB856" d="M345.3,183c-18.3,0-33.2,14.9-33.2,33.2l33.2,0V183z"/>
							</g>
						</g>
					</g>
				</g>
				<g>
					<g>
						<g>
							<g>
								<path fill="#FCB856" d="M72.3,183c18.3,0,33.2,14.9,33.2,33.2l-33.2,0V183z"/>
							</g>
						</g>
					</g>
				</g>
				<g>
					<g>
						<g>
							<g>
								<path fill="#616363" d="M72.3,116.7h-3.1V77.3h39.5v3.1C108.6,100.4,92.3,116.7,72.3,116.7z M75.4,83.5v26.7
									c14.1-1.5,25.3-12.7,26.7-26.7H75.4z"/>
							</g>
						</g>
					</g>
				</g>
				<g>
					<g>
						<g>
							<g>
								<path fill="#616363" d="M348.4,116.7h-3.1c-20,0-36.3-16.3-36.3-36.3v-3.1h39.5V116.7z M315.4,83.5
									c1.5,14.1,12.7,25.3,26.7,26.7V83.5H315.4z"/>
							</g>
						</g>
					</g>
				</g>
				<g>
					<g>
						<g>
							<g>
								<path fill="#616363" d="M348.4,219.3h-39.5v-3.1c0-20,16.3-36.3,36.3-36.3h3.1V219.3z M315.4,213.1h26.7v-26.7
									C328,187.8,316.8,199,315.4,213.1z"/>
							</g>
						</g>
					</g>
				</g>
				<g>
					<g>
						<g>
							<g>
								<path fill="#616363" d="M108.6,219.3H69.1v-39.5h3.1c20,0,36.3,16.3,36.3,36.3V219.3z M75.4,213.1h26.7
									c-1.5-14.1-12.7-25.3-26.7-26.7V213.1z"/>
							</g>
						</g>
					</g>
				</g>
				<g>
					<g>
						<g>
							<g>
								<path fill="#616363" d="M348.3,220H69.1V77.3h279.2V220z M75.4,213.7H342V83.5H75.4V213.7z"/>
							</g>
						</g>
					</g>
				</g>
				<g>
					<g>
						<g>
							<g>
								<circle fill="#FCB856" cx="208.7" cy="148.6" r="39.7"/>
							</g>
						</g>
					</g>
				</g>
				<g>
					<g>
						<g>
							<g>
								<path fill="#616363" d="M208.7,191.4c-23.6,0-42.8-19.2-42.8-42.8s19.2-42.8,42.8-42.8s42.8,19.2,42.8,42.8
									S232.3,191.4,208.7,191.4z M208.7,112.1c-20.1,0-36.5,16.4-36.5,36.5s16.4,36.5,36.5,36.5s36.5-16.4,36.5-36.5
									S228.9,112.1,208.7,112.1z"/>
							</g>
						</g>
					</g>
				</g>
			</g>
			<g>
				<g>
					<g>
						<g>
							<g>
								<rect x="99.8" y="104.6" fill="#CEECF3" width="272.9" height="136.5"/>
							</g>
						</g>
					</g>
				</g>
				<g>
					<g>
						<g>
							<g>
								<path fill="#FCB856" d="M99.8,137.8c18.3,0,33.2-14.9,33.2-33.2H99.8L99.8,137.8z"/>
							</g>
						</g>
					</g>
				</g>
				<g>
					<g>
						<g>
							<g>
								<path fill="#FCB856" d="M372.8,137.8c-18.3,0-33.2-14.9-33.2-33.2h33.2V137.8z"/>
							</g>
						</g>
					</g>
				</g>
				<g>
					<g>
						<g>
							<g>
								<path fill="#FCB856" d="M372.8,207.3c-18.3,0-33.2,14.9-33.2,33.2h33.2V207.3z"/>
							</g>
						</g>
					</g>
				</g>
				<g>
					<g>
						<g>
							<g>
								<path fill="#FCB856" d="M99.8,207.3c18.3,0,33.2,14.9,33.2,33.2H99.8V207.3z"/>
							</g>
						</g>
					</g>
				</g>
				<g>
					<g>
						<g>
							<g>
								<path fill="#616363" d="M99.8,141h-3.1v-39.5h39.5v3.1C136.1,124.7,119.8,141,99.8,141z M103,107.8v26.7
									c14.1-1.5,25.3-12.7,26.7-26.7H103z"/>
							</g>
						</g>
					</g>
				</g>
				<g>
					<g>
						<g>
							<g>
								<path fill="#616363" d="M375.9,141h-3.1c-20,0-36.3-16.3-36.3-36.3v-3.1h39.5V141z M342.9,107.8
									c1.5,14.1,12.7,25.3,26.7,26.7v-26.7H342.9z"/>
							</g>
						</g>
					</g>
				</g>
				<g>
					<g>
						<g>
							<g>
								<path fill="#616363" d="M375.9,243.6h-39.5v-3.1c0-20,16.3-36.3,36.3-36.3h3.1V243.6z M342.9,237.3h26.7v-26.7
									C355.6,212,344.4,223.3,342.9,237.3z"/>
							</g>
						</g>
					</g>
				</g>
				<g>
					<g>
						<g>
							<g>
								<path fill="#616363" d="M136.1,243.6H96.7v-39.5h3.1c20,0,36.3,16.3,36.3,36.3V243.6z M103,237.3h26.7
									c-1.5-14.1-12.7-25.3-26.7-26.7V237.3z"/>
							</g>
						</g>
					</g>
				</g>
				<g>
					<g>
						<g>
							<g>
								<path fill="#616363" d="M375.9,244.2H96.7V101.5h279.2V244.2z M103,238h266.6V107.8H103V238z"/>
							</g>
						</g>
					</g>
				</g>
				<g>
					<g>
						<g>
							<g>
								<circle fill="#FCB856" cx="236.3" cy="172.9" r="39.7"/>
							</g>
						</g>
					</g>
				</g>
				<g>
					<g>
						<g>
							<g>
								<path fill="#616363" d="M236.3,215.7c-23.6,0-42.8-19.2-42.8-42.8c0-23.6,19.2-42.8,42.8-42.8s42.8,19.2,42.8,42.8
									C279.1,196.5,259.9,215.7,236.3,215.7z M236.3,136.3c-20.1,0-36.5,16.4-36.5,36.5s16.4,36.5,36.5,36.5s36.5-16.4,36.5-36.5
									S256.4,136.3,236.3,136.3z"/>
							</g>
						</g>
					</g>
				</g>
			</g>
			<g>
				<g>
					<g>
						<g>
							<rect x="127.4" y="128.9" fill="#CEECF3" width="272.9" height="136.5"/>
						</g>
					</g>
				</g>
			</g>
			<g>
				<g>
					<g>
						<g>
							<path fill="#FCB856" d="M127.4,162.1c18.3,0,33.2-14.9,33.2-33.2h-33.2V162.1z"/>
						</g>
					</g>
				</g>
			</g>
			<g>
				<g>
					<g>
						<g>
							<path fill="#FCB856" d="M400.4,162.1c-18.3,0-33.2-14.9-33.2-33.2h33.2V162.1z"/>
						</g>
					</g>
				</g>
			</g>
			<g>
				<g>
					<g>
						<g>
							<path fill="#FCB856" d="M400.4,231.5c-18.3,0-33.2,14.9-33.2,33.2h33.2V231.5z"/>
						</g>
					</g>
				</g>
			</g>
			<g>
				<g>
					<g>
						<g>
							<path fill="#FCB856" d="M127.4,231.5c18.3,0,33.2,14.9,33.2,33.2h-33.2V231.5z"/>
						</g>
					</g>
				</g>
			</g>
			<g>
				<g>
					<g>
						<g>
							<path fill="#616363" d="M127.4,165.2h-3.1v-39.5h39.5v3.1C163.7,148.9,147.4,165.2,127.4,165.2z M130.5,132v26.7
								c14.1-1.5,25.3-12.7,26.7-26.7H130.5z"/>
						</g>
					</g>
				</g>
			</g>
			<g>
				<g>
					<g>
						<g>
							<path fill="#616363" d="M403.5,165.2h-3.1c-20,0-36.3-16.3-36.3-36.3v-3.1h39.5V165.2z M370.5,132
								c1.5,14.1,12.7,25.3,26.7,26.7V132H370.5z"/>
						</g>
					</g>
				</g>
			</g>
			<g>
				<g>
					<g>
						<g>
							<path fill="#616363" d="M403.5,267.8H364v-3.1c0-20,16.3-36.3,36.3-36.3h3.1V267.8z M370.5,261.6h26.7v-26.7
								C383.1,236.3,371.9,247.5,370.5,261.6z"/>
						</g>
					</g>
				</g>
			</g>
			<g>
				<g>
					<g>
						<g>
							<path fill="#616363" d="M163.7,267.8h-39.5v-39.5h3.1c20,0,36.3,16.3,36.3,36.3V267.8z M130.5,261.6h26.7
								c-1.5-14.1-12.7-25.3-26.7-26.7V261.6z"/>
						</g>
					</g>
				</g>
			</g>
			<g>
				<g>
					<g>
						<g>
							<path fill="#616363" d="M403.4,268.5H124.2V125.8h279.2V268.5z M130.5,262.2h266.6V132H130.5V262.2z"/>
						</g>
					</g>
				</g>
			</g>
			<g>
				<g>
					<g>
						<g>
							<circle fill="#FCB856" cx="263.8" cy="197.1" r="39.7"/>
						</g>
					</g>
				</g>
			</g>
			<g>
				<g>
					<g>
						<g>
							<path fill="#616363" d="M263.8,239.9c-23.6,0-42.8-19.2-42.8-42.8c0-23.6,19.2-42.8,42.8-42.8c23.6,0,42.8,19.2,42.8,42.8
								C306.6,220.7,287.4,239.9,263.8,239.9z M263.8,160.6c-20.1,0-36.5,16.4-36.5,36.5s16.4,36.5,36.5,36.5s36.5-16.4,36.5-36.5
								S284,160.6,263.8,160.6z"/>
						</g>
					</g>
				</g>
			</g>
			<g>
				<g>
					<g>
						<g>
							<g>
								<circle fill="#FFFFFF" cx="389.1" cy="262.7" r="51.2"/>
							</g>
						</g>
					</g>
				</g>
				<g>
					<g>
						<g>
							<g>
								<path fill="#616363" d="M389.1,317.1c-30,0-54.4-24.4-54.4-54.4s24.4-54.4,54.4-54.4c30,0,54.4,24.4,54.4,54.4
									S419.1,317.1,389.1,317.1z M389.1,214.6c-26.5,0-48.1,21.6-48.1,48.1c0,26.5,21.6,48.1,48.1,48.1
									c26.5,0,48.1-21.6,48.1-48.1C437.2,236.2,415.6,214.6,389.1,214.6z"/>
							</g>
						</g>
					</g>
				</g>
			</g>
		</g>
		<g>
			<g>
				<polygon fill="#FCB856" points="393.1,291.7 386.9,291.7 386.9,262.9 364,241.3 368.3,236.7 393.1,260.1 				"/>
			</g>
			<g>
				<polygon fill="#FCB856" points="393.1,291.7 386.9,291.7 386.9,260.1 411.7,236.7 416,241.3 393.1,262.9 				"/>
			</g>
			<g>
				<rect x="367.4" y="257.8" fill="#FCB856" width="46.5" height="6.3"/>
			</g>
		</g>
		<g>
			<g>
				<polygon fill="#FFFFFF" points="266.4,220.4 261.7,220.4 261.7,198.6 244.4,182.3 247.7,178.9 266.4,196.5 				"/>
			</g>
			<g>
				<polygon fill="#FFFFFF" points="266.4,220.4 261.7,220.4 261.7,196.5 280.4,178.9 283.7,182.3 266.4,198.6 				"/>
			</g>
			<g>
				<rect x="245.9" y="194.8" fill="#FFFFFF" width="37.4" height="4.7"/>
			</g>
		</g>
	</g>
</g>
</svg>
