<?xml version="1.0" encoding="utf-8"?>
<!-- Generator: Adobe Illustrator 18.0.0, SVG Export Plug-In . SVG Version: 6.00 Build 0)  -->
<!DOCTYPE svg PUBLIC "-//W3C//DTD SVG 1.1//EN" "http://www.w3.org/Graphics/SVG/1.1/DTD/svg11.dtd">
<svg version="1.1" id="Layer_1" xmlns="http://www.w3.org/2000/svg" xmlns:xlink="http://www.w3.org/1999/xlink" x="0px" y="0px"
	 viewBox="0 0 512 512" enable-background="new 0 0 512 512" xml:space="preserve">
<g>
	<g>
		<text transform="matrix(1 0 0 1 80.71 402.8608)" fill="#616363" font-family="'AvertaDemo-Regular'" font-size="53.0116">CREDIT CARD</text>
	</g>
	<g>
		<g>
			<g>
				<g>
					<path fill="#FCB856" d="M355.8,244.6H182c-15.2,0-27.5-12.3-27.5-27.5v-90.9c0-15.2,12.3-27.5,27.5-27.5h173.8
						c15.2,0,27.5,12.3,27.5,27.5v90.9C383.3,232.3,371,244.6,355.8,244.6z"/>
				</g>
			</g>
		</g>
		<g>
			<g>
				<g>
					<path fill="#616363" d="M357.6,247.7h-18.4v-6.3h18.4c12.4,0,22.6-10.1,22.6-22.6v-94.5c0-12.4-10.1-22.6-22.6-22.6H180.2
						c-12.4,0-22.6,10.1-22.6,22.6v14.4h-6.3v-14.4c0-15.9,12.9-28.8,28.8-28.8h177.4c15.9,0,28.8,12.9,28.8,28.8v94.5
						C386.4,234.8,373.5,247.7,357.6,247.7z"/>
				</g>
			</g>
		</g>
		<g>
			<g>
				<g>
					<path fill="#FFFFFF" d="M311.7,284.7H137.9c-15.2,0-27.5-12.3-27.5-27.5v-90.9c0-15.2,12.3-27.5,27.5-27.5h173.8
						c15.2,0,27.5,12.3,27.5,27.5v90.9C339.2,272.4,326.9,284.7,311.7,284.7z"/>
				</g>
			</g>
		</g>
		<g>
			<g>
				<g>
					<rect x="140.5" y="258.7" fill="#616363" width="16" height="6.3"/>
				</g>
			</g>
		</g>
		<g>
			<g>
				<g>
					<rect x="163.3" y="258.7" fill="#616363" width="16" height="6.3"/>
				</g>
			</g>
		</g>
		<g>
			<g>
				<g>
					<path fill="#616363" d="M310.7,265h-21.5c-6.3,0-11.4-5.1-11.4-11.4v-9.8c0-6.3,5.1-11.4,11.4-11.4h21.5
						c6.3,0,11.4,5.1,11.4,11.4v9.8C322.1,259.9,317,265,310.7,265z M289.2,238.7c-2.8,0-5.1,2.3-5.1,5.1v9.8c0,2.8,2.3,5.1,5.1,5.1
						h21.5c2.8,0,5.1-2.3,5.1-5.1v-9.8c0-2.8-2.3-5.1-5.1-5.1H289.2z"/>
				</g>
			</g>
		</g>
		<g>
			<g>
				<g>
					<rect x="110.4" y="168.9" fill="#84D1DA" width="228.8" height="32.7"/>
				</g>
			</g>
		</g>
		<g>
			<g>
				<g>
					<path fill="#616363" d="M311.7,287.8H137.9c-16.9,0-30.6-13.7-30.6-30.6v-90.9c0-16.9,13.7-30.6,30.6-30.6h173.8
						c16.9,0,30.6,13.7,30.6,30.6v90.9C342.4,274.1,328.6,287.8,311.7,287.8z M137.9,141.9c-13.4,0-24.4,10.9-24.4,24.4v90.9
						c0,13.4,10.9,24.4,24.4,24.4h173.8c13.4,0,24.4-10.9,24.4-24.4v-90.9c0-13.4-10.9-24.4-24.4-24.4H137.9z"/>
				</g>
			</g>
		</g>
	</g>
</g>
</svg>
