<?xml version="1.0" encoding="utf-8"?>
<!-- Generator: Adobe Illustrator 18.0.0, SVG Export Plug-In . SVG Version: 6.00 Build 0)  -->
<!DOCTYPE svg PUBLIC "-//W3C//DTD SVG 1.1//EN" "http://www.w3.org/Graphics/SVG/1.1/DTD/svg11.dtd">
<svg version="1.1" id="Layer_1" xmlns="http://www.w3.org/2000/svg" xmlns:xlink="http://www.w3.org/1999/xlink" x="0px" y="0px"
	 viewBox="0 0 512 512" enable-background="new 0 0 512 512" xml:space="preserve">
<g>
	<g>
		<text transform="matrix(1 0 0 1 31.5161 426.3309)" fill="#616363" font-family="'AvertaDemo-Regular'" font-size="53.0116">CROWDFUNDING</text>
	</g>
	<g>
		<g>
			<g>
				<g>
					<g>
						<circle fill="#84D1DA" cx="261" cy="211.3" r="79.2"/>
					</g>
				</g>
			</g>
		</g>
		<g>
			<g>
				<g>
					<g>
						<path fill="#616363" d="M261,293.6c-45.4,0-82.4-37-82.4-82.4s37-82.4,82.4-82.4s82.4,37,82.4,82.4S306.5,293.6,261,293.6z
							 M261,135.2c-42,0-76.1,34.1-76.1,76.1c0,42,34.1,76.1,76.1,76.1c42,0,76.1-34.1,76.1-76.1C337.1,169.3,303,135.2,261,135.2z"
							/>
					</g>
				</g>
			</g>
		</g>
		<g>
			<g>
				<g>
					<g>
						<circle fill="#FCB856" cx="399" cy="161.3" r="16.9"/>
					</g>
				</g>
			</g>
		</g>
		<g>
			<g>
				<g>
					<g>
						<path fill="#616363" d="M399,181.4c-11.1,0-20.1-9-20.1-20.1s9-20.1,20.1-20.1s20.1,9,20.1,20.1S410.1,181.4,399,181.4z
							 M399,147.5c-7.6,0-13.8,6.2-13.8,13.8s6.2,13.8,13.8,13.8c7.6,0,13.8-6.2,13.8-13.8S406.7,147.5,399,147.5z"/>
					</g>
				</g>
			</g>
		</g>
		<g>
			<g>
				<g>
					<g>
						<circle fill="#FCB856" cx="340.3" cy="102.2" r="27"/>
					</g>
				</g>
			</g>
		</g>
		<g>
			<g>
				<g>
					<g>
						<path fill="#616363" d="M340.3,132.3c-16.6,0-30.1-13.5-30.1-30.1s13.5-30.1,30.1-30.1s30.1,13.5,30.1,30.1
							S356.9,132.3,340.3,132.3z M340.3,78.3c-13.1,0-23.8,10.7-23.8,23.8s10.7,23.8,23.8,23.8s23.8-10.7,23.8-23.8
							S353.4,78.3,340.3,78.3z"/>
					</g>
				</g>
			</g>
		</g>
		<g>
			<g>
				<g>
					<g>
						<circle fill="#FCB856" cx="142.5" cy="151.2" r="17.7"/>
					</g>
				</g>
			</g>
		</g>
		<g>
			<g>
				<g>
					<g>
						<path fill="#616363" d="M142.5,172c-11.5,0-20.8-9.3-20.8-20.8c0-11.5,9.3-20.8,20.8-20.8c11.5,0,20.8,9.3,20.8,20.8
							C163.3,162.7,154,172,142.5,172z M142.5,136.7c-8,0-14.5,6.5-14.5,14.5c0,8,6.5,14.5,14.5,14.5s14.5-6.5,14.5-14.5
							C157.1,143.2,150.6,136.7,142.5,136.7z"/>
					</g>
				</g>
			</g>
		</g>
		<g>
			<g>
				<g>
					<g>
						<g>
							<path fill="#FFFFFF" d="M285.6,224.8c0,10.8-7.6,18.4-20.4,19.4V257h-7.1v-12.9c-7.8-0.9-15.4-4.3-21.6-10.4l5.5-6.6
								c5.9,5.8,13.6,8.8,20.4,8.8c7.8,0,13.6-3.9,13.6-10.5c0-7.6-6.1-10.1-15.8-13.1c-11.6-3.7-22.1-7.3-22.1-19.9
								c0-10.3,7.2-18,20.1-18.7v-13.4h7.1v13.8c6.4,1.1,13.3,4,18,7.7l-5.3,6.5c-5.6-4-12.6-6.2-17.8-6.2c-7.4,0-12.5,3.5-12.5,9.6
								c0,6.6,6.4,9,15.2,11.9C275.7,207.8,285.6,211.2,285.6,224.8L285.6,224.8z"/>
						</g>
					</g>
				</g>
			</g>
		</g>
		<g>
			<g>
				<g>
					<g>
						
							<rect x="183.6" y="255.5" transform="matrix(0.6485 0.7613 -0.7613 0.6485 273.9359 -45.9263)" fill="#616363" width="6.3" height="36.2"/>
					</g>
				</g>
			</g>
		</g>
		<g>
			<g>
				<g>
					<g>
						
							<rect x="354.9" y="148.1" transform="matrix(0.2798 0.9601 -0.9601 0.2798 424.1108 -219.0193)" fill="#616363" width="6.3" height="50.2"/>
					</g>
				</g>
			</g>
		</g>
		<g>
			<g>
				<g>
					<g>
						
							<rect x="313.1" y="121.5" transform="matrix(0.8277 0.5611 -0.5611 0.8277 130.6595 -154.0746)" fill="#616363" width="6.3" height="28.6"/>
					</g>
				</g>
			</g>
		</g>
		<g>
			<g>
				<g>
					<g>
						
							<rect x="152.3" y="167.3" transform="matrix(0.8631 0.505 -0.505 0.8631 109.5625 -63.2792)" fill="#616363" width="38.5" height="6.3"/>
					</g>
				</g>
			</g>
		</g>
		<g>
			<g>
				<g>
					<g>
						
							<rect x="311" y="278.3" transform="matrix(0.7319 0.6814 -0.6814 0.7319 280.3944 -149.8296)" fill="#616363" width="39.1" height="6.3"/>
					</g>
				</g>
			</g>
		</g>
		<g>
			<g>
				<g>
					<g>
						<circle fill="#FCB856" cx="350.9" cy="302.3" r="16.9"/>
					</g>
				</g>
			</g>
		</g>
		<g>
			<g>
				<g>
					<g>
						<path fill="#616363" d="M350.9,322.4c-11.1,0-20.1-9-20.1-20.1s9-20.1,20.1-20.1s20.1,9,20.1,20.1S361.9,322.4,350.9,322.4z
							 M350.9,288.5c-7.6,0-13.8,6.2-13.8,13.8c0,7.6,6.2,13.8,13.8,13.8c7.6,0,13.8-6.2,13.8-13.8
							C364.7,294.7,358.5,288.5,350.9,288.5z"/>
					</g>
				</g>
			</g>
		</g>
		<g>
			<g>
				<g>
					<g>
						<circle fill="#FCB856" cx="154.7" cy="297.9" r="30"/>
					</g>
				</g>
			</g>
		</g>
		<g>
			<g>
				<g>
					<g>
						<path fill="#616363" d="M154.7,331c-18.3,0-33.1-14.9-33.1-33.1s14.9-33.1,33.1-33.1s33.1,14.9,33.1,33.1S172.9,331,154.7,331
							z M154.7,271c-14.8,0-26.9,12.1-26.9,26.9c0,14.8,12.1,26.9,26.9,26.9s26.9-12.1,26.9-26.9C181.5,283.1,169.5,271,154.7,271z"
							/>
					</g>
				</g>
			</g>
		</g>
	</g>
</g>
</svg>
