<?xml version="1.0" encoding="utf-8"?>
<!-- Generator: Adobe Illustrator 18.0.0, SVG Export Plug-In . SVG Version: 6.00 Build 0)  -->
<!DOCTYPE svg PUBLIC "-//W3C//DTD SVG 1.1//EN" "http://www.w3.org/Graphics/SVG/1.1/DTD/svg11.dtd">
<svg version="1.1" id="Layer_1" xmlns="http://www.w3.org/2000/svg" xmlns:xlink="http://www.w3.org/1999/xlink" x="0px" y="0px"
	 viewBox="0 0 512 512" enable-background="new 0 0 512 512" xml:space="preserve">
<g>
	<g>
		<text transform="matrix(1 0 0 1 8.5693 417.6294)" fill="#616363" font-family="'AvertaDemo-Regular'" font-size="53.0116">CRYPTOCURRENCY</text>
	</g>
	<g>
		<g>
			<g>
				<g>
					<g>
						<circle fill="#FCB856" cx="233.6" cy="197.2" r="113.3"/>
					</g>
				</g>
			</g>
		</g>
		<g>
			<g>
				<g>
					<g>
						<path fill="#616363" d="M233.6,313.7c-64.2,0-116.5-52.3-116.5-116.5c0-64.2,52.3-116.5,116.5-116.5
							C297.8,80.8,350,133,350,197.2C350,261.5,297.8,313.7,233.6,313.7z M233.6,87c-60.8,0-110.2,49.4-110.2,110.2
							s49.4,110.2,110.2,110.2S343.8,258,343.8,197.2S294.3,87,233.6,87z"/>
					</g>
				</g>
			</g>
		</g>
		<g>
			<g>
				<g>
					<g>
						<path fill="#FFFFFF" d="M275.3,186.5c4.1-4.3,6.7-10.2,6.7-16.6v-1.8c0-13.3-10.8-24.1-24.1-24.1v1.5l0,0v-1.5h-8.2
							c0,0-0.1,0-0.1,0v0h-1.3v-19l-12.6,0v19h-9.9v-19l-12.6,0v19h-35.5v9.1h0c8.2,0,14.9,6.7,14.9,14.9v16.9v9.1v27.7
							c0,8.2-6.7,14.9-14.9,14.9h0v9.1h35.5v19l12.6,0v-19h9.9v19l12.6,0v-19h0.4v0h17c16.2,0,29.2-13.1,29.2-29.2v-2.2
							C295,201.4,286.7,190.5,275.3,186.5z M212.3,153.2h37.4v0c8.3,0,15,6.7,15,15v1.8c0,8.3-6.7,15-15,15h-5.8h-7.7v0h-23.8V153.2
							z M248.8,236.6L248.8,236.6l-36.5,0V194h23.8v0h7.7H258c11.1,0,20.2,9,20.2,20.2v2.2c0,11.1-9,20.2-20.2,20.2H248.8z"/>
					</g>
				</g>
			</g>
		</g>
		<g>
			<g>
				<g>
					<g>
						<path fill="#616363" d="M232.6,267.7v-19H229v19l-18.9,0v-19h-35.5v-15.3h3.1c6.5,0,11.7-5.3,11.7-11.7V168
							c0-6.5-5.3-11.7-11.7-11.7h-3.1V141h35.5v-19l18.9,0v19h3.6v-19l18.9,0v19l6.4,0c0.2,0,0.3,0,0.5,0h2.6v0.2
							c13.5,1.6,24.1,13.1,24.1,27v1.8c0,5.5-1.7,10.8-4.8,15.3c10.8,5.5,17.8,16.6,17.8,28.9v2.2c0,17.9-14.5,32.4-32.4,32.4h-14.3
							v19L232.6,267.7z M181,242.5h35.5v19l6.3,0v-19h16.2v19l6.3,0v-19l20.5,0c14.4,0,26.1-11.7,26.1-26.1v-2.2
							c0-11.1-7.1-21-17.6-24.7l-4.6-1.6l3.4-3.5c3.8-3.9,5.8-9.1,5.8-14.4v-1.8c0-11.5-9.4-20.9-20.9-20.9v0h-12.7v-19l-6.3,0v19
							h-16.2v-19l-6.3,0v19H181v3.1c8.4,1.5,14.9,8.9,14.9,17.7v53.6c0,8.9-6.4,16.2-14.9,17.7V242.5z M248.8,239.7h-39.7v-48.8
							l48.9,0c12.9,0,23.3,10.5,23.3,23.3v2.2c0,12.9-10.5,23.3-23.3,23.3L248.8,239.7z M215.4,233.4l42.6,0c9.4,0,17-7.6,17-17
							v-2.2c0-9.4-7.6-17-17-17l-42.6,0V233.4z M236.1,188.1h-26.9v-38h43.6v0.3c8.5,1.5,15,8.9,15,17.9v1.8
							c0,10-8.1,18.1-18.1,18.1L236.1,188.1z M215.4,181.8l34.2,0c6.5,0,11.9-5.3,11.9-11.9v-1.8c0-6.5-5.3-11.9-11.9-11.9l-34.2,0
							V181.8z"/>
					</g>
				</g>
			</g>
		</g>
	</g>
</g>
</svg>
