<?xml version="1.0" encoding="utf-8"?>
<!-- Generator: Adobe Illustrator 18.0.0, SVG Export Plug-In . SVG Version: 6.00 Build 0)  -->
<!DOCTYPE svg PUBLIC "-//W3C//DTD SVG 1.1//EN" "http://www.w3.org/Graphics/SVG/1.1/DTD/svg11.dtd">
<svg version="1.1" id="Layer_1" xmlns="http://www.w3.org/2000/svg" xmlns:xlink="http://www.w3.org/1999/xlink" x="0px" y="0px"
	 viewBox="0 0 512 512" enable-background="new 0 0 512 512" xml:space="preserve">
<g>
	<g>
		<text transform="matrix(1 0 0 1 200.9561 400.6368)" fill="#616363" font-family="'AvertaDemo-Regular'" font-size="53.0116">CVV</text>
	</g>
	<g>
		<g>
			<g>
				<g>
					<g>
						<path fill="#84D1DA" d="M296.3,292.9H109.1c-15.2,0-27.5-12.3-27.5-27.5v-99.5c0-15.2,12.3-27.5,27.5-27.5h187.3
							c15.2,0,27.5,12.3,27.5,27.5v99.5C323.8,280.6,311.5,292.9,296.3,292.9z"/>
					</g>
				</g>
			</g>
		</g>
		<g>
			<g>
				<g>
					<g>
						<path fill="#616363" d="M296.3,296.1H109.1c-16.9,0-30.6-13.7-30.6-30.6v-99.5c0-16.9,13.7-30.6,30.6-30.6h187.3
							c16.9,0,30.6,13.7,30.6,30.6v99.5C327,282.3,313.2,296.1,296.3,296.1z M109.1,141.6c-13.4,0-24.4,10.9-24.4,24.4v99.5
							c0,13.4,10.9,24.4,24.4,24.4h187.3c13.4,0,24.4-10.9,24.4-24.4v-99.5c0-13.4-10.9-24.4-24.4-24.4H109.1z"/>
					</g>
				</g>
			</g>
		</g>
		<g>
			<g>
				<g>
					<g>
						<path fill="#CEECF3" d="M339.3,255.4H152.1c-15.2,0-27.5-12.3-27.5-27.5v-99.5c0-15.2,12.3-27.5,27.5-27.5h187.3
							c15.2,0,27.5,12.3,27.5,27.5v99.5C366.8,243.1,354.5,255.4,339.3,255.4z"/>
					</g>
				</g>
			</g>
		</g>
		<g>
			<g>
				<g>
					<g>
						<rect x="122.3" y="129.4" fill="#FCB856" width="244.5" height="31"/>
					</g>
				</g>
			</g>
		</g>
		<g>
			<g>
				<g>
					<g>
						<rect x="145.6" y="185.5" fill="#616363" width="49.7" height="6.3"/>
					</g>
				</g>
			</g>
		</g>
		<g>
			<g>
				<g>
					<g>
						<rect x="213.8" y="185.5" fill="#616363" width="53.3" height="6.3"/>
					</g>
				</g>
			</g>
		</g>
		<g>
			<g>
				<g>
					<g>
						<circle fill="#FCB856" cx="160.7" cy="224.6" r="15.1"/>
					</g>
				</g>
			</g>
		</g>
		<g>
			<g>
				<g>
					<g>
						<circle fill="#FCB856" cx="180.1" cy="224.6" r="15.1"/>
					</g>
				</g>
			</g>
		</g>
		<g>
			<g>
				<g>
					<g>
						<path fill="#616363" d="M339.3,258.5H152.1c-16.9,0-30.6-13.7-30.6-30.6v-99.5c0-16.9,13.7-30.6,30.6-30.6h187.3
							c16.9,0,30.6,13.7,30.6,30.6v99.5C370,244.8,356.2,258.5,339.3,258.5z M152.1,104c-13.4,0-24.4,10.9-24.4,24.4v99.5
							c0,13.4,10.9,24.4,24.4,24.4h187.3c13.4,0,24.4-10.9,24.4-24.4v-99.5c0-13.4-10.9-24.4-24.4-24.4H152.1z"/>
					</g>
				</g>
			</g>
		</g>
		<g>
			<g>
				<g>
					<g>
						<circle fill="#84D1DA" cx="330.9" cy="193.4" r="49.1"/>
					</g>
				</g>
			</g>
		</g>
		<g>
			<g>
				<g>
					<g>
						<circle fill="#CEECF3" cx="330.9" cy="193.4" r="36.1"/>
					</g>
				</g>
			</g>
		</g>
		<g>
			<g>
				<g>
					<g>
						<path fill="#616363" d="M330.9,245.7c-14,0-27.1-5.4-37-15.3c-20.4-20.4-20.4-53.6,0-73.9c9.9-9.9,23-15.3,37-15.3
							c14,0,27.1,5.4,37,15.3c20.4,20.4,20.4,53.6,0,73.9C358,240.3,344.9,245.7,330.9,245.7z M330.9,147.4
							c-12.3,0-23.8,4.8-32.5,13.5c-17.9,17.9-17.9,47.1,0,65.1c8.7,8.7,20.2,13.5,32.5,13.5c12.3,0,23.8-4.8,32.5-13.5
							c17.9-17.9,17.9-47.1,0-65.1C354.8,152.2,343.2,147.4,330.9,147.4z"/>
					</g>
				</g>
			</g>
		</g>
		<g>
			<g>
				<g>
					<g>
						<path fill="#FCB856" d="M425.1,287.6c-7.6,7.6-20.2,7-26.9-1.4l-41.2-51.1c3.1-1.9,6-4.2,8.7-6.9c2.7-2.7,5-5.6,6.9-8.7
							l51.1,41.2C432.1,267.4,432.7,280,425.1,287.6z"/>
					</g>
				</g>
			</g>
		</g>
		<g>
			<g>
				<g>
					<g>
						<path fill="#616363" d="M412.3,296.1c-6.5,0-12.5-2.9-16.6-7.9l-43.5-53.8l3-1.9c2.9-1.8,5.7-4,8.2-6.5
							c2.5-2.5,4.7-5.3,6.5-8.2l1.9-3l53.8,43.5c4.7,3.8,7.6,9.4,7.9,15.5c0.3,6-1.9,11.9-6.2,16.2
							C423.3,293.8,418,296.1,412.3,296.1z M361.5,235.8l39.1,48.4c2.9,3.5,7.1,5.6,11.7,5.6c4,0,7.8-1.6,10.6-4.4
							c3-3,4.6-7.1,4.4-11.4c-0.2-4.2-2.2-8.2-5.6-10.9L373.3,224c-1.6,2.2-3.4,4.4-5.4,6.4C365.9,232.4,363.8,234.2,361.5,235.8z"
							/>
					</g>
				</g>
			</g>
		</g>
		<g>
			<g>
				<g>
					<g>
						<path fill="#616363" d="M310.6,195.3L310.6,195.3l-5.4,7.2h-3.7l7.2-10l-7.2-9.8h3.9l5.1,7.2h0.1l5.2-7.2h3.8l-7.1,9.7l7.2,10
							H316L310.6,195.3z"/>
					</g>
				</g>
			</g>
			<g>
				<g>
					<g>
						<path fill="#616363" d="M331.3,195.3L331.3,195.3l-5.4,7.2h-3.7l7.2-10l-7.2-9.8h3.9l5.1,7.2h0.1l5.2-7.2h3.8l-7.1,9.7l7.2,10
							h-3.7L331.3,195.3z"/>
					</g>
				</g>
			</g>
			<g>
				<g>
					<g>
						<path fill="#616363" d="M352,195.3L352,195.3l-5.4,7.2h-3.7l7.2-10l-7.2-9.8h3.9l5.1,7.2h0.1l5.2-7.2h3.8l-7.1,9.7l7.2,10
							h-3.7L352,195.3z"/>
					</g>
				</g>
			</g>
		</g>
	</g>
</g>
</svg>
