<?xml version="1.0" encoding="utf-8"?>
<!-- Generator: Adobe Illustrator 18.0.0, SVG Export Plug-In . SVG Version: 6.00 Build 0)  -->
<!DOCTYPE svg PUBLIC "-//W3C//DTD SVG 1.1//EN" "http://www.w3.org/Graphics/SVG/1.1/DTD/svg11.dtd">
<svg version="1.1" id="Layer_1" xmlns="http://www.w3.org/2000/svg" xmlns:xlink="http://www.w3.org/1999/xlink" x="0px" y="0px"
	 viewBox="0 0 512 512" enable-background="new 0 0 512 512" xml:space="preserve">
<g>
	<g>
		<text transform="matrix(1 0 0 1 46.4385 416.7002)" fill="#616363" font-family="'AvertaDemo-Regular'" font-size="53.0116">CYBER IDENTITY</text>
	</g>
	<g>
		<g>
			<g>
				<g>
					<path fill="#FFFFFF" d="M247.6,222.7c0,0,76.9,3.3,132.1-68.9C324.5,81.7,247.6,85,247.6,85v0l0,0c0,0-76.9-3.3-132.1,68.9
						C170.7,226.1,247.6,222.7,247.6,222.7L247.6,222.7L247.6,222.7z"/>
				</g>
			</g>
		</g>
		<g>
			<g>
				<g>
					<circle fill="#FFFFFF" cx="245.5" cy="153.7" r="68.9"/>
				</g>
			</g>
		</g>
		<g>
			<g>
				<g>
					<circle fill="#CEECF3" cx="245.5" cy="153.7" r="68.9"/>
				</g>
			</g>
		</g>
		<g>
			<g>
				<g>
					<circle fill="#84D1DA" cx="245.5" cy="153.7" r="21.4"/>
				</g>
			</g>
		</g>
		<g>
			<g>
				<g>
					<rect x="285.9" y="246" fill="#84D1DA" width="133.4" height="58.1"/>
				</g>
			</g>
		</g>
		<g>
			<g>
				<g>
					<path fill="#616363" d="M422.5,307.3H282.8v-64.4h139.7V307.3z M289.1,301h127.1v-51.9H289.1V301z"/>
				</g>
			</g>
		</g>
		<g>
			<g>
				<g>
					<g>
						<g>
							<path fill="#CEECF3" d="M245,84.8c-2.9,0-5.7,0.2-8.5,0.6c3.7-0.3,6.6-0.4,8.5-0.5V84.8z"/>
						</g>
					</g>
				</g>
				<g>
					<g>
						<g>
							<path fill="#616363" d="M236.7,88.6l-0.7-6.2c3-0.4,6-0.6,8.9-0.6l3.2,0v6.3l-3.1,0.2C243.3,88.1,240.4,88.2,236.7,88.6z"/>
						</g>
					</g>
				</g>
			</g>
			<g>
				<g>
					<g>
						<g>
							<path fill="#CEECF3" d="M245,85L245,85c-1.9,0-4.8,0.1-8.5,0.5c0,0,0,0,0,0C240.1,85.1,243.1,85,245,85z"/>
						</g>
					</g>
				</g>
				<g>
					<g>
						<g>
							<path fill="#616363" d="M236.7,88.6l-0.6-6.2l0,0c4-0.4,7-0.5,8.8-0.5l0.1,6.3c0,0,0,0,0,0v0c-0.2,0-0.5,0-0.8,0
								C242.5,88.2,239.9,88.3,236.7,88.6z"/>
						</g>
					</g>
				</g>
			</g>
			<g>
				<g>
					<g>
						<polygon fill="none" points="247.6,222.7 247.6,222.7 247.6,222.7 						"/>
					</g>
				</g>
			</g>
			<g>
				<g>
					<g>
						<path fill="#CEECF3" d="M247.6,222.7L247.6,222.7L247.6,222.7c0,0,76.9,3.3,132.1-68.9c-49.8-65.1-117.2-68.8-130-68.9
							c36.1,2.2,64.7,32.1,64.7,68.8c0,38.1-30.9,68.9-68.9,68.9c-0.2,0-0.3,0-0.5,0v0.1C246.7,222.8,247.6,222.7,247.6,222.7z"/>
					</g>
				</g>
			</g>
			<g>
				<g>
					<g>
						<g>
							<path fill="#CEECF3" d="M247.6,85L247.6,85L247.6,85c0,0,0.7,0,2.1,0c-1.4-0.1-2.8-0.1-4.2-0.1c-0.2,0-0.3,0-0.5,0V85
								C246.7,85,247.6,85,247.6,85z"/>
						</g>
					</g>
				</g>
				<g>
					<g>
						<g>
							<path fill="#616363" d="M246,88.2L246,88.2l-4.1,0v-6.3l3.7-0.2c1.4,0,2.8,0,4.4,0.1l-0.2,6.3l-0.5,0c-0.9,0-1.4,0-1.4,0
								L246,88.2z"/>
						</g>
					</g>
				</g>
			</g>
			<g>
				<g>
					<g>
						<g>
							<path fill="#CEECF3" d="M247.6,85L247.6,85c0,0-0.9,0-2.6,0v0C246.7,85,247.6,85,247.6,85z"/>
						</g>
					</g>
				</g>
				<g>
					<g>
						<g>
							<path fill="#616363" d="M247.5,88.1c0,0-0.5,0-1.5,0l-1,0v0l-0.1-6.3c0,0,0,0,0,0v0h0.1c1.8,0,2.7,0,2.7,0v0c0,0,0,0,0,0
								L247.5,88.1z"/>
						</g>
					</g>
				</g>
			</g>
			<g>
				<g>
					<g>
						<path fill="#FCB856" d="M247.6,85L247.6,85c0,0-0.9,0-2.6,0v47.4c0.2,0,0.3,0,0.5,0c11.8,0,21.4,9.6,21.4,21.4
							c0,11.8-9.6,21.4-21.4,21.4c-0.2,0-0.3,0-0.5,0v47.6c0.2,0,0.3,0,0.5,0c38.1,0,68.9-30.9,68.9-68.9
							c0-36.6-28.6-66.6-64.7-68.8C248.4,85,247.6,85,247.6,85z"/>
					</g>
				</g>
			</g>
			<g>
				<g>
					<g>
						<path fill="#FCB856" d="M245.5,175.1c11.8,0,21.4-9.6,21.4-21.4c0-11.8-9.6-21.4-21.4-21.4c-0.2,0-0.3,0-0.5,0v42.6
							C245.2,175.1,245.3,175.1,245.5,175.1z"/>
					</g>
				</g>
			</g>
		</g>
		<g>
			<g>
				<g>
					<path fill="#616363" d="M249.2,225.9c-0.8,0-1.3,0-1.6,0c-0.2,0-0.8,0-1.6,0c-13.3,0-82-3.4-133-70.1l-1.5-1.9l1.5-1.9
						c51-66.7,119.7-70.1,133-70.1c1.1,0,1.7,0,1.7,0v0c0.5-0.1,1-0.1,1.4-0.1c13.3,0,82,3.4,133,70.1l1.5,1.9l-1.5,1.9
						C331.2,222.5,262.5,225.9,249.2,225.9z M247.6,219.6l0.1,0c0,0,0.5,0,1.4,0c12.6,0,77.5-3.2,126.5-65.8
						c-49.1-62.6-113.9-65.8-126.5-65.8c-0.1,0-0.2,0-0.3,0l-0.1,0.1l-1.4,0c-0.2,0-0.6,0-1.4,0c-12.6,0-77.5,3.2-126.5,65.8
						c49.1,62.6,113.9,65.8,126.5,65.8c0.9,0,1.4,0,1.4,0L247.6,219.6z"/>
				</g>
			</g>
		</g>
		<g>
			<g>
				<g>
					<path fill="#616363" d="M245.5,225.8c-39.7,0-72.1-32.3-72.1-72s32.3-72,72.1-72s72.1,32.3,72.1,72S285.2,225.8,245.5,225.8z
						 M245.5,88c-36.3,0-65.8,29.5-65.8,65.8s29.5,65.8,65.8,65.8s65.8-29.5,65.8-65.8S281.8,88,245.5,88z"/>
				</g>
			</g>
		</g>
		<g>
			<g>
				<g>
					<polygon fill="#616363" points="289.1,284.3 243,224.6 248,220.7 282.8,265.8 282.8,242.8 312.4,242.8 243.4,87.4 249.2,84.9 
						322.1,249.1 289.1,249.1 					"/>
				</g>
			</g>
		</g>
		<g>
			<g>
				<g>
					<path fill="#616363" d="M245.5,178.2c-13.5,0-24.5-11-24.5-24.5s11-24.5,24.5-24.5c13.5,0,24.5,11,24.5,24.5
						S259,178.2,245.5,178.2z M245.5,135.5c-10,0-18.2,8.2-18.2,18.2s8.2,18.2,18.2,18.2c10,0,18.2-8.2,18.2-18.2
						S255.6,135.5,245.5,135.5z"/>
				</g>
			</g>
		</g>
		<g>
			<g>
				<g>
					<g>
						<circle fill="#FFFFFF" cx="135.6" cy="258.1" r="46.1"/>
					</g>
				</g>
			</g>
			<g>
				<g>
					<g>
						<path fill="#616363" d="M135.6,307.3c-27.1,0-49.2-22.1-49.2-49.2c0-27.1,22.1-49.2,49.2-49.2s49.2,22.1,49.2,49.2
							C184.8,285.2,162.7,307.3,135.6,307.3z M135.6,215.2c-23.7,0-42.9,19.3-42.9,42.9c0,23.7,19.3,42.9,42.9,42.9
							s42.9-19.3,42.9-42.9C178.5,234.4,159.3,215.2,135.6,215.2z"/>
					</g>
				</g>
			</g>
			<g>
				<g>
					<g>
						<g>
							<rect x="118.1" y="248.7" fill="#CEECF3" width="35" height="30.3"/>
						</g>
					</g>
				</g>
				<g>
					<g>
						<g>
							<rect x="118.1" y="248.7" fill="#FCB856" width="35" height="30.3"/>
						</g>
					</g>
				</g>
				<g>
					<g>
						<g>
							<path fill="#616363" d="M156.2,282.1H115v-36.6h41.2V282.1z M121.3,275.9h28.7v-24h-28.7V275.9z"/>
						</g>
					</g>
				</g>
				<g>
					<g>
						<g>
							<path fill="#616363" d="M150.9,248.4h-6.3v-7.6c0-4.7-3.8-8.6-8.6-8.6c-4,0-7.4,2.7-8.3,6.5c-0.2,0.7-0.2,1.3-0.2,2h-6.3
								c0-1.2,0.1-2.4,0.4-3.5c1.6-6.7,7.5-11.3,14.4-11.3c8.2,0,14.8,6.7,14.8,14.8V248.4z"/>
						</g>
					</g>
				</g>
			</g>
		</g>
		<g>
			<g>
				<g>
					<rect x="286.6" y="260.7" fill="#616363" width="132.7" height="6.3"/>
				</g>
			</g>
		</g>
	</g>
</g>
</svg>
