<?xml version="1.0" encoding="utf-8"?>
<!-- Generator: Adobe Illustrator 18.0.0, SVG Export Plug-In . SVG Version: 6.00 Build 0)  -->
<!DOCTYPE svg PUBLIC "-//W3C//DTD SVG 1.1//EN" "http://www.w3.org/Graphics/SVG/1.1/DTD/svg11.dtd">
<svg version="1.1" id="Layer_1" xmlns="http://www.w3.org/2000/svg" xmlns:xlink="http://www.w3.org/1999/xlink" x="0px" y="0px"
	 viewBox="0 0 512 512" enable-background="new 0 0 512 512" xml:space="preserve">
<g>
	<g>
		<text transform="matrix(1 0 0 1 84.0361 420.8049)" fill="#616363" font-family="'AvertaDemo-Regular'" font-size="53.0116">DATA MINING</text>
	</g>
	<g>
		<g>
			<g>
				<g>
					<g>
						<g>
							<g>
								<rect x="128.4" y="80.7" fill="#FFFFFF" width="181" height="232"/>
							</g>
						</g>
					</g>
				</g>
				<g>
					<g>
						<g>
							<g>
								<path fill="#616363" d="M312.6,315.8H125.3V77.6h187.3V315.8z M131.6,309.6h174.7V83.9H131.6V309.6z"/>
							</g>
						</g>
					</g>
				</g>
				<g>
					<g>
						<g>
							<g>
								<rect x="155.7" y="216.4" fill="#616363" width="127.3" height="6.3"/>
							</g>
						</g>
					</g>
				</g>
				<g>
					<g>
						<g>
							<g>
								<rect x="155.3" y="244.9" fill="#616363" width="112.8" height="6.3"/>
							</g>
						</g>
					</g>
				</g>
				<g>
					<g>
						<g>
							<g>
								<rect x="155.3" y="273.4" fill="#616363" width="89.1" height="6.3"/>
							</g>
						</g>
					</g>
				</g>
			</g>
			<g>
				<g>
					<g>
						<g>
							<rect x="157.3" y="139.1" fill="#FCB856" width="20.9" height="49.6"/>
						</g>
					</g>
				</g>
			</g>
			<g>
				<g>
					<g>
						<g>
							<path fill="#616363" d="M181.3,191.9h-27.1V136h27.1V191.9z M160.4,185.6H175v-43.3h-14.6V185.6z"/>
						</g>
					</g>
				</g>
			</g>
			<g>
				<g>
					<g>
						<g>
							<rect x="192.2" y="139.1" fill="#CEECF3" width="20.9" height="49.6"/>
						</g>
					</g>
				</g>
			</g>
			<g>
				<g>
					<g>
						<g>
							<path fill="#616363" d="M216.2,191.9h-27.1V136h27.1V191.9z M195.4,185.6H210v-43.3h-14.6V185.6z"/>
						</g>
					</g>
				</g>
			</g>
			<g>
				<g>
					<g>
						<g>
							<rect x="227.2" y="159" fill="#FFFFFF" width="20.9" height="29.7"/>
						</g>
					</g>
				</g>
			</g>
			<g>
				<g>
					<g>
						<g>
							<path fill="#616363" d="M251.2,191.9h-27.1v-36h27.1V191.9z M230.3,185.6h14.6v-23.4h-14.6V185.6z"/>
						</g>
					</g>
				</g>
			</g>
			<g>
				<g>
					<g>
						<g>
							<rect x="262.2" y="113.2" fill="#84D1DA" width="20.9" height="75.5"/>
						</g>
					</g>
				</g>
			</g>
			<g>
				<g>
					<g>
						<g>
							<path fill="#616363" d="M286.2,191.9H259v-81.8h27.1V191.9z M265.3,185.6h14.6v-69.2h-14.6V185.6z"/>
						</g>
					</g>
				</g>
			</g>
		</g>
		<g>
			<g>
				<g>
					<g>
						<g>
							
								<rect x="321.8" y="148.4" transform="matrix(0.7071 0.7071 -0.7071 0.7071 266.3892 -162.5459)" fill="#FCB856" width="15.2" height="183.7"/>
						</g>
					</g>
				</g>
			</g>
			<g>
				<g>
					<g>
						<g>
							<path fill="#616363" d="M269.8,315l-15.2-15.2L389,165.5l15.2,15.2L269.8,315z M263.5,299.8l6.3,6.3l125.4-125.4l-6.3-6.3
								L263.5,299.8z"/>
						</g>
					</g>
				</g>
			</g>
			<g>
				<g>
					<g>
						<g>
							<path fill="#FFFFFF" d="M311.2,155.8c0,0,30.6-17.1,61.7,14l-12.4,12.4C360.6,182.2,340,158.2,311.2,155.8z"/>
						</g>
					</g>
				</g>
			</g>
			<g>
				<g>
					<g>
						<g>
							<path fill="#FFFFFF" d="M413.2,257.8c0,0,17.1-30.6-14-61.7l-12.4,12.4C386.8,208.5,410.9,229,413.2,257.8z"/>
						</g>
					</g>
				</g>
			</g>
			<g>
				<g>
					<g>
						<g>
							
								<rect x="361.3" y="180.4" transform="matrix(0.7071 0.7071 -0.7071 0.7071 245.0086 -213.2036)" fill="#FFFFFF" width="37.1" height="17.5"/>
						</g>
					</g>
				</g>
			</g>
			<g>
				<g>
					<g>
						<g>
							<path fill="#616363" d="M362.8,184.4l-4.6-0.2c-0.2-0.2-20.1-23.1-47.2-25.3l-1.3-5.9c0.4-0.2,9.3-5.1,22.4-5.1
								c15.3,0,30.2,6.8,43.1,19.6v4.4L362.8,184.4z M323.9,155c18.2,5.3,31.6,17.4,36.8,22.7l7.8-7.8
								c-11.2-10.4-23.4-15.6-36.4-15.6C329,154.3,326.3,154.6,323.9,155z"/>
						</g>
					</g>
				</g>
			</g>
			<g>
				<g>
					<g>
						<g>
							<path fill="#616363" d="M415.9,259.4l-5.9-1.3c-2.2-27.1-25-47-25.3-47.2l-0.2-4.6l12.3-12.4h4.4
								C433.8,226.3,416.1,259,415.9,259.4z M391.3,208.4c5.3,5.2,17.5,18.6,22.7,36.9c1.9-10.5,1.2-27.3-14.9-44.7L391.3,208.4z"/>
						</g>
					</g>
				</g>
			</g>
			<g>
				<g>
					<g>
						<g>
							<path fill="#616363" d="M384.6,210.7l-26.3-26.3V180l12.4-12.4h4.4l26.3,26.3v4.4L389,210.7H384.6z M365,182.2l21.8,21.8
								l7.9-7.9l-21.8-21.8L365,182.2z"/>
						</g>
					</g>
				</g>
			</g>
		</g>
	</g>
</g>
</svg>
