<?xml version="1.0" encoding="utf-8"?>
<!-- Generator: Adobe Illustrator 18.0.0, SVG Export Plug-In . SVG Version: 6.00 Build 0)  -->
<!DOCTYPE svg PUBLIC "-//W3C//DTD SVG 1.1//EN" "http://www.w3.org/Graphics/SVG/1.1/DTD/svg11.dtd">
<svg version="1.1" id="Layer_1" xmlns="http://www.w3.org/2000/svg" xmlns:xlink="http://www.w3.org/1999/xlink" x="0px" y="0px"
	 viewBox="0 0 512 512" enable-background="new 0 0 512 512" xml:space="preserve">
<g>
	<g>
		<g>
			<g>
				<g>
					<path fill="#616363" d="M121.6,384.6h11.3c11.9,0,19.5,7.8,19.5,18.9c0,11.1-7.4,18.8-19.4,18.8h-11.4V384.6z M132.7,418
						c9,0,14.9-6.1,14.9-14.6c0-8.6-5.9-14.7-14.7-14.7h-6.7V418H132.7z"/>
				</g>
			</g>
		</g>
		<g>
			<g>
				<g>
					<path fill="#616363" d="M160.3,384.6h23v4.2h-18.4v12.6H180v4.2h-15.1V418h19.5v4.2h-24.1V384.6z"/>
				</g>
			</g>
		</g>
		<g>
			<g>
				<g>
					<path fill="#616363" d="M192,384.6h13.2c8.8,0,12.4,5,12.4,11.7c0,8-5.4,11.6-13.2,11.6h-7.8v14.4H192V384.6z M203.9,403.6
						c6.3,0,8.9-3.2,8.9-7.5c0-4.8-3.1-7.3-8.2-7.3h-8.1v14.8H203.9z"/>
				</g>
			</g>
		</g>
		<g>
			<g>
				<g>
					<path fill="#616363" d="M223.1,403.4c0-10.8,7.6-19.2,18.9-19.2c10.6,0,18.8,7.7,18.8,19.2c0,11.5-8.2,19.2-18.8,19.2
						C230.7,422.6,223.1,414.3,223.1,403.4z M255.9,403.4c0-8.7-6.2-14.8-14-14.8c-8.4,0-14.1,6.6-14.1,14.8
						c0,8.2,5.7,14.8,14.1,14.8C249.8,418.2,255.9,412.1,255.9,403.4z"/>
				</g>
			</g>
		</g>
		<g>
			<g>
				<g>
					<path fill="#616363" d="M279.3,422.6c-4.7,0-9.6-1.8-13.3-5.8l2.9-3.5c2.7,3.4,6.8,5,10.5,5c4.6,0,7.7-2.1,7.7-5.7
						c0-4.2-3.4-5.4-8.4-7.3c-5.6-2.1-11.2-4.5-11.2-11c0-5.6,5-9.9,11.5-10c4.2,0,8.3,1.6,11.9,4.4l-2.8,3.6
						c-3-2.5-6.3-3.7-9.2-3.7c-3.5,0-6.7,1.9-6.7,5.4c0,3.6,3.3,4.9,8,6.7c6.3,2.5,11.6,4.2,11.6,11.2
						C291.9,418.9,285.8,422.6,279.3,422.6L279.3,422.6z"/>
				</g>
			</g>
		</g>
		<g>
			<g>
				<g>
					<path fill="#616363" d="M299.7,384.6h4.6v37.7h-4.6V384.6z"/>
				</g>
			</g>
		</g>
		<g>
			<g>
				<g>
					<path fill="#616363" d="M322.3,388.8H311v-4.2h27.2v4.2h-11.4v33.4h-4.6V388.8z"/>
				</g>
			</g>
		</g>
	</g>
	<g>
		<g>
			<g>
				<g>
					<rect x="126.6" y="240.2" fill="#84D1DA" width="205.4" height="93.3"/>
				</g>
			</g>
		</g>
	</g>
	<g>
		<g>
			<g>
				<g>
					<polygon fill="#616363" points="335.1,336.6 123.4,336.6 123.4,237.1 203.2,237.1 203.2,243.4 129.7,243.4 129.7,330.4 
						328.8,330.4 328.8,243.4 256.6,243.4 256.6,237.1 335.1,237.1 					"/>
				</g>
			</g>
		</g>
	</g>
	<g>
		<g>
			<g>
				<g>
					<g>
						
							<rect x="223.3" y="264.5" transform="matrix(0.7095 0.7047 -0.7047 0.7095 273.8321 -73.8216)" fill="#616363" width="6.3" height="61.5"/>
					</g>
				</g>
			</g>
		</g>
		<g>
			<g>
				<g>
					<g>
						<path fill="#616363" d="M213.3,291c-6.2,0-11.3-5.1-11.3-11.3s5.1-11.3,11.3-11.3s11.3,5.1,11.3,11.3S219.5,291,213.3,291z
							 M213.3,274.6c-2.8,0-5,2.3-5,5.1c0,2.8,2.2,5.1,5,5.1s5-2.3,5-5.1C218.3,276.9,216.1,274.6,213.3,274.6z"/>
					</g>
				</g>
			</g>
		</g>
		<g>
			<g>
				<g>
					<g>
						<path fill="#616363" d="M241.5,320.2c-6.2,0-11.3-5.1-11.3-11.3s5.1-11.3,11.3-11.3s11.3,5.1,11.3,11.3
							S247.7,320.2,241.5,320.2z M241.5,303.8c-2.8,0-5,2.3-5,5.1c0,2.8,2.2,5.1,5,5.1s5-2.3,5-5.1
							C246.5,306.1,244.2,303.8,241.5,303.8z"/>
					</g>
				</g>
			</g>
		</g>
	</g>
	<g>
		<g>
			<g>
				<g>
					<circle fill="#FCB856" cx="229.3" cy="223.3" r="32.2"/>
				</g>
			</g>
		</g>
	</g>
	<g>
		<g>
			<g>
				<g>
					<path fill="#616363" d="M229.3,258.6c-19.5,0-35.3-15.8-35.3-35.3c0-19.5,15.8-35.3,35.3-35.3c19.5,0,35.3,15.8,35.3,35.3
						C264.6,242.8,248.7,258.6,229.3,258.6z M229.3,194.3c-16,0-29,13-29,29s13,29,29,29s29-13,29-29S245.3,194.3,229.3,194.3z"/>
				</g>
			</g>
		</g>
	</g>
	<g>
		<g>
			<g>
				<g>
					<rect x="193" y="252.3" fill="#616363" width="70.9" height="6.3"/>
				</g>
			</g>
		</g>
	</g>
	<g>
		<g>
			<g>
				<g>
					<g>
						<path fill="#FFFFFF" d="M238.9,229.6c0,4.2-3,7.2-8,7.6v5h-2.8v-5c-3.1-0.3-6-1.7-8.5-4.1l2.2-2.6c2.3,2.3,5.3,3.4,8,3.4
							c3,0,5.3-1.5,5.3-4.1c0-3-2.4-4-6.2-5.1c-4.5-1.5-8.6-2.9-8.6-7.8c0-4,2.8-7.1,7.8-7.3v-5.2h2.8v5.4c2.5,0.4,5.2,1.6,7,3
							l-2.1,2.6c-2.2-1.6-4.9-2.4-7-2.4c-2.9,0-4.9,1.4-4.9,3.8c0,2.6,2.5,3.5,6,4.7C235,223,238.9,224.3,238.9,229.6L238.9,229.6z"
							/>
					</g>
				</g>
			</g>
		</g>
	</g>
	<g>
		<g>
			<g>
				<g>
					<g>
						<path fill="#FFFFFF" d="M376.4,123.8H376c-14.8,0-29.2-4.9-40.9-13.9c-13.2-11.2-29.9-17.3-47.2-17.3h-8.7l0,0l0,0l0,0h-76.4
							c-8.3,0-15.6,6.3-16.1,14.6c-0.6,9.1,6.6,16.6,15.6,16.6H234l0,0l0,0l0,0c0,0-5,4.9-9.8,10.4c-7.2,8.3-20.5,31.5-20.5,31.5
							c-3.7,7.4-0.9,16.5,6.3,20.5c7.8,4.3,17.6,1.3,21.5-6.7l11.6-18.4c6.2-9.8,14.4-18.3,24.1-24.7l3.6-2.4
							c18.4-12.3,43.2,0.7,43.4,22.9c0,0.1,0,0.2,0,0.3c0,18.4-14.9,33.3-33.3,33.3h-13.2h-33.1c-7.7,0-14.4,5.8-14.9,13.4
							c-0.5,8.4,6.1,15.4,14.4,15.4h75.4c12.8,0,25.1-4.1,35.8-11.1c11-7.2,23.9-11,37-11h4.9v-73.3H376.4z"/>
					</g>
				</g>
			</g>
		</g>
		<g>
			<g>
				<g>
					<g>
						<g>
							<path fill="#616363" d="M308.3,222.4h-74.1c-9.7,0-17.5-7.9-17.5-17.5c0-6.6,3.7-12.4,9.1-15.3c-0.8,0.4-1.6,0.7-2.5,1
								c-4.9,1.5-10.2,1-14.7-1.5c-8.7-4.9-12.1-15.7-7.6-24.6l0.1-0.2l12.1-19.6c3.8-6.2,8.3-12.1,13.3-17.5h-24.3
								c-10.3,0-18.7-8.4-18.7-18.7s8.4-18.7,18.7-18.7h85.7c18,0,35.5,6.4,49.3,18c11,8.5,24.9,13.2,38.9,13.2h14.4v79.6h-8.1
								c-12.6,0-24.8,3.6-35.3,10.5C335.5,218.4,322.1,222.4,308.3,222.4z M234.2,193.6c-6.2,0-11.3,5.1-11.3,11.3
								s5.1,11.3,11.3,11.3h74.1c12.6,0,24.8-3.6,35.3-10.5c11.5-7.6,24.9-11.6,38.8-11.6h1.8v-67.1H376c-15.4,0-30.6-5.2-42.8-14.6
								c-12.7-10.8-28.8-16.6-45.3-16.6H280l-29.5,19.2c-12.9,8.4-24,19.7-32,32.8l-12,19.5c-2.9,5.9-0.6,13,5.1,16.3
								c3,1.7,6.5,2,9.7,1c3.3-1,5.9-3.3,7.4-6.4l0.2-0.3l11.6-18.4c6.5-10.3,14.9-18.9,25-25.7l3.5-2.3c9.6-6.5,21.6-7.1,31.9-1.7
								c10.2,5.3,16.3,15.4,16.5,26.8l0,0.6c0,20.1-16.4,36.5-36.5,36.5H234.2z M234.3,181c-1.7,3.4-4.3,6.1-7.6,7.9
								c2.3-1.1,4.8-1.7,7.5-1.7h46.7c16.6,0,30.2-13.5,30.2-30.2l0-0.5c-0.1-9.1-5-17.1-13.1-21.3c-8.2-4.3-17.8-3.8-25.5,1.3
								l-3.5,2.3c-9.4,6.3-17.1,14.3-23.1,23.8L234.3,181z M202.1,95.7c-6.9,0-12.5,5.6-12.5,12.5c0,6.9,5.6,12.5,12.5,12.5h30.7
								c4.5-4.1,9.2-7.8,14.3-11l21.4-13.9H202.1z"/>
						</g>
					</g>
				</g>
			</g>
		</g>
		<g>
			<g>
				<g>
					<g>
						<polygon fill="#FFFFFF" points="279.1,92.6 279.1,92.6 279.1,92.6 						"/>
					</g>
				</g>
			</g>
		</g>
	</g>
</g>
</svg>
