<?xml version="1.0" encoding="utf-8"?>
<!-- Generator: Adobe Illustrator 18.0.0, SVG Export Plug-In . SVG Version: 6.00 Build 0)  -->
<!DOCTYPE svg PUBLIC "-//W3C//DTD SVG 1.1//EN" "http://www.w3.org/Graphics/SVG/1.1/DTD/svg11.dtd">
<svg version="1.1" id="Layer_1" xmlns="http://www.w3.org/2000/svg" xmlns:xlink="http://www.w3.org/1999/xlink" x="0px" y="0px"
	 viewBox="0 0 512 512" enable-background="new 0 0 512 512" xml:space="preserve">
<g>
	<g>
		<text transform="matrix(1 0 0 1 137.2798 418.4126)" fill="#616363" font-family="'AvertaDemo-Regular'" font-size="53.0116">DOLLAR</text>
	</g>
	<g>
		<g>
			<g>
				<g>
					<g>
						<g>
							<g>
								<rect x="72" y="83.1" fill="#CEECF3" width="272.9" height="136.5"/>
							</g>
						</g>
					</g>
				</g>
				<g>
					<g>
						<g>
							<g>
								<path fill="#FCB856" d="M72,116.3c18.3,0,33.2-14.9,33.2-33.2H72V116.3z"/>
							</g>
						</g>
					</g>
				</g>
				<g>
					<g>
						<g>
							<g>
								<path fill="#FCB856" d="M344.9,116.3c-18.3,0-33.2-14.9-33.2-33.2h33.2V116.3z"/>
							</g>
						</g>
					</g>
				</g>
				<g>
					<g>
						<g>
							<g>
								<path fill="#FCB856" d="M344.9,185.7c-18.3,0-33.2,14.9-33.2,33.2l33.2,0V185.7z"/>
							</g>
						</g>
					</g>
				</g>
				<g>
					<g>
						<g>
							<g>
								<path fill="#FCB856" d="M72,185.7c18.3,0,33.2,14.9,33.2,33.2l-33.2,0V185.7z"/>
							</g>
						</g>
					</g>
				</g>
				<g>
					<g>
						<g>
							<g>
								<path fill="#616363" d="M72,119.4h-3.1V80h39.5v3.1C108.3,103.1,92,119.4,72,119.4z M75.1,86.2V113
									c14.1-1.5,25.3-12.7,26.7-26.7H75.1z"/>
							</g>
						</g>
					</g>
				</g>
				<g>
					<g>
						<g>
							<g>
								<path fill="#616363" d="M348.1,119.4h-3.1c-20,0-36.3-16.3-36.3-36.3V80h39.5V119.4z M315.1,86.2
									c1.5,14.1,12.7,25.3,26.7,26.7V86.2H315.1z"/>
							</g>
						</g>
					</g>
				</g>
				<g>
					<g>
						<g>
							<g>
								<path fill="#616363" d="M348.1,222.1h-39.5v-3.1c0-20,16.3-36.3,36.3-36.3h3.1V222.1z M315.1,215.8h26.7V189
									C327.7,190.5,316.5,201.7,315.1,215.8z"/>
							</g>
						</g>
					</g>
				</g>
				<g>
					<g>
						<g>
							<g>
								<path fill="#616363" d="M108.3,222.1H68.8v-39.5H72c20,0,36.3,16.3,36.3,36.3V222.1z M75.1,215.8h26.7
									c-1.5-14.1-12.7-25.3-26.7-26.7V215.8z"/>
							</g>
						</g>
					</g>
				</g>
				<g>
					<g>
						<g>
							<g>
								<path fill="#616363" d="M348,222.7H68.8V80H348V222.7z M75.1,216.4h266.6V86.2H75.1V216.4z"/>
							</g>
						</g>
					</g>
				</g>
				<g>
					<g>
						<g>
							<g>
								<circle fill="#FCB856" cx="208.4" cy="151.3" r="39.7"/>
							</g>
						</g>
					</g>
				</g>
				<g>
					<g>
						<g>
							<g>
								<path fill="#616363" d="M208.4,194.1c-23.6,0-42.8-19.2-42.8-42.8s19.2-42.8,42.8-42.8s42.8,19.2,42.8,42.8
									S232,194.1,208.4,194.1z M208.4,114.8c-20.1,0-36.5,16.4-36.5,36.5s16.4,36.5,36.5,36.5s36.5-16.4,36.5-36.5
									S228.6,114.8,208.4,114.8z"/>
							</g>
						</g>
					</g>
				</g>
			</g>
			<g>
				<g>
					<g>
						<g>
							<g>
								<rect x="99.5" y="107.4" fill="#CEECF3" width="272.9" height="136.5"/>
							</g>
						</g>
					</g>
				</g>
				<g>
					<g>
						<g>
							<g>
								<path fill="#FCB856" d="M99.5,140.5c18.3,0,33.2-14.9,33.2-33.2H99.5V140.5z"/>
							</g>
						</g>
					</g>
				</g>
				<g>
					<g>
						<g>
							<g>
								<path fill="#FCB856" d="M372.5,140.5c-18.3,0-33.2-14.9-33.2-33.2h33.2V140.5z"/>
							</g>
						</g>
					</g>
				</g>
				<g>
					<g>
						<g>
							<g>
								<path fill="#FCB856" d="M372.5,210c-18.3,0-33.2,14.9-33.2,33.2l33.2,0V210z"/>
							</g>
						</g>
					</g>
				</g>
				<g>
					<g>
						<g>
							<g>
								<path fill="#FCB856" d="M99.5,210c18.3,0,33.2,14.9,33.2,33.2H99.5V210z"/>
							</g>
						</g>
					</g>
				</g>
				<g>
					<g>
						<g>
							<g>
								<path fill="#616363" d="M99.5,143.7h-3.1v-39.5h39.5v3.1C135.8,127.4,119.5,143.7,99.5,143.7z M102.6,110.5v26.7
									c14.1-1.5,25.3-12.7,26.7-26.7H102.6z"/>
							</g>
						</g>
					</g>
				</g>
				<g>
					<g>
						<g>
							<g>
								<path fill="#616363" d="M375.6,143.7h-3.1c-20,0-36.3-16.3-36.3-36.3v-3.1h39.5V143.7z M342.6,110.5
									c1.5,14.1,12.7,25.3,26.7,26.7v-26.7H342.6z"/>
							</g>
						</g>
					</g>
				</g>
				<g>
					<g>
						<g>
							<g>
								<path fill="#616363" d="M375.6,246.3h-39.5v-3.1c0-20,16.3-36.3,36.3-36.3h3.1V246.3z M342.6,240h26.7v-26.7
									C355.3,214.8,344.1,226,342.6,240z"/>
							</g>
						</g>
					</g>
				</g>
				<g>
					<g>
						<g>
							<g>
								<path fill="#616363" d="M135.8,246.3H96.4v-39.5h3.1c20,0,36.3,16.3,36.3,36.3V246.3z M102.6,240h26.7
									c-1.5-14.1-12.7-25.3-26.7-26.7V240z"/>
							</g>
						</g>
					</g>
				</g>
				<g>
					<g>
						<g>
							<g>
								<path fill="#616363" d="M375.6,247H96.4V104.2h279.2V247z M102.6,240.7h266.6V110.5H102.6V240.7z"/>
							</g>
						</g>
					</g>
				</g>
				<g>
					<g>
						<g>
							<g>
								<circle fill="#FCB856" cx="236" cy="175.6" r="39.7"/>
							</g>
						</g>
					</g>
				</g>
				<g>
					<g>
						<g>
							<g>
								<path fill="#616363" d="M236,218.4c-23.6,0-42.8-19.2-42.8-42.8c0-23.6,19.2-42.8,42.8-42.8c23.6,0,42.8,19.2,42.8,42.8
									C278.8,199.2,259.6,218.4,236,218.4z M236,139c-20.1,0-36.5,16.4-36.5,36.5s16.4,36.5,36.5,36.5s36.5-16.4,36.5-36.5
									S256.1,139,236,139z"/>
							</g>
						</g>
					</g>
				</g>
			</g>
			<g>
				<g>
					<g>
						<g>
							<rect x="127.1" y="131.6" fill="#CEECF3" width="272.9" height="136.5"/>
						</g>
					</g>
				</g>
			</g>
			<g>
				<g>
					<g>
						<g>
							<path fill="#FCB856" d="M127.1,164.8c18.3,0,33.2-14.9,33.2-33.2h-33.2L127.1,164.8z"/>
						</g>
					</g>
				</g>
			</g>
			<g>
				<g>
					<g>
						<g>
							<path fill="#FCB856" d="M400,164.8c-18.3,0-33.2-14.9-33.2-33.2H400V164.8z"/>
						</g>
					</g>
				</g>
			</g>
			<g>
				<g>
					<g>
						<g>
							<path fill="#FCB856" d="M400,234.2c-18.3,0-33.2,14.9-33.2,33.2H400V234.2z"/>
						</g>
					</g>
				</g>
			</g>
			<g>
				<g>
					<g>
						<g>
							<path fill="#FCB856" d="M127.1,234.2c18.3,0,33.2,14.9,33.2,33.2h-33.2L127.1,234.2z"/>
						</g>
					</g>
				</g>
			</g>
			<g>
				<g>
					<g>
						<g>
							<path fill="#616363" d="M127.1,167.9h-3.1v-39.5h39.5v3.1C163.4,151.6,147.1,167.9,127.1,167.9z M130.2,134.8v26.7
								c14.1-1.5,25.3-12.7,26.7-26.7H130.2z"/>
						</g>
					</g>
				</g>
			</g>
			<g>
				<g>
					<g>
						<g>
							<path fill="#616363" d="M403.2,167.9H400c-20,0-36.3-16.3-36.3-36.3v-3.1h39.5V167.9z M370.2,134.8
								c1.5,14.1,12.7,25.3,26.7,26.7v-26.7H370.2z"/>
						</g>
					</g>
				</g>
			</g>
			<g>
				<g>
					<g>
						<g>
							<path fill="#616363" d="M403.2,270.6h-39.5v-3.1c0-20,16.3-36.3,36.3-36.3h3.1V270.6z M370.2,264.3h26.7v-26.7
								C382.8,239,371.6,250.2,370.2,264.3z"/>
						</g>
					</g>
				</g>
			</g>
			<g>
				<g>
					<g>
						<g>
							<path fill="#616363" d="M163.4,270.6h-39.5v-39.5h3.1c20,0,36.3,16.3,36.3,36.3V270.6z M130.2,264.3h26.7
								c-1.5-14.1-12.7-25.3-26.7-26.7V264.3z"/>
						</g>
					</g>
				</g>
			</g>
			<g>
				<g>
					<g>
						<g>
							<path fill="#616363" d="M403.1,271.2H123.9V128.5h279.2V271.2z M130.2,264.9h266.6V134.8H130.2V264.9z"/>
						</g>
					</g>
				</g>
			</g>
			<g>
				<g>
					<g>
						<g>
							<circle fill="#FCB856" cx="263.5" cy="199.8" r="39.7"/>
						</g>
					</g>
				</g>
			</g>
			<g>
				<g>
					<g>
						<g>
							<path fill="#616363" d="M263.5,242.7c-23.6,0-42.8-19.2-42.8-42.8c0-23.6,19.2-42.8,42.8-42.8c23.6,0,42.8,19.2,42.8,42.8
								C306.3,223.4,287.1,242.7,263.5,242.7z M263.5,163.3c-20.1,0-36.5,16.4-36.5,36.5s16.4,36.5,36.5,36.5S300,220,300,199.8
								S283.7,163.3,263.5,163.3z"/>
						</g>
					</g>
				</g>
			</g>
			<g>
				<g>
					<g>
						<g>
							<g>
								<circle fill="#FFFFFF" cx="388.8" cy="265.4" r="51.2"/>
							</g>
						</g>
					</g>
				</g>
				<g>
					<g>
						<g>
							<g>
								<path fill="#616363" d="M388.8,319.8c-30,0-54.4-24.4-54.4-54.4s24.4-54.4,54.4-54.4s54.4,24.4,54.4,54.4
									S418.8,319.8,388.8,319.8z M388.8,217.3c-26.5,0-48.1,21.6-48.1,48.1c0,26.5,21.6,48.1,48.1,48.1s48.1-21.6,48.1-48.1
									C436.9,238.9,415.3,217.3,388.8,217.3z"/>
							</g>
						</g>
					</g>
				</g>
			</g>
		</g>
		<g>
			<g>
				<g>
					<g>
						<g>
							<path fill="#FFFFFF" d="M278,210.4c0,6.4-4.5,10.9-12.1,11.5v7.6h-4.2v-7.6c-4.6-0.5-9.1-2.6-12.8-6.1l3.3-3.9
								c3.5,3.4,8,5.2,12,5.2c4.6,0,8-2.3,8-6.2c0-4.5-3.6-6-9.4-7.8c-6.8-2.2-13.1-4.3-13.1-11.8c0-6.1,4.2-10.7,11.9-11v-7.9h4.2
								v8.2c3.8,0.7,7.9,2.4,10.6,4.5l-3.1,3.9c-3.3-2.4-7.4-3.7-10.5-3.7c-4.4,0-7.4,2-7.4,5.7c0,3.9,3.8,5.3,9,7
								C272.2,200.3,278,202.3,278,210.4L278,210.4z"/>
						</g>
					</g>
				</g>
			</g>
		</g>
		<g>
			<g>
				<g>
					<g>
						<g>
							<path fill="#FCB856" d="M406.4,277c0,7.7-5.4,13.2-14.7,13.9v9.2h-5.1v-9.3c-5.6-0.6-11-3.1-15.5-7.4l4-4.7
								c4.3,4.2,9.7,6.3,14.6,6.3c5.6,0,9.7-2.8,9.7-7.6c0-5.4-4.4-7.3-11.4-9.4c-8.3-2.7-15.9-5.3-15.9-14.3
								c0-7.4,5.2-13,14.4-13.4v-9.6h5.1v9.9c4.6,0.8,9.6,2.9,12.9,5.5l-3.8,4.7c-4-2.9-9-4.5-12.8-4.5c-5.3,0-9,2.5-9,6.9
								c0,4.7,4.6,6.5,10.9,8.6C399.4,264.8,406.4,267.3,406.4,277L406.4,277z"/>
						</g>
					</g>
				</g>
			</g>
		</g>
	</g>
</g>
</svg>
