<?xml version="1.0" encoding="utf-8"?>
<!-- Generator: Adobe Illustrator 18.0.0, SVG Export Plug-In . SVG Version: 6.00 Build 0)  -->
<!DOCTYPE svg PUBLIC "-//W3C//DTD SVG 1.1//EN" "http://www.w3.org/Graphics/SVG/1.1/DTD/svg11.dtd">
<svg version="1.1" id="Layer_1" xmlns="http://www.w3.org/2000/svg" xmlns:xlink="http://www.w3.org/1999/xlink" x="0px" y="0px"
	 viewBox="0 0 512 512" enable-background="new 0 0 512 512" xml:space="preserve">
<g>
	<g>
		<text transform="matrix(1 0 0 1 17.3315 422.5264)" fill="#616363" font-family="'AvertaDemo-Regular'" font-size="53.0116">E-MAIL TRANSFER </text>
	</g>
	<g>
		<g>
			<g>
				<g>
					<g>
						<polygon fill="#84D1DA" points="352.5,196.7 239.4,102.2 127.7,196.7 						"/>
					</g>
				</g>
			</g>
		</g>
		<g>
			<g>
				<g>
					<g>
						<rect x="127.7" y="196.7" fill="#84D1DA" width="224.7" height="127.1"/>
					</g>
				</g>
			</g>
		</g>
		<g>
			<g>
				<g>
					<g>
						<polygon fill="#616363" points="355.6,327 124.6,327 124.6,196.7 130.9,196.7 130.9,320.7 349.3,320.7 349.3,196.7 
							355.6,196.7 						"/>
					</g>
				</g>
			</g>
		</g>
		<g>
			<g>
				<g>
					<g>
						<polygon fill="#616363" points="127.4,201.2 123.3,196.4 237.3,99.8 241.4,99.8 356.9,196.4 352.9,201.2 239.4,106.3 						
							"/>
					</g>
				</g>
			</g>
		</g>
		<g>
			<g>
				<g>
					<g>
						<g>
							<rect x="153.3" y="79" fill="#FFFFFF" width="171.8" height="220.2"/>
						</g>
					</g>
				</g>
			</g>
			<g>
				<g>
					<g>
						<g>
							<path fill="#616363" d="M328.3,302.3H150.2V75.9h178.1V302.3z M156.5,296.1H322V82.1H156.5V296.1z"/>
						</g>
					</g>
				</g>
			</g>
			<g>
				<g>
					<g>
						<g>
							<rect x="188.7" y="177.6" fill="#616363" width="102.8" height="6.3"/>
						</g>
					</g>
				</g>
			</g>
			<g>
				<g>
					<g>
						<g>
							<rect x="188.7" y="205.6" fill="#616363" width="102.8" height="6.3"/>
						</g>
					</g>
				</g>
			</g>
			<g>
				<g>
					<g>
						<g>
							<rect x="188.7" y="232.3" fill="#616363" width="102.8" height="6.3"/>
						</g>
					</g>
				</g>
			</g>
			<g>
				<g>
					<g>
						<g>
							<rect x="188.7" y="263.1" fill="#616363" width="102.8" height="6.3"/>
						</g>
					</g>
				</g>
			</g>
			<g>
				<g>
					<g>
						<g>
							<g>
								<path fill="#FCB856" d="M213.8,141.7c0,5.4-3.8,9.1-10.1,9.6v6.3h-3.5v-6.4c-3.9-0.4-7.6-2.2-10.7-5.1l2.7-3.3
									c2.9,2.9,6.7,4.4,10.1,4.4c3.9,0,6.7-1.9,6.7-5.2c0-3.8-3-5-7.9-6.5c-5.7-1.8-11-3.6-11-9.9c0-5.1,3.6-9,10-9.3v-6.6h3.5
									v6.9c3.2,0.6,6.6,2,8.9,3.8l-2.6,3.3c-2.8-2-6.2-3.1-8.8-3.1c-3.7,0-6.2,1.7-6.2,4.8c0,3.3,3.2,4.5,7.6,5.9
									C208.9,133.2,213.8,134.9,213.8,141.7L213.8,141.7z"/>
							</g>
						</g>
					</g>
				</g>
			</g>
			<g>
				<g>
					<g>
						<g>
							<g>
								<path fill="#FCB856" d="M252.7,141.7c0,5.4-3.8,9.1-10.1,9.6v6.3H239v-6.4c-3.9-0.4-7.6-2.2-10.7-5.1l2.7-3.3
									c2.9,2.9,6.7,4.4,10.1,4.4c3.9,0,6.7-1.9,6.7-5.2c0-3.8-3-5-7.9-6.5c-5.7-1.8-11-3.6-11-9.9c0-5.1,3.6-9,10-9.3v-6.6h3.5
									v6.9c3.2,0.6,6.6,2,8.9,3.8l-2.6,3.3c-2.8-2-6.2-3.1-8.8-3.1c-3.7,0-6.2,1.7-6.2,4.8c0,3.3,3.2,4.5,7.6,5.9
									C247.8,133.2,252.7,134.9,252.7,141.7L252.7,141.7z"/>
							</g>
						</g>
					</g>
				</g>
			</g>
			<g>
				<g>
					<g>
						<g>
							<g>
								<path fill="#FCB856" d="M291.5,141.7c0,5.4-3.8,9.1-10.1,9.6v6.3h-3.5v-6.4c-3.9-0.4-7.6-2.2-10.7-5.1l2.7-3.3
									c2.9,2.9,6.7,4.4,10.1,4.4c3.9,0,6.7-1.9,6.7-5.2c0-3.8-3-5-7.9-6.5c-5.7-1.8-11-3.6-11-9.9c0-5.1,3.6-9,10-9.3v-6.6h3.5
									v6.9c3.2,0.6,6.6,2,8.9,3.8l-2.6,3.3c-2.8-2-6.2-3.1-8.8-3.1c-3.7,0-6.2,1.7-6.2,4.8c0,3.3,3.2,4.5,7.6,5.9
									C286.6,133.2,291.5,134.9,291.5,141.7L291.5,141.7z"/>
							</g>
						</g>
					</g>
				</g>
			</g>
		</g>
		<g>
			<g>
				<g>
					<g>
						<polygon fill="#CEECF3" points="352.5,196.7 352.5,323.9 284.3,263 						"/>
					</g>
				</g>
			</g>
		</g>
		<g>
			<g>
				<g>
					<g>
						<polygon fill="#CEECF3" points="240.1,223.8 127.7,323.9 352.5,323.9 						"/>
					</g>
				</g>
			</g>
		</g>
		<g>
			<g>
				<g>
					<g>
						<polygon fill="#CEECF3" points="127.7,196.7 127.7,323.9 195.9,263 						"/>
					</g>
				</g>
			</g>
		</g>
		<g>
			<g>
				<g>
					<g>
						<path fill="#616363" d="M350.4,326.2l-68.2-60.9l-0.1-4.6l68.2-66.3l5.3,2.3v127.1L350.4,326.2z M288.9,262.9l60.5,54V204.2
							L288.9,262.9z"/>
					</g>
				</g>
			</g>
		</g>
		<g>
			<g>
				<g>
					<g>
						<path fill="#616363" d="M352.5,327H127.7l-2.1-5.5L238,221.4h4.2l112.4,100.1L352.5,327z M136,320.7h208.2L240.1,228
							L136,320.7z"/>
					</g>
				</g>
			</g>
		</g>
		<g>
			<g>
				<g>
					<g>
						<path fill="#616363" d="M129.8,326.2l-5.2-2.3V196.7l5.3-2.3l68.2,66.3l-0.1,4.6L129.8,326.2z M130.9,204.2v112.7l60.5-54
							L130.9,204.2z"/>
					</g>
				</g>
			</g>
		</g>
	</g>
</g>
</svg>
