<?xml version="1.0" encoding="utf-8"?>
<!-- Generator: Adobe Illustrator 18.0.0, SVG Export Plug-In . SVG Version: 6.00 Build 0)  -->
<!DOCTYPE svg PUBLIC "-//W3C//DTD SVG 1.1//EN" "http://www.w3.org/Graphics/SVG/1.1/DTD/svg11.dtd">
<svg version="1.1" id="Layer_1" xmlns="http://www.w3.org/2000/svg" xmlns:xlink="http://www.w3.org/1999/xlink" x="0px" y="0px"
	 viewBox="0 0 512 512" enable-background="new 0 0 512 512" xml:space="preserve">
<g>
	<g>
		<text transform="matrix(1 0 0 1 99.942 414.2903)"><tspan x="0" y="0" fill="#616363" font-family="'AvertaDemo-Regular'" font-size="53.0116">EDUCATION</tspan><tspan x="41.5" y="63.6" fill="#616363" font-family="'AvertaDemo-Regular'" font-size="53.0116">SAVINGS</tspan></text>
	</g>
	<g>
		<g>
			<g>
				<g>
					<g>
						<path fill="#CEECF3" d="M341.8,202.7l93-37.7L256,87.5L77.2,165l93,37.7h0l0,47.7c0,16.4,38.4,29.7,85.8,29.7
							c47.4,0,85.8-13.3,85.8-29.7l0,0L341.8,202.7z"/>
					</g>
				</g>
			</g>
		</g>
		<g>
			<g>
				<g>
					<g>
						<path fill="#84D1DA" d="M341.8,250.4c0,16.4-38.4,29.7-85.8,29.7s-85.8-13.3-85.8-29.7l0,0c0-16.4,38.4-29.7,85.8-29.7
							S341.8,234,341.8,250.4z"/>
					</g>
				</g>
			</g>
		</g>
		<g>
			<g>
				<g>
					<g>
						<rect x="167.1" y="179.2" fill="#616363" width="6.3" height="71.2"/>
					</g>
				</g>
			</g>
		</g>
		<g>
			<g>
				<g>
					<g>
						<rect x="338.7" y="179.2" fill="#616363" width="6.3" height="71.2"/>
					</g>
				</g>
			</g>
		</g>
		<g>
			<g>
				<g>
					<g>
						<path fill="#616363" d="M344.9,179.2h-6.3c0-12.6-33.9-26.6-82.6-26.6s-82.6,14-82.6,26.6h-6.3c0-18.7,38.2-32.9,88.9-32.9
							S344.9,160.5,344.9,179.2z"/>
					</g>
				</g>
			</g>
		</g>
		<g>
			<g>
				<g>
					<g>
						<path fill="#616363" d="M256,283.3c-50.7,0-88.9-14.1-88.9-32.9c0-9.4,9.7-17.9,27.2-24c16.5-5.7,38.4-8.9,61.7-8.9
							c50.7,0,88.9,14.1,88.9,32.9S306.7,283.3,256,283.3z M256,223.8c-48.7,0-82.6,14-82.6,26.6c0,12.6,33.9,26.6,82.6,26.6
							c48.7,0,82.6-14,82.6-26.6C338.6,237.9,304.7,223.8,256,223.8z"/>
					</g>
				</g>
			</g>
		</g>
		<g>
			<g>
				<g>
					<g>
						<polygon fill="#616363" points="343,205.6 340.6,199.8 426.7,164.9 256,90.9 85.3,164.9 171.4,199.8 169,205.6 69.1,165.1 
							256,84.1 442.9,165.1 						"/>
					</g>
				</g>
			</g>
		</g>
		<g>
			<g>
				<g>
					<g>
						<rect x="120" y="145.1" fill="#616363" width="6.3" height="105.3"/>
					</g>
				</g>
			</g>
		</g>
		<g>
			<g>
				<g>
					<g>
						<circle fill="#616363" cx="123.1" cy="231.2" r="10"/>
					</g>
				</g>
			</g>
		</g>
		<g>
			<g>
				<g>
					<g>
						<path fill="#616363" d="M113.7,262.4h-6.3v-19.1c0-8.4,6.8-15.2,15.2-15.2v6.3c-4.9,0-8.9,4-8.9,8.9V262.4z"/>
					</g>
				</g>
			</g>
		</g>
		<g>
			<g>
				<g>
					<g>
						<path fill="#616363" d="M138.3,262.4H132v-19.1c0-4.9-4-8.9-8.9-8.9v-6.3c8.4,0,15.2,6.8,15.2,15.2V262.4z"/>
					</g>
				</g>
			</g>
		</g>
		<g>
			<g>
				<g>
					<g>
						<g>
							<g>
								<circle fill="#FCB856" cx="353.7" cy="257.5" r="40.6"/>
							</g>
						</g>
					</g>
				</g>
			</g>
			<g>
				<g>
					<g>
						<g>
							<g>
								<path fill="#616363" d="M353.7,301.2c-24.1,0-43.7-19.6-43.7-43.7s19.6-43.7,43.7-43.7s43.7,19.6,43.7,43.7
									S377.8,301.2,353.7,301.2z M353.7,220c-20.6,0-37.4,16.8-37.4,37.4c0,20.6,16.8,37.4,37.4,37.4s37.4-16.8,37.4-37.4
									C391.1,236.8,374.3,220,353.7,220z"/>
							</g>
						</g>
					</g>
				</g>
			</g>
			<g>
				<g>
					<g>
						<g>
							<g>
								<path fill="#FFFFFF" d="M367,266.2c0,5.8-4.1,9.9-11.1,10.5v6.9h-3.8v-7c-4.2-0.5-8.3-2.3-11.7-5.6l3-3.6
									c3.2,3.1,7.3,4.7,11,4.7c4.2,0,7.3-2.1,7.3-5.7c0-4.1-3.3-5.5-8.6-7.1c-6.3-2-11.9-4-11.9-10.8c0-5.6,3.9-9.8,10.9-10.1
									v-7.2h3.8v7.5c3.5,0.6,7.2,2.2,9.7,4.2l-2.9,3.5c-3-2.2-6.8-3.4-9.6-3.4c-4,0-6.8,1.9-6.8,5.2c0,3.6,3.5,4.9,8.2,6.4
									C361.6,257,367,258.9,367,266.2L367,266.2z"/>
							</g>
						</g>
					</g>
				</g>
			</g>
		</g>
	</g>
</g>
</svg>
