<?xml version="1.0" encoding="utf-8"?>
<!-- Generator: Adobe Illustrator 18.0.0, SVG Export Plug-In . SVG Version: 6.00 Build 0)  -->
<!DOCTYPE svg PUBLIC "-//W3C//DTD SVG 1.1//EN" "http://www.w3.org/Graphics/SVG/1.1/DTD/svg11.dtd">
<svg version="1.1" id="Layer_1" xmlns="http://www.w3.org/2000/svg" xmlns:xlink="http://www.w3.org/1999/xlink" x="0px" y="0px"
	 viewBox="0 0 512 512" enable-background="new 0 0 512 512" xml:space="preserve">
<g>
	<g>
		<text transform="matrix(1 0 0 1 12.0898 416.4982)" fill="#616363" font-family="'AvertaDemo-Regular'" font-size="53.0116">EMERGENCY FUND</text>
	</g>
	<g>
		<g>
			<g>
				<g>
					<g>
						<rect x="139.8" y="139" fill="#84D1DA" width="228.4" height="175.7"/>
					</g>
				</g>
			</g>
		</g>
		<g>
			<g>
				<g>
					<g>
						<polygon fill="#FCB856" points="292.7,225.1 268.2,225.1 268.2,200.6 239.9,200.6 239.9,225.1 215.3,225.1 215.3,253.4 
							239.9,253.4 239.9,278 268.2,278 268.2,253.4 292.7,253.4 						"/>
					</g>
				</g>
			</g>
		</g>
		<g>
			<g>
				<g>
					<g>
						<path fill="#616363" d="M271.3,281.1h-34.6v-24.5l-24.5,0V222h24.5v-24.5h34.6V222l24.5,0v34.6h-24.5V281.1z M243,274.8h22
							v-24.5h24.5v-22l-24.5,0v-24.5h-22v24.5h-24.5v22l24.5,0V274.8z"/>
					</g>
				</g>
			</g>
		</g>
		<g>
			<g>
				<g>
					<g>
						<path fill="#616363" d="M371.4,317.9H136.7v-182h234.7V317.9z M142.9,311.6h222.2V142.1H142.9V311.6z"/>
					</g>
				</g>
			</g>
		</g>
		<g>
			<g>
				<g>
					<g>
						<path fill="#FFFFFF" d="M282.7,100.6h-57.3c-4.1,0-7.4-3.3-7.4-7.4v-0.8c0-4.1,3.3-7.4,7.4-7.4h57.3c4.1,0,7.4,3.3,7.4,7.4
							v0.8C290.1,97.3,286.8,100.6,282.7,100.6z"/>
					</g>
				</g>
			</g>
		</g>
		<g>
			<g>
				<g>
					<g>
						<path fill="#616363" d="M282.7,103.7h-57.3c-5.8,0-10.5-4.7-10.5-10.5v-0.8c0-5.8,4.7-10.5,10.5-10.5h57.3
							c5.8,0,10.5,4.7,10.5,10.5v0.8C293.2,99,288.5,103.7,282.7,103.7z M225.4,88.2c-2.3,0-4.2,1.9-4.2,4.2v0.8
							c0,2.3,1.9,4.2,4.2,4.2h57.3c2.3,0,4.2-1.9,4.2-4.2v-0.8c0-2.3-1.9-4.2-4.2-4.2H225.4z"/>
					</g>
				</g>
			</g>
		</g>
		<g>
			<g>
				<g>
					<g>
						<g>
							<rect x="218.9" y="99.2" fill="#616363" width="6.3" height="19.9"/>
						</g>
					</g>
				</g>
			</g>
			<g>
				<g>
					<g>
						<g>
							<rect x="282.9" y="99.2" fill="#616363" width="6.3" height="19.9"/>
						</g>
					</g>
				</g>
			</g>
		</g>
		<g>
			<g>
				<g>
					<g>
						<g>
							<polygon fill="#CEECF3" points="138.2,158.7 118.1,178.8 159.8,220.4 221.5,158.7 							"/>
						</g>
					</g>
				</g>
			</g>
			<g>
				<g>
					<g>
						<g>
							<path fill="#FCB856" d="M128.3,188.9c5.6-5.6,5.6-14.7,0-20.3l-10.1,10.1L128.3,188.9z"/>
						</g>
					</g>
				</g>
			</g>
			<g>
				<g>
					<g>
						<g>
							<path fill="#FCB856" d="M149.5,210.1c5.6-5.6,14.7-5.6,20.3,0l-10.1,10.1L149.5,210.1z"/>
						</g>
					</g>
				</g>
			</g>
			<g>
				<g>
					<g>
						<g>
							<path fill="#616363" d="M128.3,193.4l-14.6-14.6l14.6-14.6l2.2,2.2c3.3,3.3,5.1,7.7,5.1,12.3c0,4.7-1.8,9.1-5.1,12.3
								L128.3,193.4z M122.6,178.8l5.4,5.4c0.9-1.6,1.4-3.5,1.4-5.4c0-1.9-0.5-3.7-1.4-5.4L122.6,178.8z"/>
						</g>
					</g>
				</g>
			</g>
			<g>
				<g>
					<g>
						<g>
							<path fill="#616363" d="M159.6,224.7L145,210.1l2.2-2.2c3.3-3.3,7.7-5.1,12.3-5.1c4.7,0,9,1.8,12.3,5.1l2.2,2.2L159.6,224.7z
								 M154.2,210.4l5.4,5.4l5.4-5.4C161.7,208.6,157.5,208.6,154.2,210.4z"/>
						</g>
					</g>
				</g>
			</g>
			<g>
				<g>
					<g>
						<g>
							<path fill="#616363" d="M159.8,224.9l-46.1-46.1l23.2-23.2h92.2L159.8,224.9z M122.6,178.8l37.2,37.2l54.2-54.2h-74.4
								L122.6,178.8z"/>
						</g>
					</g>
				</g>
			</g>
			<g>
				<g>
					<g>
						<g>
							<path fill="#FCB856" d="M163.6,158.7c0.2,4.1,1.8,8.2,5,11.3c6.7,6.7,17.5,6.7,24.2,0c3.2-3.2,4.8-7.2,5-11.3H163.6z"/>
						</g>
					</g>
				</g>
			</g>
			<g>
				<g>
					<g>
						<g>
							<path fill="#616363" d="M180.6,178.2c-5.4,0-10.5-2.1-14.3-5.9c-3.6-3.6-5.7-8.3-5.9-13.4l-0.1-3.3H201l-0.1,3.3
								c-0.2,5.1-2.3,9.9-5.9,13.4C191.1,176.1,186,178.2,180.6,178.2z M167.2,161.9c0.6,2.3,1.8,4.3,3.5,6c2.6,2.6,6.2,4.1,9.9,4.1
								s7.3-1.5,9.9-4.1c1.7-1.7,2.9-3.7,3.5-6H167.2z"/>
						</g>
					</g>
				</g>
			</g>
		</g>
		<g>
			<g>
				<g>
					<g>
						<g>
							<rect x="313.3" y="158.7" fill="#CEECF3" width="58.9" height="65.3"/>
						</g>
					</g>
				</g>
			</g>
			<g>
				<g>
					<g>
						<g>
							<path fill="#FCB856" d="M327.7,224c0-7.9-6.4-14.3-14.3-14.3l0,14.3L327.7,224z"/>
						</g>
					</g>
				</g>
			</g>
			<g>
				<g>
					<g>
						<g>
							<path fill="#FCB856" d="M357.7,224c0-7.9,6.4-14.3,14.3-14.3l0,14.3H357.7z"/>
						</g>
					</g>
				</g>
			</g>
			<g>
				<g>
					<g>
						<g>
							<path fill="#616363" d="M330.8,227.2h-20.6v-20.6h3.1c9.6,0,17.5,7.8,17.5,17.5V227.2z M316.5,220.9h7.6
								c-1.1-3.7-4-6.5-7.6-7.6V220.9z"/>
						</g>
					</g>
				</g>
			</g>
			<g>
				<g>
					<g>
						<g>
							<path fill="#616363" d="M375.1,227.2h-20.6V224c0-9.6,7.8-17.5,17.5-17.5h3.1V227.2z M361.2,220.9h7.6v-7.6
								C365.2,214.4,362.3,217.3,361.2,220.9z"/>
						</g>
					</g>
				</g>
			</g>
			<g>
				<g>
					<g>
						<g>
							<path fill="#616363" d="M375.4,227.2h-65.2v-71.6h65.2L375.4,227.2z M316.5,220.9h52.6l0-59.1h-52.6V220.9z"/>
						</g>
					</g>
				</g>
			</g>
			<g>
				<g>
					<g>
						<g>
							<path fill="#FCB856" d="M326.9,158.7c-0.8,2-1.3,4.1-1.3,6.4c0,9.5,7.7,17.1,17.1,17.1c9.5,0,17.1-7.7,17.1-17.1
								c0-2.3-0.5-4.4-1.3-6.4H326.9z"/>
						</g>
					</g>
				</g>
			</g>
			<g>
				<g>
					<g>
						<g>
							<path fill="#616363" d="M342.8,185.4c-11.2,0-20.3-9.1-20.3-20.3c0-2.6,0.5-5.2,1.5-7.6l0.8-2h36l0.8,2c1,2.4,1.5,5,1.5,7.6
								C363.1,176.3,354,185.4,342.8,185.4z M329.2,161.9c-0.3,1.1-0.4,2.2-0.4,3.3c0,7.7,6.3,14,14,14c7.7,0,14-6.3,14-14
								c0-1.1-0.1-2.2-0.4-3.3H329.2z"/>
						</g>
					</g>
				</g>
			</g>
		</g>
		<g>
			<g>
				<g>
					<g>
						<rect x="126.5" y="119.1" fill="#84D1DA" width="255" height="39.7"/>
					</g>
				</g>
			</g>
		</g>
		<g>
			<g>
				<g>
					<g>
						<path fill="#616363" d="M384.7,162H123.4v-46h261.3V162z M129.6,155.7h248.8v-33.5H129.6V155.7z"/>
					</g>
				</g>
			</g>
		</g>
	</g>
</g>
</svg>
