<?xml version="1.0" encoding="utf-8"?>
<!-- Generator: Adobe Illustrator 18.0.0, SVG Export Plug-In . SVG Version: 6.00 Build 0)  -->
<!DOCTYPE svg PUBLIC "-//W3C//DTD SVG 1.1//EN" "http://www.w3.org/Graphics/SVG/1.1/DTD/svg11.dtd">
<svg version="1.1" id="Layer_1" xmlns="http://www.w3.org/2000/svg" xmlns:xlink="http://www.w3.org/1999/xlink" x="0px" y="0px"
	 viewBox="0 0 512 512" enable-background="new 0 0 512 512" xml:space="preserve">
<g>
	<g>
		<text transform="matrix(1 0 0 1 176.6055 417.7354)" fill="#616363" font-family="'AvertaDemo-Regular'" font-size="53.0116">EURO</text>
	</g>
	<g>
		<g>
			<g>
				<g>
					<g>
						<g>
							<rect x="72" y="83.8" fill="#CEECF3" width="272.9" height="136.5"/>
						</g>
					</g>
				</g>
			</g>
			<g>
				<g>
					<g>
						<g>
							<path fill="#FCB856" d="M72,117c18.3,0,33.2-14.9,33.2-33.2H72L72,117z"/>
						</g>
					</g>
				</g>
			</g>
			<g>
				<g>
					<g>
						<g>
							<path fill="#FCB856" d="M344.9,117c-18.3,0-33.2-14.9-33.2-33.2h33.2V117z"/>
						</g>
					</g>
				</g>
			</g>
			<g>
				<g>
					<g>
						<g>
							<path fill="#FCB856" d="M344.9,186.4c-18.3,0-33.2,14.9-33.2,33.2l33.2,0V186.4z"/>
						</g>
					</g>
				</g>
			</g>
			<g>
				<g>
					<g>
						<g>
							<path fill="#FCB856" d="M72,186.4c18.3,0,33.2,14.9,33.2,33.2l-33.2,0V186.4z"/>
						</g>
					</g>
				</g>
			</g>
			<g>
				<g>
					<g>
						<g>
							<path fill="#616363" d="M72,120.1h-3.1V80.6h39.5v3.1C108.3,103.8,92,120.1,72,120.1z M75.1,86.9v26.7
								c14.1-1.5,25.3-12.7,26.7-26.7H75.1z"/>
						</g>
					</g>
				</g>
			</g>
			<g>
				<g>
					<g>
						<g>
							<path fill="#616363" d="M348.1,120.1h-3.1c-20,0-36.3-16.3-36.3-36.3v-3.1h39.5V120.1z M315.1,86.9
								c1.5,14.1,12.7,25.3,26.7,26.7V86.9H315.1z"/>
						</g>
					</g>
				</g>
			</g>
			<g>
				<g>
					<g>
						<g>
							<path fill="#616363" d="M348.1,222.7h-39.5v-3.1c0-20,16.3-36.3,36.3-36.3h3.1V222.7z M315.1,216.5h26.7v-26.7
								C327.7,191.2,316.5,202.4,315.1,216.5z"/>
						</g>
					</g>
				</g>
			</g>
			<g>
				<g>
					<g>
						<g>
							<path fill="#616363" d="M108.3,222.7H68.8v-39.5H72c20,0,36.3,16.3,36.3,36.3V222.7z M75.1,216.5h26.7
								c-1.5-14.1-12.7-25.3-26.7-26.7V216.5z"/>
						</g>
					</g>
				</g>
			</g>
			<g>
				<g>
					<g>
						<g>
							<path fill="#616363" d="M348,223.4H68.8V80.6H348V223.4z M75.1,217.1h266.6V86.9H75.1V217.1z"/>
						</g>
					</g>
				</g>
			</g>
			<g>
				<g>
					<g>
						<g>
							<circle fill="#FCB856" cx="208.4" cy="152" r="39.7"/>
						</g>
					</g>
				</g>
			</g>
			<g>
				<g>
					<g>
						<g>
							<path fill="#616363" d="M208.4,194.8c-23.6,0-42.8-19.2-42.8-42.8c0-23.6,19.2-42.8,42.8-42.8c23.6,0,42.8,19.2,42.8,42.8
								C251.2,175.6,232,194.8,208.4,194.8z M208.4,115.5c-20.1,0-36.5,16.4-36.5,36.5s16.4,36.5,36.5,36.5S245,172.2,245,152
								S228.6,115.5,208.4,115.5z"/>
						</g>
					</g>
				</g>
			</g>
		</g>
		<g>
			<g>
				<g>
					<g>
						<g>
							<rect x="99.5" y="108" fill="#CEECF3" width="272.9" height="136.5"/>
						</g>
					</g>
				</g>
			</g>
			<g>
				<g>
					<g>
						<g>
							<path fill="#FCB856" d="M99.5,141.2c18.3,0,33.2-14.9,33.2-33.2H99.5V141.2z"/>
						</g>
					</g>
				</g>
			</g>
			<g>
				<g>
					<g>
						<g>
							<path fill="#FCB856" d="M372.5,141.2c-18.3,0-33.2-14.9-33.2-33.2h33.2V141.2z"/>
						</g>
					</g>
				</g>
			</g>
			<g>
				<g>
					<g>
						<g>
							<path fill="#FCB856" d="M372.5,210.7c-18.3,0-33.2,14.9-33.2,33.2l33.2,0V210.7z"/>
						</g>
					</g>
				</g>
			</g>
			<g>
				<g>
					<g>
						<g>
							<path fill="#FCB856" d="M99.5,210.7c18.3,0,33.2,14.9,33.2,33.2H99.5V210.7z"/>
						</g>
					</g>
				</g>
			</g>
			<g>
				<g>
					<g>
						<g>
							<path fill="#616363" d="M99.5,144.4h-3.1v-39.5h39.5v3.1C135.8,128.1,119.5,144.4,99.5,144.4z M102.6,111.2v26.7
								c14.1-1.5,25.3-12.7,26.7-26.7H102.6z"/>
						</g>
					</g>
				</g>
			</g>
			<g>
				<g>
					<g>
						<g>
							<path fill="#616363" d="M375.6,144.4h-3.1c-20,0-36.3-16.3-36.3-36.3v-3.1h39.5V144.4z M342.6,111.2
								c1.5,14.1,12.7,25.3,26.7,26.7v-26.7H342.6z"/>
						</g>
					</g>
				</g>
			</g>
			<g>
				<g>
					<g>
						<g>
							<path fill="#616363" d="M375.6,247h-39.5v-3.1c0-20,16.3-36.3,36.3-36.3h3.1V247z M342.6,240.7h26.7V214
								C355.3,215.4,344.1,226.7,342.6,240.7z"/>
						</g>
					</g>
				</g>
			</g>
			<g>
				<g>
					<g>
						<g>
							<path fill="#616363" d="M135.8,247H96.4v-39.5h3.1c20,0,36.3,16.3,36.3,36.3V247z M102.6,240.7h26.7
								c-1.5-14.1-12.7-25.3-26.7-26.7V240.7z"/>
						</g>
					</g>
				</g>
			</g>
			<g>
				<g>
					<g>
						<g>
							<path fill="#616363" d="M375.6,247.6H96.4V104.9h279.2V247.6z M102.6,241.4h266.6V111.2H102.6V241.4z"/>
						</g>
					</g>
				</g>
			</g>
			<g>
				<g>
					<g>
						<g>
							<circle fill="#FCB856" cx="236" cy="176.3" r="39.7"/>
						</g>
					</g>
				</g>
			</g>
			<g>
				<g>
					<g>
						<g>
							<path fill="#616363" d="M236,219.1c-23.6,0-42.8-19.2-42.8-42.8c0-23.6,19.2-42.8,42.8-42.8c23.6,0,42.8,19.2,42.8,42.8
								C278.8,199.9,259.6,219.1,236,219.1z M236,139.7c-20.1,0-36.5,16.4-36.5,36.5s16.4,36.5,36.5,36.5s36.5-16.4,36.5-36.5
								S256.1,139.7,236,139.7z"/>
						</g>
					</g>
				</g>
			</g>
		</g>
		<g>
			<g>
				<g>
					<g>
						<rect x="127.1" y="132.3" fill="#CEECF3" width="272.9" height="136.5"/>
					</g>
				</g>
			</g>
		</g>
		<g>
			<g>
				<g>
					<g>
						<path fill="#FCB856" d="M127.1,165.5c18.3,0,33.2-14.9,33.2-33.2h-33.2V165.5z"/>
					</g>
				</g>
			</g>
		</g>
		<g>
			<g>
				<g>
					<g>
						<path fill="#FCB856" d="M400,165.5c-18.3,0-33.2-14.9-33.2-33.2H400V165.5z"/>
					</g>
				</g>
			</g>
		</g>
		<g>
			<g>
				<g>
					<g>
						<path fill="#FCB856" d="M400,234.9c-18.3,0-33.2,14.9-33.2,33.2H400V234.9z"/>
					</g>
				</g>
			</g>
		</g>
		<g>
			<g>
				<g>
					<g>
						<path fill="#FCB856" d="M127.1,234.9c18.3,0,33.2,14.9,33.2,33.2h-33.2V234.9z"/>
					</g>
				</g>
			</g>
		</g>
		<g>
			<g>
				<g>
					<g>
						<path fill="#616363" d="M127.1,168.6h-3.1v-39.5h39.5v3.1C163.4,152.3,147.1,168.6,127.1,168.6z M130.2,135.4v26.7
							c14.1-1.5,25.3-12.7,26.7-26.7H130.2z"/>
					</g>
				</g>
			</g>
		</g>
		<g>
			<g>
				<g>
					<g>
						<path fill="#616363" d="M403.2,168.6H400c-20,0-36.3-16.3-36.3-36.3v-3.1h39.5V168.6z M370.2,135.4
							c1.5,14.1,12.7,25.3,26.7,26.7v-26.7H370.2z"/>
					</g>
				</g>
			</g>
		</g>
		<g>
			<g>
				<g>
					<g>
						<path fill="#616363" d="M403.2,271.2h-39.5v-3.1c0-20,16.3-36.3,36.3-36.3h3.1V271.2z M370.2,265h26.7v-26.7
							C382.8,239.7,371.6,250.9,370.2,265z"/>
					</g>
				</g>
			</g>
		</g>
		<g>
			<g>
				<g>
					<g>
						<path fill="#616363" d="M163.4,271.2h-39.5v-39.5h3.1c20,0,36.3,16.3,36.3,36.3V271.2z M130.2,265h26.7
							c-1.5-14.1-12.7-25.3-26.7-26.7V265z"/>
					</g>
				</g>
			</g>
		</g>
		<g>
			<g>
				<g>
					<g>
						<path fill="#616363" d="M403.1,271.9H123.9V129.2h279.2V271.9z M130.2,265.6h266.6V135.4H130.2V265.6z"/>
					</g>
				</g>
			</g>
		</g>
		<g>
			<g>
				<g>
					<g>
						<circle fill="#FCB856" cx="263.5" cy="200.5" r="39.7"/>
					</g>
				</g>
			</g>
		</g>
		<g>
			<g>
				<g>
					<g>
						<path fill="#616363" d="M263.5,243.3c-23.6,0-42.8-19.2-42.8-42.8c0-23.6,19.2-42.8,42.8-42.8c23.6,0,42.8,19.2,42.8,42.8
							C306.3,224.1,287.1,243.3,263.5,243.3z M263.5,164c-20.1,0-36.5,16.4-36.5,36.5s16.4,36.5,36.5,36.5s36.5-16.4,36.5-36.5
							S283.7,164,263.5,164z"/>
					</g>
				</g>
			</g>
		</g>
		<g>
			<g>
				<g>
					<g>
						<g>
							<circle fill="#FFFFFF" cx="388.8" cy="266.1" r="51.2"/>
						</g>
					</g>
				</g>
			</g>
			<g>
				<g>
					<g>
						<g>
							<path fill="#616363" d="M388.8,320.5c-30,0-54.4-24.4-54.4-54.4s24.4-54.4,54.4-54.4s54.4,24.4,54.4,54.4
								S418.8,320.5,388.8,320.5z M388.8,218c-26.5,0-48.1,21.6-48.1,48.1s21.6,48.1,48.1,48.1c26.5,0,48.1-21.6,48.1-48.1
								S415.3,218,388.8,218z"/>
						</g>
					</g>
				</g>
			</g>
			<g>
				<g>
					<g>
						<g>
							<g>
								<g>
									<path fill="#FCB856" d="M392.2,293.7c-15.2,0-27.6-12.4-27.6-27.6c0-15.2,12.4-27.6,27.6-27.6c5.4,0,10.6,1.6,15.1,4.5
										l-3.2,4.9c-3.5-2.3-7.6-3.5-11.9-3.5c-12,0-21.8,9.8-21.8,21.7c0,12,9.8,21.8,21.8,21.8c5,0,9.9-1.7,13.7-4.9l3.7,4.6
										C404.7,291.5,398.6,293.7,392.2,293.7z"/>
								</g>
							</g>
						</g>
					</g>
				</g>
				<g>
					<g>
						<g>
							<g>
								<g>
									<rect x="357.2" y="263.2" fill="#FCB856" width="41.7" height="5.9"/>
								</g>
							</g>
						</g>
					</g>
				</g>
			</g>
		</g>
		<g>
			<g>
				<g>
					<g>
						<g>
							<g>
								<path fill="#FFFFFF" d="M266.7,224.8c-13.4,0-24.3-10.9-24.3-24.3c0-13.4,10.9-24.3,24.3-24.3c4.7,0,9.3,1.4,13.3,3.9
									l-2.8,4.3c-3.1-2-6.7-3.1-10.4-3.1c-10.5,0-19.1,8.6-19.1,19.1c0,10.5,8.6,19.1,19.1,19.1c4.4,0,8.6-1.5,12-4.3l3.3,4
									C277.7,222.8,272.3,224.8,266.7,224.8z"/>
							</g>
						</g>
					</g>
				</g>
			</g>
			<g>
				<g>
					<g>
						<g>
							<g>
								<rect x="236" y="197.9" fill="#FFFFFF" width="36.6" height="5.2"/>
							</g>
						</g>
					</g>
				</g>
			</g>
		</g>
	</g>
</g>
</svg>
