<?xml version="1.0" encoding="utf-8"?>
<!-- Generator: Adobe Illustrator 18.0.0, SVG Export Plug-In . SVG Version: 6.00 Build 0)  -->
<!DOCTYPE svg PUBLIC "-//W3C//DTD SVG 1.1//EN" "http://www.w3.org/Graphics/SVG/1.1/DTD/svg11.dtd">
<svg version="1.1" id="Layer_1" xmlns="http://www.w3.org/2000/svg" xmlns:xlink="http://www.w3.org/1999/xlink" x="0px" y="0px"
	 viewBox="0 0 512 512" enable-background="new 0 0 512 512" xml:space="preserve">
<g>
	<g>
		<text transform="matrix(1 0 0 1 111.2148 425.0479)" fill="#616363" font-family="'AvertaDemo-Regular'" font-size="53.0116">EXCHANGE</text>
	</g>
	<g>
		<g>
			<g>
				<g>
					<g>
						<circle fill="#84D1DA" cx="254.7" cy="202.1" r="128.8"/>
					</g>
				</g>
			</g>
		</g>
		<g>
			<g>
				<g>
					<g>
						<g>
							<circle fill="#FCB856" cx="185.3" cy="248.5" r="59.1"/>
						</g>
					</g>
				</g>
			</g>
			<g>
				<g>
					<g>
						<g>
							<g>
								<path fill="#FFFFFF" d="M205,261.5c0,8.6-6.1,14.7-16.3,15.5v10.2H183v-10.3c-6.3-0.7-12.3-3.5-17.3-8.3l4.4-5.3
									c4.7,4.6,10.8,7,16.3,7c6.2,0,10.8-3.1,10.8-8.4c0-6.1-4.9-8.1-12.7-10.5c-9.2-3-17.6-5.9-17.6-15.9c0-8.2,5.7-14.4,16-14.9
									v-10.7h5.6v11c5.1,0.9,10.6,3.2,14.4,6.1l-4.2,5.2c-4.5-3.2-10.1-5-14.2-5c-5.9,0-10,2.8-10,7.7c0,5.3,5.1,7.2,12.2,9.5
									C197.1,247.8,205,250.6,205,261.5L205,261.5z"/>
							</g>
						</g>
					</g>
				</g>
			</g>
			<g>
				<g>
					<g>
						<g>
							<circle fill="#FFFFFF" cx="324" cy="155.8" r="59.1"/>
						</g>
					</g>
				</g>
			</g>
			<g>
				<g>
					<g>
						<g>
							<path fill="#616363" d="M185.3,310.8c-34.3,0-62.3-27.9-62.3-62.3s27.9-62.3,62.3-62.3s62.3,27.9,62.3,62.3
								S219.7,310.8,185.3,310.8z M185.3,192.5c-30.9,0-56,25.1-56,56s25.1,56,56,56s56-25.1,56-56S216.2,192.5,185.3,192.5z"/>
						</g>
					</g>
				</g>
			</g>
			<g>
				<g>
					<g>
						<g>
							<path fill="#616363" d="M324,218c-34.3,0-62.3-27.9-62.3-62.3s27.9-62.3,62.3-62.3s62.3,27.9,62.3,62.3S358.3,218,324,218z
								 M324,99.8c-30.9,0-56,25.1-56,56c0,30.9,25.1,56,56,56s56-25.1,56-56C380,124.9,354.9,99.8,324,99.8z"/>
						</g>
					</g>
				</g>
			</g>
			<g>
				<g>
					<g>
						<g>
							<path fill="#616363" d="M188.5,169.5h-6.3v-22.7c0-24.8,20.2-44.9,44.9-44.9h36.9v6.3h-36.9c-21.3,0-38.7,17.3-38.7,38.7
								V169.5z"/>
						</g>
					</g>
				</g>
			</g>
			<g>
				<g>
					<g>
						<g>
							<path fill="#616363" d="M282.2,303.7h-36.9v-6.3h36.9c21.3,0,38.7-17.3,38.7-38.7v-22.7h6.3v22.7
								C327.1,283.6,307,303.7,282.2,303.7z"/>
						</g>
					</g>
				</g>
			</g>
		</g>
		<g>
			<g>
				<g>
					<g>
						<polygon fill="#616363" points="306.5,258.3 302,253.9 324.2,231.7 346,253.4 341.5,257.9 324.2,240.6 						"/>
					</g>
				</g>
			</g>
		</g>
		<g>
			<g>
				<g>
					<g>
						<polygon fill="#616363" points="185.1,174 163.4,152.2 167.8,147.8 185.1,165.1 202.9,147.3 207.3,151.8 						"/>
					</g>
				</g>
			</g>
		</g>
		<g>
			<g>
				<g>
					<g>
						<g>
							<g>
								<path fill="#FCB856" d="M326.6,189.2c-18.3,0-33.1-14.9-33.1-33.1c0-18.3,14.9-33.1,33.1-33.1c6.5,0,12.7,1.9,18.1,5.4
									l-3.9,5.9c-4.2-2.8-9.2-4.2-14.3-4.2c-14.4,0-26.1,11.7-26.1,26.1c0,14.4,11.7,26.1,26.1,26.1c6,0,11.8-2.1,16.4-5.8
									l4.5,5.5C341.6,186.6,334.2,189.2,326.6,189.2z"/>
							</g>
						</g>
					</g>
				</g>
			</g>
			<g>
				<g>
					<g>
						<g>
							<g>
								<rect x="284.6" y="152.6" fill="#FCB856" width="50" height="7.1"/>
							</g>
						</g>
					</g>
				</g>
			</g>
		</g>
	</g>
</g>
</svg>
