<?xml version="1.0" encoding="utf-8"?>
<!-- Generator: Adobe Illustrator 18.0.0, SVG Export Plug-In . SVG Version: 6.00 Build 0)  -->
<!DOCTYPE svg PUBLIC "-//W3C//DTD SVG 1.1//EN" "http://www.w3.org/Graphics/SVG/1.1/DTD/svg11.dtd">
<svg version="1.1" id="Layer_1" xmlns="http://www.w3.org/2000/svg" xmlns:xlink="http://www.w3.org/1999/xlink" x="0px" y="0px"
	 viewBox="0 0 512 512" enable-background="new 0 0 512 512" xml:space="preserve">
<g>
	<g>
		<text transform="matrix(1 0 0 1 25.1357 436.2151)" fill="#616363" font-family="'AvertaDemo-Regular'" font-size="53.0116">FUNDS TRANSFER</text>
	</g>
	<g>
		<g>
			<g>
				<g>
					<g>
						<circle fill="#FCB856" cx="238.5" cy="204.3" r="48.5"/>
					</g>
				</g>
			</g>
		</g>
		<g>
			<g>
				<g>
					<g>
						<path fill="#616363" d="M238.5,255.9c-2.4,0-4.8-0.2-7.2-0.5c-28.2-3.9-47.9-30.1-44-58.2c3.5-25.3,25.5-44.5,51-44.5
							c2.4,0,4.8,0.2,7.2,0.5c13.6,1.9,25.7,9,34,20c8.3,11,11.8,24.6,9.9,38.2C286,236.8,264.1,255.9,238.5,255.9z M238.4,159
							c-22.4,0-41.7,16.8-44.8,39.1c-3.5,24.7,13.9,47.7,38.6,51.1c2.1,0.3,4.2,0.4,6.3,0.4c22.4,0,41.7-16.8,44.8-39.1
							c1.7-12-1.4-23.9-8.7-33.6c-7.3-9.7-17.9-15.9-29.9-17.6C242.7,159.2,240.5,159,238.4,159z"/>
					</g>
				</g>
			</g>
		</g>
		<g>
			<g>
				<g>
					<g>
						<g>
							<path fill="#FFFFFF" d="M254.6,214.9c0,7.1-5,12-13.4,12.7v8.4h-4.6v-8.4c-5.1-0.6-10.1-2.8-14.2-6.8l3.6-4.3
								c3.9,3.8,8.9,5.7,13.3,5.7c5.1,0,8.9-2.5,8.9-6.9c0-5-4-6.6-10.4-8.6c-7.6-2.4-14.5-4.8-14.5-13c0-6.7,4.7-11.8,13.1-12.2
								v-8.8h4.6v9.1c4.2,0.7,8.7,2.6,11.8,5l-3.5,4.3c-3.6-2.6-8.2-4.1-11.7-4.1c-4.8,0-8.2,2.3-8.2,6.3c0,4.3,4.2,5.9,10,7.8
								C248.1,203.8,254.6,206,254.6,214.9L254.6,214.9z"/>
						</g>
					</g>
				</g>
			</g>
		</g>
		<g>
			<g>
				<g>
					<g>
						<path fill="#84D1DA" d="M344.6,118.4L306.3,71v27.1h-68.8c-45.8,0-82.9,37.1-82.9,82.9v21.5l7.6-17
							c13.3-29.9,43-49.1,75.7-49.1h68.4v29.3L344.6,118.4z"/>
					</g>
				</g>
			</g>
		</g>
		<g>
			<g>
				<g>
					<g>
						<path fill="#616363" d="M151.5,217.3V181c0-47.4,38.6-86,86-86h65.7V62.2l45.4,56.2l-45.4,56.2v-35.1h-65.3
							c-31.4,0-60,18.6-72.8,47.3L151.5,217.3z M237.5,101.3c-44,0-79.7,35.8-79.7,79.7v6.8l1.6-3.5c13.8-31,44.6-51,78.6-51h71.5
							v23.6l31.1-38.5l-31.1-38.5v21.4H237.5z"/>
					</g>
				</g>
			</g>
		</g>
		<g>
			<g>
				<g>
					<g>
						<path fill="#84D1DA" d="M127.4,290l38.2,47.3l0-27.1h68.8c45.8,0,82.9-37.1,82.9-82.9l0-21.5l-7.6,17
							c-13.3,29.9-43,49.1-75.7,49.1l-68.4,0l0-29.3L127.4,290z"/>
					</g>
				</g>
			</g>
		</g>
		<g>
			<g>
				<g>
					<g>
						<path fill="#616363" d="M168.8,346.2L123.4,290l45.4-56.2v35.1h65.3c31.4,0,60-18.6,72.8-47.3l13.6-30.5v36.3
							c0,47.4-38.6,86-86,86h-65.7V346.2z M131.5,290l31.1,38.5v-21.4h71.9c44,0,79.7-35.8,79.7-79.7v-6.8l-1.6,3.5
							c-13.8,31-44.6,51-78.6,51h-71.5v-23.6L131.5,290z"/>
					</g>
				</g>
			</g>
		</g>
	</g>
</g>
</svg>
