<?xml version="1.0" encoding="utf-8"?>
<!-- Generator: Adobe Illustrator 18.0.0, SVG Export Plug-In . SVG Version: 6.00 Build 0)  -->
<!DOCTYPE svg PUBLIC "-//W3C//DTD SVG 1.1//EN" "http://www.w3.org/Graphics/SVG/1.1/DTD/svg11.dtd">
<svg version="1.1" id="Layer_1" xmlns="http://www.w3.org/2000/svg" xmlns:xlink="http://www.w3.org/1999/xlink" x="0px" y="0px"
	 viewBox="0 0 512 512" enable-background="new 0 0 512 512" xml:space="preserve">
<g>
	<g>
		<text transform="matrix(1 0 0 1 160.1191 430.4839)" fill="#616363" font-family="'AvertaDemo-Regular'" font-size="53.0116">GAZELLE</text>
	</g>
	<g>
		<g>
			<g>
				<g>
					<g>
						<g>
							<polygon fill="#FFFFFF" points="296.9,214.7 407.2,175.6 407.2,148.5 303.9,148.5 229.9,148.5 229.9,214.7 							"/>
						</g>
					</g>
				</g>
			</g>
			<g>
				<g>
					<g>
						<g>
							<polygon fill="#FCB856" points="321.5,148.5 239.9,109.5 164.1,109.5 104.1,70.5 155.6,130.2 219.2,130.2 251.8,148.5 
															"/>
						</g>
					</g>
				</g>
			</g>
			<g>
				<g>
					<g>
						<g>
							<path fill="#616363" d="M321.5,151.6h-69.7l-1.5-0.4l-31.9-17.9h-62.8l-2.4-1.1l-51.5-59.7l4.1-4.7l59.3,38.5h74.8l1.4,0.3
								l81.6,39L321.5,151.6z M252.6,145.3h55l-68.5-32.7h-75l-1.7-0.5l-41.5-27L157,127h62.1l1.5,0.4L252.6,145.3z"/>
						</g>
					</g>
				</g>
			</g>
			<g>
				<g>
					<g>
						<g>
							<path fill="#FFFFFF" d="M407.2,148.5H303.9h-74V206v8.7c1.5,12.1-2,24.4-9.1,36.8c-12.3,19.4-29.8,31.7-57.1,31.7l0,17.8
								h143.7c-2-9-9-16.1-12.5-23.1c-14.1-28.2,0-58.2,26.6-71.9l0,0l85.7-30.4V148.5z"/>
						</g>
					</g>
				</g>
			</g>
			<g>
				<g>
					<g>
						<g>
							<path fill="#616363" d="M311.3,304.1H160.6V280h3.1c24,0,41.3-9.6,54.4-30.3c7-12.3,9.9-24,8.6-34.7l0-0.4v-69.3h183.6v32.5
								l-87.6,31c-26.6,13.9-37.4,42.9-25,67.6c1.2,2.3,2.8,4.7,4.5,7.2c3.2,4.8,6.9,10.2,8.3,16.6L311.3,304.1z M166.9,297.8h136.3
								c-1.5-3.7-3.9-7.2-6.2-10.6c-1.8-2.7-3.6-5.3-4.9-7.9c-14-27.9-1.9-60.7,28-76.1l0.4-0.2l83.6-29.6v-21.8H233v62.8
								c1.5,12-1.7,25-9.5,38.5c-13.7,21.5-32.2,32.4-56.7,33.3V297.8z"/>
						</g>
					</g>
				</g>
			</g>
			<g>
				<g>
					<g>
						<g>
							<path fill="#FFFFFF" d="M280.1,164.4l-49.2-27.5l0,0c-8.9,15.9-3.2,36.1,12.7,45l20.4,11.4L280.1,164.4z"/>
						</g>
					</g>
				</g>
			</g>
			<g>
				<g>
					<g>
						<g>
							<path fill="#616363" d="M262.4,196l-20.4-11.4c-8.4-4.7-14.5-12.5-17.2-21.8c-2.6-9.3-1.5-19.1,3.2-27.5l1.5-2.7l52,29.1
								l-3.1,5.5l-46.4-25.9c-2.7,6.3-3.2,13.3-1.3,19.9c2.2,7.7,7.2,14.1,14.2,18l20.4,11.4L262.4,196z"/>
						</g>
					</g>
				</g>
			</g>
			<g>
				<g>
					<g>
						<g>
							
								<rect x="134" y="92.7" transform="matrix(0.5835 0.8121 -0.8121 0.5835 137.6515 -70.0216)" fill="#616363" width="6.3" height="13"/>
						</g>
					</g>
				</g>
			</g>
			<g>
				<g>
					<g>
						<g>
							
								<rect x="150.5" y="103.9" transform="matrix(0.6241 0.7813 -0.7813 0.6241 146.3443 -77.3837)" fill="#616363" width="6.3" height="18.9"/>
						</g>
					</g>
				</g>
			</g>
			<g>
				<g>
					<g>
						<g>
							
								<rect x="176" y="103.3" transform="matrix(0.6244 0.7811 -0.7811 0.6244 160.9036 -94.9243)" fill="#616363" width="6.3" height="33.1"/>
						</g>
					</g>
				</g>
			</g>
			<g>
				<g>
					<g>
						<g>
							
								<rect x="233" y="107.8" transform="matrix(0.6338 0.7735 -0.7735 0.6338 181.7596 -137.5109)" fill="#616363" width="6.3" height="30.9"/>
						</g>
					</g>
				</g>
			</g>
			<g>
				<g>
					<g>
						<g>
							
								<rect x="206.5" y="103.5" transform="matrix(0.6328 0.7743 -0.7743 0.6328 169.7928 -118.3255)" fill="#616363" width="6.3" height="32.7"/>
						</g>
					</g>
				</g>
			</g>
			<g>
				<g>
					<g>
						<g>
							
								<rect x="254.5" y="118" transform="matrix(0.6252 0.7805 -0.7805 0.6252 201.3611 -150.7674)" fill="#616363" width="6.3" height="32.6"/>
						</g>
					</g>
				</g>
			</g>
			<g>
				<g>
					<g>
						<g>
							
								<rect x="280.4" y="130.3" transform="matrix(0.6211 0.7837 -0.7837 0.6211 218.3329 -168.5791)" fill="#616363" width="6.3" height="22.4"/>
						</g>
					</g>
				</g>
			</g>
			<g>
				<g>
					<g>
						<g>
							<path fill="#616363" d="M296,222.3c-12.8,0-23.1-10.4-23.1-23.1h6.3c0,9.3,7.6,16.9,16.9,16.9c4.1,0,8-1.5,11.1-4.1l4.1,4.7
								C307,220.3,301.6,222.3,296,222.3z"/>
						</g>
					</g>
				</g>
			</g>
		</g>
		<g>
			<g>
				<polygon fill="#616363" points="323.6,286.6 319.3,282.1 347.3,254.9 363.9,274.3 394.1,244.5 398.5,249 363.5,283.5 
					346.8,264.1 				"/>
			</g>
			<g>
				<polygon fill="#616363" points="401.1,267.6 394.8,267.6 394.8,249.9 376.4,249.9 376.4,243.6 401.1,243.6 				"/>
			</g>
		</g>
	</g>
</g>
</svg>
