<?xml version="1.0" encoding="utf-8"?>
<!-- Generator: Adobe Illustrator 18.0.0, SVG Export Plug-In . SVG Version: 6.00 Build 0)  -->
<!DOCTYPE svg PUBLIC "-//W3C//DTD SVG 1.1//EN" "http://www.w3.org/Graphics/SVG/1.1/DTD/svg11.dtd">
<svg version="1.1" id="Layer_1" xmlns="http://www.w3.org/2000/svg" xmlns:xlink="http://www.w3.org/1999/xlink" x="0px" y="0px"
	 viewBox="0 0 512 512" enable-background="new 0 0 512 512" xml:space="preserve">
<g>
	<g>
		<text transform="matrix(1 0 0 1 176.79 419.467)" fill="#616363" font-family="'AvertaDemo-Regular'" font-size="53.0116">GOLD</text>
	</g>
	<g>
		<g>
			<g>
				<g>
					<g>
						<g>
							<g>
								<polygon fill="#FCB856" points="171.3,264.8 139.4,264.8 107.5,264.8 81.1,316.9 139.4,316.9 197.7,316.9 								"/>
							</g>
						</g>
					</g>
				</g>
				<g>
					<g>
						<g>
							<g>
								<polygon fill="#FCB856" points="231.5,212.6 199.6,212.6 167.7,212.6 141.3,264.8 199.6,264.8 257.9,264.8 								"/>
							</g>
						</g>
					</g>
				</g>
				<g>
					<g>
						<g>
							<g>
								<polygon fill="#FCB856" points="287.9,264.8 256,264.8 224.1,264.8 197.7,316.9 256,316.9 314.3,316.9 								"/>
							</g>
						</g>
					</g>
				</g>
				<g>
					<g>
						<g>
							<g>
								<polygon fill="#FCB856" points="348.1,212.6 316.2,212.6 284.3,212.6 257.9,264.8 316.2,264.8 374.5,264.8 								"/>
							</g>
						</g>
					</g>
				</g>
				<g>
					<g>
						<g>
							<g>
								<polygon fill="#FCB856" points="292,160.5 260.1,160.5 228.2,160.5 201.8,212.6 260.1,212.6 318.4,212.6 								"/>
							</g>
						</g>
					</g>
				</g>
				<g>
					<g>
						<g>
							<g>
								<polygon fill="#FCB856" points="404.5,264.8 372.6,264.8 340.7,264.8 314.3,316.9 372.6,316.9 430.9,316.9 								"/>
							</g>
						</g>
					</g>
				</g>
			</g>
			<g>
				<g>
					<g>
						<g>
							<g>
								<path fill="#616363" d="M202.8,320H76l29.6-58.4h67.6L202.8,320z M86.2,313.8h106.4l-23.2-45.9h-59.9L86.2,313.8z"/>
							</g>
						</g>
					</g>
				</g>
				<g>
					<g>
						<g>
							<g>
								<path fill="#616363" d="M263,267.9H136.2l29.6-58.4h67.6L263,267.9z M146.4,261.6h106.4l-23.2-45.9h-59.9L146.4,261.6z"/>
							</g>
						</g>
					</g>
				</g>
				<g>
					<g>
						<g>
							<g>
								<path fill="#616363" d="M319.4,320H192.6l29.6-58.4h67.6L319.4,320z M202.8,313.8h106.4l-23.2-45.9h-59.9L202.8,313.8z"/>
							</g>
						</g>
					</g>
				</g>
				<g>
					<g>
						<g>
							<g>
								<path fill="#616363" d="M379.6,267.9H252.8l29.6-58.4H350L379.6,267.9z M263,261.6h106.4l-23.2-45.9h-59.9L263,261.6z"/>
							</g>
						</g>
					</g>
				</g>
				<g>
					<g>
						<g>
							<g>
								<path fill="#616363" d="M323.5,215.8H196.7l29.6-58.4h67.6L323.5,215.8z M206.9,209.5h106.4L290,163.6h-59.9L206.9,209.5z"
									/>
							</g>
						</g>
					</g>
				</g>
				<g>
					<g>
						<g>
							<g>
								<path fill="#616363" d="M436,320H309.2l29.6-58.4h67.6L436,320z M319.4,313.8h106.4l-23.2-45.9h-59.9L319.4,313.8z"/>
							</g>
						</g>
					</g>
				</g>
			</g>
		</g>
		<g>
			<g>
				<g>
					<g>
						<rect x="257" y="78.9" fill="#616363" width="6.3" height="32"/>
					</g>
				</g>
			</g>
		</g>
		<g>
			<g>
				<g>
					<g>
						
							<rect x="332.4" y="105.7" transform="matrix(0.8111 0.585 -0.585 0.8111 134.626 -173.3017)" fill="#616363" width="6.3" height="32"/>
					</g>
				</g>
			</g>
		</g>
		<g>
			<g>
				<g>
					<g>
						
							<rect x="375.2" y="167.5" transform="matrix(0.4568 0.8896 -0.8896 0.4568 368.7823 -236.9285)" fill="#616363" width="6.3" height="32"/>
					</g>
				</g>
			</g>
		</g>
		<g>
			<g>
				<g>
					<g>
						
							<rect x="121.8" y="180.3" transform="matrix(0.8895 0.4569 -0.4569 0.8895 99.0569 -42.7002)" fill="#616363" width="32" height="6.3"/>
					</g>
				</g>
			</g>
		</g>
		<g>
			<g>
				<g>
					<g>
						
							<rect x="170.2" y="118.6" transform="matrix(0.5851 0.811 -0.811 0.5851 175.965 -100.4487)" fill="#616363" width="32" height="6.3"/>
					</g>
				</g>
			</g>
		</g>
	</g>
</g>
</svg>
