<?xml version="1.0" encoding="utf-8"?>
<!-- Generator: Adobe Illustrator 18.0.0, SVG Export Plug-In . SVG Version: 6.00 Build 0)  -->
<!DOCTYPE svg PUBLIC "-//W3C//DTD SVG 1.1//EN" "http://www.w3.org/Graphics/SVG/1.1/DTD/svg11.dtd">
<svg version="1.1" id="Layer_1" xmlns="http://www.w3.org/2000/svg" xmlns:xlink="http://www.w3.org/1999/xlink" x="0px" y="0px"
	 viewBox="0 0 512 512" enable-background="new 0 0 512 512" xml:space="preserve">
<g>
	<g>
		<g>
			<g>
				<g>
					<rect x="225.6" y="131.8" fill="none" width="38.4" height="173.4"/>
				</g>
			</g>
		</g>
	</g>
	<g>
		<g>
			<g>
				<g>
					<path fill="#616363" d="M161.4,383.1v14.9c-3.5,3-8.8,4.8-14.6,4.8c-10.8,0-18.8-7.4-18.8-19c0-11.2,7.3-19.2,18.6-19.2
						c5.1,0,10.4,1.7,14.4,5.9l-3.3,2.8c-3-2.9-6.7-4.3-11.1-4.3c-7.9,0-13.8,5.8-13.8,14.8c0,8.5,5.6,14.7,14,14.7
						c3.8,0,7.2-0.8,10-2.9v-8.3h-10.9v-4.2H161.4z"/>
				</g>
			</g>
		</g>
		<g>
			<g>
				<g>
					<path fill="#616363" d="M191.3,402.5l-9.6-14.4h-7v14.4H170v-37.7h13.4c8.7,0,12.4,5,12.4,11.7c0,6.4-3.5,10-9,11.2l0,0.1
						l10,14.7H191.3z M174.6,383.9h7.5c6.2,0,8.9-3.2,8.9-7.5c0-4.8-3.1-7.3-8.3-7.3h-8.2V383.9z"/>
				</g>
			</g>
		</g>
		<g>
			<g>
				<g>
					<path fill="#616363" d="M201.4,383.6c0-10.8,7.6-19.2,18.9-19.2c10.6,0,18.8,7.7,18.8,19.2c0,11.5-8.2,19.2-18.8,19.2
						C209,402.8,201.4,394.5,201.4,383.6z M234.2,383.6c0-8.7-6.2-14.8-14-14.8c-8.4,0-14.1,6.6-14.1,14.8c0,8.2,5.7,14.8,14.1,14.8
						C228.1,398.4,234.2,392.3,234.2,383.6z"/>
				</g>
			</g>
		</g>
		<g>
			<g>
				<g>
					<path fill="#616363" d="M292.4,364.8l-12,37.7h-4.5l-8.7-30.8h-0.1l-8.8,30.8h-4.5l-12-37.7h4.9l9.3,30.1h0.1l8.5-30.1h5
						l8.5,30.1h0.1l9.3-30.1H292.4z"/>
				</g>
			</g>
		</g>
		<g>
			<g>
				<g>
					<path fill="#616363" d="M307.3,369.1H296v-4.2h27.2v4.2h-11.4v33.4h-4.6V369.1z"/>
				</g>
			</g>
		</g>
		<g>
			<g>
				<g>
					<path fill="#616363" d="M329.7,364.8h4.6v17.6H354v-17.6h4.6v37.7H354v-15.8h-19.7v15.8h-4.6V364.8z"/>
				</g>
			</g>
		</g>
	</g>
	<g>
		<g>
			<g>
				<g>
					<rect x="157.5" y="176.5" fill="#FFFFFF" width="38.4" height="128.7"/>
				</g>
			</g>
		</g>
	</g>
	<g>
		<g>
			<g>
				<g>
					<rect x="225.6" y="131.8" fill="#84D1DA" width="38.4" height="173.4"/>
				</g>
			</g>
		</g>
	</g>
	<g>
		<g>
			<g>
				<g>
					<rect x="297" y="112.3" fill="#CEECF3" width="38.4" height="192.8"/>
				</g>
			</g>
		</g>
	</g>
	<g>
		<g>
			<g>
				<g>
					<rect x="153.5" y="321.2" fill="#616363" width="185.3" height="6.3"/>
				</g>
			</g>
		</g>
	</g>
	<g>
		<g>
			<g>
				<g>
					<path fill="#616363" d="M199,308.3h-44.7v-135H199V308.3z M160.6,302h32.1V179.6h-32.1V302z"/>
				</g>
			</g>
		</g>
	</g>
	<g>
		<g>
			<g>
				<g>
					<polygon fill="#616363" points="150.8,220.3 146.7,215.6 223,150.7 328.6,150.7 376.9,112.4 380.8,117.3 330.8,156.9 
						225.3,156.9 					"/>
				</g>
			</g>
		</g>
	</g>
	<g>
		<g>
			<g>
				<g>
					<path fill="#616363" d="M267.1,308.3h-44.7V128.6h44.7V308.3z M228.7,302h32.1V134.9h-32.1V302z"/>
				</g>
			</g>
		</g>
	</g>
	<g>
		<g>
			<g>
				<g>
					<polygon fill="#616363" points="384.1,142.4 377.8,142.4 377.8,115.5 351.6,115.5 351.6,109.2 384.1,109.2 					"/>
				</g>
			</g>
		</g>
	</g>
	<g>
		<g>
			<g>
				<g>
					<polygon fill="#616363" points="338.5,308.3 293.8,308.3 293.8,165.2 300.1,165.2 300.1,302 332.2,302 332.2,170.1 
						338.5,170.1 					"/>
				</g>
			</g>
		</g>
	</g>
	<g>
		<g>
			<g>
				<g>
					<polygon fill="#616363" points="338.5,170.1 332.2,170.1 332.2,115.5 300.1,115.5 300.1,142.7 293.8,142.7 293.8,109.2 
						338.5,109.2 					"/>
				</g>
			</g>
		</g>
	</g>
	<g>
		<g>
			<g>
				<g>
					<circle fill="#FCB856" cx="224.1" cy="153.8" r="11.4"/>
				</g>
			</g>
		</g>
	</g>
	<g>
		<g>
			<g>
				<g>
					<path fill="#616363" d="M224.1,168.3c-8,0-14.5-6.5-14.5-14.5s6.5-14.5,14.5-14.5c8,0,14.5,6.5,14.5,14.5
						S232.1,168.3,224.1,168.3z M224.1,145.5c-4.5,0-8.2,3.7-8.2,8.2s3.7,8.2,8.2,8.2c4.5,0,8.2-3.7,8.2-8.2
						S228.7,145.5,224.1,145.5z"/>
				</g>
			</g>
		</g>
	</g>
	<g>
		<g>
			<g>
				<g>
					<circle fill="#FCB856" cx="297" cy="153.8" r="11.4"/>
				</g>
			</g>
		</g>
	</g>
	<g>
		<g>
			<g>
				<g>
					<path fill="#616363" d="M297,168.3c-8,0-14.5-6.5-14.5-14.5s6.5-14.5,14.5-14.5c8,0,14.5,6.5,14.5,14.5S305,168.3,297,168.3z
						 M297,145.5c-4.5,0-8.2,3.7-8.2,8.2s3.7,8.2,8.2,8.2c4.5,0,8.2-3.7,8.2-8.2S301.5,145.5,297,145.5z"/>
				</g>
			</g>
		</g>
	</g>
	<g>
		<g>
			<g>
				<g>
					<circle fill="#FCB856" cx="157.5" cy="210.7" r="11.4"/>
				</g>
			</g>
		</g>
	</g>
	<g>
		<g>
			<g>
				<g>
					<path fill="#616363" d="M157.5,225.2c-8,0-14.5-6.5-14.5-14.5c0-8,6.5-14.5,14.5-14.5c8,0,14.5,6.5,14.5,14.5
						C172,218.7,165.5,225.2,157.5,225.2z M157.5,202.4c-4.5,0-8.2,3.7-8.2,8.2s3.7,8.2,8.2,8.2c4.5,0,8.2-3.7,8.2-8.2
						S162,202.4,157.5,202.4z"/>
				</g>
			</g>
		</g>
	</g>
</g>
</svg>
