<?xml version="1.0" encoding="utf-8"?>
<!-- Generator: Adobe Illustrator 18.0.0, SVG Export Plug-In . SVG Version: 6.00 Build 0)  -->
<!DOCTYPE svg PUBLIC "-//W3C//DTD SVG 1.1//EN" "http://www.w3.org/Graphics/SVG/1.1/DTD/svg11.dtd">
<svg version="1.1" id="Layer_1" xmlns="http://www.w3.org/2000/svg" xmlns:xlink="http://www.w3.org/1999/xlink" x="0px" y="0px"
	 viewBox="0 0 512 512" enable-background="new 0 0 512 512" xml:space="preserve">
<g>
	<g>
		<text transform="matrix(1 0 0 1 136.6724 419.2046)" fill="#616363" font-family="'AvertaDemo-Regular'" font-size="53.0116">GROWTH</text>
	</g>
	<g>
		<g>
			<g>
				<g>
					<g>
						<polygon fill="#84D1DA" points="256,267.6 196.2,267.6 214,337.3 256,337.3 296.3,337.3 315.8,267.6 						"/>
					</g>
				</g>
			</g>
		</g>
		<g>
			<g>
				<g>
					<g>
						<path fill="#FCB856" d="M301.8,155.6c3.3-6.8,5.2-14.3,5.2-22.4c0-28.1-22.8-51-51-51s-51,22.8-51,51c0,8,1.9,15.6,5.2,22.4
							c-20.9,2.8-37,20.7-37,42.4c0,23.7,19.2,42.8,42.8,42.8c18.3,0,33.8-11.4,40-27.5c2.3,6,5.9,11.4,10.6,15.8
							c7.7,7.3,18,11.7,29.4,11.7c23.7,0,42.8-19.2,42.8-42.8C338.8,176.4,322.7,158.5,301.8,155.6z"/>
					</g>
				</g>
			</g>
		</g>
		<g>
			<g>
				<g>
					<g>
						<path fill="#616363" d="M296,244c-22.7,0-34.8-14.8-39.9-23.5c-8,14.3-23.4,23.5-40.1,23.5c-25.3,0-46-20.6-46-46
							c0-21.5,15.1-40.1,35.7-44.8c-2.5-6.3-3.8-13.1-3.8-20c0-29.8,24.3-54.1,54.1-54.1c29.8,0,54.1,24.3,54.1,54.1
							c0,6.9-1.3,13.6-3.8,20c20.6,4.7,35.7,23.3,35.7,44.8C342,223.4,321.3,244,296,244z M256.1,204.4l2.9,7.9
							c0.4,1,9.7,25.4,37,25.4c21.9,0,39.7-17.8,39.7-39.7c0-19.8-14.8-36.7-34.3-39.3l-4.3-0.6l1.9-3.9c3.2-6.6,4.8-13.6,4.8-21
							c0-26.4-21.4-47.8-47.8-47.8c-26.4,0-47.8,21.4-47.8,47.8c0,7.4,1.6,14.4,4.8,21l1.9,3.9l-4.3,0.6
							c-19.6,2.6-34.3,19.5-34.3,39.3c0,21.9,17.8,39.7,39.7,39.7c16.3,0,31.2-10.2,37.1-25.5L256.1,204.4z"/>
					</g>
				</g>
			</g>
		</g>
		<g>
			<g>
				<g>
					<g>
						<path fill="#616363" d="M298.7,340.4h-87.1l-19.4-75.9h127.7L298.7,340.4z M216.4,334.1h77.5l17.7-63.4H200.3L216.4,334.1z"/>
					</g>
				</g>
			</g>
		</g>
		<g>
			<g>
				<g>
					<g>
						<rect x="252.9" y="213.4" fill="#616363" width="6.3" height="41"/>
					</g>
				</g>
			</g>
		</g>
		<g>
			<g>
				<g>
					<g>
						<rect x="204.9" y="289.3" fill="#616363" width="104" height="6.3"/>
					</g>
				</g>
			</g>
		</g>
		<g>
			<g>
				<g>
					<g>
						<g>
							<path fill="#FFFFFF" d="M273.6,168.5c0,7.7-5.4,13.2-14.6,13.9v9.2h-5.1v-9.2c-5.6-0.6-11-3.1-15.5-7.4l4-4.7
								c4.3,4.1,9.7,6.3,14.6,6.3c5.6,0,9.7-2.8,9.7-7.5c0-5.4-4.4-7.2-11.3-9.4c-8.3-2.7-15.8-5.3-15.8-14.3
								c0-7.4,5.1-12.9,14.4-13.4v-9.6h5.1v9.9c4.6,0.8,9.5,2.9,12.9,5.5l-3.8,4.7c-4-2.9-9-4.5-12.8-4.5c-5.3,0-9,2.5-9,6.9
								c0,4.7,4.6,6.5,10.9,8.5C266.5,156.3,273.6,158.8,273.6,168.5L273.6,168.5z"/>
						</g>
					</g>
				</g>
			</g>
		</g>
	</g>
</g>
</svg>
