<?xml version="1.0" encoding="utf-8"?>
<!-- Generator: Adobe Illustrator 18.0.0, SVG Export Plug-In . SVG Version: 6.00 Build 0)  -->
<!DOCTYPE svg PUBLIC "-//W3C//DTD SVG 1.1//EN" "http://www.w3.org/Graphics/SVG/1.1/DTD/svg11.dtd">
<svg version="1.1" id="Layer_1" xmlns="http://www.w3.org/2000/svg" xmlns:xlink="http://www.w3.org/1999/xlink" x="0px" y="0px"
	 viewBox="0 0 512 512" enable-background="new 0 0 512 512" xml:space="preserve">
<g>
	<g>
		<text transform="matrix(1 0 0 1 95.2729 388.8394)" fill="#616363" font-family="'AvertaDemo-Regular'" font-size="53.0116">HANDSHAKE</text>
	</g>
	<g>
		<g>
			<g>
				<g>
					<g>
						<g>
							<path fill="#FCB856" d="M312.2,212.4v0.5l8.5,12.6l-1.6,3.4h-148v-16.5v0c-4.7-3.7-10.6-5.7-16.6-5.7h-24.4V130h29.8
								c6.9,0,13.3-3.2,17.5-8.7l0,0c4.2-5.5,10.6-8.7,17.5-8.7h93.5c6.9,0,13.3,3.2,17.5,8.7l0,0c4.2,5.5,10.6,8.7,17.5,8.7h29.8
								v76.7h-24.5C322.8,206.7,317,208.7,312.2,212.4L312.2,212.4z"/>
						</g>
					</g>
				</g>
			</g>
			<g>
				<g>
					<g>
						<g>
							<path fill="#616363" d="M321.2,232H168v-18c-4-2.7-8.7-4.2-13.5-4.2H127v-82.9h33c5.8,0,11.5-2.8,15-7.4
								c4.7-6.2,12.2-9.9,20-9.9h93.5c7.8,0,15.3,3.7,20,9.9c3.6,4.7,9.2,7.4,15,7.4l33,0v82.9h-27.6c-4.4,0-8.8,1.3-12.5,3.6
								l8,11.9L321.2,232z M174.3,225.7h142.8l-8-11.9v-3l1.2-0.9c5.3-4.1,11.8-6.4,18.5-6.4h21.3v-70.4l-26.7,0
								c-7.8,0-15.3-3.7-20-9.9c-3.6-4.7-9.2-7.4-15-7.4H195c-5.8,0-11.5,2.8-15,7.4c-4.7,6.2-12.2,9.9-20,9.9h-26.7v70.4h21.3
								c6.7,0,13.3,2.3,18.6,6.4l1.2,0.9V225.7z"/>
						</g>
					</g>
				</g>
			</g>
			<g>
				<g>
					<g>
						<g>
							<path fill="#FFFFFF" d="M353.3,130v76.7h-24.5c-6,0-11.9,2-16.6,5.7l0,0v0.5l-46.6-69.2h-18.9l-1.1,2.7
								c-6.3,14.8-20.9,24.4-37,24.4H203l16.9-41.6c0,0,0-0.1,0.1-0.1l0.2-0.5c4-9.6,13.3-15.8,23.7-15.8h44.7
								c6.9,0,13.3,3.2,17.5,8.7l0,0c4.2,5.5,10.6,8.7,17.5,8.7H353.3z"/>
						</g>
					</g>
				</g>
			</g>
			<g>
				<g>
					<g>
						<g>
							<path fill="#616363" d="M315.4,223.2L264,146.9h-15.1l-0.3,0.7c-6.9,16-22.5,26.3-39.9,26.3h-10.4l18.8-46.3
								c4.7-11,15.4-18.1,27.4-18.1h43.9c7.8,0,15.3,3.7,20,9.9c3.6,4.7,9.2,7.4,15,7.4l33,0v82.9h-27.6c-4.8,0-9.5,1.5-13.5,4.2
								V223.2z M244.6,140.6h22.7l45.5,67.6c4.8-3,10.4-4.6,16-4.6h21.3v-70.4l-26.7,0c-7.8,0-15.3-3.7-20-9.9
								c-3.6-4.7-9.2-7.4-15-7.4h-43.9c-9.5,0-18.1,5.7-21.7,14.4l-0.1,0.3l-15,37.1h1.1c14.9,0,28.2-8.8,34.1-22.5L244.6,140.6z"/>
						</g>
					</g>
				</g>
			</g>
			<g>
				<g>
					<g>
						<g>
							<path fill="#FCB856" d="M275,207.1l21.1,31.2c4.3,6.3,2.6,14.9-3.7,19.1h0c-6.3,4.3-14.9,2.6-19.1-3.7l-21.1-31.2L275,207.1z
								"/>
						</g>
					</g>
				</g>
			</g>
			<g>
				<g>
					<g>
						<g>
							<path fill="#FCB856" d="M300.7,195.8l19.9,29.4c4.3,6.3,2.6,14.9-3.7,19.1l0,0c-6.3,4.3-14.9,2.6-19.1-3.7l-19.9-29.4
								L300.7,195.8z"/>
						</g>
					</g>
				</g>
			</g>
			<g>
				<g>
					<g>
						<g>
							<path fill="#616363" d="M284.8,262.9c-1.1,0-2.2-0.1-3.2-0.3c-4.4-0.9-8.3-3.4-10.8-7.1l-21.1-31.2l5.2-3.5l21.1,31.2
								c1.6,2.3,4,3.9,6.8,4.5c2.8,0.5,5.6,0,8-1.6c4.9-3.3,6.1-9.9,2.9-14.8l-21.1-31.2l5.2-3.5l21.1,31.2
								c5.2,7.7,3.2,18.2-4.6,23.5C291.4,261.9,288.1,262.9,284.8,262.9z"/>
						</g>
					</g>
				</g>
			</g>
			<g>
				<g>
					<g>
						<g>
							<path fill="#FFFFFF" d="M250.7,220.2l19.3,28.5c3.9,5.7,1.9,13.9-4.4,18.1h0c-6.3,4.3-14.6,3.1-18.4-2.7l-19.3-28.5
								L250.7,220.2z"/>
						</g>
					</g>
				</g>
			</g>
			<g>
				<g>
					<g>
						<g>
							<path fill="#616363" d="M257.4,272.5c-0.8,0-1.6-0.1-2.4-0.2c-4.4-0.6-8.1-2.9-10.5-6.4l-19.3-28.5l5.2-3.5l19.3,28.5
								c1.4,2,3.6,3.4,6.2,3.7c2.7,0.4,5.5-0.3,7.9-1.9c4.9-3.3,6.4-9.5,3.5-13.8L248.1,222l5.2-3.5l19.3,28.5
								c4.8,7.2,2.5,17.2-5.2,22.5C264.3,271.5,260.9,272.5,257.4,272.5z"/>
						</g>
					</g>
				</g>
			</g>
			<g>
				<g>
					<g>
						<g>
							<path fill="#616363" d="M309.2,249.8c-1.1,0-2.2-0.1-3.2-0.3c-4.4-0.9-8.3-3.4-10.8-7.1L275.3,213l5.2-3.5l19.9,29.4
								c1.6,2.4,4,3.9,6.8,4.5c2.8,0.5,5.6,0,8-1.6c4.9-3.3,6.1-9.9,2.9-14.8l-19.9-29.4l5.2-3.5l19.9,29.4
								c5.2,7.7,3.2,18.2-4.6,23.5C315.8,248.8,312.5,249.8,309.2,249.8z"/>
						</g>
					</g>
				</g>
			</g>
			<g>
				<g>
					<g>
						<g>
							<path fill="#FFFFFF" d="M167.1,231l-6.2-7.8c-3-3.8-2.4-9.3,1.4-12.3l10.7-8.4c3.8-3,9.3-2.4,12.3,1.4l6.2,7.8
								c3,3.8,2.4,9.3-1.4,12.3l-10.7,8.4C175.6,235.5,170.1,234.8,167.1,231z"/>
						</g>
					</g>
				</g>
			</g>
			<g>
				<g>
					<g>
						<g>
							<path fill="#FFFFFF" d="M192.7,244.3l-6.2-7.8c-3-3.8-2.4-9.3,1.4-12.3l21.5-17c3.8-3,9.3-2.4,12.3,1.4l6.2,7.8
								c3,3.8,2.4,9.3-1.4,12.3l-21.5,17C201.3,248.8,195.7,248.1,192.7,244.3z"/>
						</g>
					</g>
				</g>
			</g>
			<g>
				<g>
					<g>
						<g>
							<path fill="#FFFFFF" d="M242.4,275.1l-6.2-7.8c-3-3.8-2.4-9.3,1.4-12.3l21.5-17c3.8-3,9.3-2.4,12.3,1.4l6.2,7.8
								c3,3.8,2.4,9.3-1.4,12.3l-21.5,17C250.9,279.5,245.4,278.9,242.4,275.1z"/>
						</g>
					</g>
				</g>
			</g>
			<g>
				<g>
					<g>
						<g>
							<path fill="#FFFFFF" d="M216.7,260.3l-6.2-7.8c-3-3.8-2.4-9.3,1.4-12.3l25.2-20c3.8-3,9.3-2.4,12.3,1.4l6.2,7.8
								c3,3.8,2.4,9.3-1.4,12.3l-25.2,20C225.2,264.7,219.7,264.1,216.7,260.3z"/>
						</g>
					</g>
				</g>
			</g>
			<g>
				<g>
					<g>
						<g>
							<path fill="#616363" d="M174.8,235.5c-5.2,0-10-2.3-13.3-6.4c-2.8-3.6-4.1-8-3.5-12.5c0.5-4.5,2.8-8.5,6.3-11.3l2.8-2.3
								c3-2.4,6.7-3.7,10.5-3.7c5.2,0,10,2.3,13.3,6.4c2.8,3.6,4.1,8,3.6,12.5c-0.5,4.5-2.8,8.5-6.3,11.3l-2.8,2.3
								C182.3,234.2,178.6,235.5,174.8,235.5z M177.6,205.7c-2.4,0-4.7,0.8-6.6,2.3l-2.8,2.3c-2.2,1.8-3.6,4.3-4,7.1
								c-0.3,2.8,0.5,5.6,2.2,7.8c2,2.6,5.1,4,8.3,4c2.4,0,4.7-0.8,6.6-2.3l2.8-2.3c2.2-1.8,3.6-4.3,4-7.1c0.3-2.8-0.5-5.6-2.2-7.8
								C183.9,207.2,180.9,205.7,177.6,205.7z"/>
						</g>
					</g>
				</g>
			</g>
			<g>
				<g>
					<g>
						<g>
							<path fill="#616363" d="M200.4,248.8c-5.2,0-10-2.3-13.3-6.4c-2.8-3.6-4.1-8-3.5-12.5c0.5-4.5,2.8-8.5,6.3-11.3l13.6-10.8
								c3-2.4,6.7-3.7,10.5-3.7c5.2,0,10,2.3,13.3,6.4c2.8,3.6,4.1,8,3.6,12.5c-0.5,4.5-2.8,8.5-6.3,11.3l-13.7,10.8
								C207.9,247.5,204.2,248.8,200.4,248.8z M214.1,210.4c-2.4,0-4.7,0.8-6.6,2.3l-13.6,10.8c-2.2,1.8-3.6,4.3-4,7.1
								c-0.3,2.8,0.5,5.6,2.2,7.8c2,2.6,5.1,4,8.3,4c2.4,0,4.7-0.8,6.6-2.3l13.7-10.8c2.2-1.8,3.6-4.3,4-7.1
								c0.3-2.8-0.5-5.6-2.2-7.8C220.4,211.9,217.3,210.4,214.1,210.4z"/>
						</g>
					</g>
				</g>
			</g>
			<g>
				<g>
					<g>
						<g>
							<path fill="#616363" d="M250.1,279.5c-5.2,0-10-2.3-13.3-6.4c-2.8-3.6-4.1-8-3.6-12.5c0.5-4.5,2.8-8.5,6.3-11.3l13.7-10.8
								c3-2.4,6.7-3.7,10.5-3.7c5.2,0,10,2.3,13.3,6.4l0.1,0.1c2.8,3.5,4,7.9,3.5,12.4c-0.5,4.5-2.8,8.5-6.3,11.3l-13.7,10.8
								C257.6,278.2,253.8,279.5,250.1,279.5z M263.7,241.2c-2.4,0-4.7,0.8-6.6,2.3l-13.7,10.8c-2.2,1.8-3.6,4.3-4,7.1
								c-0.3,2.8,0.5,5.6,2.2,7.8c2,2.6,5.1,4,8.4,4c2.4,0,4.7-0.8,6.6-2.3l13.7-10.8c2.2-1.8,3.6-4.3,4-7.1
								c0.3-2.8-0.5-5.6-2.2-7.8l-0.1-0.1C269.9,242.6,266.9,241.2,263.7,241.2z"/>
						</g>
					</g>
				</g>
			</g>
			<g>
				<g>
					<g>
						<g>
							<path fill="#616363" d="M224.4,264.7c-5.2,0-10-2.3-13.3-6.4c-2.8-3.6-4.1-8-3.6-12.5c0.5-4.5,2.8-8.5,6.3-11.3l17.4-13.8
								c3-2.4,6.7-3.7,10.5-3.7c5.2,0,10,2.3,13.3,6.4c2.8,3.6,4.1,8,3.6,12.5c-0.5,4.5-2.8,8.5-6.3,11.3l-17.4,13.8
								C231.9,263.5,228.1,264.7,224.4,264.7z M241.7,223.4c-2.4,0-4.7,0.8-6.6,2.3l-17.4,13.8c-2.2,1.8-3.6,4.3-4,7.1
								c-0.3,2.8,0.5,5.6,2.2,7.8c2,2.6,5.1,4,8.4,4c2.4,0,4.7-0.8,6.6-2.3l17.4-13.8c2.2-1.8,3.6-4.3,4-7.1
								c0.3-2.8-0.5-5.6-2.2-7.8C248,224.9,245,223.4,241.7,223.4z"/>
						</g>
					</g>
				</g>
			</g>
		</g>
		<g>
			<g>
				<g>
					<g>
						<rect x="95.3" y="117.5" fill="#CEECF3" width="34.8" height="100.6"/>
					</g>
				</g>
			</g>
		</g>
		<g>
			<g>
				<g>
					<g>
						<path fill="#616363" d="M133.2,221.3H92.1V114.4h41.1V221.3z M98.4,215H127v-94.4H98.4V215z"/>
					</g>
				</g>
			</g>
		</g>
		<g>
			<g>
				<g>
					<g>
						<rect x="353.3" y="117.5" fill="#84D1DA" width="34.8" height="100.6"/>
					</g>
				</g>
			</g>
		</g>
		<g>
			<g>
				<g>
					<g>
						<path fill="#616363" d="M391.3,221.3h-41.1V114.4h41.1V221.3z M356.4,215H385v-94.4h-28.6V215z"/>
					</g>
				</g>
			</g>
		</g>
	</g>
</g>
</svg>
