<?xml version="1.0" encoding="utf-8"?>
<!-- Generator: Adobe Illustrator 18.0.0, SVG Export Plug-In . SVG Version: 6.00 Build 0)  -->
<!DOCTYPE svg PUBLIC "-//W3C//DTD SVG 1.1//EN" "http://www.w3.org/Graphics/SVG/1.1/DTD/svg11.dtd">
<svg version="1.1" id="Layer_1" xmlns="http://www.w3.org/2000/svg" xmlns:xlink="http://www.w3.org/1999/xlink" x="0px" y="0px"
	 viewBox="0 0 512 512" enable-background="new 0 0 512 512" xml:space="preserve">
<g>
	<g>
		<text transform="matrix(1 0 0 1 95.0889 420.3521)" fill="#616363" font-family="'AvertaDemo-Regular'" font-size="53.0116">HOME LOAN</text>
	</g>
	<g>
		<g>
			<g>
				<g>
					<g>
						<g>
							<polygon fill="#84D1DA" points="259.9,82 120.3,187.5 165,187.5 165,320 354.8,320 354.8,187.5 399.6,187.5 							"/>
						</g>
					</g>
				</g>
			</g>
			<g>
				<g>
					<g>
						<g>
							<path fill="#616363" d="M358,323.2h-196V190.7h-51L259.9,78l149,112.7h-51V323.2z M168.2,316.9h183.5V184.4h38.5L259.9,85.9
								l-130.3,98.5h38.5V316.9z"/>
						</g>
					</g>
				</g>
			</g>
			<g>
				<g>
					<g>
						<g>
							<rect x="234.6" y="262.8" fill="#CEECF3" width="53.4" height="57.3"/>
						</g>
					</g>
				</g>
			</g>
			<g>
				<g>
					<g>
						<g>
							<path fill="#616363" d="M291.1,323.2h-59.7v-63.5h59.7V323.2z M237.7,316.9h47.1v-51h-47.1V316.9z"/>
						</g>
					</g>
				</g>
			</g>
			<g>
				<g>
					<g>
						<g>
							<polygon fill="#FFFFFF" points="120.3,187.5 259.9,82 399.6,187.5 							"/>
						</g>
					</g>
				</g>
			</g>
			<g>
				<g>
					<g>
						<g>
							<path fill="#616363" d="M408.9,190.7h-298L259.9,78L408.9,190.7z M129.6,184.4h260.6L259.9,85.9L129.6,184.4z"/>
						</g>
					</g>
				</g>
			</g>
			<g>
				<g>
					<g>
						<g>
							<g>
								<g>
									<circle fill="#FCB856" cx="155" cy="277.8" r="42.5"/>
								</g>
							</g>
						</g>
					</g>
				</g>
				<g>
					<g>
						<g>
							<g>
								<g>
									<path fill="#616363" d="M155,323.5c-25.2,0-45.7-20.5-45.7-45.7s20.5-45.7,45.7-45.7s45.7,20.5,45.7,45.7
										S180.1,323.5,155,323.5z M155,238.5c-21.7,0-39.4,17.7-39.4,39.4s17.7,39.4,39.4,39.4s39.4-17.7,39.4-39.4
										S176.7,238.5,155,238.5z"/>
								</g>
							</g>
						</g>
					</g>
				</g>
				<g>
					<g>
						<g>
							<g>
								<g>
									<path fill="#FFFFFF" d="M168.9,287c0,6.1-4.3,10.4-11.6,11v7.3h-4V298c-4.4-0.5-8.7-2.5-12.3-5.9l3.1-3.7
										c3.4,3.3,7.7,5,11.6,5c4.4,0,7.7-2.2,7.7-6c0-4.3-3.5-5.7-9-7.5c-6.6-2.1-12.5-4.2-12.5-11.3c0-5.8,4.1-10.2,11.4-10.6
										v-7.6h4v7.8c3.6,0.6,7.5,2.3,10.2,4.4l-3,3.7c-3.2-2.3-7.1-3.5-10.1-3.5c-4.2,0-7.1,2-7.1,5.5c0,3.7,3.6,5.1,8.6,6.8
										C163.3,277.4,168.9,279.3,168.9,287L168.9,287z"/>
								</g>
							</g>
						</g>
					</g>
				</g>
			</g>
		</g>
		<g>
			<g>
				<g>
					<g>
						<polygon fill="#84D1DA" points="308.3,118.6 308.3,89.7 344.5,89.7 344.5,145.9 						"/>
					</g>
				</g>
			</g>
		</g>
		<g>
			<g>
				<g>
					<g>
						<path fill="#616363" d="M347.7,152.2l-42.5-32.1V86.6h42.5V152.2z M311.5,117l29.9,22.6V92.9h-29.9V117z"/>
					</g>
				</g>
			</g>
		</g>
	</g>
</g>
</svg>
