<?xml version="1.0" encoding="utf-8"?>
<!-- Generator: Adobe Illustrator 18.0.0, SVG Export Plug-In . SVG Version: 6.00 Build 0)  -->
<!DOCTYPE svg PUBLIC "-//W3C//DTD SVG 1.1//EN" "http://www.w3.org/Graphics/SVG/1.1/DTD/svg11.dtd">
<svg version="1.1" id="Layer_1" xmlns="http://www.w3.org/2000/svg" xmlns:xlink="http://www.w3.org/1999/xlink" x="0px" y="0px"
	 viewBox="0 0 512 512" enable-background="new 0 0 512 512" xml:space="preserve">
<g>
	<g>
		<text transform="matrix(1 0 0 1 50.5674 418.8156)" fill="#616363" font-family="'AvertaDemo-Regular'" font-size="53.0116">IDENTITY THEFT</text>
	</g>
	<g>
		<g>
			<g>
				<g>
					<g>
						<path fill="#84D1DA" d="M191.8,293.7h89.2c8.3,0,15-6.7,15-15V155.1c0-8.3-6.7-15-15-15h-89.2c-8.3,0-15,6.7-15,15v123.7
							C176.8,287,183.5,293.7,191.8,293.7z"/>
					</g>
				</g>
			</g>
		</g>
		<g>
			<g>
				<g>
					<g>
						<path fill="#616363" d="M280.9,296.8h-89.2c-10,0-18.1-8.1-18.1-18.1V155.1c0-10,8.1-18.1,18.1-18.1h89.2
							c10,0,18.1,8.1,18.1,18.1v123.7C299,288.7,290.9,296.8,280.9,296.8z M191.8,143.2c-6.5,0-11.8,5.3-11.8,11.8v123.7
							c0,6.5,5.3,11.8,11.8,11.8h89.2c6.5,0,11.8-5.3,11.8-11.8V155.1c0-6.5-5.3-11.8-11.8-11.8H191.8z"/>
					</g>
				</g>
			</g>
		</g>
		<g>
			<g>
				<g>
					<g>
						<rect x="204.7" y="268" fill="#616363" width="61.2" height="6.3"/>
					</g>
				</g>
			</g>
		</g>
		<g>
			<g>
				<g>
					<g>
						<g>
							<g>
								<path fill="#84D1DA" d="M266.2,208.2c-3.7-3.7-8.7-5.7-13.9-5.7c-1.9,0-3.9,0-5.8,0c-7,0-14,0-21,0c-1.6,0-3.3,0-5,0
									c-5.8,0.3-10.9,3-14.5,7.5c-2.8,3.6-4.2,8-4.2,12.5c0,2.5,0,5,0,7.6c0,6.1,0,12.3,0,18.4c0,0.6,0.8,0.4,1.4,0.4
									c1.8,0,3.6,0,5.4,0c13.8,0,27.6,0,41.4,0c5.8,0,11.6,0,17.4,0c1.4,0,2.7,0,4.1,0c0.1,0,0.4,0,0.4,0c0-0.6,0-1.3,0-1.9
									c0-6.4,0-12.8,0-19.2c0-1.9,0-3.7,0-5.6C271.9,216.9,269.9,211.8,266.2,208.2C262.7,204.6,269.7,211.7,266.2,208.2z"/>
							</g>
						</g>
					</g>
				</g>
			</g>
			<g>
				<g>
					<g>
						<g>
							<g>
								<path fill="#FFFFFF" d="M266.2,208.2c-3.7-3.7-8.7-5.7-13.9-5.7c-1.9,0-3.9,0-5.8,0c-7,0-14,0-21,0c-1.6,0-3.3,0-5,0
									c-5.8,0.3-10.9,3-14.5,7.5c-2.8,3.6-4.2,8-4.2,12.5c0,2.5,0,5,0,7.6c0,6.1,0,18.7,0,18.7h1.4c0,0,3.6,0,5.4,0
									c13.8,0,27.6,0,41.4,0c5.8,0,11.6,0,17.4,0c1.4,0,4.1,0,4.1,0h0.4c0,0,0-1.3,0-1.9c0-6.4,0-12.8,0-19.2c0-1.9,0-3.7,0-5.6
									C271.9,216.9,269.9,211.8,266.2,208.2C262.7,204.6,269.7,211.7,266.2,208.2z"/>
							</g>
						</g>
					</g>
				</g>
			</g>
			<g>
				<g>
					<g>
						<g>
							<path fill="#616363" d="M275.1,251.9h-76.4v-29.5c0-5.4,1.7-10.4,4.8-14.5c4.2-5.2,10.2-8.3,16.8-8.7c0.8,0,1.5,0,2.3,0
								l2.9,0h26.8c5.5,0,11,2,15.1,5.7l0,0l1.6,1.6c0.1,0.1,0.2,0.2,0.4,0.4l0.6,0.6l0.1,0.3c3.2,4,4.9,9,4.9,14.2V251.9z
								 M204.9,245.6h63.9V222c0-4.4-1.8-8.6-4.8-11.7c-3.1-3.1-7.3-4.8-11.7-4.8l-29.7,0c-0.7,0-1.3,0-1.9,0
								c-4.8,0.3-9.2,2.5-12.2,6.3c-2.3,2.9-3.5,6.5-3.5,10.6V245.6z"/>
						</g>
					</g>
				</g>
			</g>
			<g>
				<g>
					<g>
						<g>
							<g>
								<path fill="#FFFFFF" d="M236.1,195.1L236.1,195.1c-8.7,0-15.7-7-15.7-15.7v0c0-8.7,7-15.7,15.7-15.7h0
									c8.7,0,15.7,7,15.7,15.7v0C251.8,188.1,244.8,195.1,236.1,195.1z"/>
							</g>
						</g>
					</g>
				</g>
				<g>
					<g>
						<g>
							<g>
								<path fill="#616363" d="M236.1,198.3c-10.4,0-18.8-8.4-18.8-18.8c0-10.4,8.4-18.8,18.8-18.8s18.8,8.4,18.8,18.8
									C254.9,189.8,246.5,198.3,236.1,198.3z M236.1,166.9c-6.9,0-12.5,5.6-12.5,12.5c0,6.9,5.6,12.5,12.5,12.5
									s12.5-5.6,12.5-12.5C248.7,172.5,243,166.9,236.1,166.9z"/>
							</g>
						</g>
					</g>
				</g>
				<g>
					<g>
						<g>
							<g>
								<rect x="214.4" y="229.5" fill="#616363" width="6.3" height="19.3"/>
							</g>
						</g>
					</g>
				</g>
				<g>
					<g>
						<g>
							<g>
								<rect x="253.1" y="229.5" fill="#616363" width="6.3" height="19.3"/>
							</g>
						</g>
					</g>
				</g>
				<g>
					<g>
						<g>
							<g>
								<rect x="214.4" y="230.8" fill="#616363" width="6.3" height="18"/>
							</g>
						</g>
					</g>
				</g>
				<g>
					<g>
						<g>
							<g>
								<rect x="253.1" y="230.8" fill="#616363" width="6.3" height="18"/>
							</g>
						</g>
					</g>
				</g>
			</g>
		</g>
		<g>
			<g>
				<g>
					<g>
						<g>
							<path fill="#FFFFFF" d="M414.8,102.8h-14.1c-13.4,0-26.6-3.2-38.5-9.5c-9.9-5.2-23.5-10.7-37.3-10.7
								c-7.4,0-14.5,2.1-21.1,5.3c-10.4,5.1-19.7,13-27.6,20.6c-13,12.6-15.8,15.5-31.2,31.5c0,0,42.1,0,42.2,0
								c0.5,0,7.6-7,10.1-9.2c8.8-8,17.2-14.4,29.4-15.2c10.2-0.7,20.3,5.2,24.6,14.6c4.2,9.3,1.6,20.8-5,28.3
								c-6.6,7.5-16.7,11-26.6,11h-46.2c-7.7,0-14.4,5.8-14.9,13.4c-0.5,8.4,6.1,15.4,14.4,15.4h75.4c12.8,0,25.1-4.1,35.8-11.1
								c11-7.2,23.9-11,37-11h0.4v-73.3H414.8z"/>
						</g>
					</g>
				</g>
			</g>
		</g>
		<g>
			<g>
				<g>
					<g>
						<g>
							<g>
								<g>
									<path fill="#616363" d="M348.4,201.4H273c-4.8,0-9.5-2-12.8-5.5c-3.4-3.6-5-8.2-4.7-13.2c0.6-9.2,8.5-16.4,18-16.4h46.2
										c9.8,0,18.7-3.6,24.2-9.9c6.1-7,8-17.2,4.5-24.9c-3.6-8.1-12.4-13.3-21.5-12.7c-11.6,0.8-19.6,7.3-27.5,14.4
										c-0.8,0.7-2,1.8-3.3,3.1c-7.2,6.8-7.4,7-9,7c-0.2,0-42.2,0-42.2,0l-7.4,0l9.1-9.4c12.2-12.7,15.5-16.1,27.4-27.5
										c6.6-6.4,16.7-15.5,28.4-21.2c7.6-3.7,15.2-5.6,22.5-5.6c14.8,0,29.3,6,38.8,11c11.3,6,24.1,9.1,37,9.1h24v79.6h-3.5
										c-12.6,0-24.8,3.6-35.3,10.5C374.3,197.4,361.3,201.4,348.4,201.4z M273.5,172.6c-6.2,0-11.4,4.6-11.7,10.5
										c-0.2,3.2,0.9,6.2,3,8.5c2.2,2.3,5.1,3.6,8.2,3.6h75.4c11.7,0,23.5-3.7,34-10.6c10.8-7.1,23.2-11,36-11.5V106h-17.7
										c-13.9,0-27.8-3.4-40-9.8c-8.9-4.7-22.3-10.3-35.8-10.3c-6.3,0-13,1.7-19.7,5c-10.8,5.3-20.5,14-26.8,20.1
										c-11.4,11-14.8,14.5-26,26.1c10.6,0,29.3,0,33.8,0c1.2-1.1,3.9-3.6,5.7-5.3c1.3-1.3,2.6-2.4,3.4-3.1
										c8.4-7.6,17.7-15.1,31.3-16c11.6-0.8,23,6,27.6,16.4c4.4,9.9,2.2,22.9-5.5,31.6c-6.7,7.7-17.3,12-28.9,12H273.5z"/>
								</g>
							</g>
						</g>
					</g>
				</g>
			</g>
		</g>
		<g>
			<g>
				<g>
					<g>
						<g>
							<path fill="#FCB856" d="M258.5,140.1h-39.6v-11.4c0-10.9,8.9-19.8,19.8-19.8h0c10.9,0,19.8,8.9,19.8,19.8V140.1z"/>
						</g>
					</g>
				</g>
			</g>
			<g>
				<g>
					<g>
						<g>
							<path fill="#616363" d="M261.6,143.2h-45.9v-14.5c0-12.7,10.3-22.9,22.9-22.9c12.7,0,22.9,10.3,22.9,22.9V143.2z M222,137
								h33.3v-8.3c0-9.2-7.5-16.7-16.7-16.7c-9.2,0-16.7,7.5-16.7,16.7V137z"/>
						</g>
					</g>
				</g>
			</g>
			<g>
				<g>
					<g>
						<g>
							<circle fill="#616363" cx="238.7" cy="124.5" r="4.8"/>
						</g>
					</g>
				</g>
			</g>
		</g>
		<g>
			<g>
				<g>
					<g>
						<g>
							<circle fill="#84D1DA" cx="209.3" cy="182.5" r="49.1"/>
						</g>
					</g>
				</g>
			</g>
			<g>
				<g>
					<g>
						<g>
							<path fill="#84D1DA" d="M253.2,204.6c-0.5,1-1,2-1.6,3c-0.5,0.9-1.1,1.8-1.7,2.7c-1.7,2.5-3.6,4.8-5.8,7
								c-5.2,5.2-11.2,9-17.6,11.3c-1,0.4-2,0.7-3,1c-1,0.3-2,0.6-3.1,0.8c-1,0.2-1.9,0.4-2.9,0.6c-1.1,0.2-2.1,0.3-3.2,0.4
								c-1.1,0.1-2.1,0.2-3.2,0.2c-10.3,0.4-20.7-2.5-29.5-8.5c-0.9-0.6-1.9-1.3-2.7-2c-0.9-0.7-1.8-1.4-2.6-2.2
								c-0.6-0.5-1.1-1-1.6-1.6c-19.2-19.2-19.2-50.3,0-69.5c19.2-19.2,50.3-19.2,69.5,0C259.5,163.1,262.5,186.2,253.2,204.6z"/>
						</g>
					</g>
				</g>
			</g>
			<g>
				<g>
					<g>
						<g>
							<path fill="#FCB856" d="M115.2,276.7c7.6,7.6,20.2,7,26.9-1.4l41.2-51.1c-3.1-1.9-6-4.2-8.7-6.9c-2.7-2.7-5-5.6-6.9-8.7
								l-51.1,41.2C108.2,256.5,107.5,269,115.2,276.7z"/>
						</g>
					</g>
				</g>
			</g>
			<g>
				<g>
					<g>
						<g>
							<path fill="#616363" d="M128,285.1C128,285.1,128,285.1,128,285.1c-5.7,0-11-2.2-15-6.2c-4.3-4.3-6.5-10.1-6.2-16.2
								c0.3-6,3.2-11.7,7.9-15.4l53.8-43.5l1.9,3c1.8,2.9,4,5.7,6.5,8.2c2.5,2.5,5.3,4.7,8.2,6.5l3,1.9l-43.5,53.8
								C140.5,282.2,134.5,285.1,128,285.1z M167,213.1l-48.4,39.1c-3.3,2.7-5.3,6.6-5.6,10.9c-0.2,4.2,1.4,8.4,4.4,11.4
								c2.8,2.8,6.6,4.4,10.6,4.4c0,0,0,0,0,0c4.6,0,8.8-2,11.7-5.6l39.1-48.4c-2.2-1.6-4.4-3.4-6.4-5.4
								C170.4,217.5,168.6,215.3,167,213.1z"/>
						</g>
					</g>
				</g>
			</g>
			<g>
				<g>
					<g>
						<g>
							<circle fill="#FFFFFF" cx="209.3" cy="182.5" r="36.6"/>
						</g>
					</g>
				</g>
			</g>
			<g>
				<g>
					<g>
						<g>
							<g>
								<g>
									<g>
										<path fill="#84D1DA" d="M238.7,203.7h-32.3c-0.7,0-1.3,0-2,0c-1.3,0-2.7,0-4,0c-6.9,0.4-13.1,3.6-17.5,9
											c-2,2.5-3.3,5.3-4.1,8.3c0.9,0.7,1.8,1.4,2.7,2c8.8,6.1,19.2,8.9,29.5,8.5c1.1,0,2.1-0.1,3.2-0.2c1.1-0.1,2.1-0.2,3.2-0.4
											c1-0.2,1.9-0.3,2.9-0.6c1-0.2,2.1-0.5,3.1-0.8c1-0.3,2-0.6,3-1c6.4-2.4,12.5-6.1,17.6-11.3c2.2-2.2,4.1-4.6,5.8-7
											c0.6-0.9,1.2-1.7,1.7-2.7C247.8,205.1,243.3,203.7,238.7,203.7z"/>
									</g>
								</g>
							</g>
						</g>
					</g>
				</g>
				<g>
					<g>
						<g>
							<g>
								<g>
									<g>
										<path fill="#FFFFFF" d="M238.7,203.7h-32.3c-0.7,0-1.3,0-2,0c-1.3,0-2.7,0-4,0c-6.9,0.4-13.1,3.6-17.5,9
											c-2,2.5-3.3,5.3-4.1,8.3c0.9,0.7,1.8,1.4,2.7,2c8.8,6.1,19.2,8.9,29.5,8.5c1.1,0,2.1-0.1,3.2-0.2c1.1-0.1,2.1-0.2,3.2-0.4
											c1-0.2,1.9-0.3,2.9-0.6c1-0.2,2.1-0.5,3.1-0.8c1-0.3,2-0.6,3-1c6.4-2.4,12.5-6.1,17.6-11.3c2.2-2.2,4.1-4.6,5.8-7
											c0.6-0.9,1.2-1.7,1.7-2.7C247.8,205.1,243.3,203.7,238.7,203.7z"/>
									</g>
								</g>
							</g>
						</g>
					</g>
				</g>
				<g>
					<g>
						<g>
							<g>
								<g>
									<path fill="#616363" d="M251.9,203.5l-0.1,0.5c-4-2.2-8.5-3.4-13.1-3.4h-32.3l-3.5,0c-0.4,0-0.8,0-1.2,0c-0.5,0-1,0-1.5,0
										c-7.8,0.5-14.8,4.1-19.8,10.2c-1.9,2.4-3.3,5.1-4.2,8c0.8,0.8,1.7,1.5,2.6,2.2c0.9,0.7,1.8,1.4,2.7,2
										c0.6-3.1,1.9-5.9,3.8-8.3c3.8-4.7,9.2-7.5,15.2-7.8c0.8,0,1.6,0,2.4,0h8.3l11.6,0h15.9c4,0,7.9,1.2,11.2,3.3
										c0.6-0.9,1.2-1.7,1.7-2.7c0.6-1,1.1-2,1.6-3L251.9,203.5z"/>
								</g>
							</g>
						</g>
					</g>
				</g>
				<g>
					<g>
						<g>
							<g>
								<g>
									<g>
										<path fill="#FFFFFF" d="M219.3,195L219.3,195c-10.4,0-18.8-8.4-18.8-18.8v0c0-10.4,8.4-18.8,18.8-18.8h0
											c10.4,0,18.8,8.4,18.8,18.8v0C238.1,186.5,229.7,195,219.3,195z"/>
									</g>
								</g>
							</g>
						</g>
					</g>
					<g>
						<g>
							<g>
								<g>
									<g>
										<path fill="#616363" d="M219.3,154.1c-12.1,0-22,9.9-22,22c0,12.1,9.9,22,22,22c12.1,0,22-9.9,22-22
											C241.2,164,231.4,154.1,219.3,154.1z M219.3,191.8c-8.7,0-15.7-7-15.7-15.7s7-15.7,15.7-15.7c8.7,0,15.7,7,15.7,15.7
											S227.9,191.8,219.3,191.8z"/>
									</g>
								</g>
							</g>
						</g>
					</g>
				</g>
			</g>
			<g>
				<g>
					<g>
						<g>
							<path fill="#616363" d="M209.3,234.8c-14,0-27.1-5.4-37-15.3c-20.4-20.4-20.4-53.6,0-73.9c9.9-9.9,23-15.3,37-15.3
								s27.1,5.4,37,15.3c20.4,20.4,20.4,53.6,0,73.9C236.4,229.3,223.3,234.8,209.3,234.8z M209.4,136.5
								c-12.3,0-23.8,4.8-32.5,13.5c-17.9,17.9-17.9,47.1,0,65.1c8.7,8.7,20.2,13.5,32.5,13.5c12.3,0,23.8-4.8,32.5-13.5
								c17.9-17.9,17.9-47.1,0-65.1C233.2,141.3,221.6,136.5,209.4,136.5z"/>
						</g>
					</g>
				</g>
			</g>
		</g>
		<g>
			<g>
				<g>
					<g>
						<path fill="#FFFFFF" d="M206.4,203.7c0,0,1.4,11.1,14,11.1c12.8,0,14.6-11.1,14.6-11.1H206.4z"/>
					</g>
				</g>
			</g>
		</g>
		<g>
			<g>
				<g>
					<g>
						<path fill="#616363" d="M220.5,217.9c-12.1,0-16.5-9-17.2-13.8l-0.5-3.5h35.9l-0.6,3.6C237.4,209,232.7,217.9,220.5,217.9z
							 M210.9,206.9c1.4,2.3,4.1,4.8,9.6,4.8c5.6,0,8.5-2.5,10-4.8H210.9z"/>
					</g>
				</g>
			</g>
		</g>
	</g>
</g>
</svg>
