<?xml version="1.0" encoding="utf-8"?>
<!-- Generator: Adobe Illustrator 18.0.0, SVG Export Plug-In . SVG Version: 6.00 Build 0)  -->
<!DOCTYPE svg PUBLIC "-//W3C//DTD SVG 1.1//EN" "http://www.w3.org/Graphics/SVG/1.1/DTD/svg11.dtd">
<svg version="1.1" id="Layer_1" xmlns="http://www.w3.org/2000/svg" xmlns:xlink="http://www.w3.org/1999/xlink" x="0px" y="0px"
	 viewBox="0 0 512 512" enable-background="new 0 0 512 512" xml:space="preserve">
<g>
	<g>
		<text transform="matrix(1 0 0 1 140.2646 419.7485)" fill="#616363" font-family="'AvertaDemo-Regular'" font-size="53.0116">INCOME</text>
	</g>
	<g>
		<g>
			<g>
				<g>
					<g>
						<circle fill="#CAE9E7" cx="250" cy="192" r="113.4"/>
					</g>
				</g>
			</g>
		</g>
		<g>
			<g>
				<g>
					<g>
						<g>
							<g>
								<rect x="166.4" y="150.2" fill="#CEECF3" width="167.2" height="83.6"/>
							</g>
						</g>
					</g>
				</g>
				<g>
					<g>
						<g>
							<g>
								<path fill="#FCB856" d="M166.4,170.6c11.2,0,20.3-9.1,20.3-20.3h-20.3V170.6z"/>
							</g>
						</g>
					</g>
				</g>
				<g>
					<g>
						<g>
							<g>
								<path fill="#FCB856" d="M333.7,170.6c-11.2,0-20.3-9.1-20.3-20.3h20.3V170.6z"/>
							</g>
						</g>
					</g>
				</g>
				<g>
					<g>
						<g>
							<g>
								<path fill="#FCB856" d="M333.7,213.1c-11.2,0-20.3,9.1-20.3,20.3h20.3V213.1z"/>
							</g>
						</g>
					</g>
				</g>
				<g>
					<g>
						<g>
							<g>
								<path fill="#FCB856" d="M166.4,213.1c11.2,0,20.3,9.1,20.3,20.3l-20.3,0V213.1z"/>
							</g>
						</g>
					</g>
				</g>
				<g>
					<g>
						<g>
							<g>
								<path fill="#616363" d="M166.4,173.7h-3.1v-26.6h26.6v3.1C189.9,163.2,179.4,173.7,166.4,173.7z M169.6,153.4v13.8
									c7-1.3,12.5-6.8,13.8-13.8H169.6z"/>
							</g>
						</g>
					</g>
				</g>
				<g>
					<g>
						<g>
							<g>
								<path fill="#616363" d="M336.8,173.7h-3.1c-12.9,0-23.5-10.5-23.5-23.5v-3.1h26.6V173.7z M316.8,153.4
									c1.3,7,6.8,12.5,13.8,13.8v-13.8H316.8z"/>
							</g>
						</g>
					</g>
				</g>
				<g>
					<g>
						<g>
							<g>
								<path fill="#616363" d="M336.8,236.6h-26.6v-3.1c0-12.9,10.5-23.5,23.5-23.5h3.1V236.6z M316.8,230.3h13.8v-13.8
									C323.6,217.8,318.1,223.3,316.8,230.3z"/>
							</g>
						</g>
					</g>
				</g>
				<g>
					<g>
						<g>
							<g>
								<path fill="#616363" d="M189.9,236.6h-26.6V210h3.1c12.9,0,23.5,10.5,23.5,23.5V236.6z M169.6,230.3h13.8
									c-1.3-7-6.8-12.5-13.8-13.8V230.3z"/>
							</g>
						</g>
					</g>
				</g>
				<g>
					<g>
						<g>
							<g>
								<g>
									<polygon fill="#FFFFFF" points="313.8,102.6 313.8,102.6 313.8,102.6 									"/>
								</g>
							</g>
						</g>
					</g>
				</g>
				<g>
					<g>
						<g>
							<g>
								<path fill="#616363" d="M336.8,237H163.3v-89.9h173.5V237z M169.6,230.7h160.9v-77.3H169.6V230.7z"/>
							</g>
						</g>
					</g>
				</g>
				<g>
					<g>
						<g>
							<g>
								<circle fill="#FCB856" cx="250" cy="192" r="24.3"/>
							</g>
						</g>
					</g>
				</g>
				<g>
					<g>
						<g>
							<g>
								<path fill="#616363" d="M250,219.5c-15.1,0-27.4-12.3-27.4-27.4c0-15.1,12.3-27.4,27.4-27.4s27.4,12.3,27.4,27.4
									C277.5,207.2,265.2,219.5,250,219.5z M250,170.9c-11.7,0-21.2,9.5-21.2,21.2s9.5,21.2,21.2,21.2c11.7,0,21.2-9.5,21.2-21.2
									S261.7,170.9,250,170.9z"/>
							</g>
						</g>
					</g>
				</g>
				<g>
					<g>
						<g>
							<g>
								<g>
									<path fill="#FFFFFF" d="M411.1,112.8h-14.1c-13.4,0-26.6-3.2-38.5-9.5c-9.9-5.2-23.5-10.7-37.3-10.7
										c-7.4,0-14.5,2.1-21.1,5.3c-10.4,5.1-19.7,13-27.6,20.6c-13,12.6-15.8,15.5-31.2,31.5c0,0,42.1,0,42.2,0
										c0.5,0,7.6-7,10.1-9.2c8.8-8,17.2-14.4,29.4-15.2c10.2-0.7,20.3,5.2,24.6,14.6c4.2,9.3,1.6,20.8-5,28.3
										c-6.6,7.5-16.7,11-26.6,11h-46.2c-7.7,0-14.4,5.8-14.9,13.4c-0.5,8.4,6.1,15.4,14.4,15.4h75.4c12.8,0,25.1-4.1,35.8-11.1
										c11-7.2,23.9-11,37-11h4.9v-73.3H411.1z"/>
								</g>
							</g>
						</g>
					</g>
				</g>
				<g>
					<g>
						<g>
							<g>
								<g>
									<g>
										<g>
											<path fill="#616363" d="M344.7,211.4h-75.4c-4.8,0-9.5-2-12.8-5.5c-3.4-3.6-5-8.2-4.7-13.2c0.6-9.2,8.5-16.4,18-16.4H316
												c9.8,0,18.7-3.6,24.2-9.9c6.1-7,8-17.2,4.5-24.9c-3.6-8.1-12.4-13.4-21.5-12.7c-11.6,0.8-19.6,7.3-27.5,14.4
												c-0.8,0.7-2,1.8-3.3,3.1c-7.2,6.8-7.4,7-9,7c-0.2,0-42.2,0-42.2,0l-7.4,0l9.1-9.4c12.2-12.7,15.5-16.1,27.4-27.5
												c6.6-6.4,16.7-15.5,28.4-21.2c7.6-3.7,15.2-5.6,22.5-5.6c14.8,0,29.3,6,38.8,11c11.3,6,24.1,9.1,37,9.1h28.5v79.6h-8.1
												c-12.6,0-24.8,3.6-35.3,10.5C370.6,207.4,357.7,211.4,344.7,211.4z M269.8,182.6c-6.2,0-11.4,4.6-11.7,10.5
												c-0.2,3.2,0.9,6.2,3,8.5c2.2,2.3,5.1,3.6,8.2,3.6h75.4c11.7,0,23.5-3.7,34-10.6c11.5-7.6,24.9-11.6,38.7-11.6h1.8V116
												h-22.2c-13.9,0-27.8-3.4-40-9.8c-8.9-4.7-22.3-10.3-35.8-10.3c-6.3,0-13,1.7-19.8,5c-10.8,5.3-20.5,14-26.8,20.1
												c-11.4,11-14.8,14.5-26,26.1c10.6,0,29.3,0,33.8,0c1.3-1.1,3.9-3.6,5.7-5.3c1.3-1.3,2.6-2.4,3.4-3.1
												c8.4-7.6,17.7-15.1,31.3-16c11.6-0.8,23,6,27.6,16.4c4.4,9.9,2.2,22.9-5.5,31.6c-6.7,7.6-17.3,12-28.9,12H269.8z"/>
										</g>
									</g>
								</g>
							</g>
						</g>
					</g>
				</g>
			</g>
			<g>
				<g>
					<g>
						<g>
							<g>
								<path fill="#FCB856" d="M300.4,234.5l-14.5,4.4l-17.8,5.4l-26.8,8.2l-20.1,6.1l0,0c4.5-1.5,8.3-5,9.9-9.9
									c2.7-8.2-1.7-17-9.9-19.7l-66.1-22.1c-15-5-31.2-5.2-46.3-0.6l-19.2,7.3l0,0l0.1,72.7l15.7-4.1c15.3-4.7,19-0.6,34.2,4.3
									l18.1,5.9c0,0,12.6,2.9,26.2,4.1c0.1,0,0.2,0,0.3,0c1,0.1,2.1,0.2,3.1,0.2c0.1,0,0.2,0,0.3,0c2.1,0.1,4.1,0.2,6.2,0.2
									c0.1,0,0.2,0,0.4,0c1.9,0,3.8-0.1,5.6-0.3c0.1,0,0.3,0,0.4,0c1.7-0.2,3.4-0.4,4.9-0.7c0.2,0,0.4-0.1,0.5-0.1
									c0.7-0.2,1.5-0.3,2.2-0.6l69.3-21.1l17.8-5.4c0.2-0.1,0.4-0.1,0.6-0.2l13.9-4.2c8.2-2.5,12.9-11.2,10.4-19.4l0,0
									C317.4,236.7,308.6,232,300.4,234.5z"/>
							</g>
						</g>
					</g>
				</g>
				<g>
					<g>
						<g>
							<g>
								<g>
									<g>
										<g>
											<path fill="#616363" d="M193.5,300.1c-13.6,0-28.9-2.9-36.4-4.6l-0.3-0.1l-18.1-5.9c-3.2-1-5.9-2-8.2-2.9
												c-8.9-3.3-13-4.8-24.1-1.4l-19.7,5.2l-0.1-78.9l21.4-8.2c15.8-4.8,32.5-4.6,48.2,0.7l66.1,22.1c4.7,1.6,8.6,4.9,10.8,9.4
												c2.2,4.5,2.6,9.6,1,14.3c-0.2,0.7-0.5,1.3-0.8,1.9l33.9-10.3c9.9-3,20.4,2.6,23.4,12.5c1.5,4.8,1,9.9-1.4,14.3
												c-2.4,4.4-6.3,7.6-11.1,9.1l-69.3,21.1C204.5,299.6,199.1,300.1,193.5,300.1z M158.5,289.4c8.1,1.8,34.8,7,48.5,2.8
												l69.3-21.1c3.2-1,5.8-3.1,7.4-6.1c1.6-2.9,1.9-6.3,0.9-9.5c-2-6.6-9-10.3-15.6-8.3l-46.9,14.3c-3.8,1.3-7.9,1.3-11.7,0
												L167,247.1l2-6l43.4,14.4c3.2,1,6.5,0.8,9.5-0.7c3-1.5,5.2-4.1,6.2-7.2s0.8-6.5-0.7-9.5c-1.5-3-4.1-5.2-7.2-6.2
												l-66.1-22.1c-14.4-4.8-29.8-5-44.3-0.6l-17.1,6.5l0.1,66.5l11.7-3.1c13.1-4,18.7-1.9,28,1.6c2.3,0.9,4.9,1.8,8,2.8
												L158.5,289.4z"/>
										</g>
									</g>
								</g>
							</g>
						</g>
						<g>
							<g>
								<g>
									<g>
										<g>
											<path fill="#616363" d="M193.5,300.1c-16.6,0-35.4-4.3-36.5-4.6l1.4-6.1c0.3,0.1,33,7.6,48.6,2.9l87.1-26.5
												c3.2-1,5.8-3.1,7.4-6.1c1.6-2.9,1.9-6.3,0.9-9.5c-1-3.2-3.1-5.8-6.1-7.4c-2.9-1.6-6.3-1.9-9.5-0.9l-17.8,5.4l-1.8-6
												l17.8-5.4c4.8-1.5,9.9-1,14.3,1.4c4.4,2.4,7.6,6.3,9.1,11.1c1.5,4.8,1,9.9-1.4,14.3c-2.4,4.4-6.3,7.6-11.1,9.1
												l-87.1,26.5C204.5,299.6,199.1,300.1,193.5,300.1z"/>
										</g>
									</g>
								</g>
							</g>
						</g>
					</g>
					<g>
						<g>
							<g>
								<g>
									<path fill="#616363" d="M283,275.7l-1.8-6l27.4-8.3c3.2-1,5.8-3.1,7.4-6c1.6-2.9,1.9-6.3,0.9-9.5c-2-6.6-9-10.3-15.5-8.3
										l-59.1,18l-1.8-6l59.1-18c9.9-3,20.4,2.6,23.4,12.5c1.5,4.8,1,9.8-1.4,14.3c-2.4,4.4-6.3,7.6-11.1,9.1L283,275.7z"/>
								</g>
							</g>
						</g>
					</g>
				</g>
			</g>
		</g>
	</g>
</g>
</svg>
