<?xml version="1.0" encoding="utf-8"?>
<!-- Generator: Adobe Illustrator 18.0.0, SVG Export Plug-In . SVG Version: 6.00 Build 0)  -->
<!DOCTYPE svg PUBLIC "-//W3C//DTD SVG 1.1//EN" "http://www.w3.org/Graphics/SVG/1.1/DTD/svg11.dtd">
<svg version="1.1" id="Layer_1" xmlns="http://www.w3.org/2000/svg" xmlns:xlink="http://www.w3.org/1999/xlink" x="0px" y="0px"
	 viewBox="0 0 512 512" enable-background="new 0 0 512 512" xml:space="preserve">
<g>
	<g>
		<text transform="matrix(1 0 0 1 106.6528 427.7126)" fill="#616363" font-family="'AvertaDemo-Regular'" font-size="53.0116">INSURANCE</text>
	</g>
	<g>
		<g>
			<g>
				<g>
					<g>
						<circle fill="#84D1DA" cx="253.9" cy="200" r="129.3"/>
					</g>
				</g>
			</g>
		</g>
		<g>
			<g>
				<g>
					<g>
						<g>
							<path fill="#CEECF3" d="M280.4,224.5c10-15.8,31-20.5,46.8-10.5c15.8,10,20.5,31,10.5,46.8l1-1.6
								c30.1-47.5,16.1-110.4-31.4-140.5S197,102.6,166.8,150.1l-1,1.6c10-15.8,31-20.5,46.8-10.5c15.8,10,20.5,31,10.5,46.8
								c10-15.8,31-20.5,46.8-10.5C285.8,187.7,290.4,208.7,280.4,224.5z"/>
						</g>
					</g>
				</g>
			</g>
		</g>
		<g>
			<g>
				<g>
					<g>
						<g>
							<g>
								<path fill="#616363" d="M225.2,189.8l-5.3-3.4c9.1-14.3,4.9-33.4-9.5-42.5c-6.9-4.4-15.2-5.9-23.2-4.1
									c-8,1.8-14.9,6.6-19.3,13.5l-5.3-3.4c5.3-8.4,13.6-14.2,23.2-16.3c9.7-2.2,19.6-0.4,28,4.9
									C231.1,149.6,236.2,172.6,225.2,189.8z"/>
							</g>
						</g>
					</g>
				</g>
				<g>
					<g>
						<g>
							<g>
								<path fill="#616363" d="M282.5,226.2l-5.3-3.4c4.4-6.9,5.9-15.2,4.1-23.2c-1.8-8-6.6-14.9-13.5-19.3
									c-6.9-4.4-15.2-5.9-23.2-4.1c-8,1.8-14.9,6.6-19.3,13.5l-5.3-3.4c5.3-8.4,13.6-14.2,23.2-16.3c9.7-2.2,19.6-0.4,28,4.9
									c8.4,5.3,14.2,13.6,16.3,23.2C289.6,207.9,287.8,217.9,282.5,226.2z"/>
							</g>
						</g>
					</g>
				</g>
				<g>
					<g>
						<g>
							<g>
								<path fill="#616363" d="M339.8,262.6l-5.3-3.4c9.1-14.3,4.9-33.4-9.5-42.5c-14.3-9.1-33.4-4.9-42.5,9.5l-5.3-3.4
									c11-17.3,33.9-22.4,51.2-11.4C345.7,222.4,350.8,245.4,339.8,262.6z"/>
							</g>
						</g>
					</g>
				</g>
				<g>
					<g>
						<g>
							<g>
								<path fill="#616363" d="M340.9,261l-5.3-3.4c29.2-45.9,15.5-107-30.4-136.2c-22.2-14.1-48.7-18.8-74.4-13
									c-25.7,5.7-47.7,21.2-61.8,43.4l-5.3-3.4c15-23.7,38.4-40.1,65.7-46.2c27.4-6.1,55.5-1.2,79.1,13.8
									C357.4,147.1,371.9,212.1,340.9,261z"/>
							</g>
						</g>
					</g>
				</g>
			</g>
			<g>
				<g>
					<g>
						<g>
							
								<rect x="307" y="107.6" transform="matrix(0.8442 0.5361 -0.5361 0.8442 109.2587 -148.5219)" fill="#616363" width="6.3" height="12.1"/>
						</g>
					</g>
				</g>
			</g>
			<g>
				<g>
					<g>
						<g>
							<path fill="#616363" d="M181.4,310.6c-2.8,0-5.5-0.8-7.9-2.3c-3.3-2.1-5.6-5.4-6.5-9.3c-0.9-3.9-0.2-7.8,1.9-11.1l5.6-8.9
								l5.3,3.4l-5.6,8.9c-1.2,1.9-1.6,4.2-1.1,6.4c0.5,2.2,1.8,4.1,3.7,5.3c1.9,1.2,4.2,1.6,6.4,1.1c2.2-0.5,4.1-1.8,5.3-3.7
								L266.8,176l5.3,3.3l-78.2,124.3c-2.1,3.3-5.4,5.7-9.3,6.5C183.5,310.4,182.4,310.6,181.4,310.6z"/>
						</g>
					</g>
				</g>
			</g>
			<g>
				<g>
					<g>
						<g>
							<path fill="#616363" d="M225.3,189.6l-5.5-3c1.6-2.9,38.4-71.1,86.1-71.1c0.3,0,0.7,0,1,0l-0.1,6.3c-0.3,0-0.6,0-0.8,0
								C262,121.9,225.7,188.9,225.3,189.6z"/>
						</g>
					</g>
				</g>
			</g>
			<g>
				<g>
					<g>
						<g>
							<path fill="#616363" d="M282.4,226.4l-5-3.8c0.5-0.6,46.3-62.8,26.7-102.5l5.6-2.8C331,160.6,284.4,223.8,282.4,226.4z"/>
						</g>
					</g>
				</g>
			</g>
		</g>
		<g>
			<g>
				<g>
					<g>
						<g>
							<g>
								<circle fill="#FCB856" cx="273.9" cy="280.6" r="34.4"/>
							</g>
						</g>
					</g>
				</g>
			</g>
			<g>
				<g>
					<g>
						<g>
							<g>
								<path fill="#616363" d="M273.9,318.2c-20.7,0-37.5-16.8-37.5-37.5c0-20.7,16.8-37.5,37.5-37.5c20.7,0,37.5,16.8,37.5,37.5
									C311.4,301.3,294.6,318.2,273.9,318.2z M273.9,249.4c-17.2,0-31.3,14-31.3,31.3s14,31.3,31.3,31.3s31.3-14,31.3-31.3
									S291.1,249.4,273.9,249.4z"/>
							</g>
						</g>
					</g>
				</g>
			</g>
			<g>
				<g>
					<g>
						<g>
							<g>
								<path fill="#FFFFFF" d="M285.2,288.1c0,4.9-3.5,8.4-9.4,8.9v5.9h-3.2v-5.9c-3.6-0.4-7.1-2-9.9-4.8l2.5-3
									c2.7,2.7,6.2,4,9.3,4c3.6,0,6.2-1.8,6.2-4.8c0-3.5-2.8-4.6-7.3-6c-5.3-1.7-10.1-3.4-10.1-9.1c0-4.7,3.3-8.3,9.2-8.6v-6.1
									h3.2v6.3c2.9,0.5,6.1,1.8,8.3,3.5l-2.4,3c-2.6-1.8-5.8-2.9-8.2-2.9c-3.4,0-5.8,1.6-5.8,4.4c0,3,2.9,4.1,7,5.5
									C280.6,280.3,285.2,281.8,285.2,288.1L285.2,288.1z"/>
							</g>
						</g>
					</g>
				</g>
			</g>
		</g>
		<g>
			<g>
				<g>
					<g>
						<g>
							<g>
								<circle fill="#FCB856" cx="181.6" cy="209.7" r="27.8"/>
							</g>
						</g>
					</g>
				</g>
			</g>
			<g>
				<g>
					<g>
						<g>
							<g>
								<path fill="#616363" d="M181.6,240.7c-17.1,0-31-13.9-31-31c0-17.1,13.9-31,31-31s31,13.9,31,31
									C212.6,226.8,198.7,240.7,181.6,240.7z M181.6,185c-13.6,0-24.7,11.1-24.7,24.7c0,13.6,11.1,24.7,24.7,24.7
									s24.7-11.1,24.7-24.7C206.3,196.1,195.2,185,181.6,185z"/>
							</g>
						</g>
					</g>
				</g>
			</g>
			<g>
				<g>
					<g>
						<g>
							<g>
								<path fill="#FFFFFF" d="M190.7,215.7c0,4-2.8,6.8-7.6,7.2v4.7h-2.6v-4.8c-2.9-0.3-5.7-1.6-8-3.8l2-2.5
									c2.2,2.1,5,3.3,7.6,3.3c2.9,0,5-1.4,5-3.9c0-2.8-2.3-3.8-5.9-4.9c-4.3-1.4-8.2-2.7-8.2-7.4c0-3.8,2.7-6.7,7.4-6.9v-5h2.6
									v5.1c2.4,0.4,4.9,1.5,6.7,2.9l-2,2.4c-2.1-1.5-4.7-2.3-6.6-2.3c-2.7,0-4.7,1.3-4.7,3.6c0,2.5,2.4,3.4,5.6,4.4
									C187.1,209.4,190.7,210.7,190.7,215.7L190.7,215.7z"/>
							</g>
						</g>
					</g>
				</g>
			</g>
		</g>
		<g>
			<g>
				<g>
					<g>
						<g>
							<g>
								<circle fill="#FCB856" cx="124.5" cy="253.4" r="20.3"/>
							</g>
						</g>
					</g>
				</g>
			</g>
			<g>
				<g>
					<g>
						<g>
							<g>
								<path fill="#616363" d="M124.5,276.8c-12.9,0-23.4-10.5-23.4-23.4c0-12.9,10.5-23.4,23.4-23.4s23.4,10.5,23.4,23.4
									C148,266.3,137.5,276.8,124.5,276.8z M124.5,236.2c-9.5,0-17.2,7.7-17.2,17.2c0,9.5,7.7,17.2,17.2,17.2
									c9.5,0,17.2-7.7,17.2-17.2C141.7,243.9,134,236.2,124.5,236.2z"/>
							</g>
						</g>
					</g>
				</g>
			</g>
			<g>
				<g>
					<g>
						<g>
							<g>
								<path fill="#FFFFFF" d="M131.2,257.8c0,2.9-2.1,5-5.5,5.3v3.5h-1.9V263c-2.1-0.2-4.2-1.2-5.9-2.8l1.5-1.8
									c1.6,1.6,3.7,2.4,5.5,2.4c2.1,0,3.7-1,3.7-2.8c0-2.1-1.6-2.7-4.3-3.6c-3.1-1-6-2-6-5.4c0-2.8,1.9-4.9,5.4-5.1v-3.6h1.9v3.7
									c1.7,0.3,3.6,1.1,4.9,2.1l-1.4,1.8c-1.5-1.1-3.4-1.7-4.8-1.7c-2,0-3.4,0.9-3.4,2.6c0,1.8,1.7,2.4,4.1,3.2
									C128.5,253.2,131.2,254.1,131.2,257.8L131.2,257.8z"/>
							</g>
						</g>
					</g>
				</g>
			</g>
		</g>
	</g>
</g>
</svg>
