<?xml version="1.0" encoding="utf-8"?>
<!-- Generator: Adobe Illustrator 18.0.0, SVG Export Plug-In . SVG Version: 6.00 Build 0)  -->
<!DOCTYPE svg PUBLIC "-//W3C//DTD SVG 1.1//EN" "http://www.w3.org/Graphics/SVG/1.1/DTD/svg11.dtd">
<svg version="1.1" id="Layer_1" xmlns="http://www.w3.org/2000/svg" xmlns:xlink="http://www.w3.org/1999/xlink" x="0px" y="0px"
	 viewBox="0 0 512 512" enable-background="new 0 0 512 512" xml:space="preserve">
<g>
	<g>
		<text transform="matrix(1 0 0 1 129.1656 423.9509)"><tspan x="0" y="0" fill="#616363" font-family="'AvertaDemo-Regular'" font-size="53.0116">INTERNET</tspan><tspan x="6.9" y="63.6" fill="#616363" font-family="'AvertaDemo-Regular'" font-size="53.0116">BANKING</tspan></text>
	</g>
	<g>
		<g>
			<g>
				<g>
					<g>
						<g>
							<path fill="#84D1DA" d="M111.6,290.5H85.4v0c0,17.5,14.2,31.7,31.7,31.7h139.8h130.4c17.5,0,31.7-14.2,31.7-31.7v0h-24.3
								H111.6z"/>
						</g>
					</g>
				</g>
			</g>
			<g>
				<g>
					<g>
						<g>
							<path fill="#84D1DA" d="M365.6,290.5H138.7c-11.5,0-20.8-9.3-20.8-20.8V119.3c0-11.5,9.3-20.8,20.8-20.8h226.9
								c11.5,0,20.8,9.3,20.8,20.8v150.4C386.4,281.2,377.1,290.5,365.6,290.5z"/>
						</g>
					</g>
				</g>
			</g>
			<g>
				<g>
					<g>
						<g>
							<path fill="#616363" d="M365.6,293.7H138.7c-13.2,0-23.9-10.7-23.9-23.9V119.3c0-13.2,10.7-23.9,23.9-23.9h19.8v6.3h-19.8
								c-9.7,0-17.7,7.9-17.7,17.7v150.4c0,9.7,7.9,17.7,17.7,17.7h226.9c9.7,0,17.7-7.9,17.7-17.7V119.3c0-9.7-7.9-17.7-17.7-17.7
								H216.2v-6.3h149.4c13.2,0,23.9,10.7,23.9,23.9v150.4C389.6,283,378.8,293.7,365.6,293.7z"/>
						</g>
					</g>
				</g>
			</g>
			<g>
				<g>
					<g>
						<g>
							<path fill="#616363" d="M387.3,325.4H117.1c-19.2,0-34.8-15.6-34.8-34.8v-3.1h51.2v6.3H88.7c1.6,14.3,13.7,25.4,28.4,25.4
								h270.2c14.7,0,26.8-11.1,28.4-25.4h-45.4v-6.3h51.9v3.1C422.1,309.7,406.5,325.4,387.3,325.4z"/>
						</g>
					</g>
				</g>
			</g>
			<g>
				<g>
					<g>
						<g>
							<rect x="147.1" y="125.3" fill="#FFFFFF" width="210.2" height="137.9"/>
						</g>
					</g>
				</g>
			</g>
		</g>
		<g>
			<g>
				<g>
					<g>
						<path fill="#616363" d="M252.2,250.2c-30.8,0-55.9-25.1-55.9-55.9s25.1-55.9,55.9-55.9s55.9,25.1,55.9,55.9
							S283.1,250.2,252.2,250.2z M252.2,144.6c-27.4,0-49.6,22.3-49.6,49.6s22.3,49.6,49.6,49.6c27.4,0,49.6-22.3,49.6-49.6
							S279.6,144.6,252.2,144.6z"/>
					</g>
				</g>
			</g>
		</g>
		<g>
			<g>
				<g>
					<g>
						<path fill="#616363" d="M252.2,250.2c-13.3,0-20.3-28.1-20.3-55.9s7-55.9,20.3-55.9c13.3,0,20.3,28.1,20.3,55.9
							S265.6,250.2,252.2,250.2z M252.2,144.6c-5.7,0-14,19.3-14,49.6s8.3,49.6,14,49.6c5.7,0,14-19.3,14-49.6
							S258,144.6,252.2,144.6z"/>
					</g>
				</g>
			</g>
		</g>
		<g>
			<g>
				<g>
					<g>
						<path fill="#616363" d="M252.2,177.3c-27.4,0-40.6-16.3-41.1-17l4.9-3.9l-2.5,1.9l2.5-2c0.5,0.6,12,14.6,36.2,14.6
							c24.2,0,35.8-14,36.3-14.6l4.9,3.9C292.9,161.1,279.5,177.3,252.2,177.3z"/>
					</g>
				</g>
			</g>
		</g>
		<g>
			<g>
				<g>
					<g>
						<path fill="#616363" d="M216,232.2l-4.9-3.9c0.6-0.7,13.9-17,41.2-17c27.4,0,40.6,16.3,41.1,17l-4.9,3.9
							c-0.5-0.6-12-14.6-36.2-14.6C227.9,217.6,216.1,232,216,232.2z"/>
					</g>
				</g>
			</g>
		</g>
		<g>
			<g>
				<g>
					<g>
						<rect x="199.5" y="191.1" fill="#616363" width="105.5" height="6.3"/>
					</g>
				</g>
			</g>
		</g>
		<g>
			<g>
				<g>
					<g>
						<g>
							<g>
								<circle fill="#FCB856" cx="187.4" cy="106.4" r="28.8"/>
							</g>
						</g>
					</g>
				</g>
			</g>
			<g>
				<g>
					<g>
						<g>
							<g>
								<path fill="#616363" d="M187.4,138.4c-17.6,0-32-14.3-32-32c0-17.6,14.3-32,32-32s32,14.3,32,32
									C219.4,124.1,205,138.4,187.4,138.4z M187.4,80.7c-14.2,0-25.7,11.5-25.7,25.7s11.5,25.7,25.7,25.7
									c14.2,0,25.7-11.5,25.7-25.7S201.6,80.7,187.4,80.7z"/>
							</g>
						</g>
					</g>
				</g>
			</g>
			<g>
				<g>
					<g>
						<g>
							<g>
								<path fill="#FFFFFF" d="M196.8,112.6c0,4.1-2.9,7.1-7.9,7.5v4.9h-2.7v-5c-3-0.3-5.9-1.7-8.3-4l2.1-2.5
									c2.3,2.2,5.2,3.4,7.8,3.4c3,0,5.2-1.5,5.2-4c0-2.9-2.3-3.9-6.1-5.1c-4.4-1.4-8.5-2.8-8.5-7.7c0-3.9,2.8-6.9,7.7-7.2v-5.1
									h2.7v5.3c2.5,0.4,5.1,1.5,6.9,3l-2,2.5c-2.1-1.5-4.8-2.4-6.8-2.4c-2.8,0-4.8,1.3-4.8,3.7c0,2.5,2.5,3.5,5.9,4.6
									C193.1,106.1,196.8,107.4,196.8,112.6L196.8,112.6z"/>
							</g>
						</g>
					</g>
				</g>
			</g>
		</g>
		<g>
			<g>
				<g>
					<g>
						<path fill="#FCB856" d="M223.3,290.5L223.3,290.5c0,8.7,7.1,15.8,15.8,15.8h26.2c8.7,0,15.8-7.1,15.8-15.8l0,0H223.3z"/>
					</g>
				</g>
			</g>
		</g>
		<g>
			<g>
				<g>
					<g>
						<path fill="#616363" d="M265.3,309.5h-26.2c-10.5,0-19-8.5-19-19v-3.1h64.1v3.1C284.2,301,275.7,309.5,265.3,309.5z
							 M226.8,293.7c1.4,5.5,6.4,9.6,12.3,9.6h26.2c5.9,0,10.9-4.1,12.3-9.6H226.8z"/>
					</g>
				</g>
			</g>
		</g>
	</g>
</g>
</svg>
