<?xml version="1.0" encoding="utf-8"?>
<!-- Generator: Adobe Illustrator 18.0.0, SVG Export Plug-In . SVG Version: 6.00 Build 0)  -->
<!DOCTYPE svg PUBLIC "-//W3C//DTD SVG 1.1//EN" "http://www.w3.org/Graphics/SVG/1.1/DTD/svg11.dtd">
<svg version="1.1" id="Layer_1" xmlns="http://www.w3.org/2000/svg" xmlns:xlink="http://www.w3.org/1999/xlink" x="0px" y="0px"
	 viewBox="0 0 512 512" enable-background="new 0 0 512 512" xml:space="preserve">
<g>
	<g>
		<text transform="matrix(1 0 0 1 84.4372 429.9463)"><tspan x="0" y="0" fill="#616363" font-family="'AvertaDemo-Regular'" font-size="53.0116">INTERNET OF</tspan><tspan x="73.9" y="63.6" fill="#616363" font-family="'AvertaDemo-Regular'" font-size="53.0116">THINGS</tspan></text>
	</g>
	<g>
		<g>
			<g>
				<g>
					
						<rect x="245" y="234.3" transform="matrix(0.9447 0.3278 -0.3278 0.9447 102.223 -66.4207)" fill="#616363" width="6.3" height="71.3"/>
				</g>
			</g>
		</g>
		<g>
			<g>
				<g>
					<path fill="#FCB856" d="M217.8,297.2c3.5-10.3,14.7-15.8,25-12.2s15.7,14.7,12.2,25c-3.5,10.3-14.7,15.8-25,12.2
						C219.7,318.7,214.3,307.5,217.8,297.2z"/>
				</g>
			</g>
		</g>
		<g>
			<g>
				<g>
					<path fill="#616363" d="M236.4,326.5c-2.5,0-5-0.4-7.4-1.2c-5.8-2-10.4-6.1-13.1-11.6c-2.7-5.5-3-11.7-1.1-17.4
						c3.2-9.2,11.9-15.4,21.6-15.4c2.5,0,5,0.4,7.4,1.2c5.8,2,10.4,6.1,13.1,11.6c2.7,5.5,3,11.7,1.1,17.4
						C254.8,320.3,246.1,326.5,236.4,326.5z M236.4,287.1c-7.1,0-13.4,4.5-15.7,11.2c-1.4,4.2-1.2,8.7,0.8,12.6c1.9,4,5.3,7,9.5,8.4
						c1.7,0.6,3.6,0.9,5.4,0.9c7.1,0,13.4-4.5,15.7-11.2c1.4-4.2,1.2-8.7-0.8-12.6c-1.9-4-5.3-7-9.5-8.4
						C240.1,287.4,238.3,287.1,236.4,287.1z"/>
				</g>
			</g>
		</g>
		<g>
			<g>
				<g>
					<g>
						<circle fill="#84D1DA" cx="261.6" cy="191.2" r="70.7"/>
					</g>
				</g>
			</g>
			<g>
				<g>
					<g>
						<path fill="#616363" d="M261.6,265c-40.7,0-73.8-33.1-73.8-73.8s33.1-73.8,73.8-73.8s73.8,33.1,73.8,73.8S302.3,265,261.6,265
							z M261.6,123.6c-37.3,0-67.6,30.3-67.6,67.6s30.3,67.6,67.6,67.6s67.6-30.3,67.6-67.6S298.9,123.6,261.6,123.6z"/>
					</g>
				</g>
			</g>
			<g>
				<g>
					<g>
						<path fill="#616363" d="M292.6,272c-7.5,0-16.4-2.5-26.3-7.5l2.8-5.6c15.5,7.8,28,9,34.5,3.3c13.9-12.2-0.6-52.3-31.6-87.7
							c-15.6-17.7-33-31.9-49.2-39.8c-15-7.4-27.3-8.4-33.7-2.9c-8.5,7.5-6.5,26.3,5.1,49.2l-5.6,2.8c-13.2-25.9-14.5-47.2-3.6-56.7
							c8.5-7.5,22.9-6.8,40.6,1.9c16.8,8.3,35,23,51.1,41.3c34.4,39.2,48,81.6,31,96.5C303.9,270.3,298.7,272,292.6,272z"/>
					</g>
				</g>
			</g>
			<g>
				<g>
					<g>
						<path fill="#616363" d="M206.5,267.9c-3,0-5.7-0.7-8.1-2.1c-10-6-11.6-23.4-4.5-47.7l6,1.8c-6.1,20.7-5.4,36.2,1.7,40.5
							c11.6,7,43-15.6,69.4-59.3s32-82,20.4-89c-3.9-2.4-15.5-0.6-27.8,10.8l-4.3-4.6c14.1-13.1,28.5-15.7,35.3-11.6
							c16.8,10.1,8.7,53-18.3,97.6C253.3,242.5,224.8,267.9,206.5,267.9z"/>
					</g>
				</g>
			</g>
			<g>
				<g>
					<g>
						<path fill="#616363" d="M220.6,238.7c-18.6,0-31-5.4-35.1-15.3c-2.7-6.5-1.5-14.4,3.6-22.9l5.4,3.2
							c-2.8,4.6-5.6,11.4-3.2,17.2c3,7.3,13.7,11.4,29.3,11.4c0.1,0,0.2,0,0.4,0c17-0.1,37.7-4.8,58.4-13.5
							c41.1-17.1,70.1-45.1,63.4-61.1c-2.9-7.1-13.3-11.2-28.3-11.4l0.1-6.3c17.9,0.2,30,5.6,34,15.3c8.3,19.8-21.1,50.3-66.8,69.4
							c-21.4,8.9-43,13.9-60.8,13.9C220.9,238.7,220.7,238.7,220.6,238.7z"/>
					</g>
				</g>
			</g>
			<g>
				<g>
					<g>
						<path fill="#616363" d="M320.1,235.2l-1.7-6c15.7-4.5,25.1-10.9,25.3-17.2c0.2-6.2-8.6-13.1-23.4-18.5
							c-16.4-6-38.3-9.6-61.8-10.4c-23.5-0.7-45.6,1.6-62.3,6.5c-15.2,4.5-24.3,10.8-24.5,17c-0.2,7.5,12.2,15.7,32.3,21.4l-1.7,6
							c-24.1-6.8-37.2-16.6-36.9-27.6c0.3-9.4,10.3-17.3,29-22.8c17.3-5.1,40.2-7.5,64.3-6.7c24.1,0.8,46.8,4.6,63.7,10.8
							c18.3,6.7,27.8,15.2,27.5,24.6C349.7,221.6,339,229.8,320.1,235.2z"/>
					</g>
				</g>
			</g>
		</g>
		<g>
			<g>
				<g>
					
						<rect x="324.7" y="84.8" transform="matrix(0.6538 0.7566 -0.7566 0.6538 200.6917 -208.1209)" fill="#616363" width="6.3" height="60.9"/>
				</g>
			</g>
		</g>
		<g>
			<g>
				<g>
					<rect x="332.3" y="185.3" fill="#616363" width="49.2" height="6.3"/>
				</g>
			</g>
		</g>
		<g>
			<g>
				<g>
					
						<rect x="199.5" y="108.9" transform="matrix(0.4652 0.8852 -0.8852 0.4652 216.7613 -134.7536)" fill="#616363" width="40.9" height="6.3"/>
				</g>
			</g>
		</g>
		<g>
			<g>
				<g>
					
						<rect x="310.6" y="246.9" transform="matrix(0.7038 0.7104 -0.7104 0.7038 275.706 -161.1098)" fill="#616363" width="40.8" height="6.3"/>
				</g>
			</g>
		</g>
		<g>
			<g>
				<g>
					<rect x="128" y="181.9" fill="#616363" width="62.9" height="6.3"/>
				</g>
			</g>
		</g>
		<g>
			<g>
				<g>
					<circle fill="#FCB856" cx="381.5" cy="188.4" r="15"/>
				</g>
			</g>
		</g>
		<g>
			<g>
				<g>
					<path fill="#616363" d="M381.5,206.5c-10,0-18.1-8.1-18.1-18.1c0-10,8.1-18.1,18.1-18.1s18.1,8.1,18.1,18.1
						C399.6,198.4,391.5,206.5,381.5,206.5z M381.5,176.6c-6.5,0-11.8,5.3-11.8,11.8c0,6.5,5.3,11.8,11.8,11.8s11.8-5.3,11.8-11.8
						C393.3,181.9,388,176.6,381.5,176.6z"/>
				</g>
			</g>
		</g>
		<g>
			<g>
				<g>
					<circle fill="#FCB856" cx="350.9" cy="95.4" r="23.8"/>
				</g>
			</g>
		</g>
		<g>
			<g>
				<g>
					<path fill="#616363" d="M350.9,122.3c-7.6,0-14.8-3.2-19.9-8.8c-10-11-9.2-28,1.8-38c5-4.5,11.4-7,18.1-7
						c7.6,0,14.8,3.2,19.9,8.8c4.8,5.3,7.3,12.2,7,19.4c-0.3,7.2-3.5,13.8-8.8,18.6C364,119.8,357.6,122.3,350.9,122.3z M350.8,74.7
						c-5.1,0-10.1,1.9-13.9,5.4c-8.4,7.7-9,20.7-1.4,29.2c3.9,4.3,9.5,6.8,15.3,6.8c5.1,0,10.1-1.9,13.9-5.4
						c4.1-3.7,6.5-8.8,6.7-14.3c0.3-5.5-1.6-10.8-5.3-14.9C362.2,77.2,356.7,74.7,350.8,74.7z"/>
				</g>
			</g>
		</g>
		<g>
			<g>
				<g>
					<circle fill="#FCB856" cx="204.3" cy="85" r="12.5"/>
				</g>
			</g>
		</g>
		<g>
			<g>
				<g>
					<path fill="#616363" d="M204.3,100.6c-4.2,0-8.1-1.6-11-4.6c-6.1-6.1-6.1-16,0-22.1c2.9-2.9,6.9-4.6,11-4.6
						c4.2,0,8.1,1.6,11,4.6c2.9,2.9,4.6,6.9,4.6,11s-1.6,8.1-4.6,11C212.4,99,208.4,100.6,204.3,100.6z M204.3,75.7
						c-2.5,0-4.8,1-6.6,2.7c-3.6,3.6-3.6,9.6,0,13.2c1.8,1.8,4.1,2.7,6.6,2.7c2.5,0,4.8-1,6.6-2.7c1.8-1.8,2.7-4.1,2.7-6.6
						c0-2.5-1-4.8-2.7-6.6C209.1,76.6,206.8,75.7,204.3,75.7z"/>
				</g>
			</g>
		</g>
		<g>
			<g>
				<g>
					<circle fill="#FCB856" cx="345.4" cy="264.5" r="12.5"/>
				</g>
			</g>
		</g>
		<g>
			<g>
				<g>
					<path fill="#616363" d="M345.4,280.2c-4.2,0-8.1-1.6-11-4.6c-2.9-2.9-4.6-6.9-4.6-11c0-4.2,1.6-8.1,4.6-11
						c2.9-2.9,6.9-4.6,11-4.6c4.2,0,8.1,1.6,11,4.6c6.1,6.1,6.1,16,0,22.1C353.5,278.5,349.6,280.2,345.4,280.2z M345.4,255.2
						c-2.5,0-4.8,1-6.6,2.7c-1.8,1.8-2.7,4.1-2.7,6.6c0,2.5,1,4.8,2.7,6.6c1.8,1.8,4.1,2.7,6.6,2.7s4.8-1,6.6-2.7
						c3.6-3.6,3.6-9.6,0-13.2C350.2,256.2,347.9,255.2,345.4,255.2z"/>
				</g>
			</g>
		</g>
		<g>
			<g>
				<g>
					<path fill="#FCB856" d="M127.8,197.6c-6.9-0.1-12.4-5.8-12.3-12.7c0.1-6.9,5.8-12.5,12.6-12.4c6.9,0.1,12.4,5.8,12.3,12.7
						C140.4,192.2,134.7,197.7,127.8,197.6z"/>
				</g>
			</g>
		</g>
		<g>
			<g>
				<g>
					<path fill="#616363" d="M128,200.8l-0.2,0c-8.6-0.1-15.5-7.3-15.4-15.9c0.1-8.5,7.1-15.4,15.6-15.4l0.2,0
						c8.6,0.1,15.5,7.3,15.4,15.9C143.5,193.8,136.5,200.8,128,200.8z M128.1,175.7c-5.2,0-9.4,4.2-9.5,9.3
						c-0.1,5.2,4.1,9.5,9.2,9.5l0.1,0c5.1,0,9.2-4.2,9.3-9.3C137.4,180,133.3,175.7,128.1,175.7
						C128.1,175.7,128.1,175.7,128.1,175.7z"/>
				</g>
			</g>
		</g>
	</g>
</g>
</svg>
