<?xml version="1.0" encoding="utf-8"?>
<!-- Generator: Adobe Illustrator 18.0.0, SVG Export Plug-In . SVG Version: 6.00 Build 0)  -->
<!DOCTYPE svg PUBLIC "-//W3C//DTD SVG 1.1//EN" "http://www.w3.org/Graphics/SVG/1.1/DTD/svg11.dtd">
<svg version="1.1" id="Layer_1" xmlns="http://www.w3.org/2000/svg" xmlns:xlink="http://www.w3.org/1999/xlink" x="0px" y="0px"
	 viewBox="0 0 512 512" enable-background="new 0 0 512 512" xml:space="preserve">
<g>
	<g>
		<text transform="matrix(1 0 0 1 46.8008 392.7622)" fill="#616363" font-family="'AvertaDemo-Regular'" font-size="53.0116">INTEREST RATES</text>
	</g>
	<g>
		<g>
			<g>
				<g>
					<g>
						<polygon fill="#FFFFFF" points="259,248.1 365.9,108.8 388.9,108.8 283.7,248.1 						"/>
					</g>
				</g>
			</g>
		</g>
		<g>
			<g>
				<g>
					<g>
						<polygon fill="#616363" points="141,247.7 136.5,243.3 177.6,201.2 199.3,219.8 228.2,189.9 232.7,194.3 199.7,228.5 
							178,209.8 						"/>
					</g>
				</g>
			</g>
		</g>
		<g>
			<g>
				<g>
					<g>
						<polygon fill="#616363" points="236.7,211.4 230.4,211.4 230.4,193.7 212,193.7 212,187.4 236.7,187.4 						"/>
					</g>
				</g>
			</g>
		</g>
		<g>
			<g>
				<g>
					<g>
						<path fill="#FFFFFF" d="M287.6,108.8c-13.9,0-25.2,11.3-25.2,25.2s11.3,25.2,25.2,25.2s25.2-11.3,25.2-25.2
							S301.5,108.8,287.6,108.8z M287.6,141.3c-4.1,0-7.4-3.3-7.4-7.4c0-4.1,3.3-7.4,7.4-7.4s7.4,3.3,7.4,7.4
							C295,138,291.7,141.3,287.6,141.3z"/>
					</g>
				</g>
			</g>
		</g>
		<g>
			<g>
				<g>
					<g>
						<path fill="#FFFFFF" d="M363.7,198.1c-13.9,0-25.2,11.3-25.2,25.2s11.3,25.2,25.2,25.2s25.2-11.3,25.2-25.2
							S377.6,198.1,363.7,198.1z M363.7,230.5c-4,0-7.2-3.2-7.2-7.2s3.2-7.2,7.2-7.2s7.2,3.2,7.2,7.2S367.7,230.5,363.7,230.5z"/>
					</g>
				</g>
			</g>
		</g>
		<g>
			<g>
				<g>
					<g>
						<path fill="#616363" d="M285.3,251.2h-32.7l111.8-145.6h30.8L285.3,251.2z M265.3,244.9h16.9l100.4-133h-15.1L265.3,244.9z"/>
					</g>
				</g>
			</g>
		</g>
		<g>
			<g>
				<g>
					<g>
						<path fill="#616363" d="M287.6,162.2c-15.6,0-28.3-12.7-28.3-28.3s12.7-28.3,28.3-28.3s28.3,12.7,28.3,28.3
							S303.2,162.2,287.6,162.2z M287.6,111.9c-12.2,0-22,9.9-22,22c0,12.1,9.9,22,22,22c12.1,0,22-9.9,22-22
							C309.7,121.8,299.8,111.9,287.6,111.9z M287.6,144.5c-5.8,0-10.5-4.7-10.5-10.5c0-5.8,4.7-10.5,10.5-10.5
							c5.8,0,10.5,4.7,10.5,10.5C298.2,139.7,293.4,144.5,287.6,144.5z M287.6,129.7c-2.3,0-4.3,1.9-4.3,4.3c0,2.3,1.9,4.3,4.3,4.3
							c2.3,0,4.3-1.9,4.3-4.3C291.9,131.6,290,129.7,287.6,129.7z"/>
					</g>
				</g>
			</g>
		</g>
		<g>
			<g>
				<g>
					<g>
						<g>
							<path fill="#CEECF3" d="M155.3,121.7c-15.1,0-27.4,12.2-27.4,27.4c0,15.1,12.2,27.4,27.4,27.4s27.4-12.2,27.4-27.4
								C182.7,133.9,170.4,121.7,155.3,121.7z"/>
						</g>
					</g>
				</g>
			</g>
		</g>
		<g>
			<g>
				<g>
					<g>
						<path fill="#616363" d="M155.3,179.5c-16.8,0-30.5-13.7-30.5-30.5s13.7-30.5,30.5-30.5s30.5,13.7,30.5,30.5
							S172.1,179.5,155.3,179.5z M155.3,124.8c-13.4,0-24.2,10.9-24.2,24.2c0,13.4,10.9,24.2,24.2,24.2c13.4,0,24.2-10.9,24.2-24.2
							C179.5,135.7,168.7,124.8,155.3,124.8z"/>
					</g>
				</g>
			</g>
		</g>
		<g>
			<g>
				<g>
					<g>
						<path fill="#FFFFFF" d="M204.6,108.8c-18.7,0-33.8,15.1-33.8,33.8s15.1,33.8,33.8,33.8s33.8-15.1,33.8-33.8
							S223.3,108.8,204.6,108.8z"/>
					</g>
				</g>
			</g>
		</g>
		<g>
			<g>
				<g>
					<g>
						<g>
							<path fill="#84D1DA" d="M204.6,108.8c-18.7,0-33.8,15.1-33.8,33.8s15.1,33.8,33.8,33.8s33.8-15.1,33.8-33.8
								S223.3,108.8,204.6,108.8z"/>
						</g>
					</g>
				</g>
			</g>
		</g>
		<g>
			<g>
				<g>
					<g>
						<path fill="#616363" d="M204.6,179.5c-20.4,0-37-16.6-37-37s16.6-37,37-37s37,16.6,37,37S225,179.5,204.6,179.5z M204.6,111.9
							c-16.9,0-30.7,13.8-30.7,30.7s13.8,30.7,30.7,30.7s30.7-13.8,30.7-30.7S221.5,111.9,204.6,111.9z"/>
					</g>
				</g>
			</g>
		</g>
		<g>
			<g>
				<g>
					<g>
						<path fill="#616363" d="M363.7,251.6c-15.6,0-28.3-12.7-28.3-28.3s12.7-28.3,28.3-28.3s28.3,12.7,28.3,28.3
							S379.3,251.6,363.7,251.6z M363.7,201.2c-12.1,0-22,9.9-22,22c0,12.2,9.9,22,22,22c12.2,0,22-9.9,22-22
							C385.7,211.1,375.8,201.2,363.7,201.2z M363.7,233.6c-5.7,0-10.4-4.7-10.4-10.4s4.7-10.4,10.4-10.4c5.7,0,10.4,4.7,10.4,10.4
							S369.4,233.6,363.7,233.6z M363.7,219.2c-2.3,0-4.1,1.8-4.1,4.1s1.8,4.1,4.1,4.1c2.3,0,4.1-1.8,4.1-4.1S366,219.2,363.7,219.2
							z"/>
					</g>
				</g>
			</g>
		</g>
		<g>
			<g>
				<g>
					<g>
						<rect x="201.5" y="125.5" fill="#616363" width="6.3" height="34.2"/>
					</g>
				</g>
			</g>
		</g>
		<g>
			<g>
				<g>
					<g>
						<rect x="187.5" y="139.4" fill="#616363" width="34.2" height="6.3"/>
					</g>
				</g>
			</g>
		</g>
		<g>
			<g>
				<g>
					<g>
						<rect x="141.5" y="145.9" fill="#616363" width="27.6" height="6.3"/>
					</g>
				</g>
			</g>
		</g>
	</g>
</g>
</svg>
