<?xml version="1.0" encoding="utf-8"?>
<!-- Generator: Adobe Illustrator 18.0.0, SVG Export Plug-In . SVG Version: 6.00 Build 0)  -->
<!DOCTYPE svg PUBLIC "-//W3C//DTD SVG 1.1//EN" "http://www.w3.org/Graphics/SVG/1.1/DTD/svg11.dtd">
<svg version="1.1" id="Layer_1" xmlns="http://www.w3.org/2000/svg" xmlns:xlink="http://www.w3.org/1999/xlink" x="0px" y="0px"
	 viewBox="0 0 512 512" enable-background="new 0 0 512 512" xml:space="preserve">
<g>
	<g>
		<text transform="matrix(1 0 0 1 96.5796 432.082)" fill="#616363" font-family="'AvertaDemo-Regular'" font-size="53.0116">INVESTMENT</text>
	</g>
	<g>
		<g>
			<g>
				<g>
					<g>
						<polygon fill="#616363" points="393.1,180 386.8,180 386.8,151.7 357.8,151.7 357.8,145.4 393.1,145.4 						"/>
					</g>
				</g>
			</g>
		</g>
		<g>
			<g>
				<g>
					<g>
						<path fill="#FCB856" d="M167.6,207.4l77.9-89.4c-15.8-9.6-34.4-15.2-54.3-15.2c-57.8,0-104.6,46.8-104.6,104.6
							c0,57.8,46.8,104.6,104.6,104.6c20.3,0,39.2-5.8,55.2-15.7L167.6,207.4z"/>
					</g>
				</g>
			</g>
		</g>
		<g>
			<g>
				<g>
					<g>
						<path fill="#616363" d="M191.2,315.1c-6,0-11.7-0.6-16.4-1.2c-23.6-3.1-43.4-16.8-44.2-17.4c-29.5-20.1-47.1-53.4-47.1-89.1
							c0-59.4,48.3-107.7,107.7-107.7c19.8,0,39.1,5.4,55.9,15.6l3.2,1.9l-78.5,90.1l79.4,89.6l-3.2,2
							C231,309.5,211.4,315.1,191.2,315.1z M191.2,105.9c-55.9,0-101.4,45.5-101.4,101.4c0,33.6,16.6,65,44.4,83.9
							c0.2,0.2,19.4,13.5,41.4,16.4c4.6,0.6,10,1.2,15.6,1.2c17.7,0,35.1-4.6,50.3-13.4l-78.1-88.1l77.2-88.6
							C225.6,110.4,208.6,105.9,191.2,105.9z"/>
					</g>
				</g>
			</g>
		</g>
		<g>
			<g>
				<g>
					<g>
						<path fill="#CEECF3" d="M272.4,141.4L215,207.2l58,65.2c14.3-17.9,22.8-40.5,22.8-65.1C295.8,182.4,287,159.4,272.4,141.4z"/>
					</g>
				</g>
			</g>
		</g>
		<g>
			<g>
				<g>
					<g>
						<g>
							<g>
								<path fill="#FCB856" d="M325.5,115c0,8.1-5.7,13.9-15.4,14.6v9.7h-5.3v-9.7c-5.9-0.7-11.6-3.3-16.3-7.8l4.2-5
									c4.5,4.4,10.2,6.6,15.4,6.6c5.9,0,10.2-2.9,10.2-7.9c0-5.7-4.6-7.6-11.9-9.9c-8.7-2.8-16.7-5.5-16.7-15
									c0-7.7,5.4-13.6,15.1-14.1V66.3h5.3v10.4c4.8,0.9,10,3,13.6,5.8l-4,4.9c-4.2-3-9.5-4.7-13.4-4.7c-5.6,0-9.5,2.6-9.5,7.3
									c0,5,4.8,6.8,11.5,9C318.1,102.1,325.5,104.8,325.5,115L325.5,115z"/>
							</g>
						</g>
					</g>
				</g>
			</g>
		</g>
		<g>
			<g>
				<g>
					<g>
						<polygon fill="#616363" points="166.8,293.8 161.9,289.9 213.5,224.2 323.1,224.2 385,146.6 389.9,150.5 326.2,230.5 
							216.5,230.5 						"/>
					</g>
				</g>
			</g>
		</g>
		<g>
			<g>
				<g>
					<g>
						<path fill="#616363" d="M273.1,277.3l-62.3-70.1l61.5-70.6l2.4,2.7c1.1,1.2,25.9,29.8,24.1,71.5c0,0.9-0.9,21.8-7.4,35.8
							c-0.6,1.8-5,14.3-16,27.8L273.1,277.3z M219.2,207.2l53.7,60.4c9.1-12.1,12.6-22.9,12.6-23l0.1-0.4c6-12.9,6.9-33.4,6.9-33.6
							c1.4-31.9-14.4-56.2-20.3-64.2L219.2,207.2z"/>
					</g>
				</g>
			</g>
		</g>
		<g>
			<g>
				<g>
					<g>
						<polygon fill="#84D1DA" points="367.1,237.6 332.1,270.2 350.6,270.2 350.6,325.2 383.7,325.2 383.7,270.2 402.2,270.2 						
							"/>
					</g>
				</g>
			</g>
		</g>
		<g>
			<g>
				<g>
					<g>
						<path fill="#616363" d="M386.8,328.3h-39.4v-55h-23.3l43-40.1l43,40.1h-23.3V328.3z M353.7,322h26.8v-55h13.7l-27.1-25.2
							l-27.1,25.2h13.7V322z"/>
					</g>
				</g>
			</g>
		</g>
	</g>
</g>
</svg>
