<?xml version="1.0" encoding="utf-8"?>
<!-- Generator: Adobe Illustrator 18.0.0, SVG Export Plug-In . SVG Version: 6.00 Build 0)  -->
<!DOCTYPE svg PUBLIC "-//W3C//DTD SVG 1.1//EN" "http://www.w3.org/Graphics/SVG/1.1/DTD/svg11.dtd">
<svg version="1.1" id="Layer_1" xmlns="http://www.w3.org/2000/svg" xmlns:xlink="http://www.w3.org/1999/xlink" x="0px" y="0px"
	 viewBox="0 0 512 512" enable-background="new 0 0 512 512" xml:space="preserve">
<g>
	<g>
		<text transform="matrix(1 0 0 1 60.8159 420.4167)" fill="#616363" font-family="'AvertaDemo-Regular'" font-size="53.0116">JAPANESE YEN</text>
	</g>
	<g>
		<g>
			<g>
				<g>
					<g>
						<g>
							<g>
								<rect x="80" y="81.1" fill="#CEECF3" width="272.9" height="136.5"/>
							</g>
						</g>
					</g>
				</g>
				<g>
					<g>
						<g>
							<g>
								<path fill="#FCB856" d="M80,114.3c18.3,0,33.2-14.9,33.2-33.2H80V114.3z"/>
							</g>
						</g>
					</g>
				</g>
				<g>
					<g>
						<g>
							<g>
								<path fill="#FCB856" d="M352.9,114.3c-18.3,0-33.2-14.9-33.2-33.2h33.2V114.3z"/>
							</g>
						</g>
					</g>
				</g>
				<g>
					<g>
						<g>
							<g>
								<path fill="#FCB856" d="M352.9,183.7c-18.3,0-33.2,14.9-33.2,33.2l33.2,0V183.7z"/>
							</g>
						</g>
					</g>
				</g>
				<g>
					<g>
						<g>
							<g>
								<path fill="#FCB856" d="M80,183.7c18.3,0,33.2,14.9,33.2,33.2l-33.2,0V183.7z"/>
							</g>
						</g>
					</g>
				</g>
				<g>
					<g>
						<g>
							<g>
								<path fill="#616363" d="M80,117.4h-3.1V78h39.5v3.1C116.3,101.1,100,117.4,80,117.4z M83.1,84.2V111
									c14.1-1.5,25.3-12.7,26.7-26.7H83.1z"/>
							</g>
						</g>
					</g>
				</g>
				<g>
					<g>
						<g>
							<g>
								<path fill="#616363" d="M356.1,117.4h-3.1c-20,0-36.3-16.3-36.3-36.3V78h39.5V117.4z M323.1,84.2
									c1.5,14.1,12.7,25.3,26.7,26.7V84.2H323.1z"/>
							</g>
						</g>
					</g>
				</g>
				<g>
					<g>
						<g>
							<g>
								<path fill="#616363" d="M356.1,220.1h-39.5v-3.1c0-20,16.3-36.3,36.3-36.3h3.1V220.1z M323.1,213.8h26.7V187
									C335.7,188.5,324.5,199.7,323.1,213.8z"/>
							</g>
						</g>
					</g>
				</g>
				<g>
					<g>
						<g>
							<g>
								<path fill="#616363" d="M116.3,220.1H76.8v-39.5H80c20,0,36.3,16.3,36.3,36.3V220.1z M83.1,213.8h26.7
									c-1.5-14.1-12.7-25.3-26.7-26.7V213.8z"/>
							</g>
						</g>
					</g>
				</g>
				<g>
					<g>
						<g>
							<g>
								<path fill="#616363" d="M356,220.7H76.8V78H356V220.7z M83.1,214.4h266.6V84.2H83.1V214.4z"/>
							</g>
						</g>
					</g>
				</g>
				<g>
					<g>
						<g>
							<g>
								<circle fill="#FCB856" cx="216.4" cy="149.3" r="39.7"/>
							</g>
						</g>
					</g>
				</g>
				<g>
					<g>
						<g>
							<g>
								<path fill="#616363" d="M216.4,192.1c-23.6,0-42.8-19.2-42.8-42.8s19.2-42.8,42.8-42.8c23.6,0,42.8,19.2,42.8,42.8
									S240,192.1,216.4,192.1z M216.4,112.8c-20.1,0-36.5,16.4-36.5,36.5s16.4,36.5,36.5,36.5s36.5-16.4,36.5-36.5
									S236.6,112.8,216.4,112.8z"/>
							</g>
						</g>
					</g>
				</g>
			</g>
			<g>
				<g>
					<g>
						<g>
							<g>
								<rect x="107.5" y="105.4" fill="#CEECF3" width="272.9" height="136.5"/>
							</g>
						</g>
					</g>
				</g>
				<g>
					<g>
						<g>
							<g>
								<path fill="#FCB856" d="M107.5,138.5c18.3,0,33.2-14.9,33.2-33.2h-33.2L107.5,138.5z"/>
							</g>
						</g>
					</g>
				</g>
				<g>
					<g>
						<g>
							<g>
								<path fill="#FCB856" d="M380.5,138.5c-18.3,0-33.2-14.9-33.2-33.2h33.2V138.5z"/>
							</g>
						</g>
					</g>
				</g>
				<g>
					<g>
						<g>
							<g>
								<path fill="#FCB856" d="M380.5,208c-18.3,0-33.2,14.9-33.2,33.2h33.2L380.5,208z"/>
							</g>
						</g>
					</g>
				</g>
				<g>
					<g>
						<g>
							<g>
								<path fill="#FCB856" d="M107.5,208c18.3,0,33.2,14.9,33.2,33.2h-33.2V208z"/>
							</g>
						</g>
					</g>
				</g>
				<g>
					<g>
						<g>
							<g>
								<path fill="#616363" d="M107.5,141.7h-3.1v-39.5h39.5v3.1C143.8,125.4,127.5,141.7,107.5,141.7z M110.7,108.5v26.7
									c14.1-1.5,25.3-12.7,26.7-26.7H110.7z"/>
							</g>
						</g>
					</g>
				</g>
				<g>
					<g>
						<g>
							<g>
								<path fill="#616363" d="M383.6,141.7h-3.1c-20,0-36.3-16.3-36.3-36.3v-3.1h39.5V141.7z M350.6,108.5
									c1.5,14.1,12.7,25.3,26.7,26.7v-26.7H350.6z"/>
							</g>
						</g>
					</g>
				</g>
				<g>
					<g>
						<g>
							<g>
								<path fill="#616363" d="M383.6,244.3h-39.5v-3.1c0-20,16.3-36.3,36.3-36.3h3.1V244.3z M350.6,238h26.7v-26.7
									C363.3,212.8,352.1,224,350.6,238z"/>
							</g>
						</g>
					</g>
				</g>
				<g>
					<g>
						<g>
							<g>
								<path fill="#616363" d="M143.8,244.3h-39.5v-39.5h3.1c20,0,36.3,16.3,36.3,36.3V244.3z M110.7,238h26.7
									c-1.5-14.1-12.7-25.3-26.7-26.7V238z"/>
							</g>
						</g>
					</g>
				</g>
				<g>
					<g>
						<g>
							<g>
								<path fill="#616363" d="M383.6,244.9H104.4V102.2h279.2V244.9z M110.7,238.7h266.6V108.5H110.7V238.7z"/>
							</g>
						</g>
					</g>
				</g>
				<g>
					<g>
						<g>
							<g>
								<circle fill="#FCB856" cx="244" cy="173.6" r="39.7"/>
							</g>
						</g>
					</g>
				</g>
				<g>
					<g>
						<g>
							<g>
								<path fill="#616363" d="M244,216.4c-23.6,0-42.8-19.2-42.8-42.8c0-23.6,19.2-42.8,42.8-42.8c23.6,0,42.8,19.2,42.8,42.8
									C286.8,197.2,267.6,216.4,244,216.4z M244,137c-20.1,0-36.5,16.4-36.5,36.5s16.4,36.5,36.5,36.5s36.5-16.4,36.5-36.5
									S264.1,137,244,137z"/>
							</g>
						</g>
					</g>
				</g>
			</g>
			<g>
				<g>
					<g>
						<g>
							<rect x="135.1" y="129.6" fill="#CEECF3" width="272.9" height="136.5"/>
						</g>
					</g>
				</g>
			</g>
			<g>
				<g>
					<g>
						<g>
							<path fill="#FCB856" d="M135.1,162.8c18.3,0,33.2-14.9,33.2-33.2h-33.2V162.8z"/>
						</g>
					</g>
				</g>
			</g>
			<g>
				<g>
					<g>
						<g>
							<path fill="#FCB856" d="M408,162.8c-18.3,0-33.2-14.9-33.2-33.2H408V162.8z"/>
						</g>
					</g>
				</g>
			</g>
			<g>
				<g>
					<g>
						<g>
							<path fill="#FCB856" d="M408,232.2c-18.3,0-33.2,14.9-33.2,33.2H408V232.2z"/>
						</g>
					</g>
				</g>
			</g>
			<g>
				<g>
					<g>
						<g>
							<path fill="#FCB856" d="M135.1,232.2c18.3,0,33.2,14.9,33.2,33.2h-33.2V232.2z"/>
						</g>
					</g>
				</g>
			</g>
			<g>
				<g>
					<g>
						<g>
							<path fill="#616363" d="M135.1,165.9h-3.1v-39.5h39.5v3.1C171.4,149.6,155.1,165.9,135.1,165.9z M138.2,132.7v26.7
								c14.1-1.5,25.3-12.7,26.7-26.7H138.2z"/>
						</g>
					</g>
				</g>
			</g>
			<g>
				<g>
					<g>
						<g>
							<path fill="#616363" d="M411.2,165.9H408c-20,0-36.3-16.3-36.3-36.3v-3.1h39.5V165.9z M378.2,132.7
								c1.5,14.1,12.7,25.3,26.7,26.7v-26.7H378.2z"/>
						</g>
					</g>
				</g>
			</g>
			<g>
				<g>
					<g>
						<g>
							<path fill="#616363" d="M411.2,268.6h-39.5v-3.1c0-20,16.3-36.3,36.3-36.3h3.1V268.6z M378.2,262.3h26.7v-26.7
								C390.8,237,379.6,248.2,378.2,262.3z"/>
						</g>
					</g>
				</g>
			</g>
			<g>
				<g>
					<g>
						<g>
							<path fill="#616363" d="M171.4,268.6h-39.5v-39.5h3.1c20,0,36.3,16.3,36.3,36.3V268.6z M138.2,262.3h26.7
								c-1.5-14.1-12.7-25.3-26.7-26.7V262.3z"/>
						</g>
					</g>
				</g>
			</g>
			<g>
				<g>
					<g>
						<g>
							<path fill="#616363" d="M411.1,269.2H131.9V126.5h279.2V269.2z M138.2,262.9h266.6V132.7H138.2V262.9z"/>
						</g>
					</g>
				</g>
			</g>
			<g>
				<g>
					<g>
						<g>
							<circle fill="#FCB856" cx="271.5" cy="197.8" r="39.7"/>
						</g>
					</g>
				</g>
			</g>
			<g>
				<g>
					<g>
						<g>
							<path fill="#616363" d="M271.5,240.6c-23.6,0-42.8-19.2-42.8-42.8c0-23.6,19.2-42.8,42.8-42.8c23.6,0,42.8,19.2,42.8,42.8
								C314.3,221.4,295.1,240.6,271.5,240.6z M271.5,161.3c-20.1,0-36.5,16.4-36.5,36.5s16.4,36.5,36.5,36.5s36.5-16.4,36.5-36.5
								S291.7,161.3,271.5,161.3z"/>
						</g>
					</g>
				</g>
			</g>
			<g>
				<g>
					<g>
						<g>
							<g>
								<circle fill="#FFFFFF" cx="396.8" cy="263.4" r="51.2"/>
							</g>
						</g>
					</g>
				</g>
				<g>
					<g>
						<g>
							<g>
								<path fill="#616363" d="M396.8,317.8c-30,0-54.4-24.4-54.4-54.4s24.4-54.4,54.4-54.4c30,0,54.4,24.4,54.4,54.4
									S426.8,317.8,396.8,317.8z M396.8,215.3c-26.5,0-48.1,21.6-48.1,48.1c0,26.5,21.6,48.1,48.1,48.1
									c26.5,0,48.1-21.6,48.1-48.1C444.9,236.9,423.3,215.3,396.8,215.3z"/>
							</g>
						</g>
					</g>
				</g>
			</g>
		</g>
		<g>
			<g>
				<polygon fill="#FCB856" points="400.6,292.5 394.3,292.5 394.3,263.6 371.5,242 375.8,237.4 400.6,260.9 				"/>
			</g>
			<g>
				<polygon fill="#FCB856" points="400.6,292.5 394.3,292.5 394.3,260.9 419.2,237.4 423.5,242 400.6,263.6 				"/>
			</g>
			<g>
				<rect x="374.9" y="258.6" fill="#FCB856" width="46.5" height="6.3"/>
			</g>
			<g>
				<rect x="374.9" y="274.2" fill="#FCB856" width="46.5" height="6.3"/>
			</g>
		</g>
		<g>
			<g>
				<polygon fill="#FFFFFF" points="273.9,221.1 269.2,221.1 269.2,199.3 251.9,183 255.2,179.6 273.9,197.3 				"/>
			</g>
			<g>
				<polygon fill="#FFFFFF" points="273.9,221.1 269.2,221.1 269.2,197.3 287.9,179.6 291.1,183 273.9,199.3 				"/>
			</g>
			<g>
				<rect x="253.3" y="195.5" fill="#FFFFFF" width="37.4" height="4.7"/>
			</g>
			<g>
				<rect x="253.3" y="206.7" fill="#FFFFFF" width="37.4" height="4.7"/>
			</g>
		</g>
	</g>
</g>
</svg>
