<?xml version="1.0" encoding="utf-8"?>
<!-- Generator: Adobe Illustrator 18.0.0, SVG Export Plug-In . SVG Version: 6.00 Build 0)  -->
<!DOCTYPE svg PUBLIC "-//W3C//DTD SVG 1.1//EN" "http://www.w3.org/Graphics/SVG/1.1/DTD/svg11.dtd">
<svg version="1.1" id="Layer_1" xmlns="http://www.w3.org/2000/svg" xmlns:xlink="http://www.w3.org/1999/xlink" x="0px" y="0px"
	 viewBox="0 0 512 512" enable-background="new 0 0 512 512" xml:space="preserve">
<g>
	<g>
		<text transform="matrix(1 0 0 1 135.9087 400.6514)" fill="#616363" font-family="'AvertaDemo-Regular'" font-size="53.0116">LEASING</text>
	</g>
	<g>
		<g>
			<g>
				<g>
					<g>
						<g>
							<path fill="#FCB856" d="M307.2,230l-14.5,4.4l-17.8,5.4l-26.8,8.2l-20.1,6.1l0,0c4.5-1.5,8.3-5,9.9-9.9
								c2.7-8.2-1.7-17-9.9-19.7l-66.1-22.1c-15-5-31.2-5.2-46.3-0.6l-19.2,7.3l0,0l0.1,72.7l15.7-4.1c15.3-4.7,19-0.6,34.2,4.3
								l18.1,5.9c0,0,12.6,2.9,26.2,4.1c0.1,0,0.2,0,0.3,0c1,0.1,2.1,0.2,3.1,0.2c0.1,0,0.2,0,0.3,0c2.1,0.1,4.1,0.2,6.2,0.2
								c0.1,0,0.2,0,0.4,0c1.9,0,3.8-0.1,5.6-0.3c0.1,0,0.3,0,0.4,0c1.7-0.2,3.4-0.4,4.9-0.7c0.2,0,0.4-0.1,0.5-0.1
								c0.7-0.2,1.5-0.3,2.2-0.6l69.3-21.1l17.8-5.4c0.2-0.1,0.4-0.1,0.6-0.2l13.9-4.2c8.2-2.5,12.9-11.2,10.4-19.4l0,0
								C324.2,232.2,315.4,227.5,307.2,230z"/>
						</g>
					</g>
				</g>
			</g>
			<g>
				<g>
					<g>
						<g>
							<g>
								<g>
									<g>
										<path fill="#616363" d="M200.3,295.6c-13.6,0-28.9-2.9-36.4-4.6l-0.3-0.1l-18.1-5.9c-3.2-1-5.9-2-8.2-2.9
											c-8.9-3.3-13-4.8-24.1-1.4l-19.7,5.2L93.3,207l21.4-8.2c15.8-4.8,32.5-4.6,48.2,0.7l66.1,22.1
											c9.8,3.3,15.1,13.9,11.9,23.7c-0.2,0.7-0.5,1.3-0.8,1.9l33.9-10.3c4.8-1.5,9.9-1,14.3,1.4c4.4,2.4,7.6,6.3,9.1,11.1
											c3,9.9-2.6,20.4-12.5,23.4l-69.3,21.1C211.3,295.1,205.9,295.6,200.3,295.6z M165.3,284.9c8.1,1.8,34.8,7,48.5,2.8
											l69.3-21.1c6.6-2,10.3-9,8.3-15.6c-1-3.2-3.1-5.8-6.1-7.4c-2.9-1.6-6.3-1.9-9.5-0.9l-46.9,14.3l0,0
											c-3.7,1.2-7.8,1.3-11.7,0l-43.4-14.4l2-6l43.4,14.4c3.2,1,6.5,0.8,9.5-0.7c3-1.5,5.2-4.1,6.2-7.2
											c2.2-6.5-1.4-13.6-7.9-15.8l-66.1-22.1c-14.4-4.8-29.8-5-44.3-0.6l-17.1,6.5l0.1,66.5l11.7-3.1c13.1-4,18.7-1.9,28,1.6
											c2.3,0.9,4.9,1.8,8,2.8L165.3,284.9z"/>
									</g>
								</g>
							</g>
						</g>
					</g>
					<g>
						<g>
							<g>
								<g>
									<g>
										<path fill="#616363" d="M200.3,295.6c-16.6,0-35.4-4.3-36.5-4.6l1.4-6.1c0.3,0.1,33,7.6,48.6,2.9l87.1-26.5
											c3.2-1,5.8-3.1,7.4-6.1c1.6-2.9,1.9-6.3,0.9-9.5c-1-3.2-3.1-5.8-6.1-7.4c-2.9-1.6-6.3-1.9-9.5-0.9l-17.8,5.4l-1.8-6
											l17.8-5.4c4.8-1.5,9.9-1,14.3,1.4c4.4,2.4,7.6,6.3,9.1,11.1c3,9.9-2.6,20.4-12.5,23.4l-87.1,26.5
											C211.3,295.1,205.9,295.6,200.3,295.6z"/>
									</g>
								</g>
							</g>
						</g>
					</g>
				</g>
				<g>
					<g>
						<g>
							<g>
								<path fill="#616363" d="M289.8,271.2l-1.8-6l27.4-8.3c6.6-2,10.3-9,8.3-15.5c-2-6.6-9-10.3-15.5-8.3L249,251l-1.8-6l59.1-18
									c9.9-3,20.4,2.6,23.4,12.5c3,9.9-2.6,20.4-12.5,23.4L289.8,271.2z"/>
							</g>
						</g>
					</g>
				</g>
			</g>
		</g>
		<g>
			<g>
				<g>
					<g>
						<path fill="#84D1DA" d="M264.1,141.1c-13.7,0-25.5,8.2-30.9,19.9h-53.2l-20.7,12.5v9l19.2,11.9l10.3-9.5h7.2l9.7,9.5l7.2-6.9
							l4.8,4.4h17c5.9,10.2,16.8,17.1,29.4,17.1c18.7,0,33.9-15.2,33.9-33.9C298,156.3,282.8,141.1,264.1,141.1z"/>
					</g>
				</g>
			</g>
		</g>
		<g>
			<g>
				<g>
					<g>
						<path fill="#FFFFFF" d="M295.5,187.7c-5,12.5-17.2,21.3-31.5,21.3c-3.7,0-7.2-0.6-10.5-1.6c-0.7-1.9-1.1-4-0.9-6.2
							c0.5-7.7,7.2-13.4,14.9-13.4H295.5z"/>
					</g>
				</g>
			</g>
		</g>
		<g>
			<g>
				<g>
					<g>
						<path fill="#616363" d="M264.1,212.1c-12.6,0-24.4-6.5-31.2-17.1h-16.4l-3.5-3.2l-7.2,7l-11-10.8h-4.7L179,198.3l-22.7-14.1
							v-12.6l22.9-13.9h52.1c6.4-12.2,19-19.9,32.8-19.9c20.4,0,37.1,16.6,37.1,37.1C301.1,195.4,284.5,212.1,264.1,212.1z
							 M218.9,188.7h17.6l0.9,1.6c5.5,9.6,15.7,15.5,26.7,15.5c17,0,30.8-13.8,30.8-30.8s-13.8-30.8-30.8-30.8c-12,0-23,7.1-28,18.1
							l-0.8,1.8h-54.3l-18.4,11.1v5.5l15.7,9.7l9.4-8.7h9.7l8.4,8.3l7.1-6.8L218.9,188.7z"/>
					</g>
				</g>
			</g>
		</g>
		<g>
			<g>
				<g>
					<g>
						<g>
							<path fill="#FFFFFF" d="M415.6,121v73.3h-0.4c-13.2,0-26,3.8-37,11c-10.7,7-23,11.1-35.8,11.1H267c-6.1,0-11.3-3.8-13.4-9.2
								c-0.7-1.9-1.1-4-0.9-6.2c0.5-7.7,7.2-13.4,14.9-13.4h46.2c9.8,0,20-3.5,26.6-11c6.6-7.5,9.2-19,5-28.3
								c-4.2-9.4-14.4-15.3-24.6-14.6c-12.2,0.8-20.6,7.3-29.4,15.2c-0.7,0.6-1.7,1.5-2.8,2.6c-6.2-6.5-14.9-10.5-24.6-10.5
								c-3.4,0-6.7,0.5-9.7,1.4c4.7-4.8,8.8-8.8,15.9-15.7c7.9-7.6,17.2-15.6,27.6-20.6c6.6-3.2,13.7-5.3,21.1-5.3
								c13.8,0,27.4,5.4,37.3,10.7c11.8,6.3,25.1,9.5,38.5,9.5H415.6z"/>
						</g>
					</g>
				</g>
			</g>
		</g>
		<g>
			<g>
				<g>
					<g>
						<g>
							<path fill="#616363" d="M342.4,219.6H267c-7.3,0-13.7-4.4-16.4-11.2c-0.9-2.4-1.3-4.9-1.1-7.5c0.6-9.2,8.5-16.4,18-16.4h46.2
								c9.8,0,18.7-3.6,24.2-9.9c6.1-7,8-17.2,4.5-24.9c-3.6-8.1-12.5-13.3-21.5-12.7c-11.6,0.8-19.6,7.3-27.5,14.4
								c-0.6,0.6-1.6,1.5-2.7,2.5l-2.3,2.2l-2.2-2.3c-5.9-6.2-13.8-9.6-22.3-9.6c-3,0-6,0.4-8.8,1.3l-11.7,3.5l8.5-8.7
								c4.6-4.7,8.7-8.7,16-15.8c6.6-6.4,16.7-15.5,28.4-21.2c7.6-3.7,15.2-5.6,22.5-5.6c14.8,0,29.3,6,38.8,11
								c11.3,6,24.1,9.1,37,9.1h24v79.6h-3.5c-12.6,0-24.8,3.6-35.3,10.5C368.3,215.6,355.4,219.6,342.4,219.6z M267.5,190.8
								c-6.2,0-11.4,4.6-11.7,10.5c-0.1,1.7,0.1,3.3,0.7,4.8c1.7,4.4,5.8,7.2,10.5,7.2h75.4c11.7,0,23.5-3.7,34-10.6
								c10.8-7.1,23.2-11,36-11.5v-67.1h-17.7c-14,0-27.8-3.4-39.9-9.8c-8.9-4.7-22.3-10.3-35.9-10.3c-6.3,0-13,1.7-19.7,5
								c-10.9,5.3-20.5,14-26.8,20.1c-3.7,3.6-6.6,6.4-9.2,8.9c9.3-0.1,18.4,3.2,25.4,9.3c0.2-0.2,0.5-0.4,0.6-0.6
								c8.4-7.6,17.7-15.1,31.3-16c11.7-0.8,23,6,27.6,16.4c4.4,9.9,2.2,22.9-5.5,31.6c-6.8,7.7-17.3,12-28.9,12H267.5z"/>
						</g>
					</g>
				</g>
			</g>
		</g>
		<g>
			<g>
				<g>
					<g>
						<circle fill="#616363" cx="274.1" cy="175" r="7.7"/>
					</g>
				</g>
			</g>
		</g>
		<g>
			<g>
				<g>
					<g>
						<rect x="159.4" y="170.3" fill="#616363" width="73.4" height="6.3"/>
					</g>
				</g>
			</g>
		</g>
	</g>
</g>
</svg>
