<?xml version="1.0" encoding="utf-8"?>
<!-- Generator: Adobe Illustrator 18.0.0, SVG Export Plug-In . SVG Version: 6.00 Build 0)  -->
<!DOCTYPE svg PUBLIC "-//W3C//DTD SVG 1.1//EN" "http://www.w3.org/Graphics/SVG/1.1/DTD/svg11.dtd">
<svg version="1.1" id="Layer_1" xmlns="http://www.w3.org/2000/svg" xmlns:xlink="http://www.w3.org/1999/xlink" x="0px" y="0px"
	 viewBox="0 0 512 512" enable-background="new 0 0 512 512" xml:space="preserve">
<g>
	<g>
		<text transform="matrix(1 0 0 1 67.1074 424.4946)" fill="#616363" font-family="'AvertaDemo-Regular'" font-size="53.0116">MANAGEMENT</text>
	</g>
	<g>
		<g>
			<g>
				<g>
					<circle fill="#84D1DA" cx="244.1" cy="202.9" r="125.9"/>
				</g>
			</g>
		</g>
		<g>
			<g>
				<g>
					<circle fill="#FFFCFD" cx="244.1" cy="202.9" r="101.3"/>
				</g>
			</g>
		</g>
		<g>
			<g>
				<g>
					<g>
						<path fill="#FCB856" d="M273.6,223.7c0,13-9.1,22.1-24.6,23.3v15.4h-8.5v-15.5c-9.4-1.1-18.5-5.2-26-12.5l6.6-7.9
							c7.1,7,16.3,10.6,24.5,10.6c9.4,0,16.3-4.7,16.3-12.7c0-9.1-7.3-12.2-19.1-15.8c-13.9-4.5-26.6-8.8-26.6-24
							c0-12.4,8.6-21.7,24.1-22.5V146h8.5v16.6c7.7,1.4,16,4.8,21.7,9.2l-6.4,7.9c-6.7-4.8-15.1-7.5-21.4-7.5
							c-8.9,0-15.1,4.2-15.1,11.6c0,7.9,7.7,10.9,18.3,14.3C261.8,203.2,273.6,207.4,273.6,223.7L273.6,223.7z"/>
					</g>
				</g>
			</g>
		</g>
		<g>
			<g>
				<g>
					<circle fill="#616363" cx="244.1" cy="202.9" r="10.4"/>
				</g>
			</g>
		</g>
		<g>
			<g>
				<g>
					
						<rect x="233.5" y="226.6" transform="matrix(0.7071 0.7071 -0.7071 0.7071 241.4129 -123.3337)" fill="#616363" width="72.2" height="6.3"/>
				</g>
			</g>
		</g>
		<g>
			<g>
				<g>
					<rect x="184.2" y="199.8" fill="#616363" width="59.9" height="6.3"/>
				</g>
			</g>
		</g>
		<g>
			<g>
				<g>
					<g>
						<rect x="240.9" y="111.7" fill="#616363" width="6.3" height="10.6"/>
					</g>
				</g>
			</g>
			<g>
				<g>
					<g>
						<rect x="240.9" y="284.8" fill="#616363" width="6.3" height="10.6"/>
					</g>
				</g>
			</g>
			<g>
				<g>
					<g>
						<rect x="325.3" y="200.4" fill="#616363" width="10.6" height="6.3"/>
					</g>
				</g>
			</g>
			<g>
				<g>
					<g>
						<rect x="152.2" y="200.4" fill="#616363" width="10.6" height="6.3"/>
					</g>
				</g>
			</g>
		</g>
		<g>
			<g>
				<g>
					<path fill="#616363" d="M244.1,332c-71.2,0-129-57.9-129-129c0-71.2,57.9-129,129-129c71.2,0,129,57.9,129,129
						C373.1,274.1,315.2,332,244.1,332z M244.1,80.2c-67.7,0-122.8,55.1-122.8,122.8c0,67.7,55.1,122.8,122.8,122.8
						s122.8-55.1,122.8-122.8C366.8,135.2,311.8,80.2,244.1,80.2z"/>
				</g>
			</g>
		</g>
	</g>
</g>
</svg>
