<?xml version="1.0" encoding="utf-8"?>
<!-- Generator: Adobe Illustrator 18.0.0, SVG Export Plug-In . SVG Version: 6.00 Build 0)  -->
<!DOCTYPE svg PUBLIC "-//W3C//DTD SVG 1.1//EN" "http://www.w3.org/Graphics/SVG/1.1/DTD/svg11.dtd">
<svg version="1.1" id="Layer_1" xmlns="http://www.w3.org/2000/svg" xmlns:xlink="http://www.w3.org/1999/xlink" x="0px" y="0px"
	 viewBox="0 0 512 512" enable-background="new 0 0 512 512" xml:space="preserve">
<g>
	<g>
		<text transform="matrix(1 0 0 1 28.6816 433.1103)" fill="#616363" font-family="'AvertaDemo-Regular'" font-size="53.0116">MOBILE BANKING</text>
	</g>
	<g>
		<g>
			<g>
				<g>
					<g>
						<g>
							<path fill="#FCB856" d="M320.9,349.1H196.7c-11,0-20-8.9-20-20V88.4c0-11,8.9-20,20-20h124.2c11,0,20,8.9,20,20v240.8
								C340.9,340.2,331.9,349.1,320.9,349.1z"/>
						</g>
					</g>
				</g>
			</g>
			<g>
				<g>
					<g>
						<g>
							<path fill="#616363" d="M320.9,352.3H203.4V346h117.6c9.3,0,16.8-7.5,16.8-16.8V88.4c0-9.3-7.5-16.8-16.8-16.8H196.7
								c-9.3,0-16.8,7.5-16.8,16.8v158.5h-6.3V88.4c0-12.7,10.4-23.1,23.1-23.1h124.2c12.7,0,23.1,10.4,23.1,23.1v240.8
								C344,341.9,333.7,352.3,320.9,352.3z"/>
						</g>
					</g>
				</g>
			</g>
		</g>
		<g>
			<g>
				<g>
					<g>
						<rect x="199" y="99.8" fill="#CEECF3" width="119.7" height="200.9"/>
					</g>
				</g>
			</g>
		</g>
		<g>
			<g>
				<g>
					<g>
						<g>
							<path fill="#84D1DA" d="M276.9,212.2c0,7.9-5.6,13.5-15,14.3v9.4h-5.2v-9.5c-5.8-0.6-11.3-3.2-15.9-7.6l4.1-4.9
								c4.4,4.3,10,6.5,15,6.5c5.7,0,10-2.9,10-7.8c0-5.6-4.5-7.4-11.7-9.7c-8.5-2.7-16.3-5.4-16.3-14.7c0-7.6,5.3-13.3,14.8-13.8
								v-9.8h5.2v10.2c4.7,0.8,9.8,3,13.3,5.7l-3.9,4.8c-4.1-3-9.3-4.6-13.1-4.6c-5.4,0-9.2,2.5-9.2,7.1c0,4.9,4.7,6.7,11.2,8.8
								C269.7,199.6,276.9,202.2,276.9,212.2L276.9,212.2z"/>
						</g>
					</g>
				</g>
			</g>
		</g>
		<g>
			<g>
				<g>
					<g>
						<rect x="131.6" y="287" fill="#CEECF3" width="71.7" height="62.1"/>
					</g>
				</g>
			</g>
		</g>
		<g>
			<g>
				<g>
					<g>
						<path fill="#616363" d="M206.5,352.3h-78v-68.4h78V352.3z M134.8,346h65.5v-55.9h-65.5V346z"/>
					</g>
				</g>
			</g>
		</g>
		<g>
			<g>
				<g>
					<g>
						<rect x="246.6" y="83" fill="#616363" width="24.5" height="6.3"/>
					</g>
				</g>
			</g>
		</g>
		<g>
			<g>
				<g>
					<g>
						<path fill="#616363" d="M195.6,289.5h-54.2v-18.7c0-15,12.2-27.1,27.1-27.1c15,0,27.1,12.2,27.1,27.1V289.5z M147.6,283.3
							h41.7v-12.4c0-11.5-9.4-20.8-20.8-20.8c-11.5,0-20.8,9.4-20.8,20.8V283.3z"/>
					</g>
				</g>
			</g>
		</g>
		<g>
			<g>
				<g>
					<g>
						<path fill="#616363" d="M268.8,336.1h-20c-6.7,0-12.2-5.5-12.2-12.2c0-6.7,5.5-12.2,12.2-12.2h20c6.7,0,12.2,5.5,12.2,12.2
							C281,330.6,275.6,336.1,268.8,336.1z M248.8,318.1c-3.2,0-5.9,2.6-5.9,5.9c0,3.2,2.6,5.9,5.9,5.9h20c3.2,0,5.9-2.6,5.9-5.9
							c0-3.2-2.6-5.9-5.9-5.9H248.8z"/>
					</g>
				</g>
			</g>
		</g>
		<g>
			<g>
				<g>
					<g>
						<polygon fill="#616363" points="161.7,332.7 150,320.2 154.5,315.9 161.9,323.7 180.5,305.7 184.9,310.2 						"/>
					</g>
				</g>
			</g>
		</g>
	</g>
</g>
</svg>
