<?xml version="1.0" encoding="utf-8"?>
<!-- Generator: Adobe Illustrator 18.0.0, SVG Export Plug-In . SVG Version: 6.00 Build 0)  -->
<!DOCTYPE svg PUBLIC "-//W3C//DTD SVG 1.1//EN" "http://www.w3.org/Graphics/SVG/1.1/DTD/svg11.dtd">
<svg version="1.1" id="Layer_1" xmlns="http://www.w3.org/2000/svg" xmlns:xlink="http://www.w3.org/1999/xlink" x="0px" y="0px"
	 viewBox="0 0 512 512" enable-background="new 0 0 512 512" xml:space="preserve">
<g>
	<g>
		<text transform="matrix(1 0 0 1 97.418 425.5375)" fill="#616363" font-family="'AvertaDemo-Regular'" font-size="53.0116"></text>
	</g>
	<g>
		<g>
			<g>
				<g>
					<g>
						<circle fill="#CAE9E7" cx="255.3" cy="209.7" r="122.5"/>
					</g>
				</g>
			</g>
		</g>
		<g>
			<g>
				<g>
					<g>
						<g>
							<path fill="#FCB856" d="M323.6,76L323.6,76c-24.8,0-45,20.1-45,45v5.8c0,16.5,40.2,71.1,66.6,105.3
								c30.4,39.3,4.1,97.4-45.6,99.1c-0.8,0-1.6,0-2.4,0h0h-83.7c-0.8,0-1.6,0-2.4,0c-49.7-1.7-76-59.8-45.6-99.1
								c26.4-34.1,66.6-88.7,66.6-105.3V121c0-24.8-20.1-45-45-45h0H323.6z"/>
						</g>
					</g>
				</g>
			</g>
			<g>
				<g>
					<g>
						<g>
							<path fill="#616363" d="M297.2,334.4h-83.7c-0.8,0-1.7,0-2.5,0c-24.2-0.8-44.9-14.5-55.3-36.7c-10.5-22.3-7.7-48.1,7.3-67.5
								c34.1-44.1,56.7-77.7,63.7-94.7l0.5-1.2c3.6-7.8,1.4-19.1,1.4-19.2c-3-20.6-20.8-35.9-41.4-35.9v-6.3
								c23.8,0,44.2,17.7,47.6,41.2c0.1,0.4,2.5,13.1-1.9,22.8l-0.4,1c-9.1,22.5-40.1,64.8-64.5,96.3c-13.5,17.5-16.1,40.9-6.6,61
								c9.4,20,28,32.3,49.8,33.1c0.8,0,1.5,0,2.3,0h83.7c0.8,0,1.6,0,2.3,0c21.8-0.7,40.4-13.1,49.8-33.1c9.5-20.1,6.9-43.5-6.6-61
								c-35-45.2-56.7-77.5-64.5-96.2c-4.5-10.8-2.4-23.1-2.3-23.6c3.2-23.5,23.7-41.3,47.6-41.3v6.3c-20.8,0-38.6,15.5-41.4,36.1
								c0,0.2-1.9,11.1,1.9,20.2c7.5,17.9,29.5,50.6,63.7,94.7c15,19.4,17.8,45.2,7.3,67.5c-10.4,22.1-31.1,35.9-55.3,36.7
								C298.9,334.3,298,334.4,297.2,334.4z"/>
						</g>
					</g>
				</g>
			</g>
			<g>
				<g>
					<g>
						<g>
							<g>
								<path fill="#FFFFFF" d="M278.2,256.6c0,10.1-7.1,17.1-19.1,18.1v11.9h-6.6v-12c-7.3-0.8-14.4-4-20.2-9.7l5.2-6.2
									c5.5,5.4,12.7,8.2,19,8.2c7.3,0,12.7-3.6,12.7-9.8c0-7.1-5.7-9.4-14.8-12.3c-10.8-3.5-20.6-6.8-20.6-18.6
									c0-9.6,6.7-16.9,18.7-17.4v-12.5h6.6v12.9c6,1.1,12.4,3.8,16.8,7.2l-5,6.1c-5.2-3.8-11.8-5.8-16.6-5.8
									c-6.9,0-11.7,3.2-11.7,9c0,6.2,6,8.4,14.2,11.1C269,240.7,278.2,244,278.2,256.6L278.2,256.6z"/>
							</g>
						</g>
					</g>
				</g>
			</g>
			<g>
				<g>
					<g>
						<g>
							<rect x="219.6" y="121.5" fill="#616363" width="71.5" height="6.3"/>
						</g>
					</g>
				</g>
			</g>
		</g>
	</g>
</g>
</svg>
