<?xml version="1.0" encoding="utf-8"?>
<!-- Generator: Adobe Illustrator 18.0.0, SVG Export Plug-In . SVG Version: 6.00 Build 0)  -->
<!DOCTYPE svg PUBLIC "-//W3C//DTD SVG 1.1//EN" "http://www.w3.org/Graphics/SVG/1.1/DTD/svg11.dtd">
<svg version="1.1" id="Layer_1" xmlns="http://www.w3.org/2000/svg" xmlns:xlink="http://www.w3.org/1999/xlink" x="0px" y="0px"
	 viewBox="0 0 512 512" enable-background="new 0 0 512 512" xml:space="preserve">
<g>
	<g>
		<text transform="matrix(1 0 0 1 45.4033 423.4229)" fill="#616363" font-family="'AvertaDemo-Regular'" font-size="53.0116">MONEY MAKING</text>
	</g>
	<g>
		<g>
			<g>
				<g>
					<g>
						<circle fill="#84D1DA" cx="269" cy="215.3" r="91.9"/>
					</g>
				</g>
			</g>
		</g>
		<g>
			<g>
				<g>
					<g>
						<g>
							<g>
								<path fill="#FCB856" d="M248.7,247.6c0.2-2,0.3-4,0.3-6c0-2.5-0.2-4.9-0.5-7.2l8.5-12.4l-8.2-13.5l-8.2-13.5l-14.9,1.9
									c-3-2.1-6.1-3.9-9.5-5.4l-6.1-13.7h-31.6l-6.1,13.7c-3.8,1.6-7.3,3.7-10.5,6.1l-14.9-1.5l-7.9,13.7l-7.9,13.7l8.8,12.1
									c-0.2,2-0.3,4-0.3,6c0,2.5,0.2,4.9,0.5,7.2l-8.5,12.3l8.2,13.5l8.2,13.5l14.9-1.9c3,2.1,6.2,3.9,9.5,5.4l6.1,13.7h31.6
									l6.1-13.7c3.8-1.7,7.3-3.7,10.5-6.1l14.9,1.5l7.9-13.7l7.9-13.7L248.7,247.6z M194.3,269.7c-15.5,0-28.1-12.6-28.1-28
									c0-15.5,12.6-28.1,28.1-28.1c15.5,0,28.1,12.6,28.1,28.1C222.3,257.1,209.8,269.7,194.3,269.7z"/>
							</g>
						</g>
					</g>
				</g>
			</g>
		</g>
		<g>
			<g>
				<g>
					<g>
						<g>
							<g>
								<g>
									<path fill="#616363" d="M212.4,309h-36.2l-6.5-14.6c-2.7-1.3-5.3-2.7-7.7-4.4l-15.8,2l-18.8-31l9.1-13.1
										c-0.2-2.2-0.4-4.2-0.4-6.3c0-1.7,0.1-3.3,0.2-5l-9.4-12.9l18.1-31.4l15.9,1.6c2.8-2,5.8-3.7,8.8-5.1l6.5-14.6h36.2
										l6.5,14.6c2.7,1.2,5.2,2.7,7.7,4.4l15.8-2l18.8,31l-9.1,13.1c0.2,2.1,0.4,4.3,0.4,6.3c0,1.6-0.1,3.3-0.2,5l9.4,12.9
										l-18.1,31.4l-15.9-1.6c-2.8,2-5.7,3.7-8.8,5.1L212.4,309z M180.7,301.9h27.1l5.8-12.8l1.2-0.5c3.5-1.5,6.8-3.5,9.9-5.7
										l1.1-0.8l14,1.4l13.5-23.5l-8.3-11.4l0.1-1.3c0.2-1.9,0.3-3.8,0.3-5.6c0-2.2-0.2-4.5-0.5-6.8l-0.2-1.3l8-11.6l-14-23.1
										l-14,1.7l-1.1-0.8c-2.8-2-5.8-3.7-8.9-5l-1.3-0.5l-5.8-12.9h-27.1l-5.8,12.9l-1.3,0.5c-3.5,1.5-6.8,3.4-9.8,5.7l-1.1,0.8
										l-14-1.4l-13.5,23.5l8.3,11.4l-0.1,1.4c-0.2,1.9-0.3,3.7-0.3,5.6c0,2.2,0.2,4.4,0.5,6.8l0.2,1.3l-8,11.6l14,23.2l14-1.8
										l1.1,0.8c2.8,2,5.8,3.6,8.9,5l1.2,0.5L180.7,301.9z M194.3,273.2c-17.4,0-31.6-14.2-31.6-31.6c0-17.4,14.2-31.6,31.6-31.6
										s31.6,14.2,31.6,31.6C225.9,259.1,211.7,273.2,194.3,273.2z M194.3,217.1c-13.5,0-24.5,11-24.5,24.5
										c0,13.5,11,24.5,24.5,24.5s24.5-11,24.5-24.5C218.8,228.1,207.8,217.1,194.3,217.1z"/>
								</g>
							</g>
						</g>
					</g>
				</g>
			</g>
		</g>
		<g>
			<g>
				<g>
					<g>
						<g>
							<g>
								<path fill="#CEECF3" d="M311.6,148.8c0.1-1.2,0.2-2.5,0.2-3.7c0-1.5-0.1-3-0.3-4.5l5.3-7.7l-5.1-8.4l-5.1-8.4l-9.3,1.2
									c-1.9-1.3-3.8-2.4-5.9-3.3l-3.8-8.5h-19.7l-3.8,8.5c-2.3,1-4.5,2.3-6.6,3.8l-9.3-1l-4.9,8.6l-4.9,8.6l5.5,7.6
									c-0.1,1.2-0.2,2.5-0.2,3.7c0,1.5,0.1,3,0.3,4.5l-5.3,7.7l5.1,8.4l5.1,8.4l9.3-1.2c1.9,1.3,3.8,2.4,5.9,3.4l3.8,8.5h19.7
									l3.8-8.5c2.4-1,4.6-2.3,6.6-3.8l9.3,1l4.9-8.6l4.9-8.6L311.6,148.8z M277.7,162.6c-9.7,0-17.5-7.8-17.5-17.5
									c0-9.7,7.8-17.5,17.5-17.5c9.7,0,17.5,7.8,17.5,17.5C295.2,154.7,287.3,162.6,277.7,162.6z"/>
							</g>
						</g>
					</g>
				</g>
			</g>
			<g>
				<g>
					<g>
						<g>
							<g>
								<path fill="#616363" d="M289.6,188.1h-23.8l-4.2-9.3c-1.5-0.7-2.9-1.5-4.3-2.4l-10.1,1.3l-12.4-20.4l5.8-8.4
									c-0.1-1.3-0.2-2.5-0.2-3.7c0-0.9,0-1.9,0.1-2.8l-6-8.3l11.9-20.6l10.2,1c1.6-1.1,3.3-2.1,5.1-2.9l4.2-9.3h23.8l4.2,9.3
									c1.5,0.7,2.9,1.5,4.3,2.4l10.1-1.3l12.4,20.4l-5.8,8.4c0.1,1.3,0.2,2.5,0.2,3.7c0,0.9,0,1.9-0.1,2.9l6,8.3L309,176.8
									l-10.2-1c-1.6,1.1-3.3,2.1-5.1,2.9L289.6,188.1z M269.8,181.8h15.7l3.5-7.8l1.1-0.5c2.1-0.9,4.2-2.1,6-3.5l1-0.7l8.5,0.9
									l7.8-13.6l-5-6.9l0.1-1.2c0.1-1.1,0.2-2.3,0.2-3.4c0-1.3-0.1-2.7-0.3-4.1l-0.2-1.2l4.9-7l-8.1-13.4l-8.5,1.1l-1-0.7
									c-1.7-1.2-3.5-2.2-5.4-3l-1.1-0.5l-3.5-7.8h-15.7l-3.5,7.8l-1.1,0.5c-2.1,0.9-4.1,2.1-6,3.5l-1,0.7l-8.5-0.9l-7.8,13.6
									l5,6.9l-0.1,1.2c-0.1,1.2-0.2,2.3-0.2,3.4c0,1.3,0.1,2.7,0.3,4.1l0.2,1.2l-4.9,7l8.1,13.4l8.5-1.1l1,0.7
									c1.7,1.2,3.5,2.2,5.4,3l1.1,0.5L269.8,181.8z M277.7,165.7c-11.4,0-20.6-9.3-20.6-20.6c0-11.4,9.3-20.6,20.6-20.6
									c11.4,0,20.6,9.3,20.6,20.6C298.3,156.5,289.1,165.7,277.7,165.7z M277.7,130.7c-7.9,0-14.4,6.4-14.4,14.4
									c0,7.9,6.4,14.4,14.4,14.4c7.9,0,14.4-6.4,14.4-14.4C292,137.2,285.6,130.7,277.7,130.7z"/>
							</g>
						</g>
					</g>
				</g>
			</g>
		</g>
		<g>
			<g>
				<g>
					<g>
						<g>
							<path fill="#616363" d="M137.5,151l-5.9-2.2c13.7-36,50.1-57.9,88.3-53.4l-0.7,6.2C183.8,97.4,150.2,117.7,137.5,151z"/>
						</g>
					</g>
				</g>
			</g>
			<g>
				<g>
					<g>
						<g>
							<polygon fill="#616363" points="204.7,120 199.7,116.2 215.2,95.9 194.4,79.9 198.2,75 224,94.7 							"/>
						</g>
					</g>
				</g>
			</g>
		</g>
		<g>
			<g>
				<g>
					<g>
						<g>
							<circle fill="#FFFFFF" cx="331.4" cy="241.4" r="41.6"/>
						</g>
					</g>
				</g>
			</g>
			<g>
				<g>
					<g>
						<g>
							<path fill="#616363" d="M331.4,286.1c-2.3,0-4.7-0.2-7-0.6c-24.3-3.9-41-26.8-37.2-51.1c3.5-21.9,22-37.7,44.1-37.7
								c2.3,0,4.7,0.2,7,0.6c11.8,1.9,22.2,8.2,29.2,17.9c7,9.7,9.9,21.5,8,33.3C372.1,270.2,353.5,286.1,331.4,286.1z M331.3,203
								c-19,0-34.9,13.6-37.9,32.4c-3.3,20.9,11,40.6,31.9,44c2,0.3,4,0.5,6.1,0.5c19,0,34.9-13.6,37.9-32.4
								c1.6-10.1-0.8-20.3-6.9-28.6c-6-8.3-14.9-13.8-25.1-15.4C335.4,203.1,333.4,203,331.3,203z"/>
						</g>
					</g>
				</g>
			</g>
			<g>
				<g>
					<g>
						<g>
							<g>
								<path fill="#FCB856" d="M345.5,250.7c0,6.2-4.4,10.5-11.7,11.1v7.3h-4.1v-7.4c-4.5-0.5-8.8-2.5-12.4-6l3.2-3.8
									c3.4,3.3,7.8,5,11.7,5c4.5,0,7.8-2.2,7.8-6c0-4.4-3.5-5.8-9.1-7.6c-6.6-2.1-12.7-4.2-12.7-11.4c0-5.9,4.1-10.4,11.5-10.7
									v-7.7h4.1v7.9c3.7,0.7,7.6,2.3,10.3,4.4l-3.1,3.8c-3.2-2.3-7.2-3.6-10.2-3.6c-4.2,0-7.2,2-7.2,5.5c0,3.8,3.7,5.2,8.7,6.8
									C339.8,240.9,345.5,242.9,345.5,250.7L345.5,250.7z"/>
							</g>
						</g>
					</g>
				</g>
			</g>
		</g>
	</g>
</g>
</svg>
