<?xml version="1.0" encoding="utf-8"?>
<!-- Generator: Adobe Illustrator 18.0.0, SVG Export Plug-In . SVG Version: 6.00 Build 0)  -->
<!DOCTYPE svg PUBLIC "-//W3C//DTD SVG 1.1//EN" "http://www.w3.org/Graphics/SVG/1.1/DTD/svg11.dtd">
<svg version="1.1" id="Layer_1" xmlns="http://www.w3.org/2000/svg" xmlns:xlink="http://www.w3.org/1999/xlink" x="0px" y="0px"
	 viewBox="0 0 512 512" enable-background="new 0 0 512 512" xml:space="preserve">
<g>
	<g>
		<text transform="matrix(1 0 0 1 160.7334 406.7563)" fill="#616363" font-family="'AvertaDemo-Regular'" font-size="53.0116">MONEY</text>
	</g>
	<g>
		<g>
			<g>
				<g>
					<g>
						<g>
							<g>
								<rect x="119.5" y="167.2" fill="#CEECF3" width="272.9" height="136.5"/>
							</g>
						</g>
					</g>
				</g>
				<g>
					<g>
						<g>
							<g>
								<path fill="#FCB856" d="M119.5,200.4c18.3,0,33.2-14.9,33.2-33.2h-33.2V200.4z"/>
							</g>
						</g>
					</g>
				</g>
				<g>
					<g>
						<g>
							<g>
								<path fill="#FCB856" d="M392.5,200.4c-18.3,0-33.2-14.9-33.2-33.2h33.2V200.4z"/>
							</g>
						</g>
					</g>
				</g>
				<g>
					<g>
						<g>
							<g>
								<path fill="#FCB856" d="M392.5,269.8c-18.3,0-33.2,14.9-33.2,33.2h33.2V269.8z"/>
							</g>
						</g>
					</g>
				</g>
				<g>
					<g>
						<g>
							<g>
								<path fill="#FCB856" d="M119.5,269.8c18.3,0,33.2,14.9,33.2,33.2h-33.2V269.8z"/>
							</g>
						</g>
					</g>
				</g>
				<g>
					<g>
						<g>
							<g>
								<path fill="#616363" d="M119.5,203.5h-3.1v-39.5h39.5v3.1C155.8,187.2,139.5,203.5,119.5,203.5z M122.6,170.3v26.7
									c14.1-1.5,25.3-12.7,26.7-26.7H122.6z"/>
							</g>
						</g>
					</g>
				</g>
				<g>
					<g>
						<g>
							<g>
								<path fill="#616363" d="M395.6,203.5h-3.1c-20,0-36.3-16.3-36.3-36.3v-3.1h39.5V203.5z M362.6,170.3
									c1.5,14.1,12.7,25.3,26.7,26.7v-26.7H362.6z"/>
							</g>
						</g>
					</g>
				</g>
				<g>
					<g>
						<g>
							<g>
								<path fill="#616363" d="M395.6,306.1h-39.5V303c0-20,16.3-36.3,36.3-36.3h3.1V306.1z M362.6,299.9h26.7v-26.7
									C375.3,274.6,364.1,285.8,362.6,299.9z"/>
							</g>
						</g>
					</g>
				</g>
				<g>
					<g>
						<g>
							<g>
								<path fill="#616363" d="M155.8,306.1h-39.5v-39.5h3.1c20,0,36.3,16.3,36.3,36.3V306.1z M122.6,299.9h26.7
									c-1.5-14.1-12.7-25.3-26.7-26.7V299.9z"/>
							</g>
						</g>
					</g>
				</g>
				<g>
					<g>
						<g>
							<g>
								<path fill="#616363" d="M395.6,306.8H116.4V164.1h279.2V306.8z M122.6,300.5h266.6V170.3H122.6V300.5z"/>
							</g>
						</g>
					</g>
				</g>
				<g>
					<g>
						<g>
							<g>
								<circle fill="#FCB856" cx="256" cy="235.4" r="39.7"/>
							</g>
						</g>
					</g>
				</g>
				<g>
					<g>
						<g>
							<g>
								<path fill="#616363" d="M256,278.2c-23.6,0-42.8-19.2-42.8-42.8c0-23.6,19.2-42.8,42.8-42.8c23.6,0,42.8,19.2,42.8,42.8
									C298.8,259,279.6,278.2,256,278.2z M256,198.9c-20.1,0-36.5,16.4-36.5,36.5S235.8,272,256,272s36.5-16.4,36.5-36.5
									S276.1,198.9,256,198.9z"/>
							</g>
						</g>
					</g>
				</g>
			</g>
			<g>
				<g>
					<g>
						<g>
							<g>
								<path fill="#FFFFFF" d="M270.5,245.9c0,6.4-4.5,10.9-12.1,11.5v7.6h-4.2v-7.6c-4.6-0.5-9.1-2.6-12.8-6.1l3.3-3.9
									c3.5,3.4,8,5.2,12,5.2c4.6,0,8-2.3,8-6.2c0-4.5-3.6-6-9.4-7.8c-6.8-2.2-13.1-4.3-13.1-11.8c0-6.1,4.2-10.7,11.9-11v-7.9h4.2
									v8.2c3.8,0.7,7.9,2.4,10.6,4.5l-3.1,3.9c-3.3-2.4-7.4-3.7-10.5-3.7c-4.4,0-7.4,2-7.4,5.7c0,3.9,3.8,5.3,9,7
									C264.7,235.9,270.5,237.9,270.5,245.9L270.5,245.9z"/>
							</g>
						</g>
					</g>
				</g>
			</g>
		</g>
		<g>
			<g>
				<g>
					<g>
						<g>
							<g>
								<rect x="119.5" y="152.7" fill="#CEECF3" width="272.9" height="136.5"/>
							</g>
						</g>
					</g>
				</g>
				<g>
					<g>
						<g>
							<g>
								<path fill="#FCB856" d="M119.5,185.9c18.3,0,33.2-14.9,33.2-33.2h-33.2V185.9z"/>
							</g>
						</g>
					</g>
				</g>
				<g>
					<g>
						<g>
							<g>
								<path fill="#FCB856" d="M392.5,185.9c-18.3,0-33.2-14.9-33.2-33.2h33.2V185.9z"/>
							</g>
						</g>
					</g>
				</g>
				<g>
					<g>
						<g>
							<g>
								<path fill="#FCB856" d="M392.5,255.3c-18.3,0-33.2,14.9-33.2,33.2h33.2V255.3z"/>
							</g>
						</g>
					</g>
				</g>
				<g>
					<g>
						<g>
							<g>
								<path fill="#FCB856" d="M119.5,255.3c18.3,0,33.2,14.9,33.2,33.2h-33.2V255.3z"/>
							</g>
						</g>
					</g>
				</g>
				<g>
					<g>
						<g>
							<g>
								<path fill="#616363" d="M119.5,189h-3.1v-39.5h39.5v3.1C155.8,172.7,139.5,189,119.5,189z M122.6,155.8v26.7
									c14.1-1.5,25.3-12.7,26.7-26.7H122.6z"/>
							</g>
						</g>
					</g>
				</g>
				<g>
					<g>
						<g>
							<g>
								<path fill="#616363" d="M395.6,189h-3.1c-20,0-36.3-16.3-36.3-36.3v-3.1h39.5V189z M362.6,155.8
									c1.5,14.1,12.7,25.3,26.7,26.7v-26.7H362.6z"/>
							</g>
						</g>
					</g>
				</g>
				<g>
					<g>
						<g>
							<g>
								<path fill="#616363" d="M395.6,291.7h-39.5v-3.1c0-20,16.3-36.3,36.3-36.3h3.1V291.7z M362.6,285.4h26.7v-26.7
									C375.3,260.1,364.1,271.3,362.6,285.4z"/>
							</g>
						</g>
					</g>
				</g>
				<g>
					<g>
						<g>
							<g>
								<path fill="#616363" d="M155.8,291.7h-39.5v-39.5h3.1c20,0,36.3,16.3,36.3,36.3V291.7z M122.6,285.4h26.7
									c-1.5-14.1-12.7-25.3-26.7-26.7V285.4z"/>
							</g>
						</g>
					</g>
				</g>
				<g>
					<g>
						<g>
							<g>
								<path fill="#616363" d="M395.6,292.3H116.4V149.6h279.2V292.3z M122.6,286h266.6V155.8H122.6V286z"/>
							</g>
						</g>
					</g>
				</g>
				<g>
					<g>
						<g>
							<g>
								<circle fill="#FCB856" cx="256" cy="220.9" r="39.7"/>
							</g>
						</g>
					</g>
				</g>
				<g>
					<g>
						<g>
							<g>
								<path fill="#616363" d="M256,263.7c-23.6,0-42.8-19.2-42.8-42.8c0-23.6,19.2-42.8,42.8-42.8c23.6,0,42.8,19.2,42.8,42.8
									C298.8,244.5,279.6,263.7,256,263.7z M256,184.4c-20.1,0-36.5,16.4-36.5,36.5s16.4,36.5,36.5,36.5s36.5-16.4,36.5-36.5
									S276.1,184.4,256,184.4z"/>
							</g>
						</g>
					</g>
				</g>
			</g>
			<g>
				<g>
					<g>
						<g>
							<g>
								<path fill="#FFFFFF" d="M270.5,231.5c0,6.4-4.5,10.9-12.1,11.5v7.6h-4.2v-7.6c-4.6-0.5-9.1-2.6-12.8-6.1l3.3-3.9
									c3.5,3.4,8,5.2,12,5.2c4.6,0,8-2.3,8-6.2c0-4.5-3.6-6-9.4-7.8c-6.8-2.2-13.1-4.3-13.1-11.8c0-6.1,4.2-10.7,11.9-11v-7.9h4.2
									v8.2c3.8,0.7,7.9,2.4,10.6,4.5l-3.1,3.9c-3.3-2.4-7.4-3.7-10.5-3.7c-4.4,0-7.4,2-7.4,5.7c0,3.9,3.8,5.3,9,7
									C264.7,221.4,270.5,223.4,270.5,231.5L270.5,231.5z"/>
							</g>
						</g>
					</g>
				</g>
			</g>
		</g>
		<g>
			<g>
				<g>
					<g>
						<g>
							<g>
								<rect x="119.5" y="138.2" fill="#CEECF3" width="272.9" height="136.5"/>
							</g>
						</g>
					</g>
				</g>
				<g>
					<g>
						<g>
							<g>
								<path fill="#FCB856" d="M119.5,171.4c18.3,0,33.2-14.9,33.2-33.2h-33.2V171.4z"/>
							</g>
						</g>
					</g>
				</g>
				<g>
					<g>
						<g>
							<g>
								<path fill="#FCB856" d="M392.5,171.4c-18.3,0-33.2-14.9-33.2-33.2h33.2V171.4z"/>
							</g>
						</g>
					</g>
				</g>
				<g>
					<g>
						<g>
							<g>
								<path fill="#FCB856" d="M392.5,240.9c-18.3,0-33.2,14.9-33.2,33.2h33.2V240.9z"/>
							</g>
						</g>
					</g>
				</g>
				<g>
					<g>
						<g>
							<g>
								<path fill="#FCB856" d="M119.5,240.9c18.3,0,33.2,14.9,33.2,33.2h-33.2V240.9z"/>
							</g>
						</g>
					</g>
				</g>
				<g>
					<g>
						<g>
							<g>
								<path fill="#616363" d="M119.5,174.5h-3.1v-39.5h39.5v3.1C155.8,158.2,139.5,174.5,119.5,174.5z M122.6,141.4v26.7
									c14.1-1.5,25.3-12.7,26.7-26.7H122.6z"/>
							</g>
						</g>
					</g>
				</g>
				<g>
					<g>
						<g>
							<g>
								<path fill="#616363" d="M395.6,174.5h-3.1c-20,0-36.3-16.3-36.3-36.3v-3.1h39.5V174.5z M362.6,141.4
									c1.5,14.1,12.7,25.3,26.7,26.7v-26.7H362.6z"/>
							</g>
						</g>
					</g>
				</g>
				<g>
					<g>
						<g>
							<g>
								<path fill="#616363" d="M395.6,277.2h-39.5V274c0-20,16.3-36.3,36.3-36.3h3.1V277.2z M362.6,270.9h26.7v-26.7
									C375.3,245.6,364.1,256.8,362.6,270.9z"/>
							</g>
						</g>
					</g>
				</g>
				<g>
					<g>
						<g>
							<g>
								<path fill="#616363" d="M155.8,277.2h-39.5v-39.5h3.1c20,0,36.3,16.3,36.3,36.3V277.2z M122.6,270.9h26.7
									c-1.5-14.1-12.7-25.3-26.7-26.7V270.9z"/>
							</g>
						</g>
					</g>
				</g>
				<g>
					<g>
						<g>
							<g>
								<path fill="#616363" d="M395.6,277.8H116.4V135.1h279.2V277.8z M122.6,271.5h266.6V141.4H122.6V271.5z"/>
							</g>
						</g>
					</g>
				</g>
				<g>
					<g>
						<g>
							<g>
								<circle fill="#FCB856" cx="256" cy="206.4" r="39.7"/>
							</g>
						</g>
					</g>
				</g>
				<g>
					<g>
						<g>
							<g>
								<path fill="#616363" d="M256,249.3c-23.6,0-42.8-19.2-42.8-42.8c0-23.6,19.2-42.8,42.8-42.8c23.6,0,42.8,19.2,42.8,42.8
									C298.8,230.1,279.6,249.3,256,249.3z M256,169.9c-20.1,0-36.5,16.4-36.5,36.5S235.8,243,256,243s36.5-16.4,36.5-36.5
									S276.1,169.9,256,169.9z"/>
							</g>
						</g>
					</g>
				</g>
			</g>
			<g>
				<g>
					<g>
						<g>
							<g>
								<path fill="#FFFFFF" d="M270.5,217c0,6.4-4.5,10.9-12.1,11.5v7.6h-4.2v-7.6c-4.6-0.5-9.1-2.6-12.8-6.1l3.3-3.9
									c3.5,3.4,8,5.2,12,5.2c4.6,0,8-2.3,8-6.2c0-4.5-3.6-6-9.4-7.8c-6.8-2.2-13.1-4.3-13.1-11.8c0-6.1,4.2-10.7,11.9-11v-7.9h4.2
									v8.2c3.8,0.7,7.9,2.4,10.6,4.5l-3.1,3.9c-3.3-2.4-7.4-3.7-10.5-3.7c-4.4,0-7.4,2-7.4,5.7c0,3.9,3.8,5.3,9,7
									C264.7,206.9,270.5,208.9,270.5,217L270.5,217z"/>
							</g>
						</g>
					</g>
				</g>
			</g>
		</g>
		<g>
			<g>
				<g>
					<g>
						<g>
							<g>
								<rect x="119.5" y="123.7" fill="#CEECF3" width="272.9" height="136.5"/>
							</g>
						</g>
					</g>
				</g>
				<g>
					<g>
						<g>
							<g>
								<path fill="#FCB856" d="M119.5,156.9c18.3,0,33.2-14.9,33.2-33.2h-33.2V156.9z"/>
							</g>
						</g>
					</g>
				</g>
				<g>
					<g>
						<g>
							<g>
								<path fill="#FCB856" d="M392.5,156.9c-18.3,0-33.2-14.9-33.2-33.2h33.2V156.9z"/>
							</g>
						</g>
					</g>
				</g>
				<g>
					<g>
						<g>
							<g>
								<path fill="#FCB856" d="M392.5,226.4c-18.3,0-33.2,14.9-33.2,33.2l33.2,0V226.4z"/>
							</g>
						</g>
					</g>
				</g>
				<g>
					<g>
						<g>
							<g>
								<path fill="#FCB856" d="M119.5,226.4c18.3,0,33.2,14.9,33.2,33.2l-33.2,0V226.4z"/>
							</g>
						</g>
					</g>
				</g>
				<g>
					<g>
						<g>
							<g>
								<path fill="#616363" d="M119.5,160.1h-3.1v-39.5h39.5v3.1C155.8,143.8,139.5,160.1,119.5,160.1z M122.6,126.9v26.7
									c14.1-1.5,25.3-12.7,26.7-26.7H122.6z"/>
							</g>
						</g>
					</g>
				</g>
				<g>
					<g>
						<g>
							<g>
								<path fill="#616363" d="M395.6,160.1h-3.1c-20,0-36.3-16.3-36.3-36.3v-3.1h39.5V160.1z M362.6,126.9
									c1.5,14.1,12.7,25.3,26.7,26.7v-26.7H362.6z"/>
							</g>
						</g>
					</g>
				</g>
				<g>
					<g>
						<g>
							<g>
								<path fill="#616363" d="M395.6,262.7h-39.5v-3.1c0-20,16.3-36.3,36.3-36.3h3.1V262.7z M362.6,256.4h26.7v-26.7
									C375.3,231.1,364.1,242.4,362.6,256.4z"/>
							</g>
						</g>
					</g>
				</g>
				<g>
					<g>
						<g>
							<g>
								<path fill="#616363" d="M155.8,262.7h-39.5v-39.5h3.1c20,0,36.3,16.3,36.3,36.3V262.7z M122.6,256.4h26.7
									c-1.5-14.1-12.7-25.3-26.7-26.7V256.4z"/>
							</g>
						</g>
					</g>
				</g>
				<g>
					<g>
						<g>
							<g>
								<path fill="#616363" d="M395.6,263.3H116.4V120.6h279.2V263.3z M122.6,257.1h266.6V126.9H122.6V257.1z"/>
							</g>
						</g>
					</g>
				</g>
				<g>
					<g>
						<g>
							<g>
								<circle fill="#FCB856" cx="256" cy="192" r="39.7"/>
							</g>
						</g>
					</g>
				</g>
				<g>
					<g>
						<g>
							<g>
								<path fill="#616363" d="M256,234.8c-23.6,0-42.8-19.2-42.8-42.8c0-23.6,19.2-42.8,42.8-42.8c23.6,0,42.8,19.2,42.8,42.8
									C298.8,215.6,279.6,234.8,256,234.8z M256,155.4c-20.1,0-36.5,16.4-36.5,36.5s16.4,36.5,36.5,36.5s36.5-16.4,36.5-36.5
									S276.1,155.4,256,155.4z"/>
							</g>
						</g>
					</g>
				</g>
			</g>
			<g>
				<g>
					<g>
						<g>
							<g>
								<path fill="#FFFFFF" d="M270.5,202.5c0,6.4-4.5,10.9-12.1,11.5v7.6h-4.2v-7.6c-4.6-0.5-9.1-2.6-12.8-6.1l3.3-3.9
									c3.5,3.4,8,5.2,12,5.2c4.6,0,8-2.3,8-6.2c0-4.5-3.6-6-9.4-7.8c-6.8-2.2-13.1-4.3-13.1-11.8c0-6.1,4.2-10.7,11.9-11v-7.9h4.2
									v8.2c3.8,0.7,7.9,2.4,10.6,4.5l-3.1,3.9c-3.3-2.4-7.4-3.7-10.5-3.7c-4.4,0-7.4,2-7.4,5.7c0,3.9,3.8,5.3,9,7
									C264.7,192.4,270.5,194.5,270.5,202.5L270.5,202.5z"/>
							</g>
						</g>
					</g>
				</g>
			</g>
		</g>
		<g>
			<g>
				<g>
					<g>
						<g>
							<g>
								<rect x="119.5" y="109.3" fill="#CEECF3" width="272.9" height="136.5"/>
							</g>
						</g>
					</g>
				</g>
				<g>
					<g>
						<g>
							<g>
								<path fill="#FCB856" d="M119.5,142.4c18.3,0,33.2-14.9,33.2-33.2h-33.2V142.4z"/>
							</g>
						</g>
					</g>
				</g>
				<g>
					<g>
						<g>
							<g>
								<path fill="#FCB856" d="M392.5,142.4c-18.3,0-33.2-14.9-33.2-33.2h33.2V142.4z"/>
							</g>
						</g>
					</g>
				</g>
				<g>
					<g>
						<g>
							<g>
								<path fill="#FCB856" d="M392.5,211.9c-18.3,0-33.2,14.9-33.2,33.2l33.2,0V211.9z"/>
							</g>
						</g>
					</g>
				</g>
				<g>
					<g>
						<g>
							<g>
								<path fill="#FCB856" d="M119.5,211.9c18.3,0,33.2,14.9,33.2,33.2h-33.2V211.9z"/>
							</g>
						</g>
					</g>
				</g>
				<g>
					<g>
						<g>
							<g>
								<path fill="#616363" d="M119.5,145.6h-3.1v-39.5h39.5v3.1C155.8,129.3,139.5,145.6,119.5,145.6z M122.6,112.4v26.7
									c14.1-1.5,25.3-12.7,26.7-26.7H122.6z"/>
							</g>
						</g>
					</g>
				</g>
				<g>
					<g>
						<g>
							<g>
								<path fill="#616363" d="M395.6,145.6h-3.1c-20,0-36.3-16.3-36.3-36.3v-3.1h39.5V145.6z M362.6,112.4
									c1.5,14.1,12.7,25.3,26.7,26.7v-26.7H362.6z"/>
							</g>
						</g>
					</g>
				</g>
				<g>
					<g>
						<g>
							<g>
								<path fill="#616363" d="M395.6,248.2h-39.5v-3.1c0-20,16.3-36.3,36.3-36.3h3.1V248.2z M362.6,241.9h26.7v-26.7
									C375.3,216.7,364.1,227.9,362.6,241.9z"/>
							</g>
						</g>
					</g>
				</g>
				<g>
					<g>
						<g>
							<g>
								<path fill="#616363" d="M155.8,248.2h-39.5v-39.5h3.1c20,0,36.3,16.3,36.3,36.3V248.2z M122.6,241.9h26.7
									c-1.5-14.1-12.7-25.3-26.7-26.7V241.9z"/>
							</g>
						</g>
					</g>
				</g>
				<g>
					<g>
						<g>
							<g>
								<path fill="#616363" d="M395.6,248.8H116.4V106.1h279.2V248.8z M122.6,242.6h266.6V112.4H122.6V242.6z"/>
							</g>
						</g>
					</g>
				</g>
				<g>
					<g>
						<g>
							<g>
								<circle fill="#FCB856" cx="256" cy="177.5" r="39.7"/>
							</g>
						</g>
					</g>
				</g>
				<g>
					<g>
						<g>
							<g>
								<path fill="#616363" d="M256,220.3c-23.6,0-42.8-19.2-42.8-42.8c0-23.6,19.2-42.8,42.8-42.8c23.6,0,42.8,19.2,42.8,42.8
									C298.8,201.1,279.6,220.3,256,220.3z M256,140.9c-20.1,0-36.5,16.4-36.5,36.5S235.8,214,256,214s36.5-16.4,36.5-36.5
									S276.1,140.9,256,140.9z"/>
							</g>
						</g>
					</g>
				</g>
			</g>
			<g>
				<g>
					<g>
						<g>
							<g>
								<path fill="#FFFFFF" d="M270.5,188c0,6.4-4.5,10.9-12.1,11.5v7.6h-4.2v-7.6c-4.6-0.5-9.1-2.6-12.8-6.1l3.3-3.9
									c3.5,3.4,8,5.2,12,5.2c4.6,0,8-2.3,8-6.2c0-4.5-3.6-6-9.4-7.8c-6.8-2.2-13.1-4.3-13.1-11.8c0-6.1,4.2-10.7,11.9-11v-7.9h4.2
									v8.2c3.8,0.7,7.9,2.4,10.6,4.5l-3.1,3.9c-3.3-2.4-7.4-3.7-10.5-3.7c-4.4,0-7.4,2-7.4,5.7c0,3.9,3.8,5.3,9,7
									C264.7,177.9,270.5,180,270.5,188L270.5,188z"/>
							</g>
						</g>
					</g>
				</g>
			</g>
		</g>
		<g>
			<g>
				<g>
					<g>
						<g>
							<g>
								<rect x="119.5" y="94.8" fill="#CEECF3" width="272.9" height="136.5"/>
							</g>
						</g>
					</g>
				</g>
				<g>
					<g>
						<g>
							<g>
								<path fill="#FCB856" d="M119.5,127.9c18.3,0,33.2-14.9,33.2-33.2h-33.2V127.9z"/>
							</g>
						</g>
					</g>
				</g>
				<g>
					<g>
						<g>
							<g>
								<path fill="#FCB856" d="M392.5,127.9c-18.3,0-33.2-14.9-33.2-33.2h33.2V127.9z"/>
							</g>
						</g>
					</g>
				</g>
				<g>
					<g>
						<g>
							<g>
								<path fill="#FCB856" d="M392.5,197.4c-18.3,0-33.2,14.9-33.2,33.2l33.2,0V197.4z"/>
							</g>
						</g>
					</g>
				</g>
				<g>
					<g>
						<g>
							<g>
								<path fill="#FCB856" d="M119.5,197.4c18.3,0,33.2,14.9,33.2,33.2l-33.2,0V197.4z"/>
							</g>
						</g>
					</g>
				</g>
				<g>
					<g>
						<g>
							<g>
								<path fill="#616363" d="M119.5,131.1h-3.1V91.6h39.5v3.1C155.8,114.8,139.5,131.1,119.5,131.1z M122.6,97.9v26.7
									c14.1-1.5,25.3-12.7,26.7-26.7H122.6z"/>
							</g>
						</g>
					</g>
				</g>
				<g>
					<g>
						<g>
							<g>
								<path fill="#616363" d="M395.6,131.1h-3.1c-20,0-36.3-16.3-36.3-36.3v-3.1h39.5V131.1z M362.6,97.9
									c1.5,14.1,12.7,25.3,26.7,26.7V97.9H362.6z"/>
							</g>
						</g>
					</g>
				</g>
				<g>
					<g>
						<g>
							<g>
								<path fill="#616363" d="M395.6,233.7h-39.5v-3.1c0-20,16.3-36.3,36.3-36.3h3.1V233.7z M362.6,227.4h26.7v-26.7
									C375.3,202.2,364.1,213.4,362.6,227.4z"/>
							</g>
						</g>
					</g>
				</g>
				<g>
					<g>
						<g>
							<g>
								<path fill="#616363" d="M155.8,233.7h-39.5v-39.5h3.1c20,0,36.3,16.3,36.3,36.3V233.7z M122.6,227.4h26.7
									c-1.5-14.1-12.7-25.3-26.7-26.7V227.4z"/>
							</g>
						</g>
					</g>
				</g>
				<g>
					<g>
						<g>
							<g>
								<path fill="#616363" d="M395.6,234.4H116.4V91.6h279.2V234.4z M122.6,228.1h266.6V97.9H122.6V228.1z"/>
							</g>
						</g>
					</g>
				</g>
				<g>
					<g>
						<g>
							<g>
								<circle fill="#FCB856" cx="256" cy="163" r="39.7"/>
							</g>
						</g>
					</g>
				</g>
				<g>
					<g>
						<g>
							<g>
								<path fill="#616363" d="M256,205.8c-23.6,0-42.8-19.2-42.8-42.8c0-23.6,19.2-42.8,42.8-42.8c23.6,0,42.8,19.2,42.8,42.8
									C298.8,186.6,279.6,205.8,256,205.8z M256,126.5c-20.1,0-36.5,16.4-36.5,36.5s16.4,36.5,36.5,36.5s36.5-16.4,36.5-36.5
									S276.1,126.5,256,126.5z"/>
							</g>
						</g>
					</g>
				</g>
			</g>
			<g>
				<g>
					<g>
						<g>
							<g>
								<path fill="#FFFFFF" d="M270.5,173.5c0,6.4-4.5,10.9-12.1,11.5v7.6h-4.2v-7.6c-4.6-0.5-9.1-2.6-12.8-6.1l3.3-3.9
									c3.5,3.4,8,5.2,12,5.2c4.6,0,8-2.3,8-6.2c0-4.5-3.6-6-9.4-7.8c-6.8-2.2-13.1-4.3-13.1-11.8c0-6.1,4.2-10.7,11.9-11v-7.9h4.2
									v8.2c3.8,0.7,7.9,2.4,10.6,4.5l-3.1,3.9c-3.3-2.4-7.4-3.7-10.5-3.7c-4.4,0-7.4,2-7.4,5.7c0,3.9,3.8,5.3,9,7
									C264.7,163.4,270.5,165.5,270.5,173.5L270.5,173.5z"/>
							</g>
						</g>
					</g>
				</g>
			</g>
		</g>
	</g>
</g>
</svg>
