<?xml version="1.0" encoding="utf-8"?>
<!-- Generator: Adobe Illustrator 18.0.0, SVG Export Plug-In . SVG Version: 6.00 Build 0)  -->
<!DOCTYPE svg PUBLIC "-//W3C//DTD SVG 1.1//EN" "http://www.w3.org/Graphics/SVG/1.1/DTD/svg11.dtd">
<svg version="1.1" id="Layer_1" xmlns="http://www.w3.org/2000/svg" xmlns:xlink="http://www.w3.org/1999/xlink" x="0px" y="0px"
	 viewBox="0 0 512 512" enable-background="new 0 0 512 512" xml:space="preserve">
<g>
	<g>
		<text transform="matrix(1 0 0 1 82.6899 409.9812)" fill="#616363" font-family="'AvertaDemo-Regular'" font-size="53.0116">MONITORING</text>
	</g>
	<g>
		<g>
			<g>
				<g>
					<g>
						<path fill="#84D1DA" d="M373.2,253.4H124.1c-4.3,0-7.8-3.5-7.8-7.8V99.4c0-4.3,3.5-7.8,7.8-7.8h249.2c4.3,0,7.8,3.5,7.8,7.8
							v146.2C381,249.9,377.5,253.4,373.2,253.4z"/>
					</g>
				</g>
			</g>
		</g>
		<g>
			<g>
				<g>
					<g>
						<path fill="#616363" d="M368.8,256.5H128.5c-8.5,0-15.4-6.9-15.4-15.4V103.8c0-8.5,6.9-15.4,15.4-15.4h240.3
							c8.5,0,15.4,6.9,15.4,15.4v137.3C384.2,249.6,377.3,256.5,368.8,256.5z M128.5,94.7c-5,0-9.1,4.1-9.1,9.1v137.3
							c0,5,4.1,9.1,9.1,9.1h240.3c5,0,9.1-4.1,9.1-9.1V103.8c0-5-4.1-9.1-9.1-9.1H128.5z"/>
					</g>
				</g>
			</g>
		</g>
		<g>
			<g>
				<g>
					<g>
						<path fill="#84D1DA" d="M273.4,253.4h-24.7h-24.7l-11.8,40.9c-2.3,7.9,3.6,15.7,11.8,15.7h24.7h24.7c8.2,0,14.1-7.8,11.8-15.7
							L273.4,253.4z"/>
					</g>
				</g>
			</g>
		</g>
		<g>
			<g>
				<g>
					<g>
						<path fill="#616363" d="M273.4,313.1h-49.5c-4.9,0-9.4-2.2-12.3-6.2c-2.9-3.9-3.8-8.8-2.5-13.5l12.5-43.1h54.1l12.5,43.1
							c1.4,4.7,0.5,9.6-2.5,13.5C282.8,310.8,278.3,313.1,273.4,313.1z M226.3,256.5l-11.2,38.6c-0.8,2.8-0.3,5.7,1.5,8
							c1.7,2.3,4.4,3.6,7.3,3.6h49.5c2.9,0,5.6-1.3,7.3-3.6c1.7-2.3,2.3-5.2,1.5-8L271,256.5H226.3z"/>
					</g>
				</g>
			</g>
		</g>
		<g>
			<g>
				<g>
					<g>
						<rect x="181" y="306.8" fill="#616363" width="135.3" height="6.3"/>
					</g>
				</g>
			</g>
		</g>
		<g>
			<g>
				<g>
					<g>
						<rect x="136" y="110.9" fill="#FFFFFF" width="224.9" height="116.8"/>
					</g>
				</g>
			</g>
		</g>
		<g>
			<g>
				<g>
					<g>
						<polygon fill="#616363" points="217.4,202.7 213.5,197.8 261.2,158.9 284.6,183 333,142.6 337,147.4 284.1,191.5 260.7,167.4 
													"/>
					</g>
				</g>
			</g>
		</g>
		<g>
			<g>
				<g>
					<g>
						<polygon fill="#616363" points="338.1,171.5 331.9,171.5 331.9,147.8 305.3,147.8 305.3,141.5 338.1,141.5 						"/>
					</g>
				</g>
			</g>
		</g>
		<g>
			<g>
				<g>
					<g>
						<g>
							<path fill="#FCB856" d="M196.6,179.9c0,7.7-5.4,13.2-14.7,13.9v9.2l-5.1,0v-9.3c-5.6-0.6-11-3.1-15.5-7.4l4-4.7
								c4.3,4.1,9.7,6.3,14.6,6.3c5.6,0,9.7-2.8,9.7-7.6c0-5.4-4.4-7.3-11.4-9.4c-8.3-2.7-15.9-5.3-15.9-14.3
								c0-7.4,5.2-13,14.4-13.4v-9.6l5.1,0v9.9c4.6,0.8,9.6,2.9,12.9,5.5l-3.8,4.7c-4-2.9-9-4.5-12.8-4.5c-5.3,0-9,2.5-9,6.9
								c0,4.7,4.6,6.5,10.9,8.6C189.5,167.7,196.6,170.2,196.6,179.9L196.6,179.9z"/>
						</g>
					</g>
				</g>
			</g>
		</g>
	</g>
</g>
</svg>
