<?xml version="1.0" encoding="utf-8"?>
<!-- Generator: Adobe Illustrator 18.0.0, SVG Export Plug-In . SVG Version: 6.00 Build 0)  -->
<!DOCTYPE svg PUBLIC "-//W3C//DTD SVG 1.1//EN" "http://www.w3.org/Graphics/SVG/1.1/DTD/svg11.dtd">
<svg version="1.1" id="Layer_1" xmlns="http://www.w3.org/2000/svg" xmlns:xlink="http://www.w3.org/1999/xlink" x="0px" y="0px"
	 viewBox="0 0 512 512" enable-background="new 0 0 512 512" xml:space="preserve">
<g>
	<g>
		<text transform="matrix(1 0 0 1 84.4756 436.2646)" fill="#616363" font-family="'AvertaDemo-Regular'" font-size="53.0116">P2P LENDING</text>
	</g>
	<g>
		<g>
			<circle fill="#84D1DA" cx="267.6" cy="216.3" r="123.6"/>
		</g>
		<g>
			<g>
				<g>
					<g>
						<g>
							<g>
								<g>
									<path fill="#84D1DA" d="M311.4,129.4c-5.3-5.3-12.6-8.3-20.1-8.3c-2.8,0-5.6,0-8.4,0c-10.1,0-20.2,0-30.3,0
										c-2.4,0-4.8-0.1-7.2,0c-8.3,0.5-15.8,4.3-21,10.8c-4.1,5.3-6,11.5-6,18.1c0,3.6,0,7.3,0,10.9c0,8.9,0,17.7,0,26.6
										c0,0.9,1.2,0.5,2,0.5c2.6,0,5.2,0,7.8,0c20,0,39.9,0,59.9,0c8.4,0,16.8,0,25.2,0c2,0,3.9,0,5.9,0c0.1,0,0.6,0.1,0.6-0.1
										c0-0.9,0-1.8,0-2.7c0-9.3,0-18.5,0-27.8c0-2.7,0-5.4,0-8.1C319.7,141.9,316.8,134.7,311.4,129.4
										C306.3,124.2,316.6,134.5,311.4,129.4z"/>
								</g>
							</g>
						</g>
					</g>
				</g>
				<g>
					<g>
						<g>
							<g>
								<g>
									<path fill="#84D1DA" d="M311.4,129.4c-5.3-5.3-12.6-8.3-20.1-8.3c-2.8,0-5.6,0-8.4,0c-10.1,0-20.2,0-30.3,0
										c-2.4,0-4.8-0.1-7.2,0c-8.3,0.5-15.8,4.3-21,10.8c-4.1,5.3-6,11.5-6,18.1c0,3.6,0,7.3,0,10.9c0,8.9,0,27.1,0,27.1h2
										c0,0,5.2,0,7.8,0c20,0,39.9,0,59.9,0c8.4,0,16.8,0,25.2,0c2,0,5.9,0,5.9,0h0.6c0,0,0-1.9,0-2.8c0-9.3,0-18.5,0-27.8
										c0-2.7,0-5.4,0-8.1C319.7,141.9,316.8,134.7,311.4,129.4C306.3,124.2,316.6,134.5,311.4,129.4z"/>
								</g>
							</g>
						</g>
					</g>
				</g>
				<g>
					<g>
						<g>
							<g>
								<path fill="#616363" d="M322.9,191.2H215.2V150c0-7.5,2.3-14.4,6.7-20c5.8-7.2,14.1-11.5,23.3-12c1.8-0.1,3.6-0.1,5.3-0.1
									c0.7,0,1.4,0,2,0h38.8c7.3,0,14.5,2.6,20.1,7.1c0.3,0.2,0.6,0.4,0.8,0.6l0,0l0.3,0.3c0,0,0.1,0.1,0.1,0.1l2.5,2.5l-0.1,0.1
									c5,5.7,7.8,13.1,7.8,20.8V191.2z M221.5,184.9h95.1v-35.5c0-6.6-2.7-13.1-7.3-17.8l-0.1-0.1c-4.7-4.6-11.2-7.3-17.9-7.3
									h-38.8c-0.7,0-1.4,0-2.1,0c-1.7,0-3.3,0-4.9,0c-7.4,0.4-14.1,3.9-18.7,9.7c-3.5,4.5-5.3,10-5.3,16.1V184.9z M310,130.8
									l-0.7,0.8L310,130.8z"/>
							</g>
						</g>
					</g>
				</g>
				<g>
					<g>
						<g>
							<g>
								<g>
									<path fill="#FFFFFF" d="M268,110.5L268,110.5c-12.5,0-22.6-10.1-22.6-22.6v0c0-12.5,10.1-22.6,22.6-22.6h0
										c12.5,0,22.6,10.1,22.6,22.6v0C290.6,100.4,280.5,110.5,268,110.5z"/>
								</g>
							</g>
						</g>
					</g>
					<g>
						<g>
							<g>
								<g>
									<path fill="#616363" d="M268,113.7c-14.2,0-25.8-11.6-25.8-25.8c0-14.2,11.6-25.8,25.8-25.8c14.2,0,25.8,11.6,25.8,25.8
										C293.8,102.1,282.2,113.7,268,113.7z M268,68.4c-10.8,0-19.5,8.7-19.5,19.5s8.7,19.5,19.5,19.5c10.8,0,19.5-8.7,19.5-19.5
										S278.7,68.4,268,68.4z"/>
								</g>
							</g>
						</g>
					</g>
					<g>
						<g>
							<g>
								<g>
									<rect x="238" y="160.2" fill="#616363" width="6.3" height="27.9"/>
								</g>
							</g>
						</g>
					</g>
					<g>
						<g>
							<g>
								<g>
									<rect x="293.9" y="160.2" fill="#616363" width="6.3" height="27.9"/>
								</g>
							</g>
						</g>
					</g>
					<g>
						<g>
							<g>
								<g>
									<rect x="238" y="162.1" fill="#616363" width="6.3" height="26"/>
								</g>
							</g>
						</g>
					</g>
					<g>
						<g>
							<g>
								<g>
									<rect x="293.9" y="162.1" fill="#616363" width="6.3" height="26"/>
								</g>
							</g>
						</g>
					</g>
				</g>
				<g>
					<g>
						<g>
							<g>
								<polygon fill="#FCB856" points="255.1,121.1 264.5,132.1 270.7,132.1 280.8,121.1 								"/>
							</g>
						</g>
					</g>
				</g>
				<g>
					<g>
						<g>
							<g>
								<polygon fill="#FCB856" points="270.7,132.1 267.6,132.1 264.5,132.1 260,172.1 267.6,178.3 275.3,172.1 								"/>
							</g>
						</g>
					</g>
				</g>
				<g>
					<g>
						<g>
							<g>
								<path fill="#616363" d="M272.1,135.3h-9l-14.8-17.3H288L272.1,135.3z M266,129h3.3l4.4-4.8h-11.8L266,129z"/>
							</g>
						</g>
					</g>
				</g>
				<g>
					<g>
						<g>
							<g>
								<path fill="#616363" d="M267.6,182.3l-11-8.9l5.1-44.5h11.7l5.1,44.5L267.6,182.3z M263.3,170.8l4.3,3.5l4.4-3.5l-4.1-35.5
									h-0.5L263.3,170.8z"/>
							</g>
						</g>
					</g>
				</g>
			</g>
			<g>
				<g>
					<g>
						<g>
							<g>
								<g>
									<path fill="#84D1DA" d="M217.6,259.7c-5.3-5.3-12.6-8.3-20.1-8.3c-2.8,0-5.6,0-8.4,0c-10.1,0-20.2,0-30.3,0
										c-2.4,0-4.8-0.1-7.2,0c-8.3,0.5-15.8,4.3-21,10.8c-4.1,5.3-6,11.5-6,18.1c0,3.6,0,7.3,0,10.9c0,8.9,0,17.7,0,26.6
										c0,0.9,1.2,0.5,2,0.5c2.6,0,5.2,0,7.8,0c20,0,39.9,0,59.9,0c8.4,0,16.8,0,25.2,0c2,0,3.9,0,5.9,0c0.1,0,0.6,0.1,0.6-0.1
										c0-0.9,0-1.8,0-2.7c0-9.3,0-18.5,0-27.8c0-2.7,0-5.4,0-8.1C225.9,272.3,222.9,265,217.6,259.7
										C212.5,254.6,222.7,264.9,217.6,259.7z"/>
								</g>
							</g>
						</g>
					</g>
				</g>
				<g>
					<g>
						<g>
							<g>
								<g>
									<path fill="#84D1DA" d="M217.6,259.7c-5.3-5.3-12.6-8.3-20.1-8.3c-2.8,0-5.6,0-8.4,0c-10.1,0-20.2,0-30.3,0
										c-2.4,0-4.8-0.1-7.2,0c-8.3,0.5-15.8,4.3-21,10.8c-4.1,5.3-6,11.5-6,18.1c0,3.6,0,7.3,0,10.9c0,8.9,0,27.1,0,27.1h2
										c0,0,5.2,0,7.8,0c20,0,39.9,0,59.9,0c8.4,0,16.8,0,25.2,0c2,0,5.9,0,5.9,0h0.6c0,0,0-1.9,0-2.8c0-9.3,0-18.5,0-27.8
										c0-2.7,0-5.4,0-8.1C225.9,272.3,222.9,265,217.6,259.7C212.5,254.6,222.7,264.9,217.6,259.7z"/>
								</g>
							</g>
						</g>
					</g>
				</g>
				<g>
					<g>
						<g>
							<g>
								<path fill="#616363" d="M229,321.6H121.4v-41.2c0-7.5,2.3-14.4,6.7-20c5.8-7.2,14.1-11.5,23.3-12c1.8-0.1,3.6-0.1,5.3-0.1
									c0.7,0,1.4,0,2,0h38.8c7.1,0,14.1,2.4,19.6,6.8h0.3l1.2,1.2c0.2,0.2,0.4,0.4,0.5,0.5l2.1,2.1l0,0c0.3,0.3,0.5,0.6,0.7,0.8
									c4.5,5.6,7.1,12.7,7.1,20V321.6z M127.7,315.3h95.1v-35.5c0-6.7-2.7-13.2-7.4-17.9l0,0c-4.7-4.7-11.2-7.4-17.9-7.4h-38.8
									c-0.7,0-1.4,0-2.1,0c-1.7,0-3.3,0-4.9,0c-7.4,0.4-14,3.9-18.7,9.7c-3.5,4.5-5.3,10-5.3,16.1V315.3z"/>
							</g>
						</g>
					</g>
				</g>
				<g>
					<g>
						<g>
							<g>
								<g>
									<path fill="#FFFFFF" d="M174.1,240.9L174.1,240.9c-12.5,0-22.6-10.1-22.6-22.6v0c0-12.5,10.1-22.6,22.6-22.6h0
										c12.5,0,22.6,10.1,22.6,22.6v0C196.8,230.8,186.6,240.9,174.1,240.9z"/>
								</g>
							</g>
						</g>
					</g>
					<g>
						<g>
							<g>
								<g>
									<path fill="#616363" d="M174.1,244.1c-14.2,0-25.8-11.6-25.8-25.8c0-14.2,11.6-25.8,25.8-25.8c14.2,0,25.8,11.6,25.8,25.8
										C199.9,232.5,188.4,244.1,174.1,244.1z M174.1,198.8c-10.8,0-19.5,8.7-19.5,19.5s8.7,19.5,19.5,19.5s19.5-8.7,19.5-19.5
										S184.9,198.8,174.1,198.8z"/>
								</g>
							</g>
						</g>
					</g>
					<g>
						<g>
							<g>
								<g>
									<rect x="144.1" y="290.5" fill="#616363" width="6.3" height="27.9"/>
								</g>
							</g>
						</g>
					</g>
					<g>
						<g>
							<g>
								<g>
									<rect x="200" y="290.5" fill="#616363" width="6.3" height="27.9"/>
								</g>
							</g>
						</g>
					</g>
					<g>
						<g>
							<g>
								<g>
									<rect x="144.1" y="292.4" fill="#616363" width="6.3" height="26"/>
								</g>
							</g>
						</g>
					</g>
					<g>
						<g>
							<g>
								<g>
									<rect x="200" y="292.4" fill="#616363" width="6.3" height="26"/>
								</g>
							</g>
						</g>
					</g>
				</g>
				<g>
					<g>
						<g>
							<g>
								<polygon fill="#FCB856" points="161.3,251.5 170.7,262.5 176.8,262.5 187,251.5 								"/>
							</g>
						</g>
					</g>
				</g>
				<g>
					<g>
						<g>
							<g>
								<polygon fill="#FCB856" points="176.8,262.5 173.8,262.5 170.7,262.5 166.1,302.5 173.8,308.7 181.4,302.5 								"/>
							</g>
						</g>
					</g>
				</g>
				<g>
					<g>
						<g>
							<g>
								<path fill="#616363" d="M178.2,265.6h-9l-14.8-17.3h39.6L178.2,265.6z M172.2,259.4h3.3l4.4-4.8h-11.8L172.2,259.4z"/>
							</g>
						</g>
					</g>
				</g>
				<g>
					<g>
						<g>
							<g>
								<path fill="#616363" d="M173.8,312.7l-11-8.9l5.1-44.5h11.7l5.1,44.5L173.8,312.7z M169.4,301.1l4.4,3.5l4.3-3.5l-4.1-35.5
									h-0.5L169.4,301.1z"/>
							</g>
						</g>
					</g>
				</g>
			</g>
			<g>
				<g>
					<g>
						<g>
							<g>
								<g>
									<path fill="#84D1DA" d="M400.6,259.7c-5.3-5.3-12.6-8.3-20.1-8.3c-2.8,0-5.6,0-8.4,0c-10.1,0-20.2,0-30.3,0
										c-2.4,0-4.8-0.1-7.2,0c-8.3,0.5-15.8,4.3-21,10.8c-4.1,5.3-6,11.5-6,18.1c0,3.6,0,7.3,0,10.9c0,8.9,0,17.7,0,26.6
										c0,0.9,1.2,0.5,2,0.5c2.6,0,5.2,0,7.8,0c20,0,39.9,0,59.9,0c8.4,0,16.8,0,25.2,0c2,0,3.9,0,5.9,0c0.1,0,0.6,0.1,0.6-0.1
										c0-0.9,0-1.8,0-2.7c0-9.3,0-18.5,0-27.8c0-2.7,0-5.4,0-8.1C408.9,272.3,405.9,265,400.6,259.7
										C395.5,254.6,405.7,264.9,400.6,259.7z"/>
								</g>
							</g>
						</g>
					</g>
				</g>
				<g>
					<g>
						<g>
							<g>
								<g>
									<path fill="#84D1DA" d="M400.6,259.7c-5.3-5.3-12.6-8.3-20.1-8.3c-2.8,0-5.6,0-8.4,0c-10.1,0-20.2,0-30.3,0
										c-2.4,0-4.8-0.1-7.2,0c-8.3,0.5-15.8,4.3-21,10.8c-4.1,5.3-6,11.5-6,18.1c0,3.6,0,7.3,0,10.9c0,8.9,0,27.1,0,27.1h2
										c0,0,5.2,0,7.8,0c20,0,39.9,0,59.9,0c8.4,0,16.8,0,25.2,0c2,0,5.9,0,5.9,0h0.6c0,0,0-1.9,0-2.8c0-9.3,0-18.5,0-27.8
										c0-2.7,0-5.4,0-8.1C408.9,272.3,405.9,265,400.6,259.7C395.5,254.6,405.7,264.9,400.6,259.7z"/>
								</g>
							</g>
						</g>
					</g>
				</g>
				<g>
					<g>
						<g>
							<g>
								<path fill="#616363" d="M412,321.6H304.4v-41.2c0-7.5,2.3-14.4,6.7-20c5.8-7.2,14.1-11.5,23.3-12c1.8-0.1,3.6-0.1,5.3-0.1
									c0.7,0,1.4,0,2,0h38.8c7.1,0,14.1,2.4,19.6,6.8h0.3l1.2,1.2c0.2,0.2,0.4,0.4,0.5,0.5l2.1,2.1l0,0c0.3,0.3,0.5,0.6,0.7,0.8
									c4.5,5.6,7.1,12.7,7.1,20V321.6z M310.7,315.3h95.1v-35.5c0-6.7-2.7-13.2-7.4-17.9l0,0c-4.7-4.7-11.2-7.4-17.9-7.4h-38.8
									c-0.7,0-1.4,0-2.1,0c-1.7,0-3.3,0-4.9,0c-7.4,0.4-14,3.9-18.7,9.7c-3.5,4.5-5.3,10-5.3,16.1V315.3z"/>
							</g>
						</g>
					</g>
				</g>
				<g>
					<g>
						<g>
							<g>
								<g>
									<path fill="#FFFFFF" d="M357.2,240.9L357.2,240.9c-12.5,0-22.6-10.1-22.6-22.6v0c0-12.5,10.1-22.6,22.6-22.6h0
										c12.5,0,22.6,10.1,22.6,22.6v0C379.8,230.8,369.7,240.9,357.2,240.9z"/>
								</g>
							</g>
						</g>
					</g>
					<g>
						<g>
							<g>
								<g>
									<path fill="#616363" d="M357.2,244.1c-14.2,0-25.8-11.6-25.8-25.8c0-14.2,11.6-25.8,25.8-25.8c14.2,0,25.8,11.6,25.8,25.8
										C382.9,232.5,371.4,244.1,357.2,244.1z M357.2,198.8c-10.8,0-19.5,8.7-19.5,19.5s8.7,19.5,19.5,19.5s19.5-8.7,19.5-19.5
										S367.9,198.8,357.2,198.8z"/>
								</g>
							</g>
						</g>
					</g>
					<g>
						<g>
							<g>
								<g>
									<rect x="327.2" y="290.5" fill="#616363" width="6.3" height="27.9"/>
								</g>
							</g>
						</g>
					</g>
					<g>
						<g>
							<g>
								<g>
									<rect x="383" y="290.5" fill="#616363" width="6.3" height="27.9"/>
								</g>
							</g>
						</g>
					</g>
					<g>
						<g>
							<g>
								<g>
									<rect x="327.2" y="292.4" fill="#616363" width="6.3" height="26"/>
								</g>
							</g>
						</g>
					</g>
					<g>
						<g>
							<g>
								<g>
									<rect x="383" y="292.4" fill="#616363" width="6.3" height="26"/>
								</g>
							</g>
						</g>
					</g>
				</g>
				<g>
					<g>
						<g>
							<g>
								<polygon fill="#FCB856" points="344.3,251.5 353.7,262.5 359.9,262.5 370,251.5 								"/>
							</g>
						</g>
					</g>
				</g>
				<g>
					<g>
						<g>
							<g>
								<polygon fill="#FCB856" points="359.9,262.5 356.8,262.5 353.7,262.5 349.1,302.5 356.8,308.7 364.5,302.5 								"/>
							</g>
						</g>
					</g>
				</g>
				<g>
					<g>
						<g>
							<g>
								<path fill="#616363" d="M361.2,265.6h-9l-14.8-17.3h39.6L361.2,265.6z M355.2,259.4h3.3l4.4-4.8h-11.8L355.2,259.4z"/>
							</g>
						</g>
					</g>
				</g>
				<g>
					<g>
						<g>
							<g>
								<path fill="#616363" d="M356.8,312.7l-11-8.9l5.1-44.5h11.7l5.1,44.5L356.8,312.7z M352.4,301.1l4.4,3.5l4.3-3.5l-4.1-35.5
									h-0.5L352.4,301.1z"/>
							</g>
						</g>
					</g>
				</g>
			</g>
			<g>
				<rect x="264.5" y="201.8" fill="#616363" width="6.3" height="30.4"/>
			</g>
			<g>
				
					<rect x="251.9" y="226.5" transform="matrix(0.6626 0.749 -0.749 0.6626 268.3248 -108.8678)" fill="#616363" width="6.3" height="33.7"/>
			</g>
			<g>
				<polygon fill="#616363" points="277,215.8 267.5,206.3 258.2,215.5 253.8,211.1 267.5,197.4 281.4,211.3 				"/>
			</g>
			<g>
				<polygon fill="#616363" points="258.6,257.7 239.2,257.7 239.2,237.9 245.5,237.9 245.5,251.4 258.6,251.4 				"/>
			</g>
			<g>
				
					<rect x="263.4" y="240.2" transform="matrix(0.7491 0.6624 -0.6624 0.7491 231.5165 -124.5842)" fill="#616363" width="33.7" height="6.3"/>
			</g>
			<g>
				<polygon fill="#616363" points="296,257.7 276.7,257.7 276.7,251.4 289.7,251.4 289.7,237.9 296,237.9 				"/>
			</g>
		</g>
	</g>
</g>
</svg>
