<?xml version="1.0" encoding="utf-8"?>
<!-- Generator: Adobe Illustrator 18.0.0, SVG Export Plug-In . SVG Version: 6.00 Build 0)  -->
<!DOCTYPE svg PUBLIC "-//W3C//DTD SVG 1.1//EN" "http://www.w3.org/Graphics/SVG/1.1/DTD/svg11.dtd">
<svg version="1.1" id="Layer_1" xmlns="http://www.w3.org/2000/svg" xmlns:xlink="http://www.w3.org/1999/xlink" x="0px" y="0px"
	 viewBox="0 0 512 512" enable-background="new 0 0 512 512" xml:space="preserve">
<g>
	<g>
		<text transform="matrix(1 0 0 1 134.9248 420.6168)" fill="#616363" font-family="'AvertaDemo-Regular'" font-size="53.0116">PAYMENT</text>
	</g>
	<g>
		<g>
			<g>
				<g>
					<g>
						<rect x="150.4" y="80.9" fill="#85D1D8" width="207.2" height="207.2"/>
					</g>
				</g>
			</g>
		</g>
		<g>
			<g>
				<g>
					<g>
						<polygon fill="#616363" points="360.8,291.3 296.9,291.3 296.9,285 354.5,285 354.5,84 153.6,84 153.6,285 209.6,285 
							209.6,291.3 147.3,291.3 147.3,77.8 360.8,77.8 						"/>
					</g>
				</g>
			</g>
		</g>
		<g>
			<g>
				<g>
					<g>
						<rect x="173.7" y="106.8" fill="#FCB856" width="160.8" height="47.1"/>
					</g>
				</g>
			</g>
		</g>
		<g>
			<g>
				<g>
					<g>
						<path fill="#616363" d="M337.6,157.1H170.5v-53.4h167.1V157.1z M176.8,150.8h154.5v-40.8H176.8V150.8z"/>
					</g>
				</g>
			</g>
		</g>
		<g>
			<g>
				<g>
					<g>
						<rect x="192.5" y="228.7" fill="#CEECF3" width="123.1" height="20.6"/>
					</g>
				</g>
			</g>
		</g>
		<g>
			<g>
				<g>
					<g>
						<rect x="192.5" y="228.7" fill="#85D1D8" width="123.1" height="20.6"/>
					</g>
				</g>
			</g>
		</g>
		<g>
			<g>
				<g>
					<g>
						<polygon fill="#616363" points="318.8,252.4 298.6,252.4 298.6,246.1 312.5,246.1 312.5,231.8 195.6,231.8 195.6,246.1 
							209.6,246.1 209.6,252.4 189.4,252.4 189.4,225.6 318.8,225.6 						"/>
					</g>
				</g>
			</g>
		</g>
		<g>
			<g>
				<g>
					<g>
						<path fill="#FFFFFF" d="M285.4,330.7h-64.3c-6.4,0-11.5-5.2-11.5-11.5v-90.5h87.3v90.5C296.9,325.6,291.8,330.7,285.4,330.7z"
							/>
					</g>
				</g>
			</g>
		</g>
		<g>
			<g>
				<g>
					<g>
						<circle fill="#FCB856" cx="231.4" cy="301" r="10"/>
					</g>
				</g>
			</g>
		</g>
		<g>
			<g>
				<g>
					<g>
						<circle fill="#FCB856" cx="231.4" cy="288.1" r="10"/>
					</g>
				</g>
			</g>
		</g>
		<g>
			<g>
				<g>
					<g>
						<rect x="261.5" y="228.7" fill="#85D1D8" width="15.8" height="102"/>
					</g>
				</g>
			</g>
		</g>
		<g>
			<g>
				<g>
					<g>
						<path fill="#616363" d="M285.4,333.8h-64.3c-8.1,0-14.7-6.6-14.7-14.7v-93.6h93.6v93.6C300.1,327.3,293.5,333.8,285.4,333.8z
							 M212.7,231.8v87.4c0,4.6,3.8,8.4,8.4,8.4h64.3c4.6,0,8.4-3.8,8.4-8.4v-87.4H212.7z"/>
					</g>
				</g>
			</g>
		</g>
		<g>
			<g>
				<g>
					<g>
						<rect x="192.5" y="186.9" fill="#616363" width="123.1" height="6.3"/>
					</g>
				</g>
			</g>
		</g>
	</g>
</g>
</svg>
