<?xml version="1.0" encoding="utf-8"?>
<!-- Generator: Adobe Illustrator 18.0.0, SVG Export Plug-In . SVG Version: 6.00 Build 0)  -->
<!DOCTYPE svg PUBLIC "-//W3C//DTD SVG 1.1//EN" "http://www.w3.org/Graphics/SVG/1.1/DTD/svg11.dtd">
<svg version="1.1" id="Layer_1" xmlns="http://www.w3.org/2000/svg" xmlns:xlink="http://www.w3.org/1999/xlink" x="0px" y="0px"
	 viewBox="0 0 512 512" enable-background="new 0 0 512 512" xml:space="preserve">
<g>
	<g>
		<text transform="matrix(1 0 0 1 98.0557 430.6479)" fill="#616363" font-family="'AvertaDemo-Regular'" font-size="53.0116">PIGGY BANK</text>
	</g>
	<g>
		<g>
			<g>
				<g>
					<g>
						<g>
							<rect x="183.3" y="245.1" fill="#CEECF3" width="37.3" height="71.7"/>
						</g>
					</g>
				</g>
			</g>
			<g>
				<g>
					<g>
						<g>
							<path fill="#CEECF3" d="M298,114.1h-94.4c-33.7,0-61.9,23-70,54.1H99.2v44.5h32.5c3.7,36.4,34.5,64.9,60.8,64.9H298
								c39.8,0,72.3-32.4,72.3-72.3l0-19C370.2,146.5,337.9,114.1,298,114.1z"/>
						</g>
					</g>
				</g>
			</g>
			<g>
				<g>
					<g>
						<g>
							<path fill="#CEECF3" d="M183.3,136.3l-26.2-26.2c-6.1-6.1-16.6-1.8-16.6,6.9v33.9L183.3,136.3z"/>
						</g>
					</g>
				</g>
			</g>
			<g>
				<g>
					<g>
						<g>
							<path fill="#616363" d="M298.3,280.8h-77.6v-6.3h77.6c2.9,0,5.9-0.2,8.8-0.6c34.2-4.4,60-33.7,60-68.2v-19.7
								c0-37.9-30.9-68.8-68.8-68.8h-95c-11.3,0-22.4,2.8-32.3,8l-2.9-5.5c10.8-5.7,23-8.8,35.2-8.8h95c41.4,0,75.1,33.7,75.1,75.1
								v19.7c0,37.7-28.1,69.7-65.5,74.5C304.7,280.6,301.5,280.8,298.3,280.8z"/>
						</g>
					</g>
				</g>
			</g>
			<g>
				<g>
					<g>
						<g>
							<path fill="#616363" d="M395,196.5h-17.5v-6.3H395c4.9,0,8.9-4,8.9-8.9c0-3.9-3.2-7.1-7.1-7.1c-4,0-7.2,3.2-7.2,7.1h-6.3
								c0-7.3,6-13.3,13.3-13.3c7.5,0,13.4,6,13.4,13.3C410.2,189.7,403.4,196.5,395,196.5z"/>
						</g>
					</g>
				</g>
			</g>
			<g>
				<g>
					<g>
						<g>
							<g>
								<path fill="#FCB856" d="M289.3,103.9c0,10.9-5.3,20.5-13.4,26.5h-39.2c-8.1-6-13.4-15.6-13.4-26.5c0-18.2,14.8-33,33-33
									C274.5,70.9,289.3,85.6,289.3,103.9z"/>
							</g>
						</g>
					</g>
				</g>
				<g>
					<g>
						<g>
							<g>
								<path fill="#616363" d="M277,133.5h-41.3l-0.8-0.6c-9.2-6.8-14.6-17.6-14.6-29c0-19.9,16.2-36.1,36.1-36.1
									c19.9,0,36.1,16.2,36.1,36.1c0,11.4-5.5,22.3-14.7,29L277,133.5z M237.8,127.2h37.1c7.1-5.6,11.3-14.3,11.3-23.4
									c0-16.5-13.4-29.9-29.9-29.9c-16.5,0-29.8,13.4-29.8,29.9C226.5,113.1,230.6,121.5,237.8,127.2z"/>
							</g>
						</g>
					</g>
				</g>
				<g>
					<g>
						<g>
							<g>
								<g>
									<path fill="#FFFFFF" d="M267.3,111.1c0,4.8-3.4,8.2-9.1,8.6v5.7H255v-5.8c-3.5-0.4-6.9-1.9-9.6-4.6l2.5-2.9
										c2.6,2.6,6,3.9,9.1,3.9c3.5,0,6-1.7,6-4.7c0-3.4-2.7-4.5-7.1-5.9c-5.2-1.7-9.8-3.3-9.8-8.9c0-4.6,3.2-8.1,8.9-8.3v-6h3.2
										v6.2c2.9,0.5,5.9,1.8,8,3.4l-2.4,2.9c-2.5-1.8-5.6-2.8-7.9-2.8c-3.3,0-5.6,1.5-5.6,4.3c0,2.9,2.9,4,6.8,5.3
										C262.9,103.5,267.3,105,267.3,111.1L267.3,111.1z"/>
								</g>
							</g>
						</g>
					</g>
				</g>
			</g>
			<g>
				<g>
					<g>
						<g>
							<rect x="221.7" y="127.2" fill="#616363" width="66.5" height="6.3"/>
						</g>
					</g>
				</g>
			</g>
			<g>
				<g>
					<g>
						<g>
							<path fill="#616363" d="M181.8,277.7c-22.4-6.7-40.6-23.7-48.9-45.6c-0.1-0.2-2.6-6.5-4-16.2H96.1v-50.8h52.2v6.3h-46v38.2
								h32.2l0.3,2.8c1.2,10.3,4,17.4,4,17.4c7.6,20.1,24.3,35.7,44.8,41.8L181.8,277.7z"/>
						</g>
					</g>
				</g>
			</g>
			<g>
				<g>
					<g>
						<g>
							<path fill="#616363" d="M136.6,169l-6.1-1.5c1.5-6.1,3.9-11.9,6.9-17.4V117c0-5.3,3-9.9,7.9-11.9c4.9-2,10.3-1,14,2.8
								l26.2,26.2l-4.4,4.4l-26.2-26.2c-2-2-4.6-2.5-7.2-1.4c-2.6,1.1-4.1,3.3-4.1,6.1l0,34.7l-0.4,0.7
								C140.3,157.6,138,163.2,136.6,169z"/>
						</g>
					</g>
				</g>
			</g>
			<g>
				<g>
					<g>
						<g>
							<polygon fill="#616363" points="223.8,320 180.2,320 180.2,248.3 186.5,248.3 186.5,313.7 217.5,313.7 217.5,263.8 
								223.8,263.8 							"/>
						</g>
					</g>
				</g>
			</g>
			<g>
				<g>
					<g>
						<g>
							<rect x="280.1" y="245.1" fill="#CEECF3" width="37.3" height="71.7"/>
						</g>
					</g>
				</g>
			</g>
			<g>
				<g>
					<g>
						<g>
							<polygon fill="#616363" points="320.5,320 276.9,320 276.9,263.8 283.2,263.8 283.2,313.7 314.2,313.7 314.2,248.3 
								320.5,248.3 							"/>
						</g>
					</g>
				</g>
			</g>
		</g>
		<g>
			<g>
				<g>
					<g>
						<rect x="176.9" y="175" fill="#616363" width="12.8" height="6.3"/>
					</g>
				</g>
			</g>
		</g>
	</g>
</g>
</svg>
