<?xml version="1.0" encoding="utf-8"?>
<!-- Generator: Adobe Illustrator 18.0.0, SVG Export Plug-In . SVG Version: 6.00 Build 0)  -->
<!DOCTYPE svg PUBLIC "-//W3C//DTD SVG 1.1//EN" "http://www.w3.org/Graphics/SVG/1.1/DTD/svg11.dtd">
<svg version="1.1" id="Layer_1" xmlns="http://www.w3.org/2000/svg" xmlns:xlink="http://www.w3.org/1999/xlink" x="0px" y="0px"
	 viewBox="0 0 512 512" enable-background="new 0 0 512 512" xml:space="preserve">
<g>
	<g>
		<text transform="matrix(1 0 0 1 118.812 437.6792)" fill="#616363" font-family="'AvertaDemo-Regular'" font-size="53.0116">PLANNING</text>
	</g>
	<g>
		<g>
			<g>
				<g>
					<g>
						<circle fill="#84D1DA" cx="256.7" cy="208" r="106.5"/>
					</g>
				</g>
			</g>
		</g>
		<g>
			<g>
				<g>
					<g>
						<path fill="#FFFFFF" d="M250.4,337.3v-56.7h-69.8v-51.9h-31.2l31.2-60.2v0c0-42.1,34.1-72.5,76.2-72.5h1.2
							c42.1,0,76.2,34.1,76.2,76.2v71.4v93.7H250.4z"/>
					</g>
				</g>
			</g>
		</g>
		<g>
			<g>
				<g>
					<g>
						<path fill="#616363" d="M337.2,340.4h-90v-56.7h-69.8v-51.9h-33.2l33.2-64.1c0.2-20.7,8.5-39.7,23.3-53.5
							c14.7-13.7,34.6-21.3,56-21.3h1.2c43.7,0,79.3,35.6,79.3,79.3V340.4z M253.5,334.1h77.4V172.2c0-40.3-32.8-73-73-73h-1.2
							c-41.6,0-73,29.8-73,69.4v0.8l-29.1,56.3h29.1v51.9h69.8V334.1z"/>
					</g>
				</g>
			</g>
		</g>
		<g>
			<g>
				<g>
					<g>
						<path fill="none" stroke="#616363" stroke-width="4" stroke-miterlimit="10" d="M288.5,329.8"/>
					</g>
				</g>
			</g>
		</g>
		<g>
			<g>
				<g>
					<g>
						<path fill="#616363" d="M359.8,133.8l-5.6-2.9c4-7.6,4.7-16.2,2.2-24.4c-2.6-8.1-8.1-14.8-15.7-18.7
							c-6.9-3.6-14.8-4.5-22.4-2.7l-1.5-6.1c9-2.2,18.5-1.1,26.8,3.2c9.1,4.7,15.7,12.7,18.8,22.4
							C365.4,114.4,364.5,124.8,359.8,133.8z"/>
					</g>
				</g>
			</g>
		</g>
		<g>
			<g>
				<g>
					<g>
						<polygon fill="#616363" points="331.4,103.6 310.7,81.8 332.9,60.7 337.2,65.3 319.6,82.1 336,99.3 						"/>
					</g>
				</g>
			</g>
		</g>
		<g>
			<g>
				<g>
					<g>
						<path fill="#616363" d="M167.8,315.5c-6.1,0-12.2-1.5-17.7-4.3c-9.1-4.7-15.7-12.7-18.8-22.4c-3.1-9.7-2.1-20.1,2.6-29.1
							l5.6,2.9c-4,7.6-4.7,16.2-2.2,24.4c2.6,8.1,8.1,14.8,15.7,18.7c6.9,3.6,14.8,4.5,22.4,2.7l1.5,6.1
							C173.9,315.2,170.8,315.5,167.8,315.5z"/>
					</g>
				</g>
			</g>
		</g>
		<g>
			<g>
				<g>
					<g>
						<polygon fill="#616363" points="160.7,332.8 156.4,328.2 174.1,311.4 157.7,294.2 162.2,289.9 182.9,311.6 						"/>
					</g>
				</g>
			</g>
		</g>
		<g>
			<g>
				<g>
					<g>
						<path fill="#FCB856" d="M236.7,124.8h40c15.3,0,27.7,12.4,27.7,27.7v0c0,15.3-12.4,27.7-27.7,27.7h-8.5l3.7,20.1l-29.3-20.1
							h-5.9c-15.3,0-27.7-12.4-27.7-27.7v0C208.9,137.2,221.4,124.8,236.7,124.8z"/>
					</g>
				</g>
			</g>
		</g>
		<g>
			<g>
				<g>
					<g>
						<path fill="#616363" d="M276.3,207.2l-34.7-23.8h-5c-17,0-30.9-13.8-30.9-30.9c0-17,13.8-30.9,30.9-30.9h40
							c17,0,30.9,13.8,30.9,30.9c0,17-13.8,30.9-30.9,30.9H272L276.3,207.2z M236.7,127.9c-13.6,0-24.6,11-24.6,24.6
							c0,13.6,11,24.6,24.6,24.6h6.9l23.9,16.4l-3-16.4h12.3c13.6,0,24.6-11,24.6-24.6c0-13.6-11-24.6-24.6-24.6H236.7z"/>
					</g>
				</g>
			</g>
		</g>
		<g>
			<g>
				<g>
					<g>
						<circle fill="#616363" cx="237.7" cy="151.4" r="4.6"/>
					</g>
				</g>
			</g>
		</g>
		<g>
			<g>
				<g>
					<g>
						<circle fill="#616363" cx="256.7" cy="151.4" r="4.6"/>
					</g>
				</g>
			</g>
		</g>
		<g>
			<g>
				<g>
					<g>
						<circle fill="#616363" cx="275.7" cy="151.4" r="4.6"/>
					</g>
				</g>
			</g>
		</g>
	</g>
</g>
</svg>
