<?xml version="1.0" encoding="utf-8"?>
<!-- Generator: Adobe Illustrator 18.0.0, SVG Export Plug-In . SVG Version: 6.00 Build 0)  -->
<!DOCTYPE svg PUBLIC "-//W3C//DTD SVG 1.1//EN" "http://www.w3.org/Graphics/SVG/1.1/DTD/svg11.dtd">
<svg version="1.1" id="Layer_1" xmlns="http://www.w3.org/2000/svg" xmlns:xlink="http://www.w3.org/1999/xlink" x="0px" y="0px"
	 viewBox="0 0 512 512" enable-background="new 0 0 512 512" xml:space="preserve">
<g>
	<g>
		<text transform="matrix(1 0 0 1 149.3916 418.5518)" fill="#616363" font-family="'AvertaDemo-Regular'" font-size="53.0116"></text>
	</g>
	<g>
		<g>
			<g>
				<g>
					<g>
						<path fill="#FCB856" d="M345.7,272h-15.1h-18.6h-28h-21l0,0c4.8-0.1,9.4-2.4,12.4-6.6c5-7,3.3-16.8-3.7-21.7l-56.8-40.3
							c-12.9-9.2-28.3-14.1-44.1-14.1H149h-27v71.6h23.1c16,0,18.4,4.9,31.5,14.1l15.6,10.9c0,0,11.2,6.5,23.9,11.5
							c0.1,0,0.2,0.1,0.3,0.1c1,0.4,2,0.8,2.9,1.1c0.1,0,0.2,0.1,0.3,0.1c1.9,0.7,3.9,1.4,5.8,2c0.1,0,0.2,0.1,0.3,0.1
							c1.9,0.5,3.7,1,5.5,1.4c0.1,0,0.3,0.1,0.4,0.1c1.7,0.3,3.3,0.6,4.9,0.7c0.2,0,0.4,0,0.5,0c0.8,0.1,1.5,0.1,2.2,0.1h72.4h18.6
							c0.2,0,0.4,0,0.6,0h14.5c8.6,0,15.6-7,15.6-15.6v0C361.3,279,354.3,272,345.7,272z"/>
					</g>
				</g>
			</g>
		</g>
		<g>
			<g>
				<g>
					<g>
						<g>
							<g>
								<g>
									<path fill="#616363" d="M311.9,306.3h-72.4c-15.5,0-39.3-12.4-48.8-17.7l-0.3-0.2l-15.6-10.9c-2.7-1.9-5-3.7-7-5.2
										c-7.5-5.7-11-8.4-22.7-8.4h-26.3v-77.9h51.7c16.6,0,32.5,5.1,46,14.7l56.8,40.3c4.1,2.9,6.8,7.2,7.6,12.1
										c0.8,4.9-0.3,9.9-3.2,14c-0.4,0.6-0.8,1.1-1.3,1.6h35.5c10.3,0,18.7,8.4,18.7,18.7C330.7,297.9,322.3,306.3,311.9,306.3z
										 M194,283.2c7.3,4.1,31.3,16.8,45.6,16.8h72.4c6.9,0,12.5-5.6,12.5-12.5s-5.6-12.5-12.5-12.5l-49.1,0
										c-4,0.1-7.9-1.1-11.2-3.4l-37.4-26.4l3.6-5.1l37.4,26.4c2.7,1.9,6,2.7,9.3,2.1c3.3-0.6,6.1-2.4,8.1-5.1
										c1.9-2.7,2.7-6,2.1-9.3c-0.6-3.3-2.4-6.1-5.1-8.1l-56.8-40.3c-12.4-8.8-27.1-13.5-42.3-13.5h-45.4v65.4h20
										c13.8,0,18.6,3.6,26.5,9.6c2,1.5,4.2,3.2,6.8,5L194,283.2z"/>
								</g>
							</g>
						</g>
					</g>
				</g>
				<g>
					<g>
						<g>
							<g>
								<g>
									<path fill="#616363" d="M330.5,306.3h-91c-17.9,0-47.5-17-48.8-17.7l3.1-5.4c0.3,0.2,29.4,16.9,45.7,16.9h91
										c6.9,0,12.5-5.6,12.5-12.5s-5.6-12.5-12.5-12.5h-18.6v-6.3h18.6c10.3,0,18.7,8.4,18.7,18.7
										C349.3,297.9,340.9,306.3,330.5,306.3z"/>
								</g>
							</g>
						</g>
					</g>
				</g>
			</g>
			<g>
				<g>
					<g>
						<g>
							<path fill="#616363" d="M345.7,306.3H317V300h28.7c6.9,0,12.4-5.6,12.4-12.4c0-6.9-5.6-12.4-12.4-12.4h-61.8v-6.3h61.8
								c10.3,0,18.7,8.4,18.7,18.7C364.4,297.9,356,306.3,345.7,306.3z"/>
						</g>
					</g>
				</g>
			</g>
		</g>
		<g>
			<g>
				<g>
					<g>
						<rect x="277" y="179.3" fill="#CEECF3" width="28.8" height="22.2"/>
					</g>
				</g>
			</g>
		</g>
		<g>
			<g>
				<g>
					<g>
						<rect x="319.1" y="157" fill="#84D1DA" width="28.8" height="44.4"/>
					</g>
				</g>
			</g>
		</g>
		<g>
			<g>
				<g>
					<g>
						<rect x="361.2" y="122.2" fill="#FCB856" width="28.8" height="79.3"/>
					</g>
				</g>
			</g>
		</g>
		<g>
			<g>
				<g>
					<g>
						<rect x="273.8" y="213.4" fill="#616363" width="119.1" height="6.3"/>
					</g>
				</g>
			</g>
		</g>
		<g>
			<g>
				<g>
					<g>
						<g>
							<path fill="#FCB856" d="M245,157.2c0,7.4-5.2,12.6-14,13.3v8.8h-4.8v-8.8c-5.4-0.6-10.5-3-14.8-7.1l3.8-4.5c4.1,4,9.3,6,14,6
								c5.3,0,9.3-2.6,9.3-7.2c0-5.2-4.2-6.9-10.8-9c-7.9-2.5-15.1-5-15.1-13.6c0-7,4.9-12.4,13.7-12.8V113h4.8v9.5
								c4.4,0.8,9.1,2.8,12.3,5.3l-3.6,4.5c-3.8-2.8-8.6-4.3-12.2-4.3c-5,0-8.6,2.4-8.6,6.6c0,4.5,4.4,6.2,10.4,8.2
								C238.3,145.6,245,147.9,245,157.2L245,157.2z"/>
						</g>
					</g>
				</g>
			</g>
		</g>
		<g>
			<g>
				<g>
					<g>
						<rect x="225" y="79.8" fill="#616363" width="6.3" height="18"/>
					</g>
				</g>
			</g>
		</g>
		<g>
			<g>
				<g>
					<g>
						<rect x="173.3" y="143" fill="#616363" width="18" height="6.3"/>
					</g>
				</g>
			</g>
		</g>
		<g>
			<g>
				<g>
					<g>
						<rect x="263.5" y="143" fill="#616363" width="18" height="6.3"/>
					</g>
				</g>
			</g>
		</g>
		<g>
			<g>
				<g>
					<g>
						
							<rect x="260.9" y="99.5" transform="matrix(0.6421 0.7666 -0.7666 0.6421 177.6246 -163.5677)" fill="#616363" width="6.3" height="18"/>
					</g>
				</g>
			</g>
		</g>
		<g>
			<g>
				<g>
					<g>
						
							<rect x="183.4" y="105.3" transform="matrix(0.7666 0.6421 -0.6421 0.7666 114.5321 -98.2033)" fill="#616363" width="18" height="6.3"/>
					</g>
				</g>
			</g>
		</g>
		<g>
			<g>
				<g>
					<g>
						<path fill="#616363" d="M393.1,204.6H358V119h35.1V204.6z M364.3,198.3h22.5v-73h-22.5V198.3z"/>
					</g>
				</g>
			</g>
		</g>
		<g>
			<g>
				<g>
					<g>
						<path fill="#616363" d="M351,204.6h-35.1v-50.7H351V204.6z M322.2,198.3h22.5v-38.2h-22.5V198.3z"/>
					</g>
				</g>
			</g>
		</g>
		<g>
			<g>
				<g>
					<g>
						<path fill="#616363" d="M308.9,204.6h-35.1v-28.5h35.1V204.6z M280.1,198.3h22.5v-15.9h-22.5V198.3z"/>
					</g>
				</g>
			</g>
		</g>
	</g>
</g>
</svg>
