<?xml version="1.0" encoding="utf-8"?>
<!-- Generator: Adobe Illustrator 18.0.0, SVG Export Plug-In . SVG Version: 6.00 Build 0)  -->
<!DOCTYPE svg PUBLIC "-//W3C//DTD SVG 1.1//EN" "http://www.w3.org/Graphics/SVG/1.1/DTD/svg11.dtd">
<svg version="1.1" id="Layer_1" xmlns="http://www.w3.org/2000/svg" xmlns:xlink="http://www.w3.org/1999/xlink" x="0px" y="0px"
	 viewBox="0 0 512 512" enable-background="new 0 0 512 512" xml:space="preserve">
<g>
	<g>
		<text transform="matrix(1 0 0 1 156.4214 425.1287)" fill="#616363" font-family="'AvertaDemo-Regular'" font-size="53.0116">REPORT</text>
	</g>
	<g>
		<g>
			<g>
				<g>
					<g>
						<rect x="151.4" y="76.4" fill="#84D1DA" width="171.8" height="220.2"/>
					</g>
				</g>
			</g>
		</g>
		<g>
			<g>
				<g>
					<g>
						<polygon fill="#616363" points="188.7,299.7 148.3,299.7 148.3,73.3 326.4,73.3 326.4,113.2 320.1,113.2 320.1,79.5 
							154.6,79.5 154.6,293.5 188.7,293.5 						"/>
					</g>
				</g>
			</g>
		</g>
		<g>
			<g>
				<g>
					<g>
						<rect x="188.7" y="113.3" fill="#FFFFFF" width="171.8" height="220.2"/>
					</g>
				</g>
			</g>
		</g>
		<g>
			<g>
				<g>
					<g>
						<path fill="#616363" d="M363.7,336.6H185.6V110.1h178.1V336.6z M191.9,330.3h165.5V116.4H191.9V330.3z"/>
					</g>
				</g>
			</g>
		</g>
		<g>
			<g>
				<g>
					<g>
						<rect x="275.5" y="143.1" fill="#616363" width="51.4" height="6.3"/>
					</g>
				</g>
			</g>
		</g>
		<g>
			<g>
				<g>
					<g>
						<rect x="275.5" y="173.9" fill="#616363" width="51.4" height="6.3"/>
					</g>
				</g>
			</g>
		</g>
		<g>
			<g>
				<g>
					<g>
						<rect x="275.5" y="204.8" fill="#616363" width="51.4" height="6.3"/>
					</g>
				</g>
			</g>
		</g>
		<g>
			<g>
				<g>
					<g>
						<rect x="224.1" y="235.6" fill="#616363" width="102.8" height="6.3"/>
					</g>
				</g>
			</g>
		</g>
		<g>
			<g>
				<g>
					<g>
						<rect x="224.1" y="266.5" fill="#616363" width="102.8" height="6.3"/>
					</g>
				</g>
			</g>
		</g>
		<g>
			<g>
				<g>
					<g>
						<rect x="224.1" y="297.4" fill="#616363" width="102.8" height="6.3"/>
					</g>
				</g>
			</g>
		</g>
		<g>
			<g>
				<g>
					<g>
						<g>
							<path fill="#FCB856" d="M260.3,187.6c0,7.3-5.1,12.5-13.9,13.2v8.7h-4.8v-8.7c-5.3-0.6-10.4-2.9-14.7-7l3.7-4.5
								c4,3.9,9.2,5.9,13.8,5.9c5.3,0,9.2-2.6,9.2-7.1c0-5.1-4.1-6.9-10.7-8.9c-7.8-2.5-15-5-15-13.5c0-7,4.9-12.2,13.6-12.7v-9.1
								h4.8v9.4c4.3,0.8,9,2.7,12.2,5.2l-3.6,4.4c-3.8-2.7-8.5-4.2-12.1-4.2c-5,0-8.5,2.3-8.5,6.5c0,4.5,4.3,6.1,10.3,8.1
								C253.6,176.1,260.3,178.4,260.3,187.6L260.3,187.6z"/>
						</g>
					</g>
				</g>
			</g>
		</g>
	</g>
</g>
</svg>
