<?xml version="1.0" encoding="utf-8"?>
<!-- Generator: Adobe Illustrator 18.0.0, SVG Export Plug-In . SVG Version: 6.00 Build 0)  -->
<!DOCTYPE svg PUBLIC "-//W3C//DTD SVG 1.1//EN" "http://www.w3.org/Graphics/SVG/1.1/DTD/svg11.dtd">
<svg version="1.1" id="Layer_1" xmlns="http://www.w3.org/2000/svg" xmlns:xlink="http://www.w3.org/1999/xlink" x="0px" y="0px"
	 viewBox="0 0 512 512" enable-background="new 0 0 512 512" xml:space="preserve">
<g>
	<g>
		<text transform="matrix(1 0 0 1 92.9144 431.1791)"><tspan x="0" y="0" fill="#616363" font-family="'AvertaDemo-Regular'" font-size="53.0116">RETIREMENT</tspan><tspan x="48.5" y="63.6" fill="#616363" font-family="'AvertaDemo-Regular'" font-size="53.0116">SAVINGS</tspan></text>
	</g>
	<g>
		<g>
			<g>
				<g>
					<g>
						<path fill="#FFFFFF" d="M259.7,144.9L259.7,144.9c-20.6,0-37.3-16.7-37.3-37.3v0c0-20.6,16.7-37.3,37.3-37.3h0
							c20.6,0,37.3,16.7,37.3,37.3v0C297,128.2,280.3,144.9,259.7,144.9z"/>
					</g>
				</g>
			</g>
		</g>
		<g>
			<g>
				<g>
					<g>
						<path fill="#616363" d="M259.7,148c-22.3,0-40.4-18.1-40.4-40.4c0-22.3,18.1-40.4,40.4-40.4s40.4,18.1,40.4,40.4
							C300.2,129.9,282,148,259.7,148z M259.7,73.5c-18.8,0-34.1,15.3-34.1,34.1s15.3,34.1,34.1,34.1c18.8,0,34.1-15.3,34.1-34.1
							S278.6,73.5,259.7,73.5z"/>
					</g>
				</g>
			</g>
		</g>
		<g>
			<g>
				<g>
					<g>
						<path fill="#FCB856" d="M178.1,306.8v-98c0-25.7,20.8-46.5,46.5-46.5h72.5c18.4,0,35.3,10.2,43.8,26.5l30.4,58.3
							c4.9,9.3,1.2,20.8-8.2,25.7h0c-9.2,4.7-20.4,1.2-25.3-7.8l-22.5-40.3c-2.1-3.7-7.7-2.2-7.7,2v0v103.7h-92V226.6L178.1,306.8z"
							/>
					</g>
				</g>
			</g>
		</g>
		<g>
			<g>
				<g>
					<g>
						<path fill="#FCB856" d="M385.2,330.3V291c0-8.7-7.1-15.8-15.8-15.8l-31.2,0.1v11.6h31.1c2.3,0,4.1,1.9,4.1,4.1v39.4
							L385.2,330.3z"/>
					</g>
				</g>
			</g>
		</g>
		<g>
			<g>
				<g>
					<g>
						<path fill="#616363" d="M370.2,333.5V291c0-0.6-0.5-1-1-1H335v-17.9l34.3-0.1c10.5,0,19,8.5,19,19v42.4L370.2,333.5z
							 M341.3,283.7h27.9c4,0,7.3,3.3,7.3,7.3v36.2l5.5,0V291c0-7-5.7-12.7-12.7-12.7l-28,0.1V283.7z"/>
					</g>
				</g>
			</g>
		</g>
		<g>
			<g>
				<g>
					<g>
						<path fill="#FCB856" d="M215.5,229.7v72.2v9.7c0,10.3-8.4,18.7-18.7,18.7h0c-10.3,0-18.7-8.4-18.7-18.7v-9.7v-72.2H215.5z"/>
					</g>
				</g>
			</g>
		</g>
		<g>
			<g>
				<g>
					<g>
						<path fill="#84D1DA" d="M178.1,306.8v-98c0-25.7,20.8-46.5,46.5-46.5h72.5c18.4,0,35.3,10.2,43.8,26.5l30.4,58.3
							c4.9,9.3,1.2,20.8-8.2,25.7h0c-9.2,4.7-20.4,1.2-25.3-7.8l-22.5-40.3c-2.1-3.7-7.7-2.2-7.7,2v0v103.7h-92V226.6L178.1,306.8z"
							/>
					</g>
				</g>
			</g>
		</g>
		<g>
			<g>
				<g>
					<g>
						<path fill="#84D1DA" d="M215.5,229.7v72.2v9.7c0,10.3-8.4,18.7-18.7,18.7h0c-10.3,0-18.7-8.4-18.7-18.7v-9.7v-72.2H215.5z"/>
					</g>
				</g>
			</g>
		</g>
		<g>
			<g>
				<g>
					<g>
						<path fill="#616363" d="M310.6,333.5h-98.3V226.6h6.3v100.6h85.7V226.6c0-3.4,2.2-6.2,5.4-7c3.2-0.8,6.5,0.6,8.2,3.5
							l22.5,40.3c4.2,7.6,13.5,10.5,21.2,6.5c3.8-1.9,6.6-5.2,7.9-9.3c1.3-4,0.9-8.4-1-12.1l-30.4-58.3c-8-15.3-23.7-24.9-41-24.9
							h-72.5c-23.9,0-43.4,19.5-43.4,43.4v98h-6.3v-98c0-27.4,22.3-49.7,49.7-49.7h72.5c19.6,0,37.5,10.8,46.6,28.2l30.4,58.3
							c2.7,5.3,3.3,11.3,1.5,16.9c-1.8,5.7-5.7,10.3-11,13c-10.8,5.5-23.7,1.5-29.5-9.1l-22.5-40.3c-0.2-0.4-0.6-0.6-1.1-0.5
							c-0.5,0.1-0.7,0.4-0.7,0.9V333.5z"/>
					</g>
				</g>
			</g>
		</g>
		<g>
			<g>
				<g>
					<g>
						<path fill="#616363" d="M196.8,333.5c-12,0-21.8-9.8-21.8-21.8v-81.9h6.3v81.9c0,8.6,7,15.6,15.6,15.6s15.6-7,15.6-15.6v-81.9
							h6.3v81.9C218.6,323.7,208.9,333.5,196.8,333.5z"/>
					</g>
				</g>
			</g>
		</g>
		<g>
			<g>
				<g>
					<g>
						<path fill="#FFFFFF" d="M283.5,162.3c0,13.1-10.6,23.8-23.8,23.8c-13.1,0-23.8-10.6-23.8-23.8H283.5z"/>
					</g>
				</g>
			</g>
		</g>
		<g>
			<g>
				<g>
					<g>
						<path fill="#616363" d="M259.7,189.2c-14.8,0-26.9-12.1-26.9-26.9v-3.1h53.8v3.1C286.6,177.1,274.6,189.2,259.7,189.2z
							 M239.3,165.4c1.5,9.9,10.1,17.5,20.4,17.5c10.3,0,18.9-7.6,20.4-17.5H239.3z"/>
					</g>
				</g>
			</g>
		</g>
		<g>
			<g>
				<g>
					<g>
						<circle fill="#616363" cx="259.7" cy="214.5" r="5.1"/>
					</g>
				</g>
			</g>
		</g>
		<g>
			<g>
				<g>
					<g>
						<circle fill="#616363" cx="259.7" cy="248.1" r="5.1"/>
					</g>
				</g>
			</g>
		</g>
		<g>
			<g>
				<g>
					<g>
						<circle fill="#616363" cx="259.7" cy="281.6" r="5.1"/>
					</g>
				</g>
			</g>
		</g>
		<g>
			<g>
				<g>
					<g>
						<g>
							<g>
								<circle fill="#FCB856" cx="171.2" cy="163.7" r="44.3"/>
							</g>
						</g>
					</g>
				</g>
			</g>
			<g>
				<g>
					<g>
						<g>
							<g>
								<path fill="#616363" d="M171.2,211.1c-26.2,0-47.5-21.3-47.5-47.5s21.3-47.5,47.5-47.5c26.2,0,47.5,21.3,47.5,47.5
									S197.4,211.1,171.2,211.1z M171.2,122.5c-22.7,0-41.2,18.5-41.2,41.2s18.5,41.2,41.2,41.2c22.7,0,41.2-18.5,41.2-41.2
									S193.9,122.5,171.2,122.5z"/>
							</g>
						</g>
					</g>
				</g>
			</g>
			<g>
				<g>
					<g>
						<g>
							<g>
								<path fill="#FFFFFF" d="M185.7,173.2c0,6.4-4.5,10.9-12.1,11.5v7.6h-4.2v-7.6c-4.6-0.5-9.1-2.6-12.8-6.1l3.3-3.9
									c3.5,3.4,8,5.2,12,5.2c4.6,0,8-2.3,8-6.2c0-4.5-3.6-6-9.4-7.8c-6.8-2.2-13.1-4.3-13.1-11.8c0-6.1,4.2-10.7,11.9-11v-7.9h4.2
									v8.2c3.8,0.7,7.9,2.4,10.6,4.5l-3.1,3.9c-3.3-2.4-7.4-3.7-10.5-3.7c-4.4,0-7.4,2-7.4,5.7c0,3.9,3.8,5.3,9,7
									C179.9,163.2,185.7,165.2,185.7,173.2L185.7,173.2z"/>
							</g>
						</g>
					</g>
				</g>
			</g>
		</g>
	</g>
</g>
</svg>
