<?xml version="1.0" encoding="utf-8"?>
<!-- Generator: Adobe Illustrator 18.0.0, SVG Export Plug-In . SVG Version: 6.00 Build 0)  -->
<!DOCTYPE svg PUBLIC "-//W3C//DTD SVG 1.1//EN" "http://www.w3.org/Graphics/SVG/1.1/DTD/svg11.dtd">
<svg version="1.1" id="Layer_1" xmlns="http://www.w3.org/2000/svg" xmlns:xlink="http://www.w3.org/1999/xlink" x="0px" y="0px"
	 viewBox="0 0 512 512" enable-background="new 0 0 512 512" xml:space="preserve">
<g>
	<g>
		<text transform="matrix(1 0 0 1 134.666 417.6313)" fill="#616363" font-family="'AvertaDemo-Regular'" font-size="53.0116">REVENUE</text>
	</g>
	<g>
		<g>
			<g>
				<g>
					<g>
						<path fill="#CEECF3" d="M327.7,250.1c-18.1,26.4-48.4,43.8-82.8,43.8c-55.4,0-100.3-44.9-100.3-100.3
							c0-55.4,44.9-100.3,100.3-100.3v100.3L327.7,250.1z"/>
					</g>
				</g>
			</g>
		</g>
		<g>
			<g>
				<g>
					<g>
						<path fill="#84D1DA" d="M261.3,83.9v100.3l82.9,56.6c11-16.1,17.5-35.6,17.5-56.6C361.7,128.8,316.8,83.9,261.3,83.9z"/>
					</g>
				</g>
			</g>
		</g>
		<g>
			<g>
				<g>
					<g>
						<path fill="#616363" d="M345,245.1l-86.8-59.3V80.8h3.1c57,0,103.5,46.4,103.5,103.5c0,20.9-6.2,41.1-18,58.3L345,245.1z
							 M264.5,182.5l78.9,53.8c9.9-15.6,15.2-33.6,15.2-52.2c0-52.5-41.9-95.5-94-97.1V182.5z"/>
					</g>
				</g>
			</g>
		</g>
		<g>
			<g>
				<g>
					<g>
						<path fill="#616363" d="M244.9,297c-57,0-103.4-46.4-103.4-103.5c0-57,46.4-103.4,103.4-103.4h3.1v101.8l84.1,57.4l-1.8,2.6
							C311,280.1,279,297,244.9,297z M241.7,96.4c-52.1,1.7-94,44.6-94,97.1c0,53.6,43.6,97.2,97.2,97.2c31.1,0,60.1-14.8,78.4-39.8
							l-81.6-55.7V96.4z"/>
					</g>
				</g>
			</g>
		</g>
		<g>
			<g>
				<g>
					<g>
						<g>
							
								<rect x="303" y="128.1" transform="matrix(0.7941 0.6078 -0.6078 0.7941 156.4874 -154.4221)" fill="#616363" width="6.3" height="51.3"/>
						</g>
					</g>
				</g>
			</g>
			<g>
				<g>
					<g>
						<g>
							<path fill="#616363" d="M317.4,177.2c-5.3,0-9.7-4.3-9.7-9.7c0-5.3,4.3-9.7,9.7-9.7s9.7,4.3,9.7,9.7
								C327.1,172.9,322.8,177.2,317.4,177.2z M317.4,164.2c-1.9,0-3.4,1.5-3.4,3.4c0,1.9,1.5,3.4,3.4,3.4c1.9,0,3.4-1.5,3.4-3.4
								C320.8,165.7,319.3,164.2,317.4,164.2z"/>
						</g>
					</g>
				</g>
			</g>
			<g>
				<g>
					<g>
						<g>
							<path fill="#616363" d="M295.6,148.6c-5.3,0-9.7-4.3-9.7-9.7c0-5.3,4.3-9.7,9.7-9.7c5.3,0,9.7,4.3,9.7,9.7
								C305.2,144.2,300.9,148.6,295.6,148.6z M295.6,135.5c-1.9,0-3.4,1.5-3.4,3.4c0,1.9,1.5,3.4,3.4,3.4c1.9,0,3.4-1.5,3.4-3.4
								C299,137,297.5,135.5,295.6,135.5z"/>
						</g>
					</g>
				</g>
			</g>
		</g>
	</g>
</g>
</svg>
