<?xml version="1.0" encoding="utf-8"?>
<!-- Generator: Adobe Illustrator 18.0.0, SVG Export Plug-In . SVG Version: 6.00 Build 0)  -->
<!DOCTYPE svg PUBLIC "-//W3C//DTD SVG 1.1//EN" "http://www.w3.org/Graphics/SVG/1.1/DTD/svg11.dtd">
<svg version="1.1" id="Layer_1" xmlns="http://www.w3.org/2000/svg" xmlns:xlink="http://www.w3.org/1999/xlink" x="0px" y="0px"
	 viewBox="0 0 512 512" enable-background="new 0 0 512 512" xml:space="preserve">
<g>
	<g>
		<text transform="matrix(1 0 0 1 187.1929 410.5005)" fill="#616363" font-family="'AvertaDemo-Regular'" font-size="53.0116">SAAS</text>
	</g>
	<g>
		<g>
			<g>
				<g>
					<g>
						<path fill="#FFFFFF" d="M345.4,173.1C345.4,173.1,345.4,173.1,345.4,173.1c0-0.4,0-0.8,0-1.2c0-44.6-36.2-80.8-80.8-80.8
							c-33,0-61.4,19.8-73.9,48.1c-2.3-0.3-4.6-0.4-6.9-0.4c-34.1,0-61.8,27.7-61.8,61.8c0,32.6,25.3,59.3,57.3,61.6v0.2h166.2
							c24.7,0,44.7-20,44.7-44.7C390.1,193.1,370.1,173.1,345.4,173.1z"/>
					</g>
				</g>
			</g>
			<g>
				<g>
					<g>
						<path fill="#616363" d="M345.4,265.5H176.1v-0.5c-32.4-3.8-57.3-31.6-57.3-64.5c0-35.8,29.1-65,65-65c1.6,0,3.3,0.1,5,0.2
							c13.9-29.2,43.4-47.9,75.8-47.9c45.7,0,83,36.7,84,82.1c24.9,1.6,44.7,22.4,44.7,47.7C393.2,244.1,371.8,265.5,345.4,265.5z
							 M181.8,259.3h163.6c22.9,0,41.5-18.6,41.5-41.5c0-22.9-18.6-41.5-41.4-41.5l-0.1,0h-3.2l0.1-3.8c0-0.2,0-0.4,0-0.6
							c0-42.8-34.9-77.7-77.7-77.7c-30.7,0-58.6,18.2-71.1,46.3l-0.9,2.1l-2.3-0.3c-2.2-0.2-4.5-0.4-6.6-0.4
							c-32.4,0-58.7,26.3-58.7,58.7c0,30.6,23.9,56.3,54.4,58.5L181.8,259.3z"/>
					</g>
				</g>
			</g>
		</g>
		<g>
			<g>
				<g>
					<g>
						<g>
							<polygon fill="#84D1DA" points="280.8,322.5 317.9,287.9 298.3,287.9 298.3,225 263.2,225 263.2,287.9 243.6,287.9 							
								"/>
						</g>
					</g>
				</g>
				<g>
					<g>
						<g>
							<path fill="#616363" d="M280.8,326.8l-45.1-42h24.4v-62.9h41.4v62.9h24.4L280.8,326.8z M251.6,291.1l29.2,27.2l29.2-27.2
								h-14.8v-62.9h-28.8v62.9H251.6z"/>
						</g>
					</g>
				</g>
			</g>
			<g>
				<g>
					<g>
						<g>
							<polygon fill="#FCB856" points="241,154.1 194.1,197.9 218.9,197.9 218.9,287.2 263.2,287.2 263.2,197.9 288,197.9 							
								"/>
						</g>
					</g>
				</g>
				<g>
					<g>
						<g>
							<path fill="#616363" d="M266.4,290.4h-50.7V201h-29.6l54.9-51.2L296,201h-29.6V290.4z M222,284.1h38.1v-89.3H280l-39-36.3
								l-39,36.3H222V284.1z"/>
						</g>
					</g>
				</g>
			</g>
		</g>
	</g>
</g>
</svg>
