<?xml version="1.0" encoding="utf-8"?>
<!-- Generator: Adobe Illustrator 18.0.0, SVG Export Plug-In . SVG Version: 6.00 Build 0)  -->
<!DOCTYPE svg PUBLIC "-//W3C//DTD SVG 1.1//EN" "http://www.w3.org/Graphics/SVG/1.1/DTD/svg11.dtd">
<svg version="1.1" id="Layer_1" xmlns="http://www.w3.org/2000/svg" xmlns:xlink="http://www.w3.org/1999/xlink" x="0px" y="0px"
	 viewBox="0 0 512 512" enable-background="new 0 0 512 512" xml:space="preserve">
<g>
	<g>
		<text transform="matrix(1 0 0 1 129.2432 421.4365)" fill="#616363" font-family="'AvertaDemo-Regular'" font-size="53.0116">SAFE BOX</text>
	</g>
	<g>
		<g>
			<g>
				<g>
					<g>
						<path fill="#CEECF3" d="M342.7,310.9H173.4c-18.6,0-33.7-15.1-33.7-33.7V113.8c0-18.6,15.1-33.7,33.7-33.7h169.3
							c18.6,0,33.7,15.1,33.7,33.7v163.4C376.4,295.8,361.3,310.9,342.7,310.9z"/>
					</g>
				</g>
			</g>
		</g>
		<g>
			<g>
				<g>
					<g>
						<rect x="178.8" y="118.7" fill="#FCB856" width="156" height="155.4"/>
					</g>
				</g>
			</g>
		</g>
		<g>
			<g>
				<g>
					<g>
						<rect x="325.5" y="206.2" fill="#FFFCFD" width="18.6" height="37.7"/>
					</g>
				</g>
			</g>
		</g>
		<g>
			<g>
				<g>
					<g>
						<rect x="325.5" y="147.9" fill="#FFFCFD" width="18.6" height="37.7"/>
					</g>
				</g>
			</g>
		</g>
		<g>
			<g>
				<g>
					<g>
						<path fill="#616363" d="M342.7,314H173.4c-20.3,0-36.8-16.5-36.8-36.8V113.8c0-20.3,16.5-36.8,36.8-36.8h169.3
							c20.3,0,36.8,16.5,36.8,36.8v163.4C379.5,297.5,363,314,342.7,314z M173.4,83.2c-16.8,0-30.6,13.7-30.6,30.6v163.4
							c0,16.8,13.7,30.6,30.6,30.6h169.3c16.8,0,30.6-13.7,30.6-30.6V113.8c0-16.8-13.7-30.6-30.6-30.6H173.4z"/>
					</g>
				</g>
			</g>
		</g>
		<g>
			<g>
				<g>
					<g>
						<polygon fill="#616363" points="337.9,277.2 175.6,277.2 175.6,115.5 337.9,115.5 337.9,147.9 331.7,147.9 331.7,121.8 
							181.9,121.8 181.9,270.9 331.7,270.9 331.7,243.9 337.9,243.9 						"/>
					</g>
				</g>
			</g>
		</g>
		<g>
			<g>
				<g>
					<g>
						<path fill="#616363" d="M347.2,247h-24.8v-43.9h24.8V247z M328.7,240.8h12.3v-31.4h-12.3V240.8z"/>
					</g>
				</g>
			</g>
		</g>
		<g>
			<g>
				<g>
					<g>
						<path fill="#616363" d="M347.2,188.7h-24.8v-43.9h24.8V188.7z M328.7,182.4h12.3V151h-12.3V182.4z"/>
					</g>
				</g>
			</g>
		</g>
		<g>
			<g>
				<g>
					<g>
						<circle fill="#FFFCFD" cx="255.4" cy="197.3" r="34.4"/>
					</g>
				</g>
			</g>
		</g>
		<g>
			<g>
				<g>
					<g>
						<path fill="#616363" d="M255.4,234.8c-20.7,0-37.5-16.8-37.5-37.5c0-20.7,16.8-37.5,37.5-37.5s37.5,16.8,37.5,37.5
							C293,218,276.1,234.8,255.4,234.8z M255.4,166c-17.2,0-31.2,14-31.2,31.2s14,31.2,31.2,31.2s31.2-14,31.2-31.2
							S272.7,166,255.4,166z"/>
					</g>
				</g>
			</g>
		</g>
		<g>
			<g>
				<g>
					<g>
						<path fill="#616363" d="M255.4,217.7c-11.2,0-20.4-9.1-20.4-20.4c0-11.2,9.1-20.4,20.4-20.4c11.2,0,20.4,9.1,20.4,20.4
							C275.8,208.5,266.7,217.7,255.4,217.7z M255.4,183.2c-7.8,0-14.1,6.3-14.1,14.1c0,7.8,6.3,14.1,14.1,14.1s14.1-6.3,14.1-14.1
							C269.5,189.5,263.2,183.2,255.4,183.2z"/>
					</g>
				</g>
			</g>
		</g>
		<g>
			<g>
				<g>
					<g>
						<rect x="252.3" y="214.5" fill="#616363" width="6.3" height="17.1"/>
					</g>
				</g>
			</g>
		</g>
		<g>
			<g>
				<g>
					<g>
						<rect x="252.3" y="162.9" fill="#616363" width="6.3" height="17.1"/>
					</g>
				</g>
			</g>
		</g>
		<g>
			<g>
				<g>
					<g>
						<rect x="272.7" y="194.1" fill="#616363" width="17.1" height="6.3"/>
					</g>
				</g>
			</g>
		</g>
		<g>
			<g>
				<g>
					<g>
						<rect x="221.1" y="194.1" fill="#616363" width="17.1" height="6.3"/>
					</g>
				</g>
			</g>
		</g>
		<g>
			<g>
				<g>
					<g>
						<rect x="331.7" y="185.5" fill="#616363" width="6.3" height="20.7"/>
					</g>
				</g>
			</g>
		</g>
	</g>
</g>
</svg>
