<?xml version="1.0" encoding="utf-8"?>
<!-- Generator: Adobe Illustrator 18.0.0, SVG Export Plug-In . SVG Version: 6.00 Build 0)  -->
<!DOCTYPE svg PUBLIC "-//W3C//DTD SVG 1.1//EN" "http://www.w3.org/Graphics/SVG/1.1/DTD/svg11.dtd">
<svg version="1.1" id="Layer_1" xmlns="http://www.w3.org/2000/svg" xmlns:xlink="http://www.w3.org/1999/xlink" x="0px" y="0px"
	 viewBox="0 0 512 512" enable-background="new 0 0 512 512" xml:space="preserve">
<g>
	<g>
		<text transform="matrix(1 0 0 1 130.1328 435.1314)" fill="#616363" font-family="'AvertaDemo-Regular'" font-size="53.0116">SAVINGS</text>
	</g>
	<g>
		<g>
			<g>
				<g>
					<g>
						<circle fill="#84D1DA" cx="236.3" cy="199" r="135.8"/>
					</g>
				</g>
			</g>
		</g>
		<g>
			<g>
				<g>
					<g>
						<path fill="#FFFFFF" d="M381.8,162.2h-16.1c-14.8,0-29.2-4.9-40.9-13.9c-13.2-11.2-29.9-17.3-47.2-17.3h-70.1h-18.6
							c-8.6,0-15.6,7-15.6,15.6v0c0,8.6,7,15.6,15.6,15.6h18.6h60c21,0,38,17,38,38s-17,38-38,38h-29.2c-15.9,0-28.8,12.9-28.8,28.8
							v0H298c13.2,0,26-3.8,37-11.1l0,0c11-7.2,23.9-11.1,37-11.1h36.3v-82.7H381.8z"/>
					</g>
				</g>
			</g>
		</g>
		<g>
			<g>
				<g>
					<g>
						<circle fill="#FCB856" cx="233.9" cy="201.1" r="37.1"/>
					</g>
				</g>
			</g>
		</g>
		<g>
			<g>
				<g>
					<g>
						<g>
							<path fill="#FFFFFF" d="M246.3,209.2c0,5.4-3.8,9.2-10.2,9.7v6.4h-3.5v-6.5c-3.9-0.4-7.7-2.2-10.8-5.2l2.8-3.3
								c3,2.9,6.8,4.4,10.2,4.4c3.9,0,6.8-1.9,6.8-5.3c0-3.8-3.1-5.1-7.9-6.6c-5.8-1.9-11.1-3.7-11.1-10c0-5.1,3.6-9.1,10.1-9.4
								v-6.7h3.5v6.9c3.2,0.6,6.7,2,9,3.9l-2.7,3.3c-2.8-2-6.3-3.1-8.9-3.1c-3.7,0-6.3,1.7-6.3,4.8c0,3.3,3.2,4.5,7.6,6
								C241.3,200.7,246.3,202.4,246.3,209.2L246.3,209.2z"/>
						</g>
					</g>
				</g>
			</g>
		</g>
		<g>
			<g>
				<g>
					<g>
						<polygon fill="#616363" points="150.6,234.5 146.1,230 162.6,213.6 145.7,196.7 150.1,192.2 171.5,213.6 						"/>
					</g>
				</g>
			</g>
		</g>
		<g>
			<g>
				<g>
					<g>
						<g>
							<g>
								<path fill="#616363" d="M298,270.2h-91.6v-3.1c0-9.1,3.9-17.8,10.8-23.9c5.8-5.2,13.4-8,21.2-8h29.2
									c19.2,0,34.9-15.7,34.9-34.9c0-19.2-15.7-34.9-34.9-34.9h-60c-10.3,0-18.7-8.4-18.7-18.7s8.4-18.7,18.7-18.7h70.1
									c18,0,35.5,6.4,49.3,18c11,8.5,24.9,13.2,38.9,13.2h45.8v89H372c-12.6,0-24.8,3.6-35.3,10.5
									C325.2,266.2,311.8,270.2,298,270.2z M212.8,263.9H298c12.6,0,24.8-3.6,35.3-10.5c11.5-7.6,24.9-11.6,38.8-11.6h33.2v-76.5
									h-39.5c-15.4,0-30.6-5.2-42.8-14.6c-12.7-10.8-28.8-16.6-45.3-16.6h-70.1c-6.9,0-12.5,5.6-12.5,12.5s5.6,12.5,12.5,12.5h60
									c22.7,0,41.2,18.5,41.2,41.2s-18.5,41.2-41.2,41.2h-29.2c-6.3,0-12.3,2.3-17,6.5C216.5,252,213.6,257.8,212.8,263.9z"/>
							</g>
						</g>
					</g>
				</g>
			</g>
			<g>
				<g>
					<g>
						<g>
							<g>
								<path fill="#616363" d="M207.4,165.3h-18.6c-10.3,0-18.7-8.4-18.7-18.7s8.4-18.7,18.7-18.7h88.7c18,0,35.5,6.4,49.3,18
									l-4.1,4.8c-12.6-10.7-28.7-16.6-45.2-16.6h-88.7c-6.9,0-12.5,5.6-12.5,12.5s5.6,12.5,12.5,12.5h18.6V165.3z"/>
							</g>
						</g>
					</g>
				</g>
			</g>
		</g>
		<g>
			<g>
				<g>
					<g>
						<path fill="#616363" d="M342.2,303.1H148.1c-25.6,0-46.4-20.8-46.4-46.4c0-25.6,20.8-46.4,46.4-46.4h17v6.3h-17
							c-22.1,0-40.2,18-40.2,40.2c0,22.1,18,40.2,40.2,40.2h194.1V303.1z"/>
					</g>
				</g>
			</g>
		</g>
	</g>
</g>
</svg>
