<?xml version="1.0" encoding="utf-8"?>
<!-- Generator: Adobe Illustrator 18.0.0, SVG Export Plug-In . SVG Version: 6.00 Build 0)  -->
<!DOCTYPE svg PUBLIC "-//W3C//DTD SVG 1.1//EN" "http://www.w3.org/Graphics/SVG/1.1/DTD/svg11.dtd">
<svg version="1.1" id="Layer_1" xmlns="http://www.w3.org/2000/svg" xmlns:xlink="http://www.w3.org/1999/xlink" x="0px" y="0px"
	 viewBox="0 0 512 512" enable-background="new 0 0 512 512" xml:space="preserve">
<g>
	<g>
		<text transform="matrix(1 0 0 1 157.1274 434.8883)" fill="#616363" font-family="'AvertaDemo-Regular'" font-size="53.0116"></text>
	</g>
	<g>
		<g>
			<g>
				<g>
					<g>
						<path fill="#FFFCFD" d="M256,66.8l-106.9,39.9v94.4c0,47.5,24.1,91.8,64,117.6l42.9,27.7l42.9-27.7
							c39.9-25.8,64-70.1,64-117.6v-94.4L256,66.8z"/>
					</g>
				</g>
			</g>
		</g>
		<g>
			<g>
				<g>
					<g>
						<path fill="#84D1DA" d="M230.2,292.4c-31.1-20.1-49.7-54.2-49.7-91.2v-72.6l75.5-28.2l75.5,28.2v72.6
							c0,37-18.6,71.1-49.7,91.2L256,309.1L230.2,292.4z"/>
					</g>
				</g>
			</g>
		</g>
		<g>
			<g>
				<g>
					<g>
						<path fill="#616363" d="M256,312.8L228.5,295c-32-20.7-51.1-55.8-51.1-93.9v-74.8L256,97l78.6,29.4v74.8
							c0,38.1-19.1,73.2-51.1,93.9L256,312.8z M183.6,130.7v70.4c0,36,18,69.1,48.2,88.6l24.1,15.6l24.1-15.6
							c30.2-19.5,48.2-52.6,48.2-88.6v-70.4l-72.4-27L183.6,130.7z"/>
					</g>
				</g>
			</g>
		</g>
		<g>
			<g>
				<g>
					<g>
						<path fill="#616363" d="M256,350.2l-44.6-28.8c-41-26.5-65.4-71.4-65.4-120.2v-96.5l110-41.1l110,41.1v96.5
							c0,48.8-24.5,93.7-65.4,120.2L256,350.2z M152.3,109v92.2c0,46.7,23.4,89.6,62.6,115l41.2,26.6l41.2-26.6
							c39.2-25.3,62.6-68.3,62.6-115V109L256,70.2L152.3,109z"/>
					</g>
				</g>
			</g>
		</g>
		<g>
			<g>
				<g>
					<g>
						<polygon fill="#616363" points="248.5,225.1 225.3,200.5 229.8,196.2 248.7,216.2 292.4,173.8 296.8,178.3 						"/>
					</g>
				</g>
			</g>
		</g>
	</g>
</g>
</svg>
