<?xml version="1.0" encoding="utf-8"?>
<!-- Generator: Adobe Illustrator 18.0.0, SVG Export Plug-In . SVG Version: 6.00 Build 0)  -->
<!DOCTYPE svg PUBLIC "-//W3C//DTD SVG 1.1//EN" "http://www.w3.org/Graphics/SVG/1.1/DTD/svg11.dtd">
<svg version="1.1" id="Layer_1" xmlns="http://www.w3.org/2000/svg" xmlns:xlink="http://www.w3.org/1999/xlink" x="0px" y="0px"
	 viewBox="0 0 512 512" enable-background="new 0 0 512 512" xml:space="preserve">
<g>
	<g>
		<text transform="matrix(1 0 0 1 138.4194 435.7051)"><tspan x="0" y="0" fill="#616363" font-family="'AvertaDemo-Regular'" font-size="53.0116">SHARING</tspan><tspan x="-20.8" y="63.6" fill="#616363" font-family="'AvertaDemo-Regular'" font-size="53.0116">ECONOMY</tspan></text>
	</g>
	<g>
		<g>
			<g>
				<g>
					<g>
						<g>
							<path fill="#84D1DA" d="M289.3,115.1c-4.1-4.1-9.7-6.4-15.5-6.4c-2.2,0-4.3,0-6.5,0c-7.8,0-15.5,0-23.3,0
								c-1.8,0-3.7-0.1-5.5,0c-6.4,0.4-12.1,3.3-16.2,8.3c-3.1,4-4.6,8.8-4.6,13.9c0,2.8,0,5.6,0,8.4c0,6.8,0,13.6,0,20.4
								c0,0.7,0.9,0.4,1.5,0.4c2,0,4,0,6,0c15.3,0,30.7,0,46,0c6.5,0,12.9,0,19.4,0c1.5,0,3,0,4.5,0c0.1,0,0.5,0.1,0.5,0
								c0-0.7,0-1.4,0-2.1c0-7.1,0-14.2,0-21.3c0-2.1,0-4.1,0-6.2C295.7,124.7,293.4,119.2,289.3,115.1
								C285.4,111.1,293.2,119,289.3,115.1z"/>
						</g>
					</g>
				</g>
			</g>
			<g>
				<g>
					<g>
						<g>
							<path fill="#84D1DA" d="M289.3,115.1c-4.1-4.1-9.7-6.4-15.5-6.4c-2.2,0-4.3,0-6.5,0c-7.8,0-15.5,0-23.3,0
								c-1.8,0-3.7-0.1-5.5,0c-6.4,0.4-12.1,3.3-16.2,8.3c-3.1,4-4.6,8.8-4.6,13.9c0,2.8,0,5.6,0,8.4c0,6.8,0,20.8,0,20.8h1.5
								c0,0,4,0,6,0c15.3,0,30.7,0,46,0c6.5,0,12.9,0,19.4,0c1.5,0,4.5,0,4.5,0h0.5c0,0,0-1.5,0-2.2c0-7.1,0-14.2,0-21.3
								c0-2.1,0-4.1,0-6.2C295.7,124.7,293.4,119.2,289.3,115.1C285.4,111.1,293.2,119,289.3,115.1z"/>
						</g>
					</g>
				</g>
			</g>
			<g>
				<g>
					<g>
						<path fill="#616363" d="M298.8,163.3h-84.1V131c0-5.9,1.8-11.4,5.3-15.8c4.6-5.7,11.1-9.1,18.4-9.5c0.9,0,1.7,0,2.5,0l3.2,0
							h29.8c5.8,0,11.4,2,15.8,5.6c0.2,0.1,0.5,0.3,0.7,0.6l0,0l0.5,0.5c0.1,0.1,0.2,0.2,0.3,0.3l0.3,0.3c0.1,0.1,0.2,0.2,0.3,0.3
							l0.9,0.9l0,0c0,0,0.1,0.1,0.1,0.1c3.9,4.5,6.1,10.4,6.1,16.4V163.3z M220.9,157h71.6v-26.5c0-4.9-1.9-9.7-5.3-13.1l-0.1-0.1
							c-3.5-3.5-8.3-5.4-13.2-5.4l-33,0c-0.7,0-1.5,0-2.2,0c-5.5,0.3-10.4,2.9-13.8,7.2c-2.6,3.3-3.9,7.4-3.9,11.9V157z"/>
					</g>
				</g>
			</g>
			<g>
				<g>
					<g>
						<g>
							<path fill="#FFFFFF" d="M255.9,100.6L255.9,100.6c-9.6,0-17.4-7.8-17.4-17.4v0c0-9.6,7.8-17.4,17.4-17.4h0
								c9.6,0,17.4,7.8,17.4,17.4v0C273.3,92.8,265.5,100.6,255.9,100.6z"/>
						</g>
					</g>
				</g>
				<g>
					<g>
						<g>
							<path fill="#616363" d="M255.9,103.7c-11.3,0-20.5-9.2-20.5-20.5s9.2-20.5,20.5-20.5c11.3,0,20.5,9.2,20.5,20.5
								S267.2,103.7,255.9,103.7z M255.9,69c-7.9,0-14.3,6.4-14.3,14.3s6.4,14.3,14.3,14.3c7.9,0,14.3-6.4,14.3-14.3
								S263.8,69,255.9,69z"/>
						</g>
					</g>
				</g>
				<g>
					<g>
						<g>
							<rect x="232.1" y="138.7" fill="#616363" width="6.3" height="21.4"/>
						</g>
					</g>
				</g>
				<g>
					<g>
						<g>
							<rect x="275.1" y="138.7" fill="#616363" width="6.3" height="21.4"/>
						</g>
					</g>
				</g>
				<g>
					<g>
						<g>
							<rect x="232.1" y="140.2" fill="#616363" width="6.3" height="20"/>
						</g>
					</g>
				</g>
				<g>
					<g>
						<g>
							<rect x="275.1" y="140.2" fill="#616363" width="6.3" height="20"/>
						</g>
					</g>
				</g>
			</g>
			<g>
				<g>
					<g>
						<polygon fill="#FCB856" points="246,108.7 253.3,117.2 258,117.2 265.8,108.7 						"/>
					</g>
				</g>
			</g>
			<g>
				<g>
					<g>
						<polygon fill="#FCB856" points="258,117.2 255.6,117.2 253.3,117.2 249.7,147.9 255.6,152.7 261.5,147.9 						"/>
					</g>
				</g>
			</g>
			<g>
				<g>
					<g>
						<path fill="#616363" d="M259.4,120.3h-7.5l-12.6-14.8h33.7L259.4,120.3z M254.7,114.1h1.9l2-2.2h-5.8L254.7,114.1z"/>
					</g>
				</g>
			</g>
			<g>
				<g>
					<g>
						<path fill="#616363" d="M255.6,156.7l-9.2-7.4l4-35.2h10.3l4,35.2L255.6,156.7z M253,146.6l2.6,2.1l2.6-2.1l-2.6-22.4
							L253,146.6z"/>
					</g>
				</g>
			</g>
		</g>
		<g>
			<g>
				<g>
					<g>
						<g>
							<g>
								<path fill="#84D1DA" d="M198.4,270.7c-4.1-4.1-9.7-6.4-15.5-6.4c-2.2,0-4.3,0-6.5,0c-7.8,0-15.5,0-23.3,0
									c-1.8,0-3.7-0.1-5.5,0c-6.4,0.4-12.1,3.3-16.2,8.3c-3.1,4-4.6,8.8-4.6,13.9c0,2.8,0,5.6,0,8.4c0,6.8,0,13.6,0,20.4
									c0,0.7,0.9,0.4,1.5,0.4c2,0,4,0,6,0c15.3,0,30.7,0,46,0c6.5,0,12.9,0,19.4,0c1.5,0,3,0,4.5,0c0.1,0,0.5,0.1,0.5,0
									c0-0.7,0-1.4,0-2.1c0-7.1,0-14.2,0-21.3c0-2.1,0-4.1,0-6.2C204.8,280.3,202.5,274.7,198.4,270.7
									C194.5,266.7,202.4,274.6,198.4,270.7z"/>
							</g>
						</g>
					</g>
				</g>
				<g>
					<g>
						<g>
							<g>
								<path fill="#84D1DA" d="M198.4,270.7c-4.1-4.1-9.7-6.4-15.5-6.4c-2.2,0-4.3,0-6.5,0c-7.8,0-15.5,0-23.3,0
									c-1.8,0-3.7-0.1-5.5,0c-6.4,0.4-12.1,3.3-16.2,8.3c-3.1,4-4.6,8.8-4.6,13.9c0,2.8,0,5.6,0,8.4c0,6.8,0,20.8,0,20.8h1.5
									c0,0,4,0,6,0c15.3,0,30.7,0,46,0c6.5,0,12.9,0,19.4,0c1.5,0,4.5,0,4.5,0h0.5c0,0,0-1.5,0-2.2c0-7.1,0-14.2,0-21.3
									c0-2.1,0-4.1,0-6.2C204.8,280.3,202.5,274.7,198.4,270.7C194.5,266.7,202.4,274.6,198.4,270.7z"/>
							</g>
						</g>
					</g>
				</g>
				<g>
					<g>
						<g>
							<path fill="#616363" d="M207.9,318.9h-84.1v-32.4c0-5.9,1.8-11.4,5.3-15.8c4.6-5.7,11.2-9.1,18.4-9.5c0.9,0,1.7,0,2.5,0
								l3.2,0H183c5.8,0,11.4,2,15.9,5.6c0.2,0.1,0.5,0.3,0.7,0.5l0,0l0.4,0.4c0,0,0.1,0.1,0.1,0.1l0.6,0.6c0,0,0,0,0,0l0,0
								c0,0,0,0,0,0l1.1,1.1l0,0c3.9,4.5,6.2,10.4,6.2,16.5V318.9z M130.1,312.6h71.6v-26.5c0-4.9-2-9.7-5.4-13.1l-0.2-0.2
								c-3.5-3.4-8.3-5.4-13.2-5.4l-33,0c-0.7,0-1.5,0-2.2,0c-5.5,0.3-10.4,2.9-13.8,7.2c-2.6,3.3-3.9,7.4-3.9,11.9V312.6z
								 M197.3,271.8l-1.1,1.1L197.3,271.8z"/>
						</g>
					</g>
				</g>
				<g>
					<g>
						<g>
							<g>
								<path fill="#FFFFFF" d="M165,256.2L165,256.2c-9.6,0-17.4-7.8-17.4-17.4v0c0-9.6,7.8-17.4,17.4-17.4h0
									c9.6,0,17.4,7.8,17.4,17.4v0C182.4,248.4,174.7,256.2,165,256.2z"/>
							</g>
						</g>
					</g>
					<g>
						<g>
							<g>
								<path fill="#616363" d="M165,259.3c-11.3,0-20.5-9.2-20.5-20.5c0-11.3,9.2-20.5,20.5-20.5c11.3,0,20.5,9.2,20.5,20.5
									C185.6,250.1,176.4,259.3,165,259.3z M165,224.5c-7.9,0-14.3,6.4-14.3,14.3c0,7.9,6.4,14.3,14.3,14.3
									c7.9,0,14.3-6.4,14.3-14.3C179.3,230.9,172.9,224.5,165,224.5z"/>
							</g>
						</g>
					</g>
					<g>
						<g>
							<g>
								<rect x="141.3" y="294.3" fill="#616363" width="6.3" height="21.4"/>
							</g>
						</g>
					</g>
					<g>
						<g>
							<g>
								<rect x="184.2" y="294.3" fill="#616363" width="6.3" height="21.4"/>
							</g>
						</g>
					</g>
					<g>
						<g>
							<g>
								<rect x="141.3" y="295.8" fill="#616363" width="6.3" height="20"/>
							</g>
						</g>
					</g>
					<g>
						<g>
							<g>
								<rect x="184.2" y="295.8" fill="#616363" width="6.3" height="20"/>
							</g>
						</g>
					</g>
				</g>
				<g>
					<g>
						<g>
							<polygon fill="#FCB856" points="155.2,264.3 162.4,272.8 167.1,272.8 174.9,264.3 							"/>
						</g>
					</g>
				</g>
				<g>
					<g>
						<g>
							<polygon fill="#FCB856" points="167.1,272.8 164.8,272.8 162.4,272.8 158.9,303.5 164.8,308.3 170.6,303.5 							"/>
						</g>
					</g>
				</g>
				<g>
					<g>
						<g>
							<path fill="#616363" d="M168.5,275.9H161l-12.6-14.8h33.7L168.5,275.9z M163.9,269.7h1.9l2-2.2H162L163.9,269.7z"/>
						</g>
					</g>
				</g>
				<g>
					<g>
						<g>
							<path fill="#616363" d="M164.8,312.3l-9.2-7.4l4-35.2h10.3l4,35.2L164.8,312.3z M162.2,302.2l2.6,2.1l2.6-2.1l-2.6-22.4
								L162.2,302.2z"/>
						</g>
					</g>
				</g>
			</g>
			<g>
				<g>
					<g>
						<g>
							<g>
								<path fill="#84D1DA" d="M378.7,270.7c-4.1-4.1-9.7-6.4-15.5-6.4c-2.2,0-4.3,0-6.5,0c-7.8,0-15.5,0-23.3,0
									c-1.8,0-3.7-0.1-5.5,0c-6.4,0.4-12.1,3.3-16.2,8.3c-3.1,4-4.6,8.8-4.6,13.9c0,2.8,0,5.6,0,8.4c0,6.8,0,13.6,0,20.4
									c0,0.7,0.9,0.4,1.5,0.4c2,0,4,0,6,0c15.3,0,30.7,0,46,0c6.5,0,12.9,0,19.4,0c1.5,0,3,0,4.5,0c0.1,0,0.5,0.1,0.5,0
									c0-0.7,0-1.4,0-2.1c0-7.1,0-14.2,0-21.3c0-2.1,0-4.1,0-6.2C385.1,280.3,382.8,274.7,378.7,270.7
									C374.8,266.7,382.6,274.6,378.7,270.7z"/>
							</g>
						</g>
					</g>
				</g>
				<g>
					<g>
						<g>
							<g>
								<path fill="#84D1DA" d="M378.7,270.7c-4.1-4.1-9.7-6.4-15.5-6.4c-2.2,0-4.3,0-6.5,0c-7.8,0-15.5,0-23.3,0
									c-1.8,0-3.7-0.1-5.5,0c-6.4,0.4-12.1,3.3-16.2,8.3c-3.1,4-4.6,8.8-4.6,13.9c0,2.8,0,5.6,0,8.4c0,6.8,0,20.8,0,20.8h1.5
									c0,0,4,0,6,0c15.3,0,30.7,0,46,0c6.5,0,12.9,0,19.4,0c1.5,0,4.5,0,4.5,0h0.5c0,0,0-1.5,0-2.2c0-7.1,0-14.2,0-21.3
									c0-2.1,0-4.1,0-6.2C385.1,280.3,382.8,274.7,378.7,270.7C374.8,266.7,382.6,274.6,378.7,270.7z"/>
							</g>
						</g>
					</g>
				</g>
				<g>
					<g>
						<g>
							<path fill="#616363" d="M388.2,318.9h-84.1v-32.4c0-5.9,1.8-11.4,5.3-15.8c4.6-5.7,11.2-9.1,18.4-9.5c0.9,0,1.7,0,2.5,0
								l3.2,0h29.8c5.8,0,11.4,2,15.8,5.6c0.2,0.1,0.5,0.3,0.7,0.6l0,0l0.5,0.5c0.1,0.1,0.2,0.2,0.3,0.3l0.3,0.3l0,0l0,0
								c0.1,0.1,0.2,0.2,0.2,0.2l0.9,0.9l0,0c0,0,0.1,0.1,0.1,0.1c3.9,4.5,6.1,10.4,6.1,16.4V318.9z M310.3,312.6h71.6v-26.5
								c0-4.9-1.9-9.7-5.3-13.1l-0.1-0.1c-3.5-3.5-8.3-5.4-13.2-5.4l-33,0c-0.7,0-1.5,0-2.2,0c-5.5,0.3-10.4,2.9-13.8,7.2
								c-2.6,3.3-3.9,7.4-3.9,11.9V312.6z"/>
						</g>
					</g>
				</g>
				<g>
					<g>
						<g>
							<g>
								<path fill="#FFFFFF" d="M345.3,256.2L345.3,256.2c-9.6,0-17.4-7.8-17.4-17.4v0c0-9.6,7.8-17.4,17.4-17.4h0
									c9.6,0,17.4,7.8,17.4,17.4v0C362.7,248.4,354.9,256.2,345.3,256.2z"/>
							</g>
						</g>
					</g>
					<g>
						<g>
							<g>
								<path fill="#616363" d="M345.3,259.3c-11.3,0-20.5-9.2-20.5-20.5c0-11.3,9.2-20.5,20.5-20.5s20.5,9.2,20.5,20.5
									C365.9,250.1,356.6,259.3,345.3,259.3z M345.3,224.5c-7.9,0-14.3,6.4-14.3,14.3c0,7.9,6.4,14.3,14.3,14.3
									c7.9,0,14.3-6.4,14.3-14.3C359.6,230.9,353.2,224.5,345.3,224.5z"/>
							</g>
						</g>
					</g>
					<g>
						<g>
							<g>
								<rect x="321.5" y="294.3" fill="#616363" width="6.3" height="21.4"/>
							</g>
						</g>
					</g>
					<g>
						<g>
							<g>
								<rect x="364.5" y="294.3" fill="#616363" width="6.3" height="21.4"/>
							</g>
						</g>
					</g>
					<g>
						<g>
							<g>
								<rect x="321.5" y="295.8" fill="#616363" width="6.3" height="20"/>
							</g>
						</g>
					</g>
					<g>
						<g>
							<g>
								<rect x="364.5" y="295.8" fill="#616363" width="6.3" height="20"/>
							</g>
						</g>
					</g>
				</g>
				<g>
					<g>
						<g>
							<polygon fill="#FCB856" points="335.4,264.3 342.7,272.8 347.4,272.8 355.2,264.3 							"/>
						</g>
					</g>
				</g>
				<g>
					<g>
						<g>
							<polygon fill="#FCB856" points="347.4,272.8 345,272.8 342.7,272.8 339.1,303.5 345,308.3 350.9,303.5 							"/>
						</g>
					</g>
				</g>
				<g>
					<g>
						<g>
							<path fill="#616363" d="M348.8,275.9h-7.5l-12.6-14.8h33.7L348.8,275.9z M344.1,269.7h1.9l2-2.2h-5.8L344.1,269.7z"/>
						</g>
					</g>
				</g>
				<g>
					<g>
						<g>
							<path fill="#616363" d="M345,312.3l-9.2-7.4l4-35.2h10.3l4,35.2L345,312.3z M342.5,302.2l2.6,2.1l2.6-2.1l-2.6-22.4
								L342.5,302.2z"/>
						</g>
					</g>
				</g>
			</g>
		</g>
		<g>
			<g>
				<g>
					<circle fill="#FCB856" cx="255.3" cy="230.4" r="41.4"/>
				</g>
			</g>
		</g>
		<g>
			<g>
				<g>
					<path fill="#616363" d="M255.3,274.9c-24.5,0-44.5-20-44.5-44.5c0-24.5,20-44.5,44.5-44.5c24.5,0,44.5,20,44.5,44.5
						C299.8,255,279.8,274.9,255.3,274.9z M255.3,192.2c-21.1,0-38.2,17.1-38.2,38.2c0,21.1,17.1,38.2,38.2,38.2
						s38.2-17.1,38.2-38.2C293.5,209.3,276.3,192.2,255.3,192.2z"/>
				</g>
			</g>
		</g>
		<g>
			<g>
				<g>
					<path fill="#616363" d="M350,199.5c-0.9-4.2-2.1-8.3-3.6-12.3c-5.9-16.7-16-31.9-29.2-43.9l4.2-4.6
						c13.9,12.6,24.6,28.7,30.8,46.4c1.5,4.3,2.8,8.6,3.8,13.1L350,199.5z"/>
				</g>
			</g>
		</g>
		<g>
			<g>
				<g>
					<path fill="#616363" d="M155.7,202.7l-6-1.8c6.9-22.9,21.3-43.4,40.4-57.8l3.8,5C175.8,161.7,162.2,181.1,155.7,202.7z"/>
				</g>
			</g>
		</g>
		<g>
			<g>
				<g>
					<g>
						<path fill="#FFFFFF" d="M269.7,240c0,6.4-4.5,10.9-12.1,11.5v7.6h-4.2v-7.6c-4.6-0.5-9.1-2.6-12.8-6.1l3.3-3.9
							c3.5,3.4,8,5.2,12,5.2c4.6,0,8-2.3,8-6.2c0-4.5-3.6-6-9.4-7.8c-6.8-2.2-13.1-4.3-13.1-11.8c0-6.1,4.2-10.7,11.9-11v-7.9h4.2
							v8.2c3.8,0.7,7.9,2.4,10.6,4.5l-3.1,3.9c-3.3-2.4-7.4-3.7-10.5-3.7c-4.4,0-7.4,2-7.4,5.7c0,3.9,3.8,5.3,9,7
							C263.8,229.9,269.7,232,269.7,240L269.7,240z"/>
					</g>
				</g>
			</g>
		</g>
		<g>
			<g>
				<g>
					<polygon fill="#616363" points="191.3,167.2 185.1,166.1 188.3,148.2 170.9,145.1 172,138.9 195.6,143.1 					"/>
				</g>
			</g>
		</g>
		<g>
			<g>
				<g>
					<polygon fill="#616363" points="353.9,206.3 333.6,192.4 337.2,187.2 352.3,197.6 362.2,183.3 367.4,186.9 					"/>
				</g>
			</g>
		</g>
		<g>
			<g>
				<g>
					<path fill="#616363" d="M255.5,342.8c-7.2,0-14.3-0.7-21.4-2c-4.4-0.8-8.9-2-13.2-3.3l1.9-6c4.1,1.3,8.2,2.4,12.4,3.2
						c17.5,3.3,35.6,2.3,52.6-3.1l1.9,6C278.7,341.1,267.1,342.8,255.5,342.8z"/>
				</g>
			</g>
		</g>
		<g>
			<g>
				<g>
					<polygon fill="#616363" points="225,352.8 215.1,331.3 237.3,320.9 239.9,326.6 223.4,334.4 230.7,350.1 					"/>
				</g>
			</g>
		</g>
	</g>
</g>
</svg>
