<?xml version="1.0" encoding="utf-8"?>
<!-- Generator: Adobe Illustrator 18.0.0, SVG Export Plug-In . SVG Version: 6.00 Build 0)  -->
<!DOCTYPE svg PUBLIC "-//W3C//DTD SVG 1.1//EN" "http://www.w3.org/Graphics/SVG/1.1/DTD/svg11.dtd">
<svg version="1.1" id="Layer_1" xmlns="http://www.w3.org/2000/svg" xmlns:xlink="http://www.w3.org/1999/xlink" x="0px" y="0px"
	 viewBox="0 0 512 512" enable-background="new 0 0 512 512" xml:space="preserve">
<g>
	<g>
		<text transform="matrix(1 0 0 1 127.064 437.4712)" fill="#616363" font-family="'AvertaDemo-Regular'" font-size="53.0116">STATISTICS</text>
	</g>
	<g>
		<g>
			<g>
				<g>
					<g>
						<rect x="137.1" y="128.7" fill="#FFFFFF" width="255.6" height="173.1"/>
					</g>
				</g>
			</g>
		</g>
		<g>
			<g>
				<g>
					<g>
						<rect x="163.4" y="220.8" fill="#FCB856" width="31.7" height="97.9"/>
					</g>
				</g>
			</g>
		</g>
		<g>
			<g>
				<g>
					<g>
						<rect x="338.1" y="220.8" fill="#FCB856" width="31.7" height="97.9"/>
					</g>
				</g>
			</g>
		</g>
		<g>
			<g>
				<g>
					<g>
						<rect x="221.7" y="155.4" fill="#84D1DA" width="31.7" height="163.3"/>
					</g>
				</g>
			</g>
		</g>
		<g>
			<g>
				<g>
					<g>
						<rect x="279.9" y="227.5" fill="#CEECF3" width="31.7" height="90.5"/>
					</g>
				</g>
			</g>
		</g>
		<g>
			<g>
				<g>
					<g>
						<path fill="#616363" d="M198.3,321.8h-38V217.6h38V321.8z M166.6,315.5H192v-91.6h-25.4V315.5z"/>
					</g>
				</g>
			</g>
		</g>
		<g>
			<g>
				<g>
					<g>
						<path fill="#616363" d="M373,321.8h-38V217.6h38V321.8z M341.3,315.5h25.4v-91.6h-25.4V315.5z"/>
					</g>
				</g>
			</g>
		</g>
		<g>
			<g>
				<g>
					<g>
						<path fill="#616363" d="M256.5,321.8h-38V152.2h38V321.8z M224.8,315.5h25.4v-157h-25.4V315.5z"/>
					</g>
				</g>
			</g>
		</g>
		<g>
			<g>
				<g>
					<g>
						<path fill="#616363" d="M314.7,321.2h-38v-96.7h38V321.2z M283,314.9h25.4v-84.2H283V314.9z"/>
					</g>
				</g>
			</g>
		</g>
		<g>
			<g>
				<g>
					<g>
						<polygon fill="#616363" points="140.2,234.6 133.9,234.6 133.9,125.6 271.3,125.6 271.3,131.9 140.2,131.9 						"/>
					</g>
				</g>
			</g>
		</g>
		<g>
			<g>
				<g>
					<g>
						<polygon fill="#616363" points="395.8,321.8 133.9,321.8 133.9,229.8 140.2,229.8 140.2,315.5 389.5,315.5 389.5,131.9 
							358.6,131.9 358.6,125.6 395.8,125.6 						"/>
					</g>
				</g>
			</g>
		</g>
		<g>
			<g>
				<g>
					<g>
						<rect x="271.3" y="125.6" fill="#616363" width="87.3" height="6.3"/>
					</g>
				</g>
			</g>
		</g>
		<g>
			<g>
				<g>
					<g>
						<polygon fill="#616363" points="109.3,239.1 104.6,234.9 232.5,94.6 296,164.4 394.6,61.9 399.1,66.2 295.9,173.6 
							232.5,103.9 						"/>
					</g>
				</g>
			</g>
		</g>
		<g>
			<g>
				<g>
					<g>
						<polygon fill="#616363" points="400,90.5 393.7,90.5 393.7,67.2 369.8,67.2 369.8,60.9 400,60.9 						"/>
					</g>
				</g>
			</g>
		</g>
		<g>
			<g>
				<g>
					<g>
						<rect x="137.1" y="301.8" fill="#7FCFD7" width="255.6" height="34.4"/>
					</g>
				</g>
			</g>
		</g>
		<g>
			<g>
				<g>
					<g>
						<path fill="#616363" d="M395.8,339.3H133.9v-40.6h261.8V339.3z M140.2,333.1h249.3V305H140.2V333.1z"/>
					</g>
				</g>
			</g>
		</g>
		<g>
			<g>
				<g>
					<g>
						<circle fill="#7FCFD7" cx="296" cy="175.2" r="11.8"/>
					</g>
				</g>
			</g>
		</g>
		<g>
			<g>
				<g>
					<g>
						<path fill="#616363" d="M296,190.1c-8.2,0-15-6.7-15-15c0-8.2,6.7-15,15-15c8.2,0,15,6.7,15,15
							C311,183.4,304.3,190.1,296,190.1z M296,166.5c-4.8,0-8.7,3.9-8.7,8.7s3.9,8.7,8.7,8.7s8.7-3.9,8.7-8.7S300.8,166.5,296,166.5
							z"/>
					</g>
				</g>
			</g>
		</g>
		<g>
			<g>
				<g>
					<g>
						<circle fill="#FCB856" cx="232.5" cy="99.2" r="11.8"/>
					</g>
				</g>
			</g>
		</g>
		<g>
			<g>
				<g>
					<g>
						<path fill="#616363" d="M232.5,114.2c-8.2,0-15-6.7-15-15s6.7-15,15-15c8.2,0,15,6.7,15,15S240.7,114.2,232.5,114.2z
							 M232.5,90.6c-4.8,0-8.7,3.9-8.7,8.7s3.9,8.7,8.7,8.7c4.8,0,8.7-3.9,8.7-8.7S237.3,90.6,232.5,90.6z"/>
					</g>
				</g>
			</g>
		</g>
	</g>
</g>
</svg>
