<?xml version="1.0" encoding="utf-8"?>
<!-- Generator: Adobe Illustrator 18.0.0, SVG Export Plug-In . SVG Version: 6.00 Build 0)  -->
<!DOCTYPE svg PUBLIC "-//W3C//DTD SVG 1.1//EN" "http://www.w3.org/Graphics/SVG/1.1/DTD/svg11.dtd">
<svg version="1.1" id="Layer_1" xmlns="http://www.w3.org/2000/svg" xmlns:xlink="http://www.w3.org/1999/xlink" x="0px" y="0px"
	 viewBox="0 0 512 512" enable-background="new 0 0 512 512" xml:space="preserve">
<g>
	<g>
		<text transform="matrix(1 0 0 1 153.2495 412.7488)" fill="#616363" font-family="'AvertaDemo-Regular'" font-size="53.0116">STOCKS</text>
	</g>
	<g>
		<g>
			<g>
				<g>
					<g>
						<circle fill="#FFFFFF" cx="258.3" cy="196.7" r="111.1"/>
					</g>
				</g>
			</g>
		</g>
		<g>
			<g>
				<g>
					<g>
						<polygon fill="#616363" points="157.6,207.4 131.6,184.1 135.8,179.4 157.6,199 196.9,164.9 220.9,186.6 277,135.4 
							322.5,182.7 371.8,136.8 376.1,141.4 322.2,191.5 276.7,144.1 220.9,195.1 196.8,173.3 						"/>
					</g>
				</g>
			</g>
		</g>
		<g>
			<g>
				<g>
					<g>
						<polygon fill="#616363" points="380.4,168.2 374.1,168.2 374.1,138.8 341.6,138.8 341.6,132.5 380.4,132.5 						"/>
					</g>
				</g>
			</g>
		</g>
		<g>
			<g>
				<g>
					<g>
						<circle fill="#84D1DA" cx="276.8" cy="139.8" r="14.9"/>
					</g>
				</g>
			</g>
		</g>
		<g>
			<g>
				<g>
					<g>
						<path fill="#616363" d="M276.8,157.8c-9.9,0-18-8.1-18-18c0-9.9,8.1-18,18-18s18,8.1,18,18
							C294.9,149.7,286.8,157.8,276.8,157.8z M276.8,128c-6.5,0-11.7,5.3-11.7,11.7s5.3,11.7,11.7,11.7c6.5,0,11.7-5.3,11.7-11.7
							S283.3,128,276.8,128z"/>
					</g>
				</g>
			</g>
		</g>
		<g>
			<g>
				<g>
					<g>
						<g>
							<g>
								<rect x="181" y="202.9" fill="#616363" width="6.3" height="80.5"/>
							</g>
						</g>
					</g>
				</g>
				<g>
					<g>
						<g>
							<g>
								<rect x="218.1" y="208.1" fill="#616363" width="6.3" height="75.3"/>
							</g>
						</g>
					</g>
				</g>
				<g>
					<g>
						<g>
							<g>
								<rect x="292.2" y="182.1" fill="#616363" width="6.3" height="101.3"/>
							</g>
						</g>
					</g>
				</g>
				<g>
					<g>
						<g>
							<g>
								<rect x="255.2" y="182.1" fill="#616363" width="6.3" height="101.3"/>
							</g>
						</g>
					</g>
				</g>
				<g>
					<g>
						<g>
							<g>
								<rect x="329.3" y="200.6" fill="#616363" width="6.3" height="82.8"/>
							</g>
						</g>
					</g>
				</g>
			</g>
			<g>
				<g>
					<g>
						<g>
							<rect x="166.9" y="280.3" fill="#616363" width="182.7" height="6.3"/>
						</g>
					</g>
				</g>
			</g>
		</g>
	</g>
</g>
</svg>
