<?xml version="1.0" encoding="utf-8"?>
<!-- Generator: Adobe Illustrator 18.0.0, SVG Export Plug-In . SVG Version: 6.00 Build 0)  -->
<!DOCTYPE svg PUBLIC "-//W3C//DTD SVG 1.1//EN" "http://www.w3.org/Graphics/SVG/1.1/DTD/svg11.dtd">
<svg version="1.1" id="Layer_1" xmlns="http://www.w3.org/2000/svg" xmlns:xlink="http://www.w3.org/1999/xlink" x="0px" y="0px"
	 viewBox="0 0 512 512" enable-background="new 0 0 512 512" xml:space="preserve">
<g>
	<g>
		<text transform="matrix(1 0 0 1 126.1372 416.5308)" fill="#616363" font-family="'AvertaDemo-Regular'" font-size="53.0116">STRATEGY</text>
	</g>
	<g>
		<g>
			<g>
				<g>
					<g>
						<circle fill="#84D1DA" cx="256" cy="202.7" r="120.8"/>
					</g>
				</g>
			</g>
		</g>
		<g>
			<g>
				<g>
					<g>
						<rect x="135.1" y="106" fill="#84D1DA" width="241.7" height="12.8"/>
					</g>
				</g>
			</g>
		</g>
		<g>
			<g>
				<g>
					<g>
						<rect x="135.1" y="233.2" fill="#84D1DA" width="241.7" height="12.8"/>
					</g>
				</g>
			</g>
		</g>
		<g>
			<g>
				<g>
					<g>
						<path fill="#616363" d="M380,121.9H132v-19.1h248V121.9z M138.3,115.7h235.5v-6.6H138.3V115.7z"/>
					</g>
				</g>
			</g>
		</g>
		<g>
			<g>
				<g>
					<g>
						<path fill="#616363" d="M380,249.1H132V230h248V249.1z M138.3,242.9h235.5v-6.6H138.3V242.9z"/>
					</g>
				</g>
			</g>
		</g>
		<g>
			<g>
				<g>
					<g>
						<rect x="154.8" y="118.8" fill="#FFFFFF" width="202.3" height="114.3"/>
					</g>
				</g>
			</g>
		</g>
		<g>
			<g>
				<g>
					<g>
						<path fill="#616363" d="M360.3,236.3H151.7V115.7h208.6V236.3z M158,230h196V121.9H158V230z"/>
					</g>
				</g>
			</g>
		</g>
		<g>
			<g>
				<g>
					<g>
						<rect x="238" y="246" fill="#FCB856" width="36" height="67.1"/>
					</g>
				</g>
			</g>
		</g>
		<g>
			<g>
				<g>
					<g>
						<path fill="#616363" d="M277.1,316.3h-42.2v-73.4h42.2V316.3z M241.2,310h29.7v-60.9h-29.7V310z"/>
					</g>
				</g>
			</g>
		</g>
		<g>
			<g>
				<g>
					<g>
						<rect x="181.6" y="310" fill="#616363" width="148.8" height="6.3"/>
					</g>
				</g>
			</g>
		</g>
		<g>
			<g>
				<g>
					<g>
						<path fill="#616363" d="M187.2,212.6c-8.1,0-14.6-6.6-14.6-14.6c0-8.1,6.6-14.6,14.6-14.6s14.6,6.6,14.6,14.6
							C201.9,206,195.3,212.6,187.2,212.6z M187.2,189.6c-4.6,0-8.4,3.8-8.4,8.4s3.8,8.4,8.4,8.4s8.4-3.8,8.4-8.4
							S191.8,189.6,187.2,189.6z"/>
					</g>
				</g>
			</g>
		</g>
		<g>
			<g>
				<g>
					<g>
						
							<rect x="252.9" y="133.4" transform="matrix(0.7071 0.7071 -0.7071 0.7071 180.1386 -137.4615)" fill="#616363" width="6.3" height="30.6"/>
					</g>
				</g>
			</g>
		</g>
		<g>
			<g>
				<g>
					<g>
						
							<rect x="240.7" y="145.6" transform="matrix(0.7071 0.7071 -0.7071 0.7071 180.1335 -137.4601)" fill="#616363" width="30.6" height="6.3"/>
					</g>
				</g>
			</g>
		</g>
		<g>
			<g>
				<g>
					<g>
						<path fill="#616363" d="M190.4,173.4h-6.3v-10.3c0-9.7,7.9-17.6,17.6-17.6h23.8v6.3h-23.8c-6.2,0-11.3,5.1-11.3,11.3V173.4z"
							/>
					</g>
				</g>
			</g>
		</g>
		<g>
			<g>
				<g>
					<g>
						<polygon fill="#616363" points="217.2,163.4 212.8,159 222.1,149.6 212.7,140.1 217.1,135.7 231,149.6 						"/>
					</g>
				</g>
			</g>
		</g>
		<g>
			<g>
				<g>
					<g>
						<path fill="#616363" d="M314.1,205.8h-32.2v-6.3h32.2c7,0,12.7-5.7,12.7-12.7v-23.7c0-6.2-5.1-11.3-11.3-11.3h-31.3v-6.3h31.3
							c9.7,0,17.6,7.9,17.6,17.6v23.7C333.1,197.3,324.6,205.8,314.1,205.8z"/>
					</g>
				</g>
			</g>
		</g>
		<g>
			<g>
				<g>
					<g>
						<polygon fill="#616363" points="291.4,216.5 277.5,202.6 291.3,188.8 295.7,193.3 286.3,202.6 295.8,212.1 						"/>
					</g>
				</g>
			</g>
		</g>
		<g>
			<g>
				<g>
					<g>
						<g>
							<path fill="#FCB856" d="M268.4,206.1c0,5.4-3.8,9.3-10.3,9.8v6.5l-3.6,0v-6.5c-4-0.4-7.8-2.2-10.9-5.2l2.8-3.3
								c3,2.9,6.9,4.4,10.3,4.4c3.9,0,6.9-2,6.9-5.3c0-3.8-3.1-5.1-8-6.6c-5.8-1.9-11.2-3.7-11.2-10.1c0-5.2,3.6-9.1,10.1-9.4v-6.8
								l3.6,0v7c3.2,0.6,6.7,2,9.1,3.9l-2.7,3.3c-2.8-2-6.4-3.2-9-3.2c-3.7,0-6.3,1.7-6.3,4.9c0,3.3,3.2,4.6,7.7,6
								C263.5,197.5,268.4,199.3,268.4,206.1L268.4,206.1z"/>
						</g>
					</g>
				</g>
			</g>
		</g>
	</g>
</g>
</svg>
