<?xml version="1.0" encoding="utf-8"?>
<!-- Generator: Adobe Illustrator 18.0.0, SVG Export Plug-In . SVG Version: 6.00 Build 0)  -->
<!DOCTYPE svg PUBLIC "-//W3C//DTD SVG 1.1//EN" "http://www.w3.org/Graphics/SVG/1.1/DTD/svg11.dtd">
<svg version="1.1" id="Layer_1" xmlns="http://www.w3.org/2000/svg" xmlns:xlink="http://www.w3.org/1999/xlink" x="0px" y="0px"
	 viewBox="0 0 512 512" enable-background="new 0 0 512 512" xml:space="preserve">
<g>
	<g>
		<text transform="matrix(1 0 0 1 136.2451 438.0994)" fill="#616363" font-family="'AvertaDemo-Regular'" font-size="53.0116"></text>
	</g>
	<g>
		<g>
			<g>
				<g>
					<g>
						<rect x="187.1" y="277.8" fill="#84D1DA" width="133.5" height="60.6"/>
					</g>
				</g>
			</g>
		</g>
		<g>
			<g>
				<g>
					<g>
						<path fill="#616363" d="M323.7,341.6H183.9v-66.9h139.8V341.6z M190.2,335.3h127.2v-54.4H190.2V335.3z"/>
					</g>
				</g>
			</g>
		</g>
		<g>
			<g>
				<g>
					<g>
						<rect x="205.5" y="295.3" fill="#FFFFFF" width="96.7" height="21"/>
					</g>
				</g>
			</g>
		</g>
		<g>
			<g>
				<g>
					<g>
						<path fill="#616363" d="M305.4,319.5h-103v-27.3h103V319.5z M208.7,313.2h90.4v-14.8h-90.4V313.2z"/>
					</g>
				</g>
			</g>
		</g>
		<g>
			<g>
				<g>
					<g>
						<path fill="#FCB856" d="M253.8,210.3v0.8c0,36.9,29.9,66.8,66.8,66.8h0h-66.8h-66.8h0c36.9,0,66.8-29.9,66.8-66.8V210.3z"/>
					</g>
				</g>
			</g>
		</g>
		<g>
			<g>
				<g>
					<g>
						<path fill="#FCB856" d="M220.3,89.1l-33.2,8.7c0,0,0,0,0,47.5c0,66.4,66.8,65,66.8,65s66.8,1.4,66.8-65c0-47.5,0-47.5,0-47.5
							l-33.2-8.7C265.4,83.3,242.3,83.3,220.3,89.1z"/>
					</g>
				</g>
			</g>
		</g>
		<g>
			<g>
				<g>
					<g>
						<path fill="#FCB856" d="M217.6,68.5L217.6,68.5l0,21.3l2.7-0.7c22-5.8,45.1-5.8,67,0l2.7,0.7V68.5l0,0
							C266.4,61.7,241.3,61.7,217.6,68.5z"/>
					</g>
				</g>
			</g>
		</g>
		<g>
			<g>
				<g>
					<g>
						<path fill="#616363" d="M320.6,280.9H187.1v-6.3c35.1,0,63.6-28.5,63.6-63.6v-0.8h6.3v0.8c0,35.1,28.5,63.6,63.6,63.6V280.9z
							 M216,274.7h75.6c-18-8.2-31.9-23.8-37.8-42.9C247.9,250.9,234,266.5,216,274.7z"/>
					</g>
				</g>
			</g>
		</g>
		<g>
			<g>
				<g>
					<g>
						<path fill="#616363" d="M254.1,213.4l-0.4,0l-0.2,0c-3.2,0-20-0.4-36.5-8.9c-15.1-7.8-33.1-24.4-33.1-59.2V95.4l35.6-9.4
							c22.4-5.9,46.3-5.9,68.6,0l35.6,9.4v49.9c0,34.8-18,51.4-33.1,59.2C274.1,213,257.3,213.4,254.1,213.4z M253.8,207.2l0.4,0
							c6.5,0,63.3-1.7,63.3-61.9v-45l-30.9-8.1c-21.4-5.6-44.1-5.6-65.5,0l-30.9,8.1v45c0,60.2,56.8,61.9,63.3,61.9L253.8,207.2z"/>
					</g>
				</g>
			</g>
		</g>
		<g>
			<g>
				<g>
					<g>
						<path fill="#616363" d="M293.1,93.8l-6.6-1.7c-21.4-5.6-44.1-5.6-65.5,0l-6.6,1.7V66.1l2.3-0.6c24.1-6.9,50-6.9,74.1,0
							l2.3,0.6V93.8z M253.8,81.6c11.1,0,22.2,1.4,33,4.1V70.9c-21.6-5.7-44.5-5.7-66.1,0v14.8C231.6,83,242.7,81.6,253.8,81.6z"/>
					</g>
				</g>
			</g>
		</g>
		<g>
			<g>
				<g>
					<g>
						<path fill="#616363" d="M315.9,178.2h-1.1v-6.3h1.1c22.1,0,40.1-16.8,41-38.4c0-0.6,0-1.3,0-1.9v-15.8h-36.4v-6.3h42.7v22
							c0,0.7,0,1.5,0,2.2C362.1,158.7,341.4,178.2,315.9,178.2z"/>
					</g>
				</g>
			</g>
		</g>
		<g>
			<g>
				<g>
					<g>
						<path fill="#616363" d="M193.2,179.2h-3.1c-18.9,0-35.9-10.9-43.1-27.8c-2.7-6.3-4.1-13-4.1-19.9v-22h44.2v6.3h-37.9v15.8
							c0,6,1.2,11.9,3.6,17.4c6.3,14.6,20.9,24,37.4,24h3.1V179.2z"/>
					</g>
				</g>
			</g>
		</g>
	</g>
</g>
</svg>
