<?xml version="1.0" encoding="utf-8"?>
<!-- Generator: Adobe Illustrator 18.0.0, SVG Export Plug-In . SVG Version: 6.00 Build 0)  -->
<!DOCTYPE svg PUBLIC "-//W3C//DTD SVG 1.1//EN" "http://www.w3.org/Graphics/SVG/1.1/DTD/svg11.dtd">
<svg version="1.1" id="Layer_1" xmlns="http://www.w3.org/2000/svg" xmlns:xlink="http://www.w3.org/1999/xlink" x="0px" y="0px"
	 viewBox="0 0 512 512" enable-background="new 0 0 512 512" xml:space="preserve">
<g>
	<g>
		<text transform="matrix(1 0 0 1 156.731 416.0232)" fill="#616363" font-family="'AvertaDemo-Regular'" font-size="53.0116">TAXES</text>
	</g>
	<g>
		<g>
			<g>
				<g>
					<g>
						<path fill="#FFFFFF" d="M347.5,103.6v202.2H175.7V102.9c0-9.6-7.8-17.4-17.4-17.4h171.2C339.4,85.5,347.5,93.6,347.5,103.6z"
							/>
					</g>
				</g>
			</g>
		</g>
		<g>
			<g>
				<g>
					<g>
						<path fill="#FFFFFF" d="M175.7,102.9v170.5h-51c9,0,16.2-7.3,16.2-16.2V102.9c0-4.8,1.9-9.2,5.1-12.3
							c3.2-3.2,7.5-5.1,12.3-5.1C167.9,85.5,175.7,93.3,175.7,102.9z"/>
					</g>
				</g>
			</g>
		</g>
		<g>
			<g>
				<g>
					<g>
						<path fill="#FFFFFF" d="M140.8,215v42.2c0,9-7.3,16.2-16.2,16.2c-4.5,0-8.5-1.8-11.5-4.8c-2.9-2.9-4.8-7-4.8-11.5V215H140.8z"
							/>
					</g>
				</g>
			</g>
		</g>
		<g>
			<g>
				<g>
					<g>
						<path fill="#616363" d="M350.6,308.8H172.5V102.9c0-7.9-6.4-14.3-14.3-14.3c-7.9,0-14.3,6.4-14.3,14.3v154.2
							c0,10.7-8.7,19.4-19.4,19.4c-10.7,0-19.4-8.7-19.4-19.4v-45.3h32.4v-109c0-11.3,9.2-20.5,20.5-20.5c11.3,0,20.5,9.2,20.5,20.5
							v199.7h165.5v-199c0-8.2-6.7-14.9-14.9-14.9H193.9v-6.3h135.5c11.7,0,21.2,9.5,21.2,21.2V308.8z M111.5,218.1v39
							c0,7.2,5.9,13.1,13.1,13.1s13.1-5.9,13.1-13.1v-39H111.5z"/>
					</g>
				</g>
			</g>
		</g>
		<g>
			<g>
				<g>
					<g>
						<path fill="#616363" d="M350.6,308.8H172.5v-32.3h-47.9v-6.3c7.2,0,13.1-5.9,13.1-13.1V102.9c0-5.5,2.1-10.7,6-14.5
							c3.9-3.9,9.1-6,14.5-6c0.1,0,0.1,0,0.2,0v0l170.9,0c11.7,0,21.2,9.5,21.2,21.2V308.8z M178.8,302.6h165.5v-199
							c0-8.2-6.7-14.9-14.9-14.9l-156.6,0c2.3,2.4,4,5.3,5,8.6c0.6,2,0.9,4,0.9,6.2V302.6z M138.9,270.2h33.6V103.4
							c0-1.6-0.2-3.1-0.7-4.5c-1.8-5.7-6.7-9.9-12.7-10.3c-4.1-0.3-8.1,1.3-11,4.2c-2.7,2.7-4.2,6.3-4.2,10.1v154.2
							C144,262.2,142,266.8,138.9,270.2z"/>
					</g>
				</g>
			</g>
		</g>
		<g>
			<g>
				<g>
					<g>
						<rect x="154" y="270.2" fill="#616363" width="21.6" height="6.3"/>
					</g>
				</g>
			</g>
		</g>
		<g>
			<g>
				<g>
					<g>
						<rect x="211" y="115.9" fill="#616363" width="102.8" height="6.3"/>
					</g>
				</g>
			</g>
		</g>
		<g>
			<g>
				<g>
					<g>
						<rect x="211" y="146.8" fill="#616363" width="102.8" height="6.3"/>
					</g>
				</g>
			</g>
		</g>
		<g>
			<g>
				<g>
					<g>
						<rect x="211" y="177.7" fill="#616363" width="102.8" height="6.3"/>
					</g>
				</g>
			</g>
		</g>
		<g>
			<g>
				<g>
					<g>
						<rect x="211" y="208.5" fill="#616363" width="102.8" height="6.3"/>
					</g>
				</g>
			</g>
		</g>
		<g>
			<g>
				<g>
					<g>
						<rect x="211" y="239.4" fill="#616363" width="70.1" height="6.3"/>
					</g>
				</g>
			</g>
		</g>
		<g>
			<g>
				<g>
					<g>
						<rect x="211" y="270.2" fill="#616363" width="52.3" height="6.3"/>
					</g>
				</g>
			</g>
		</g>
		<g>
			<g>
				<g>
					<g>
						<circle fill="#FCB856" cx="355.1" cy="287.6" r="48.5"/>
					</g>
				</g>
			</g>
		</g>
		<g>
			<g>
				<g>
					<g>
						<path fill="#616363" d="M355.2,339.2c-2.4,0-4.8-0.2-7.2-0.5c-28.2-3.9-47.9-30.1-44-58.2c3.5-25.3,25.5-44.5,51-44.5
							c2.4,0,4.8,0.2,7.2,0.5c13.6,1.9,25.7,9,34,20c8.3,11,11.8,24.6,9.9,38.2C402.7,320.1,380.7,339.2,355.2,339.2z M355.1,242.2
							c-22.4,0-41.7,16.8-44.8,39.1c-3.5,24.7,13.9,47.7,38.6,51.1c2.1,0.3,4.2,0.4,6.3,0.4c22.4,0,41.7-16.8,44.8-39.1
							c1.7-12-1.4-23.9-8.7-33.6c-7.3-9.7-17.9-15.9-29.9-17.6C359.3,242.4,357.2,242.2,355.1,242.2z"/>
					</g>
				</g>
			</g>
		</g>
		<g>
			<g>
				<g>
					<g>
						<g>
							<path fill="#FFFFFF" d="M371.2,298.2c0,7.1-5,12-13.4,12.7v8.4h-4.6v-8.4c-5.1-0.6-10.1-2.8-14.2-6.8l3.6-4.3
								c3.9,3.8,8.9,5.7,13.3,5.7c5.1,0,8.9-2.5,8.9-6.9c0-5-4-6.6-10.4-8.6c-7.6-2.4-14.5-4.8-14.5-13c0-6.7,4.7-11.8,13.1-12.2
								v-8.8h4.6v9.1c4.2,0.7,8.7,2.6,11.8,5l-3.5,4.3c-3.6-2.6-8.2-4.1-11.7-4.1c-4.8,0-8.2,2.3-8.2,6.3c0,4.3,4.2,5.9,10,7.8
								C364.8,287,371.2,289.3,371.2,298.2L371.2,298.2z"/>
						</g>
					</g>
				</g>
			</g>
		</g>
	</g>
</g>
</svg>
