<?xml version="1.0" encoding="utf-8"?>
<!-- Generator: Adobe Illustrator 18.0.0, SVG Export Plug-In . SVG Version: 6.00 Build 0)  -->
<!DOCTYPE svg PUBLIC "-//W3C//DTD SVG 1.1//EN" "http://www.w3.org/Graphics/SVG/1.1/DTD/svg11.dtd">
<svg version="1.1" id="Layer_1" xmlns="http://www.w3.org/2000/svg" xmlns:xlink="http://www.w3.org/1999/xlink" x="0px" y="0px"
	 viewBox="0 0 512 512" enable-background="new 0 0 512 512" xml:space="preserve">
<g>
	<g>
		<text transform="matrix(1 0 0 1 105.4634 419.3572)" fill="#616363" font-family="'AvertaDemo-Regular'" font-size="53.0116">TRANSFER</text>
	</g>
	<g>
		<g>
			<g>
				<g>
					<g>
						<g>
							<g>
								<path fill="#FCB856" d="M293.9,328.9H189.6c-11,0-20-8.9-20-20V102.1c0-11,8.9-20,20-20h104.3c11,0,20,8.9,20,20v206.8
									C313.8,319.9,304.9,328.9,293.9,328.9z"/>
							</g>
						</g>
					</g>
				</g>
			</g>
			<g>
				<g>
					<g>
						<g>
							<g>
								<path fill="#616363" d="M293.9,332H189.6c-12.7,0-23.1-10.4-23.1-23.1V102.1c0-12.7,10.4-23.1,23.1-23.1h104.3
									c12.7,0,23.1,10.4,23.1,23.1v206.8C317,321.7,306.6,332,293.9,332z M189.6,85.3c-9.3,0-16.8,7.5-16.8,16.8v206.8
									c0,9.3,7.5,16.8,16.8,16.8h104.3c9.3,0,16.8-7.5,16.8-16.8V102.1c0-9.3-7.5-16.8-16.8-16.8H189.6z"/>
							</g>
						</g>
					</g>
				</g>
			</g>
			<g>
				<g>
					<g>
						<g>
							<rect x="189.1" y="109.8" fill="#CEECF3" width="105.2" height="176.5"/>
						</g>
					</g>
				</g>
			</g>
			<g>
				<g>
					<g>
						<g>
							<rect x="231" y="94.6" fill="#616363" width="21.5" height="6.3"/>
						</g>
					</g>
				</g>
			</g>
			<g>
				<g>
					<g>
						<g>
							<path fill="#616363" d="M250.5,317.8h-17.6c-6.1,0-11.1-5-11.1-11.1c0-6.1,5-11.1,11.1-11.1h17.6c6.1,0,11.1,5,11.1,11.1
								C261.6,312.8,256.6,317.8,250.5,317.8z M232.9,301.9c-2.6,0-4.8,2.1-4.8,4.8c0,2.6,2.1,4.8,4.8,4.8h17.6
								c2.6,0,4.8-2.1,4.8-4.8c0-2.6-2.1-4.8-4.8-4.8H232.9z"/>
						</g>
					</g>
				</g>
			</g>
		</g>
		<g>
			<g>
				<g>
					<g>
						<path fill="#616363" d="M211.4,215.4h-45.5c-17.5,0-31.7-14.2-31.7-31.7s14.2-31.7,31.7-31.7H279v6.3H165.9
							c-14,0-25.5,11.4-25.5,25.5s11.4,25.5,25.5,25.5h45.5V215.4z"/>
					</g>
				</g>
			</g>
		</g>
		<g>
			<g>
				<g>
					<g>
						<g>
							<path fill="#84D1DA" d="M259.8,215.4c0,7.9-5.6,13.5-15,14.3v9.4h-5.2v-9.5c-5.8-0.6-11.3-3.2-15.9-7.6l4.1-4.9
								c4.4,4.3,10,6.5,15,6.5c5.7,0,10-2.9,10-7.8c0-5.6-4.5-7.4-11.7-9.7c-8.5-2.7-16.3-5.4-16.3-14.7c0-7.6,5.3-13.3,14.8-13.8
								v-9.8h5.2V178c4.7,0.8,9.8,3,13.3,5.7l-3.9,4.8c-4.1-3-9.3-4.6-13.1-4.6c-5.4,0-9.2,2.5-9.2,7.1c0,4.9,4.7,6.7,11.2,8.8
								C252.6,202.9,259.8,205.4,259.8,215.4L259.8,215.4z"/>
						</g>
					</g>
				</g>
			</g>
		</g>
		<g>
			<g>
				<g>
					<g>
						<polygon fill="#84D1DA" points="298.2,175.9 328.4,192.8 403.8,129.1 						"/>
					</g>
				</g>
			</g>
		</g>
		<g>
			<g>
				<g>
					<g>
						<polygon fill="#84D1DA" points="328.4,192.8 403.8,129.1 363,211.4 						"/>
					</g>
				</g>
			</g>
		</g>
		<g>
			<g>
				<g>
					<g>
						<polygon fill="#84D1DA" points="328.4,192.8 328.4,224.1 343,200.7 						"/>
					</g>
				</g>
			</g>
		</g>
		<g>
			<g>
				<g>
					<g>
						<g>
							<path fill="#616363" d="M328,189l-22.8-12.7l80.1-35.7L328,189z M400.9,127.3l-0.6-0.3l-109.2,48.6l31.7,17.7l4.4,2.5
								l1.4,0.8l0,0l5.1-4.4h0l60.6-51.2l12-10.1L400.9,127.3z"/>
						</g>
					</g>
				</g>
			</g>
		</g>
		<g>
			<g>
				<g>
					<g>
						<g>
							<path fill="#616363" d="M361.6,207.1l-27.7-15l60.6-51.2L361.6,207.1z M406.5,130.8l-5.6-3.5l-15.7,13.2L328,189l-5.1,4.3
								l-0.1,0l4.5,2.4l1.5,0.8l35.6,19.2L406.5,130.8L406.5,130.8z"/>
						</g>
					</g>
				</g>
			</g>
		</g>
		<g>
			<g>
				<g>
					<g>
						<path fill="#616363" d="M331,225.8l-5.8-1.7v-31.3l4.6-2.8l14.6,7.9l1.2,4.4L331,225.8z M331.5,198v15.1l7.1-11.3L331.5,198z"
							/>
					</g>
				</g>
			</g>
		</g>
		<g>
			<g>
				<g>
					<g>
						<polygon fill="#616363" points="268.5,175.7 264,171.2 279,156.3 264.4,141.6 268.8,137.2 287.9,156.3 						"/>
					</g>
				</g>
			</g>
		</g>
	</g>
</g>
</svg>
