<?xml version="1.0" encoding="utf-8"?>
<!-- Generator: Adobe Illustrator 18.0.0, SVG Export Plug-In . SVG Version: 6.00 Build 0)  -->
<!DOCTYPE svg PUBLIC "-//W3C//DTD SVG 1.1//EN" "http://www.w3.org/Graphics/SVG/1.1/DTD/svg11.dtd">
<svg version="1.1" id="Layer_1" xmlns="http://www.w3.org/2000/svg" xmlns:xlink="http://www.w3.org/1999/xlink" x="0px" y="0px"
	 viewBox="0 0 512 512" enable-background="new 0 0 512 512" xml:space="preserve">
<g>
	<g>
		<text transform="matrix(1 0 0 1 129.8677 432.5662)" fill="#616363" font-family="'AvertaDemo-Regular'" font-size="53.0116">UNICORN</text>
	</g>
	<g>
		<g>
			<g>
				<g>
					<g>
						<g>
							<path fill="#84D1DA" d="M281.6,125.2l46.6-57.4l-16.9,74l-0.9-1C302.4,132.9,292.4,127.5,281.6,125.2L281.6,125.2z"/>
						</g>
					</g>
				</g>
			</g>
			<g>
				<g>
					<g>
						<g>
							<path fill="#616363" d="M309,144l-0.9-1c-7.4-7.5-16.8-12.6-27.1-14.8l-1.8-5l46.6-57.4l5.5,2.7l-16.9,74L309,144z
								 M287.1,123.4c8.2,2.5,15.8,6.7,22.3,12.4L322,80.3L287.1,123.4z"/>
						</g>
					</g>
				</g>
			</g>
			<g>
				<g>
					<g>
						<g>
							<path fill="#FCB856" d="M266.9,123.6l8.9-27.4c0,0-58.1-3-97.2,62.1c-32.2,53.5-40.3,107-40.3,107H169L266.9,123.6z"/>
						</g>
					</g>
				</g>
			</g>
			<g>
				<g>
					<g>
						<g>
							<path fill="#616363" d="M170.7,268.4h-36l0.5-3.6c0.1-0.5,8.6-54.7,40.7-108.1c36.4-60.6,88.6-63.6,98.7-63.6
								c0.9,0,1.3,0,1.3,0l4.1,0.2L269.8,125l-0.3,0.4L170.7,268.4z M142.1,262.1h25.3l96.7-140l7.4-22.7
								c-14.4,0.8-58.4,7.6-90.2,60.5C154.5,204.5,144.5,249.3,142.1,262.1z"/>
						</g>
					</g>
				</g>
			</g>
			<g>
				<g>
					<g>
						<g>
							<path fill="#FFFFFF" d="M367.5,231.6l10.9-28.4l-70-59.2c-9.6-12.4-24.6-20.5-41.5-20.5c-13.4,0-25.6,5-34.9,13.3l0,0
								c-51.6,39.1-70.8,166.6-70.8,166.6h120.3c-11.7-60.2,8.4-94.5,8.4-94.5l0,0L367.5,231.6z"/>
						</g>
					</g>
				</g>
			</g>
			<g>
				<g>
					<g>
						<g>
							<path fill="#616363" d="M285.3,306.6H157.6l0.5-3.6c0.8-5.3,20-129.2,71.9-168.6c10.2-9,23.2-14,36.8-14
								c17.8,0,33.5,6.4,46.4,19.1l68.8,62.8l-12.7,33.1l-77.9-22.7c-3.9,8.1-16.6,39.2-6.9,90.2L285.3,306.6z M165,300.4h112.8
								c-10.3-59.6,8.6-91.6,9.5-93l1.3-2l77.1,22.5l9.1-23.7l-65.7-60c-12-11.8-25.8-17.4-42.1-17.4c-12.1,0-23.8,4.4-32.8,12.5
								l-3.1,2.7l-0.1-0.2C187.9,178.3,168.5,279.9,165,300.4z"/>
						</g>
					</g>
				</g>
			</g>
			<g>
				<g>
					<g>
						<g>
							<path fill="#616363" d="M264.9,218.9c-12.9,0-25.1-5-34.4-14c-4.3-4.2-7.7-9-10.3-14.3l5.7-2.7c2.2,4.7,5.2,8.9,9,12.5
								c8.1,7.9,18.8,12.2,30,12.2c8.3,0,16.4-2.4,23.3-6.9l3.4,5.3C283.7,216.2,274.5,218.9,264.9,218.9z"/>
						</g>
					</g>
				</g>
			</g>
			<g>
				<g>
					<g>
						<g>
							
								<rect x="311" y="84.2" transform="matrix(0.2764 0.961 -0.961 0.2764 316.9527 -234.3855)" fill="#616363" width="6.3" height="18.2"/>
						</g>
					</g>
				</g>
			</g>
			<g>
				<g>
					<g>
						<g>
							
								<rect x="301.5" y="95" transform="matrix(0.2739 0.9618 -0.9618 0.2739 327.31 -212.8898)" fill="#616363" width="6.3" height="30.6"/>
						</g>
					</g>
				</g>
			</g>
			<g>
				<g>
					<g>
						<g>
							
								<rect x="300.8" y="113.1" transform="matrix(0.2739 0.9618 -0.9618 0.2739 341.2765 -201.3078)" fill="#616363" width="6.3" height="24.4"/>
						</g>
					</g>
				</g>
			</g>
			<g>
				<g>
					<g>
						<g>
							<path fill="#FFFFFF" d="M269.8,140l-22.4-35.2c0,0-20.8,31.2,1.8,50.6L269.8,140z"/>
						</g>
					</g>
				</g>
			</g>
			<g>
				<g>
					<g>
						<g>
							<path fill="#616363" d="M247.2,157.8c-24.4-21-2.6-54.4-2.4-54.7l2.7-4l25,39.3l-5.3,3.4l-19.6-30.8
								c-4.5,8.7-12,28.6,3.7,42.2L247.2,157.8z"/>
						</g>
					</g>
				</g>
			</g>
		</g>
		<g>
			<g>
				<polygon fill="#616363" points="298.3,288.1 294,283.6 322,256.4 338.6,275.8 368.8,246 373.2,250.4 338.2,285 321.5,265.6 				
					"/>
			</g>
			<g>
				<polygon fill="#616363" points="375.8,269.1 369.5,269.1 369.5,251.3 351.1,251.3 351.1,245.1 375.8,245.1 				"/>
			</g>
		</g>
	</g>
</g>
</svg>
