<?xml version="1.0" encoding="utf-8"?>
<!-- Generator: Adobe Illustrator 18.0.0, SVG Export Plug-In . SVG Version: 6.00 Build 0)  -->
<!DOCTYPE svg PUBLIC "-//W3C//DTD SVG 1.1//EN" "http://www.w3.org/Graphics/SVG/1.1/DTD/svg11.dtd">
<svg version="1.1" id="Layer_1" xmlns="http://www.w3.org/2000/svg" xmlns:xlink="http://www.w3.org/1999/xlink" x="0px" y="0px"
	 viewBox="0 0 512 512" enable-background="new 0 0 512 512" xml:space="preserve">
<g>
	<g>
		<text transform="matrix(1 0 0 1 175.2319 422.9797)" fill="#616363" font-family="'AvertaDemo-Regular'" font-size="53.0116"></text>
	</g>
	<g>
		<g>
			<g>
				<g>
					<g>
						<polygon fill="#CEECF3" points="353.6,134.7 256,134.7 158.4,134.7 133.7,182.3 256,327.7 378.3,182.3 						"/>
					</g>
				</g>
			</g>
		</g>
		<g>
			<g>
				<g>
					<g>
						<polygon fill="#FFFFFF" points="256,182.3 312.7,136.6 368.5,182.3 						"/>
					</g>
				</g>
			</g>
		</g>
		<g>
			<g>
				<g>
					<g>
						<polygon fill="#FFFFFF" points="135.9,182.3 195.2,136.6 256,182.3 						"/>
					</g>
				</g>
			</g>
		</g>
		<g>
			<g>
				<g>
					<g>
						<polygon fill="#616363" points="377.3,185.4 296.2,185.4 296.2,179.2 359.7,179.2 312.6,140.6 256,182.9 197.3,140.5 
							135.5,184.9 131.9,179.8 197.3,132.8 256,175.1 312.7,132.6 						"/>
					</g>
				</g>
			</g>
		</g>
		<g>
			<g>
				<g>
					<g>
						<rect x="135.9" y="179.2" fill="#616363" width="164" height="6.3"/>
					</g>
				</g>
			</g>
		</g>
		<g>
			<g>
				<g>
					<g>
						
							<rect x="276.2" y="178.7" transform="matrix(0.9523 0.3052 -0.3052 0.9523 91.1553 -73.0823)" fill="#616363" width="6.3" height="152.7"/>
					</g>
				</g>
			</g>
		</g>
		<g>
			<g>
				<g>
					<g>
						<path fill="#616363" d="M256,332.5L130,182.7l26.5-51.2h199l26.5,51.2L256,332.5z M137.5,181.9L256,322.8l118.5-140.9
							l-22.8-44.1H160.3L137.5,181.9z"/>
					</g>
				</g>
			</g>
		</g>
		<g>
			<g>
				<g>
					<g>
						
							<rect x="156.4" y="251.9" transform="matrix(0.3054 0.9522 -0.9522 0.3054 404.4468 -44.4531)" fill="#616363" width="152.7" height="6.3"/>
					</g>
				</g>
			</g>
		</g>
		<g>
			<g>
				<g>
					<g>
						<rect x="252.9" y="75.4" fill="#616363" width="6.3" height="35.6"/>
					</g>
				</g>
			</g>
		</g>
		<g>
			<g>
				<g>
					<g>
						
							<rect x="116.3" y="95.6" transform="matrix(0.7071 0.7071 -0.7071 0.7071 108.9972 -65.6186)" fill="#616363" width="34.7" height="6.3"/>
					</g>
				</g>
			</g>
		</g>
		<g>
			<g>
				<g>
					<g>
						
							<rect x="375.2" y="81.4" transform="matrix(0.7071 0.7071 -0.7071 0.7071 180.6345 -238.5665)" fill="#616363" width="6.3" height="34.7"/>
					</g>
				</g>
			</g>
		</g>
	</g>
</g>
</svg>
