<?xml version="1.0" encoding="utf-8"?>
<!-- Generator: Adobe Illustrator 18.0.0, SVG Export Plug-In . SVG Version: 6.00 Build 0)  -->
<!DOCTYPE svg PUBLIC "-//W3C//DTD SVG 1.1//EN" "http://www.w3.org/Graphics/SVG/1.1/DTD/svg11.dtd">
<svg version="1.1" id="Layer_1" xmlns="http://www.w3.org/2000/svg" xmlns:xlink="http://www.w3.org/1999/xlink" x="0px" y="0px"
	 viewBox="0 0 512 512" enable-background="new 0 0 512 512" xml:space="preserve">
<g>
	<g>
		<text transform="matrix(1 0 0 1 126.2847 428.6008)" fill="#616363" font-family="'AvertaDemo-Regular'" font-size="53.0116">WALLET</text>
	</g>
	<g>
		<g>
			<g>
				<g>
					<g>
						<g>
							
								<rect x="124" y="121.1" transform="matrix(0.7071 -0.7071 0.7071 0.7071 -54.4045 194.5211)" fill="#CEECF3" width="167.2" height="83.6"/>
						</g>
					</g>
				</g>
			</g>
			<g>
				<g>
					<g>
						<g>
							<path fill="#616363" d="M178,256.1l-63.6-63.6L237.2,69.8l63.6,63.6L178,256.1z M123.4,192.5l54.7,54.7l113.8-113.8
								l-54.7-54.7L123.4,192.5z"/>
						</g>
					</g>
				</g>
			</g>
			<g>
				<g>
					<g>
						<g>
							<circle fill="#FCB856" cx="207.6" cy="162.9" r="24.3"/>
						</g>
					</g>
				</g>
			</g>
			<g>
				<g>
					<g>
						<g>
							<path fill="#FCB856" d="M133.3,206.9c7.9-7.9,7.9-20.8,0-28.8l-14.4,14.4L133.3,206.9z"/>
						</g>
					</g>
				</g>
			</g>
			<g>
				<g>
					<g>
						<g>
							<path fill="#FCB856" d="M251.6,88.6c-7.9,7.9-20.8,7.9-28.8,0l14.4-14.4L251.6,88.6z"/>
						</g>
					</g>
				</g>
			</g>
			<g>
				<g>
					<g>
						<g>
							<path fill="#FCB856" d="M281.7,118.7c-7.9,7.9-7.9,20.8,0,28.8l14.4-14.4L281.7,118.7z"/>
						</g>
					</g>
				</g>
			</g>
			<g>
				<g>
					<g>
						<g>
							<path fill="#FCB856" d="M163.4,237c7.9-7.9,20.8-7.9,28.8,0l-14.4,14.4L163.4,237z"/>
						</g>
					</g>
				</g>
			</g>
			<g>
				<g>
					<g>
						<g>
							<path fill="#616363" d="M133.3,211.3l-18.8-18.8l18.8-18.8l2.2,2.2c4.4,4.4,6.9,10.3,6.9,16.6c0,6.3-2.4,12.2-6.9,16.6
								L133.3,211.3z M123.4,192.5l9.7,9.7c2-2.8,3-6.2,3-9.7c0-3.5-1.1-6.9-3-9.7L123.4,192.5z"/>
						</g>
					</g>
				</g>
			</g>
			<g>
				<g>
					<g>
						<g>
							<path fill="#616363" d="M237.2,97.7c-6.3,0-12.2-2.4-16.6-6.9l-2.2-2.2l18.8-18.8L256,88.6l-2.2,2.2
								C249.4,95.2,243.5,97.7,237.2,97.7z M227.5,88.4c2.8,2,6.2,3,9.7,3c3.5,0,6.9-1.1,9.7-3l-9.7-9.7L227.5,88.4z"/>
						</g>
					</g>
				</g>
			</g>
			<g>
				<g>
					<g>
						<g>
							<path fill="#616363" d="M281.7,151.9l-2.2-2.2c-9.1-9.2-9.1-24,0-33.2l2.2-2.2l18.8,18.8L281.7,151.9z M281.9,123.3
								c-4,5.8-4,13.6,0,19.5l9.7-9.7L281.9,123.3z"/>
						</g>
					</g>
				</g>
			</g>
			<g>
				<g>
					<g>
						<g>
							<path fill="#616363" d="M177.8,255.8L159,237l2.2-2.2c4.4-4.4,10.3-6.9,16.6-6.9c6.3,0,12.2,2.4,16.6,6.9l2.2,2.2
								L177.8,255.8z M168,237.2l9.7,9.7l9.7-9.7c-2.8-2-6.2-3-9.7-3C174.2,234.1,170.9,235.2,168,237.2z"/>
						</g>
					</g>
				</g>
			</g>
			<g>
				<g>
					<g>
						<g>
							<path fill="#616363" d="M207.6,190.4c-7.3,0-14.2-2.9-19.4-8c-10.7-10.7-10.7-28.1,0-38.8c5.2-5.2,12.1-8,19.4-8
								c7.3,0,14.2,2.9,19.4,8c10.7,10.7,10.7,28.1,0,38.8C221.8,187.5,214.9,190.4,207.6,190.4z M207.6,141.8c-5.7,0-11,2.2-15,6.2
								c-8.3,8.3-8.3,21.7,0,29.9c4,4,9.3,6.2,15,6.2c5.7,0,11-2.2,15-6.2c8.3-8.3,8.3-21.7,0-29.9
								C218.6,144,213.3,141.8,207.6,141.8z"/>
						</g>
					</g>
				</g>
			</g>
		</g>
		<g>
			<polygon fill="#616363" points="327.7,127.3 306.4,105.9 327.3,85 331.7,89.5 315.2,105.9 332.1,122.8 			"/>
		</g>
		<g>
			<g>
				<g>
					<g>
						<g>
							<path fill="#CAE9E7" d="M337.9,281.6v20.2c0,18.5-15,33.4-33.4,33.4H118.9V162.9h185.5c18.5,0,33.4,15,33.4,33.4v14.3V281.6z
								"/>
						</g>
					</g>
				</g>
			</g>
			<g>
				<g>
					<g>
						<g>
							<path fill="#616363" d="M304.5,338.4H115.8V159.8h188.7c20.2,0,36.6,16.4,36.6,36.6v27.1h-6.3v-27.1
								c0-16.7-13.6-30.3-30.3-30.3H122.1v166h182.4c16.7,0,30.3-13.6,30.3-30.3v-30.9h6.3v30.9C341,322,324.6,338.4,304.5,338.4z"
								/>
						</g>
					</g>
				</g>
			</g>
			<g>
				<g>
					<g>
						<g>
							<path fill="#FFFFFF" d="M352.6,270.9h-52.3c-13.1,0-23.7-10.6-23.7-23.7v0c0-13.1,10.6-23.7,23.7-23.7h52.3V270.9z"/>
						</g>
					</g>
				</g>
			</g>
			<g>
				<g>
					<g>
						<g>
							<path fill="#616363" d="M355.7,274.1h-55.5c-14.8,0-26.9-12.1-26.9-26.9c0-14.8,12.1-26.9,26.9-26.9h55.5V274.1z
								 M300.2,226.6c-11.4,0-20.6,9.2-20.6,20.6s9.2,20.6,20.6,20.6h49.2v-41.2H300.2z"/>
						</g>
					</g>
				</g>
			</g>
			<g>
				<g>
					<g>
						<g>
							<circle fill="#FCB856" cx="302.4" cy="247.2" r="7.9"/>
						</g>
					</g>
				</g>
			</g>
			<g>
				<g>
					<g>
						<g>
							<rect x="146.7" y="181.9" fill="#616363" width="147.8" height="6.3"/>
						</g>
					</g>
				</g>
			</g>
			<g>
				<g>
					<g>
						<g>
							<rect x="146.7" y="308.3" fill="#616363" width="147.8" height="6.3"/>
						</g>
					</g>
				</g>
			</g>
		</g>
		<g>
			<path fill="#616363" d="M355.1,187.8h-3.6v-6.3h3.6c19.9,0,36.1-16.2,36.1-36.1s-16.2-36.1-36.1-36.1h-44.3V103h44.3
				c23.4,0,42.4,19,42.4,42.4C397.5,168.8,378.5,187.8,355.1,187.8z"/>
		</g>
	</g>
</g>
</svg>
