<?xml version="1.0" encoding="utf-8"?>
<!-- Generator: Adobe Illustrator 16.0.0, SVG Export Plug-In . SVG Version: 6.00 Build 0)  -->
<!DOCTYPE svg PUBLIC "-//W3C//DTD SVG 1.1//EN" "http://www.w3.org/Graphics/SVG/1.1/DTD/svg11.dtd">
<svg version="1.1" id="bank_note" xmlns="http://www.w3.org/2000/svg" xmlns:xlink="http://www.w3.org/1999/xlink" x="0px" y="0px"
	 width="120px" height="120px" viewBox="0 0 120 120" enable-background="new 0 0 120 120" xml:space="preserve">
<path id="dollar_S" fill="none" stroke="#00A4E4" stroke-width="2" stroke-miterlimit="10" d="M63.688,55.938
	c0,0-5.104-2.473-6.062,0.312c-1.375,4,7.688,2.312,5.812,6.25c-1.518,3.188-6.688,0.125-6.688,0.125"/>
<line id="dollar_bar" fill="none" stroke="#00A4E4" stroke-width="1.5" stroke-miterlimit="10" x1="60.5" y1="52.188" x2="60.5" y2="67.562"/>
<path fill="none" stroke="#00A4E4" stroke-width="3" stroke-miterlimit="10" d="M60.625,48.5c6.006,0,10.875,4.869,10.875,10.875
	S66.631,70.25,60.625,70.25S49.75,65.381,49.75,59.375S54.619,48.5,60.625,48.5z"/>
<path id="top_left_corner" fill="none" stroke="#00A4E4" stroke-width="3" stroke-linejoin="round" stroke-miterlimit="10" d="
	M32,51.5c4.901,0,8.875-3.974,8.875-8.875"/>
<path id="top_right_corner" fill="none" stroke="#00A4E4" stroke-width="3" stroke-linejoin="round" stroke-miterlimit="10" d="
	M79.723,42.625c0,4.901,3.976,8.875,8.875,8.875"/>
<path id="bottom_left_corner" fill="none" stroke="#00A4E4" stroke-width="3" stroke-linejoin="round" stroke-miterlimit="10" d="
	M32,67.125c4.901,0,8.875,3.975,8.875,8.875"/>
<path id="bottom_right_corner" fill="none" stroke="#00A4E4" stroke-width="3" stroke-linejoin="round" stroke-miterlimit="10" d="
	M79.723,76c0-4.9,3.976-8.875,8.875-8.875"/>
<path id="out_square" fill="none" stroke="#00A4E4" stroke-width="4" stroke-miterlimit="10" d="M88.625,75c0,0.553-0.447,1-1,1H33
	c-0.552,0-1-0.447-1-1V43.625c0-0.552,0.448-1,1-1h54.625c0.553,0,1,0.448,1,1V75z"/>
</svg>
