<?xml version="1.0" encoding="utf-8"?>
<!-- Generator: Adobe Illustrator 16.0.0, SVG Export Plug-In . SVG Version: 6.00 Build 0)  -->
<!DOCTYPE svg PUBLIC "-//W3C//DTD SVG 1.1//EN" "http://www.w3.org/Graphics/SVG/1.1/DTD/svg11.dtd">
<svg version="1.1" id="padlock" xmlns="http://www.w3.org/2000/svg" xmlns:xlink="http://www.w3.org/1999/xlink" x="0px" y="0px"
	 width="120px" height="120px" viewBox="0 0 120 120" enable-background="new 0 0 120 120" xml:space="preserve">
<path id="inner" fill="none" stroke="#00A4E4" stroke-width="4" stroke-miterlimit="10" d="M67.684,47.845
	c0-3.746-3.271-6.782-7.309-6.782c-4.036,0-7.308,3.037-7.308,6.782c0,0.054,0,8.322,0,8.322h14.61
	C67.677,56.167,67.684,47.899,67.684,47.845z"/>
<path id="outer" fill="none" stroke="#00A4E4" stroke-width="4" stroke-miterlimit="10" d="M79.333,56.167h-4.349
	c0,0,0.015-7.676,0.015-7.792c0-8.077-6.547-14.624-14.625-14.624c-8.077,0-14.624,6.547-14.624,14.624c0,0.116,0,7.792,0,7.792
	H41.5c-1.104,0-2,0.896-2,2v25.501c0,1.104,0.896,2,2,2h37.833c1.104,0,2-0.896,2-2V58.167
	C81.333,57.062,80.438,56.167,79.333,56.167z"/>
<path id="hole" fill="none" stroke="#00A4E4" stroke-width="4" stroke-miterlimit="10" d="M65.05,68
	c0-2.559-2.075-4.633-4.633-4.633c-2.559,0-4.633,2.074-4.633,4.633c0,1.788,2.123,4.094,2.123,4.094L57.25,78h6.333l-0.677-5.906
	C62.906,72.094,65.05,69.788,65.05,68z"/>
</svg>
